<?xml version="1.0" encoding="utf-8" standalone="no"?>
<!DOCTYPE svg PUBLIC "-//W3C//DTD SVG 1.1//EN"
  "http://www.w3.org/Graphics/SVG/1.1/DTD/svg11.dtd">
<!-- Created with matplotlib (https://matplotlib.org/) -->
<svg height="618.48pt" version="1.1" viewBox="0 0 1284.48 618.48" width="1284.48pt" xmlns="http://www.w3.org/2000/svg" xmlns:xlink="http://www.w3.org/1999/xlink">
 <metadata>
  <rdf:RDF xmlns:cc="http://creativecommons.org/ns#" xmlns:dc="http://purl.org/dc/elements/1.1/" xmlns:rdf="http://www.w3.org/1999/02/22-rdf-syntax-ns#">
   <cc:Work>
    <dc:type rdf:resource="http://purl.org/dc/dcmitype/StillImage"/>
    <dc:date>2025-06-07T17:43:04.429000</dc:date>
    <dc:format>image/svg+xml</dc:format>
    <dc:creator>
     <cc:Agent>
      <dc:title>Matplotlib v3.3.4, https://matplotlib.org/</dc:title>
     </cc:Agent>
    </dc:creator>
   </cc:Work>
  </rdf:RDF>
 </metadata>
 <defs>
  <style type="text/css">*{stroke-linecap:butt;stroke-linejoin:round;}</style>
 </defs>
 <g id="figure_1">
  <g id="patch_1">
   <path d="M 0 618.48 
L 1284.48 618.48 
L 1284.48 0 
L 0 0 
z
" style="fill:#ffffff;"/>
  </g>
  <g id="axes_1">
   <g id="patch_2">
    <path d="M 160.56 550.4472 
L 1094.184 550.4472 
L 1094.184 74.2176 
L 160.56 74.2176 
z
" style="fill:#e6e6e6;"/>
   </g>
   <g id="matplotlib.axis_1">
    <g id="xtick_1">
     <g id="line2d_1"/>
     <g id="text_1">
      <!-- BBR-v3 -->
      <g transform="translate(218.238434 589.844075)rotate(-90)scale(0.1 -0.1)">
       <defs>
        <path d="M 19.671875 34.8125 
L 19.671875 8.109375 
L 35.5 8.109375 
Q 43.453125 8.109375 47.28125 11.40625 
Q 51.125 14.703125 51.125 21.484375 
Q 51.125 28.328125 47.28125 31.5625 
Q 43.453125 34.8125 35.5 34.8125 
z
M 19.671875 64.796875 
L 19.671875 42.828125 
L 34.28125 42.828125 
Q 41.5 42.828125 45.03125 45.53125 
Q 48.578125 48.25 48.578125 53.8125 
Q 48.578125 59.328125 45.03125 62.0625 
Q 41.5 64.796875 34.28125 64.796875 
z
M 9.8125 72.90625 
L 35.015625 72.90625 
Q 46.296875 72.90625 52.390625 68.21875 
Q 58.5 63.53125 58.5 54.890625 
Q 58.5 48.1875 55.375 44.234375 
Q 52.25 40.28125 46.1875 39.3125 
Q 53.46875 37.75 57.5 32.78125 
Q 61.53125 27.828125 61.53125 20.40625 
Q 61.53125 10.640625 54.890625 5.3125 
Q 48.25 0 35.984375 0 
L 9.8125 0 
z
" id="DejaVuSans-66"/>
        <path d="M 44.390625 34.1875 
Q 47.5625 33.109375 50.5625 29.59375 
Q 53.5625 26.078125 56.59375 19.921875 
L 66.609375 0 
L 56 0 
L 46.6875 18.703125 
Q 43.0625 26.03125 39.671875 28.421875 
Q 36.28125 30.8125 30.421875 30.8125 
L 19.671875 30.8125 
L 19.671875 0 
L 9.8125 0 
L 9.8125 72.90625 
L 32.078125 72.90625 
Q 44.578125 72.90625 50.734375 67.671875 
Q 56.890625 62.453125 56.890625 51.90625 
Q 56.890625 45.015625 53.6875 40.46875 
Q 50.484375 35.9375 44.390625 34.1875 
z
M 19.671875 64.796875 
L 19.671875 38.921875 
L 32.078125 38.921875 
Q 39.203125 38.921875 42.84375 42.21875 
Q 46.484375 45.515625 46.484375 51.90625 
Q 46.484375 58.296875 42.84375 61.546875 
Q 39.203125 64.796875 32.078125 64.796875 
z
" id="DejaVuSans-82"/>
        <path d="M 4.890625 31.390625 
L 31.203125 31.390625 
L 31.203125 23.390625 
L 4.890625 23.390625 
z
" id="DejaVuSans-45"/>
        <path d="M 2.984375 54.6875 
L 12.5 54.6875 
L 29.59375 8.796875 
L 46.6875 54.6875 
L 56.203125 54.6875 
L 35.6875 0 
L 23.484375 0 
z
" id="DejaVuSans-118"/>
        <path d="M 40.578125 39.3125 
Q 47.65625 37.796875 51.625 33 
Q 55.609375 28.21875 55.609375 21.1875 
Q 55.609375 10.40625 48.1875 4.484375 
Q 40.765625 -1.421875 27.09375 -1.421875 
Q 22.515625 -1.421875 17.65625 -0.515625 
Q 12.796875 0.390625 7.625 2.203125 
L 7.625 11.71875 
Q 11.71875 9.328125 16.59375 8.109375 
Q 21.484375 6.890625 26.8125 6.890625 
Q 36.078125 6.890625 40.9375 10.546875 
Q 45.796875 14.203125 45.796875 21.1875 
Q 45.796875 27.640625 41.28125 31.265625 
Q 36.765625 34.90625 28.71875 34.90625 
L 20.21875 34.90625 
L 20.21875 43.015625 
L 29.109375 43.015625 
Q 36.375 43.015625 40.234375 45.921875 
Q 44.09375 48.828125 44.09375 54.296875 
Q 44.09375 59.90625 40.109375 62.90625 
Q 36.140625 65.921875 28.71875 65.921875 
Q 24.65625 65.921875 20.015625 65.03125 
Q 15.375 64.15625 9.8125 62.3125 
L 9.8125 71.09375 
Q 15.4375 72.65625 20.34375 73.4375 
Q 25.25 74.21875 29.59375 74.21875 
Q 40.828125 74.21875 47.359375 69.109375 
Q 53.90625 64.015625 53.90625 55.328125 
Q 53.90625 49.265625 50.4375 45.09375 
Q 46.96875 40.921875 40.578125 39.3125 
z
" id="DejaVuSans-51"/>
       </defs>
       <use xlink:href="#DejaVuSans-66"/>
       <use x="68.603516" xlink:href="#DejaVuSans-66"/>
       <use x="137.207031" xlink:href="#DejaVuSans-82"/>
       <use x="202.689453" xlink:href="#DejaVuSans-45"/>
       <use x="236.148438" xlink:href="#DejaVuSans-118"/>
       <use x="295.328125" xlink:href="#DejaVuSans-51"/>
      </g>
     </g>
    </g>
    <g id="xtick_2">
     <g id="line2d_2"/>
     <g id="text_2">
      <!-- Reno -->
      <g transform="translate(273.157493 579.055012)rotate(-90)scale(0.1 -0.1)">
       <defs>
        <path d="M 56.203125 29.59375 
L 56.203125 25.203125 
L 14.890625 25.203125 
Q 15.484375 15.921875 20.484375 11.0625 
Q 25.484375 6.203125 34.421875 6.203125 
Q 39.59375 6.203125 44.453125 7.46875 
Q 49.3125 8.734375 54.109375 11.28125 
L 54.109375 2.78125 
Q 49.265625 0.734375 44.1875 -0.34375 
Q 39.109375 -1.421875 33.890625 -1.421875 
Q 20.796875 -1.421875 13.15625 6.1875 
Q 5.515625 13.8125 5.515625 26.8125 
Q 5.515625 40.234375 12.765625 48.109375 
Q 20.015625 56 32.328125 56 
Q 43.359375 56 49.78125 48.890625 
Q 56.203125 41.796875 56.203125 29.59375 
z
M 47.21875 32.234375 
Q 47.125 39.59375 43.09375 43.984375 
Q 39.0625 48.390625 32.421875 48.390625 
Q 24.90625 48.390625 20.390625 44.140625 
Q 15.875 39.890625 15.1875 32.171875 
z
" id="DejaVuSans-101"/>
        <path d="M 54.890625 33.015625 
L 54.890625 0 
L 45.90625 0 
L 45.90625 32.71875 
Q 45.90625 40.484375 42.875 44.328125 
Q 39.84375 48.1875 33.796875 48.1875 
Q 26.515625 48.1875 22.3125 43.546875 
Q 18.109375 38.921875 18.109375 30.90625 
L 18.109375 0 
L 9.078125 0 
L 9.078125 54.6875 
L 18.109375 54.6875 
L 18.109375 46.1875 
Q 21.34375 51.125 25.703125 53.5625 
Q 30.078125 56 35.796875 56 
Q 45.21875 56 50.046875 50.171875 
Q 54.890625 44.34375 54.890625 33.015625 
z
" id="DejaVuSans-110"/>
        <path d="M 30.609375 48.390625 
Q 23.390625 48.390625 19.1875 42.75 
Q 14.984375 37.109375 14.984375 27.296875 
Q 14.984375 17.484375 19.15625 11.84375 
Q 23.34375 6.203125 30.609375 6.203125 
Q 37.796875 6.203125 41.984375 11.859375 
Q 46.1875 17.53125 46.1875 27.296875 
Q 46.1875 37.015625 41.984375 42.703125 
Q 37.796875 48.390625 30.609375 48.390625 
z
M 30.609375 56 
Q 42.328125 56 49.015625 48.375 
Q 55.71875 40.765625 55.71875 27.296875 
Q 55.71875 13.875 49.015625 6.21875 
Q 42.328125 -1.421875 30.609375 -1.421875 
Q 18.84375 -1.421875 12.171875 6.21875 
Q 5.515625 13.875 5.515625 27.296875 
Q 5.515625 40.765625 12.171875 48.375 
Q 18.84375 56 30.609375 56 
z
" id="DejaVuSans-111"/>
       </defs>
       <use xlink:href="#DejaVuSans-82"/>
       <use x="64.982422" xlink:href="#DejaVuSans-101"/>
       <use x="126.505859" xlink:href="#DejaVuSans-110"/>
       <use x="189.884766" xlink:href="#DejaVuSans-111"/>
      </g>
     </g>
    </g>
    <g id="xtick_3">
     <g id="line2d_3"/>
     <g id="text_3">
      <!-- Cubic -->
      <g transform="translate(328.076551 581.892513)rotate(-90)scale(0.1 -0.1)">
       <defs>
        <path d="M 64.40625 67.28125 
L 64.40625 56.890625 
Q 59.421875 61.53125 53.78125 63.8125 
Q 48.140625 66.109375 41.796875 66.109375 
Q 29.296875 66.109375 22.65625 58.46875 
Q 16.015625 50.828125 16.015625 36.375 
Q 16.015625 21.96875 22.65625 14.328125 
Q 29.296875 6.6875 41.796875 6.6875 
Q 48.140625 6.6875 53.78125 8.984375 
Q 59.421875 11.28125 64.40625 15.921875 
L 64.40625 5.609375 
Q 59.234375 2.09375 53.4375 0.328125 
Q 47.65625 -1.421875 41.21875 -1.421875 
Q 24.65625 -1.421875 15.125 8.703125 
Q 5.609375 18.84375 5.609375 36.375 
Q 5.609375 53.953125 15.125 64.078125 
Q 24.65625 74.21875 41.21875 74.21875 
Q 47.75 74.21875 53.53125 72.484375 
Q 59.328125 70.75 64.40625 67.28125 
z
" id="DejaVuSans-67"/>
        <path d="M 8.5 21.578125 
L 8.5 54.6875 
L 17.484375 54.6875 
L 17.484375 21.921875 
Q 17.484375 14.15625 20.5 10.265625 
Q 23.53125 6.390625 29.59375 6.390625 
Q 36.859375 6.390625 41.078125 11.03125 
Q 45.3125 15.671875 45.3125 23.6875 
L 45.3125 54.6875 
L 54.296875 54.6875 
L 54.296875 0 
L 45.3125 0 
L 45.3125 8.40625 
Q 42.046875 3.421875 37.71875 1 
Q 33.40625 -1.421875 27.6875 -1.421875 
Q 18.265625 -1.421875 13.375 4.4375 
Q 8.5 10.296875 8.5 21.578125 
z
M 31.109375 56 
z
" id="DejaVuSans-117"/>
        <path d="M 48.6875 27.296875 
Q 48.6875 37.203125 44.609375 42.84375 
Q 40.53125 48.484375 33.40625 48.484375 
Q 26.265625 48.484375 22.1875 42.84375 
Q 18.109375 37.203125 18.109375 27.296875 
Q 18.109375 17.390625 22.1875 11.75 
Q 26.265625 6.109375 33.40625 6.109375 
Q 40.53125 6.109375 44.609375 11.75 
Q 48.6875 17.390625 48.6875 27.296875 
z
M 18.109375 46.390625 
Q 20.953125 51.265625 25.265625 53.625 
Q 29.59375 56 35.59375 56 
Q 45.5625 56 51.78125 48.09375 
Q 58.015625 40.1875 58.015625 27.296875 
Q 58.015625 14.40625 51.78125 6.484375 
Q 45.5625 -1.421875 35.59375 -1.421875 
Q 29.59375 -1.421875 25.265625 0.953125 
Q 20.953125 3.328125 18.109375 8.203125 
L 18.109375 0 
L 9.078125 0 
L 9.078125 75.984375 
L 18.109375 75.984375 
z
" id="DejaVuSans-98"/>
        <path d="M 9.421875 54.6875 
L 18.40625 54.6875 
L 18.40625 0 
L 9.421875 0 
z
M 9.421875 75.984375 
L 18.40625 75.984375 
L 18.40625 64.59375 
L 9.421875 64.59375 
z
" id="DejaVuSans-105"/>
        <path d="M 48.78125 52.59375 
L 48.78125 44.1875 
Q 44.96875 46.296875 41.140625 47.34375 
Q 37.3125 48.390625 33.40625 48.390625 
Q 24.65625 48.390625 19.8125 42.84375 
Q 14.984375 37.3125 14.984375 27.296875 
Q 14.984375 17.28125 19.8125 11.734375 
Q 24.65625 6.203125 33.40625 6.203125 
Q 37.3125 6.203125 41.140625 7.25 
Q 44.96875 8.296875 48.78125 10.40625 
L 48.78125 2.09375 
Q 45.015625 0.34375 40.984375 -0.53125 
Q 36.96875 -1.421875 32.421875 -1.421875 
Q 20.0625 -1.421875 12.78125 6.34375 
Q 5.515625 14.109375 5.515625 27.296875 
Q 5.515625 40.671875 12.859375 48.328125 
Q 20.21875 56 33.015625 56 
Q 37.15625 56 41.109375 55.140625 
Q 45.0625 54.296875 48.78125 52.59375 
z
" id="DejaVuSans-99"/>
       </defs>
       <use xlink:href="#DejaVuSans-67"/>
       <use x="69.824219" xlink:href="#DejaVuSans-117"/>
       <use x="133.203125" xlink:href="#DejaVuSans-98"/>
       <use x="196.679688" xlink:href="#DejaVuSans-105"/>
       <use x="224.462891" xlink:href="#DejaVuSans-99"/>
      </g>
     </g>
    </g>
    <g id="xtick_4">
     <g id="line2d_4"/>
     <g id="text_4">
      <!-- Yeah -->
      <g transform="translate(382.99561 577.348763)rotate(-90)scale(0.1 -0.1)">
       <defs>
        <path d="M -0.203125 72.90625 
L 10.40625 72.90625 
L 30.609375 42.921875 
L 50.6875 72.90625 
L 61.28125 72.90625 
L 35.5 34.71875 
L 35.5 0 
L 25.59375 0 
L 25.59375 34.71875 
z
" id="DejaVuSans-89"/>
        <path d="M 34.28125 27.484375 
Q 23.390625 27.484375 19.1875 25 
Q 14.984375 22.515625 14.984375 16.5 
Q 14.984375 11.71875 18.140625 8.90625 
Q 21.296875 6.109375 26.703125 6.109375 
Q 34.1875 6.109375 38.703125 11.40625 
Q 43.21875 16.703125 43.21875 25.484375 
L 43.21875 27.484375 
z
M 52.203125 31.203125 
L 52.203125 0 
L 43.21875 0 
L 43.21875 8.296875 
Q 40.140625 3.328125 35.546875 0.953125 
Q 30.953125 -1.421875 24.3125 -1.421875 
Q 15.921875 -1.421875 10.953125 3.296875 
Q 6 8.015625 6 15.921875 
Q 6 25.140625 12.171875 29.828125 
Q 18.359375 34.515625 30.609375 34.515625 
L 43.21875 34.515625 
L 43.21875 35.40625 
Q 43.21875 41.609375 39.140625 45 
Q 35.0625 48.390625 27.6875 48.390625 
Q 23 48.390625 18.546875 47.265625 
Q 14.109375 46.140625 10.015625 43.890625 
L 10.015625 52.203125 
Q 14.9375 54.109375 19.578125 55.046875 
Q 24.21875 56 28.609375 56 
Q 40.484375 56 46.34375 49.84375 
Q 52.203125 43.703125 52.203125 31.203125 
z
" id="DejaVuSans-97"/>
        <path d="M 54.890625 33.015625 
L 54.890625 0 
L 45.90625 0 
L 45.90625 32.71875 
Q 45.90625 40.484375 42.875 44.328125 
Q 39.84375 48.1875 33.796875 48.1875 
Q 26.515625 48.1875 22.3125 43.546875 
Q 18.109375 38.921875 18.109375 30.90625 
L 18.109375 0 
L 9.078125 0 
L 9.078125 75.984375 
L 18.109375 75.984375 
L 18.109375 46.1875 
Q 21.34375 51.125 25.703125 53.5625 
Q 30.078125 56 35.796875 56 
Q 45.21875 56 50.046875 50.171875 
Q 54.890625 44.34375 54.890625 33.015625 
z
" id="DejaVuSans-104"/>
       </defs>
       <use xlink:href="#DejaVuSans-89"/>
       <use x="47.833984" xlink:href="#DejaVuSans-101"/>
       <use x="109.357422" xlink:href="#DejaVuSans-97"/>
       <use x="170.636719" xlink:href="#DejaVuSans-104"/>
      </g>
     </g>
    </g>
    <g id="xtick_5">
     <g id="line2d_5"/>
     <g id="text_5">
      <!-- Nevada -->
      <g transform="translate(437.914669 592.105013)rotate(-90)scale(0.1 -0.1)">
       <defs>
        <path d="M 9.8125 72.90625 
L 23.09375 72.90625 
L 55.421875 11.921875 
L 55.421875 72.90625 
L 64.984375 72.90625 
L 64.984375 0 
L 51.703125 0 
L 19.390625 60.984375 
L 19.390625 0 
L 9.8125 0 
z
" id="DejaVuSans-78"/>
        <path d="M 45.40625 46.390625 
L 45.40625 75.984375 
L 54.390625 75.984375 
L 54.390625 0 
L 45.40625 0 
L 45.40625 8.203125 
Q 42.578125 3.328125 38.25 0.953125 
Q 33.9375 -1.421875 27.875 -1.421875 
Q 17.96875 -1.421875 11.734375 6.484375 
Q 5.515625 14.40625 5.515625 27.296875 
Q 5.515625 40.1875 11.734375 48.09375 
Q 17.96875 56 27.875 56 
Q 33.9375 56 38.25 53.625 
Q 42.578125 51.265625 45.40625 46.390625 
z
M 14.796875 27.296875 
Q 14.796875 17.390625 18.875 11.75 
Q 22.953125 6.109375 30.078125 6.109375 
Q 37.203125 6.109375 41.296875 11.75 
Q 45.40625 17.390625 45.40625 27.296875 
Q 45.40625 37.203125 41.296875 42.84375 
Q 37.203125 48.484375 30.078125 48.484375 
Q 22.953125 48.484375 18.875 42.84375 
Q 14.796875 37.203125 14.796875 27.296875 
z
" id="DejaVuSans-100"/>
       </defs>
       <use xlink:href="#DejaVuSans-78"/>
       <use x="74.804688" xlink:href="#DejaVuSans-101"/>
       <use x="136.328125" xlink:href="#DejaVuSans-118"/>
       <use x="195.507812" xlink:href="#DejaVuSans-97"/>
       <use x="256.787109" xlink:href="#DejaVuSans-100"/>
       <use x="320.263672" xlink:href="#DejaVuSans-97"/>
      </g>
     </g>
    </g>
    <g id="xtick_6">
     <g id="line2d_6"/>
     <g id="text_6">
      <!-- Veno -->
      <g transform="translate(492.833728 578.6222)rotate(-90)scale(0.1 -0.1)">
       <defs>
        <path d="M 28.609375 0 
L 0.78125 72.90625 
L 11.078125 72.90625 
L 34.1875 11.53125 
L 57.328125 72.90625 
L 67.578125 72.90625 
L 39.796875 0 
z
" id="DejaVuSans-86"/>
       </defs>
       <use xlink:href="#DejaVuSans-86"/>
       <use x="60.658203" xlink:href="#DejaVuSans-101"/>
       <use x="122.181641" xlink:href="#DejaVuSans-110"/>
       <use x="185.560547" xlink:href="#DejaVuSans-111"/>
      </g>
     </g>
    </g>
    <g id="xtick_7">
     <g id="line2d_7"/>
     <g id="text_7">
      <!-- Vegas -->
      <g transform="translate(547.752787 583.851887)rotate(-90)scale(0.1 -0.1)">
       <defs>
        <path d="M 45.40625 27.984375 
Q 45.40625 37.75 41.375 43.109375 
Q 37.359375 48.484375 30.078125 48.484375 
Q 22.859375 48.484375 18.828125 43.109375 
Q 14.796875 37.75 14.796875 27.984375 
Q 14.796875 18.265625 18.828125 12.890625 
Q 22.859375 7.515625 30.078125 7.515625 
Q 37.359375 7.515625 41.375 12.890625 
Q 45.40625 18.265625 45.40625 27.984375 
z
M 54.390625 6.78125 
Q 54.390625 -7.171875 48.1875 -13.984375 
Q 42 -20.796875 29.203125 -20.796875 
Q 24.46875 -20.796875 20.265625 -20.09375 
Q 16.0625 -19.390625 12.109375 -17.921875 
L 12.109375 -9.1875 
Q 16.0625 -11.328125 19.921875 -12.34375 
Q 23.78125 -13.375 27.78125 -13.375 
Q 36.625 -13.375 41.015625 -8.765625 
Q 45.40625 -4.15625 45.40625 5.171875 
L 45.40625 9.625 
Q 42.625 4.78125 38.28125 2.390625 
Q 33.9375 0 27.875 0 
Q 17.828125 0 11.671875 7.65625 
Q 5.515625 15.328125 5.515625 27.984375 
Q 5.515625 40.671875 11.671875 48.328125 
Q 17.828125 56 27.875 56 
Q 33.9375 56 38.28125 53.609375 
Q 42.625 51.21875 45.40625 46.390625 
L 45.40625 54.6875 
L 54.390625 54.6875 
z
" id="DejaVuSans-103"/>
        <path d="M 44.28125 53.078125 
L 44.28125 44.578125 
Q 40.484375 46.53125 36.375 47.5 
Q 32.28125 48.484375 27.875 48.484375 
Q 21.1875 48.484375 17.84375 46.4375 
Q 14.5 44.390625 14.5 40.28125 
Q 14.5 37.15625 16.890625 35.375 
Q 19.28125 33.59375 26.515625 31.984375 
L 29.59375 31.296875 
Q 39.15625 29.25 43.1875 25.515625 
Q 47.21875 21.78125 47.21875 15.09375 
Q 47.21875 7.46875 41.1875 3.015625 
Q 35.15625 -1.421875 24.609375 -1.421875 
Q 20.21875 -1.421875 15.453125 -0.5625 
Q 10.6875 0.296875 5.421875 2 
L 5.421875 11.28125 
Q 10.40625 8.6875 15.234375 7.390625 
Q 20.0625 6.109375 24.8125 6.109375 
Q 31.15625 6.109375 34.5625 8.28125 
Q 37.984375 10.453125 37.984375 14.40625 
Q 37.984375 18.0625 35.515625 20.015625 
Q 33.0625 21.96875 24.703125 23.78125 
L 21.578125 24.515625 
Q 13.234375 26.265625 9.515625 29.90625 
Q 5.8125 33.546875 5.8125 39.890625 
Q 5.8125 47.609375 11.28125 51.796875 
Q 16.75 56 26.8125 56 
Q 31.78125 56 36.171875 55.265625 
Q 40.578125 54.546875 44.28125 53.078125 
z
" id="DejaVuSans-115"/>
       </defs>
       <use xlink:href="#DejaVuSans-86"/>
       <use x="60.658203" xlink:href="#DejaVuSans-101"/>
       <use x="122.181641" xlink:href="#DejaVuSans-103"/>
       <use x="185.658203" xlink:href="#DejaVuSans-97"/>
       <use x="246.9375" xlink:href="#DejaVuSans-115"/>
      </g>
     </g>
    </g>
    <g id="xtick_8">
     <g id="line2d_8"/>
     <g id="text_8">
      <!-- BBR-v3 -->
      <g transform="translate(657.590904 589.844075)rotate(-90)scale(0.1 -0.1)">
       <use xlink:href="#DejaVuSans-66"/>
       <use x="68.603516" xlink:href="#DejaVuSans-66"/>
       <use x="137.207031" xlink:href="#DejaVuSans-82"/>
       <use x="202.689453" xlink:href="#DejaVuSans-45"/>
       <use x="236.148438" xlink:href="#DejaVuSans-118"/>
       <use x="295.328125" xlink:href="#DejaVuSans-51"/>
      </g>
     </g>
    </g>
    <g id="xtick_9">
     <g id="line2d_9"/>
     <g id="text_9">
      <!-- Reno -->
      <g transform="translate(712.509963 579.055012)rotate(-90)scale(0.1 -0.1)">
       <use xlink:href="#DejaVuSans-82"/>
       <use x="64.982422" xlink:href="#DejaVuSans-101"/>
       <use x="126.505859" xlink:href="#DejaVuSans-110"/>
       <use x="189.884766" xlink:href="#DejaVuSans-111"/>
      </g>
     </g>
    </g>
    <g id="xtick_10">
     <g id="line2d_10"/>
     <g id="text_10">
      <!-- Cubic -->
      <g transform="translate(767.429022 581.892513)rotate(-90)scale(0.1 -0.1)">
       <use xlink:href="#DejaVuSans-67"/>
       <use x="69.824219" xlink:href="#DejaVuSans-117"/>
       <use x="133.203125" xlink:href="#DejaVuSans-98"/>
       <use x="196.679688" xlink:href="#DejaVuSans-105"/>
       <use x="224.462891" xlink:href="#DejaVuSans-99"/>
      </g>
     </g>
    </g>
    <g id="xtick_11">
     <g id="line2d_11"/>
     <g id="text_11">
      <!-- Yeah -->
      <g transform="translate(822.348081 577.348763)rotate(-90)scale(0.1 -0.1)">
       <use xlink:href="#DejaVuSans-89"/>
       <use x="47.833984" xlink:href="#DejaVuSans-101"/>
       <use x="109.357422" xlink:href="#DejaVuSans-97"/>
       <use x="170.636719" xlink:href="#DejaVuSans-104"/>
      </g>
     </g>
    </g>
    <g id="xtick_12">
     <g id="line2d_12"/>
     <g id="text_12">
      <!-- Nevada -->
      <g transform="translate(877.26714 592.105013)rotate(-90)scale(0.1 -0.1)">
       <use xlink:href="#DejaVuSans-78"/>
       <use x="74.804688" xlink:href="#DejaVuSans-101"/>
       <use x="136.328125" xlink:href="#DejaVuSans-118"/>
       <use x="195.507812" xlink:href="#DejaVuSans-97"/>
       <use x="256.787109" xlink:href="#DejaVuSans-100"/>
       <use x="320.263672" xlink:href="#DejaVuSans-97"/>
      </g>
     </g>
    </g>
    <g id="xtick_13">
     <g id="line2d_13"/>
     <g id="text_13">
      <!-- Veno -->
      <g transform="translate(932.186199 578.6222)rotate(-90)scale(0.1 -0.1)">
       <use xlink:href="#DejaVuSans-86"/>
       <use x="60.658203" xlink:href="#DejaVuSans-101"/>
       <use x="122.181641" xlink:href="#DejaVuSans-110"/>
       <use x="185.560547" xlink:href="#DejaVuSans-111"/>
      </g>
     </g>
    </g>
    <g id="xtick_14">
     <g id="line2d_14"/>
     <g id="text_14">
      <!-- Vegas -->
      <g transform="translate(987.105257 583.851887)rotate(-90)scale(0.1 -0.1)">
       <use xlink:href="#DejaVuSans-86"/>
       <use x="60.658203" xlink:href="#DejaVuSans-101"/>
       <use x="122.181641" xlink:href="#DejaVuSans-103"/>
       <use x="185.658203" xlink:href="#DejaVuSans-97"/>
       <use x="246.9375" xlink:href="#DejaVuSans-115"/>
      </g>
     </g>
    </g>
    <g id="xtick_15">
     <g id="line2d_15"/>
     <g id="text_15">
      <!-- DCTCP -->
      <g transform="translate(1042.024316 587.162825)rotate(-90)scale(0.1 -0.1)">
       <defs>
        <path d="M 19.671875 64.796875 
L 19.671875 8.109375 
L 31.59375 8.109375 
Q 46.6875 8.109375 53.6875 14.9375 
Q 60.6875 21.78125 60.6875 36.53125 
Q 60.6875 51.171875 53.6875 57.984375 
Q 46.6875 64.796875 31.59375 64.796875 
z
M 9.8125 72.90625 
L 30.078125 72.90625 
Q 51.265625 72.90625 61.171875 64.09375 
Q 71.09375 55.28125 71.09375 36.53125 
Q 71.09375 17.671875 61.125 8.828125 
Q 51.171875 0 30.078125 0 
L 9.8125 0 
z
" id="DejaVuSans-68"/>
        <path d="M -0.296875 72.90625 
L 61.375 72.90625 
L 61.375 64.59375 
L 35.5 64.59375 
L 35.5 0 
L 25.59375 0 
L 25.59375 64.59375 
L -0.296875 64.59375 
z
" id="DejaVuSans-84"/>
        <path d="M 19.671875 64.796875 
L 19.671875 37.40625 
L 32.078125 37.40625 
Q 38.96875 37.40625 42.71875 40.96875 
Q 46.484375 44.53125 46.484375 51.125 
Q 46.484375 57.671875 42.71875 61.234375 
Q 38.96875 64.796875 32.078125 64.796875 
z
M 9.8125 72.90625 
L 32.078125 72.90625 
Q 44.34375 72.90625 50.609375 67.359375 
Q 56.890625 61.8125 56.890625 51.125 
Q 56.890625 40.328125 50.609375 34.8125 
Q 44.34375 29.296875 32.078125 29.296875 
L 19.671875 29.296875 
L 19.671875 0 
L 9.8125 0 
z
" id="DejaVuSans-80"/>
       </defs>
       <use xlink:href="#DejaVuSans-68"/>
       <use x="77.001953" xlink:href="#DejaVuSans-67"/>
       <use x="146.826172" xlink:href="#DejaVuSans-84"/>
       <use x="202.035156" xlink:href="#DejaVuSans-67"/>
       <use x="271.859375" xlink:href="#DejaVuSans-80"/>
      </g>
     </g>
    </g>
   </g>
   <g id="matplotlib.axis_2">
    <g id="ytick_1">
     <g id="line2d_16"/>
     <g id="text_16">
      <!-- 0 -->
      <g transform="translate(150.6975 550.476726)scale(0.1 -0.1)">
       <defs>
        <path d="M 31.78125 66.40625 
Q 24.171875 66.40625 20.328125 58.90625 
Q 16.5 51.421875 16.5 36.375 
Q 16.5 21.390625 20.328125 13.890625 
Q 24.171875 6.390625 31.78125 6.390625 
Q 39.453125 6.390625 43.28125 13.890625 
Q 47.125 21.390625 47.125 36.375 
Q 47.125 51.421875 43.28125 58.90625 
Q 39.453125 66.40625 31.78125 66.40625 
z
M 31.78125 74.21875 
Q 44.046875 74.21875 50.515625 64.515625 
Q 56.984375 54.828125 56.984375 36.375 
Q 56.984375 17.96875 50.515625 8.265625 
Q 44.046875 -1.421875 31.78125 -1.421875 
Q 19.53125 -1.421875 13.0625 8.265625 
Q 6.59375 17.96875 6.59375 36.375 
Q 6.59375 54.828125 13.0625 64.515625 
Q 19.53125 74.21875 31.78125 74.21875 
z
" id="DejaVuSans-48"/>
       </defs>
       <use xlink:href="#DejaVuSans-48"/>
      </g>
     </g>
    </g>
    <g id="ytick_2">
     <g id="line2d_17"/>
     <g id="text_17">
      <!-- 10 -->
      <g transform="translate(144.335 483.370408)scale(0.1 -0.1)">
       <defs>
        <path d="M 12.40625 8.296875 
L 28.515625 8.296875 
L 28.515625 63.921875 
L 10.984375 60.40625 
L 10.984375 69.390625 
L 28.421875 72.90625 
L 38.28125 72.90625 
L 38.28125 8.296875 
L 54.390625 8.296875 
L 54.390625 0 
L 12.40625 0 
z
" id="DejaVuSans-49"/>
       </defs>
       <use xlink:href="#DejaVuSans-49"/>
       <use x="63.623047" xlink:href="#DejaVuSans-48"/>
      </g>
     </g>
    </g>
    <g id="ytick_3">
     <g id="line2d_18"/>
     <g id="text_18">
      <!-- 20 -->
      <g transform="translate(144.335 416.26409)scale(0.1 -0.1)">
       <defs>
        <path d="M 19.1875 8.296875 
L 53.609375 8.296875 
L 53.609375 0 
L 7.328125 0 
L 7.328125 8.296875 
Q 12.9375 14.109375 22.625 23.890625 
Q 32.328125 33.6875 34.8125 36.53125 
Q 39.546875 41.84375 41.421875 45.53125 
Q 43.3125 49.21875 43.3125 52.78125 
Q 43.3125 58.59375 39.234375 62.25 
Q 35.15625 65.921875 28.609375 65.921875 
Q 23.96875 65.921875 18.8125 64.3125 
Q 13.671875 62.703125 7.8125 59.421875 
L 7.8125 69.390625 
Q 13.765625 71.78125 18.9375 73 
Q 24.125 74.21875 28.421875 74.21875 
Q 39.75 74.21875 46.484375 68.546875 
Q 53.21875 62.890625 53.21875 53.421875 
Q 53.21875 48.921875 51.53125 44.890625 
Q 49.859375 40.875 45.40625 35.40625 
Q 44.1875 33.984375 37.640625 27.21875 
Q 31.109375 20.453125 19.1875 8.296875 
z
" id="DejaVuSans-50"/>
       </defs>
       <use xlink:href="#DejaVuSans-50"/>
       <use x="63.623047" xlink:href="#DejaVuSans-48"/>
      </g>
     </g>
    </g>
    <g id="ytick_4">
     <g id="line2d_19"/>
     <g id="text_19">
      <!-- 30 -->
      <g transform="translate(144.335 349.157771)scale(0.1 -0.1)">
       <use xlink:href="#DejaVuSans-51"/>
       <use x="63.623047" xlink:href="#DejaVuSans-48"/>
      </g>
     </g>
    </g>
    <g id="ytick_5">
     <g id="line2d_20"/>
     <g id="text_20">
      <!-- 40 -->
      <g transform="translate(144.335 282.051453)scale(0.1 -0.1)">
       <defs>
        <path d="M 37.796875 64.3125 
L 12.890625 25.390625 
L 37.796875 25.390625 
z
M 35.203125 72.90625 
L 47.609375 72.90625 
L 47.609375 25.390625 
L 58.015625 25.390625 
L 58.015625 17.1875 
L 47.609375 17.1875 
L 47.609375 0 
L 37.796875 0 
L 37.796875 17.1875 
L 4.890625 17.1875 
L 4.890625 26.703125 
z
" id="DejaVuSans-52"/>
       </defs>
       <use xlink:href="#DejaVuSans-52"/>
       <use x="63.623047" xlink:href="#DejaVuSans-48"/>
      </g>
     </g>
    </g>
    <g id="ytick_6">
     <g id="line2d_21"/>
     <g id="text_21">
      <!-- 50 -->
      <g transform="translate(144.335 214.945135)scale(0.1 -0.1)">
       <defs>
        <path d="M 10.796875 72.90625 
L 49.515625 72.90625 
L 49.515625 64.59375 
L 19.828125 64.59375 
L 19.828125 46.734375 
Q 21.96875 47.46875 24.109375 47.828125 
Q 26.265625 48.1875 28.421875 48.1875 
Q 40.625 48.1875 47.75 41.5 
Q 54.890625 34.8125 54.890625 23.390625 
Q 54.890625 11.625 47.5625 5.09375 
Q 40.234375 -1.421875 26.90625 -1.421875 
Q 22.3125 -1.421875 17.546875 -0.640625 
Q 12.796875 0.140625 7.71875 1.703125 
L 7.71875 11.625 
Q 12.109375 9.234375 16.796875 8.0625 
Q 21.484375 6.890625 26.703125 6.890625 
Q 35.15625 6.890625 40.078125 11.328125 
Q 45.015625 15.765625 45.015625 23.390625 
Q 45.015625 31 40.078125 35.4375 
Q 35.15625 39.890625 26.703125 39.890625 
Q 22.75 39.890625 18.8125 39.015625 
Q 14.890625 38.140625 10.796875 36.28125 
z
" id="DejaVuSans-53"/>
       </defs>
       <use xlink:href="#DejaVuSans-53"/>
       <use x="63.623047" xlink:href="#DejaVuSans-48"/>
      </g>
     </g>
    </g>
    <g id="ytick_7">
     <g id="line2d_22"/>
     <g id="text_22">
      <!-- 60 -->
      <g transform="translate(144.335 147.838817)scale(0.1 -0.1)">
       <defs>
        <path d="M 33.015625 40.375 
Q 26.375 40.375 22.484375 35.828125 
Q 18.609375 31.296875 18.609375 23.390625 
Q 18.609375 15.53125 22.484375 10.953125 
Q 26.375 6.390625 33.015625 6.390625 
Q 39.65625 6.390625 43.53125 10.953125 
Q 47.40625 15.53125 47.40625 23.390625 
Q 47.40625 31.296875 43.53125 35.828125 
Q 39.65625 40.375 33.015625 40.375 
z
M 52.59375 71.296875 
L 52.59375 62.3125 
Q 48.875 64.0625 45.09375 64.984375 
Q 41.3125 65.921875 37.59375 65.921875 
Q 27.828125 65.921875 22.671875 59.328125 
Q 17.53125 52.734375 16.796875 39.40625 
Q 19.671875 43.65625 24.015625 45.921875 
Q 28.375 48.1875 33.59375 48.1875 
Q 44.578125 48.1875 50.953125 41.515625 
Q 57.328125 34.859375 57.328125 23.390625 
Q 57.328125 12.15625 50.6875 5.359375 
Q 44.046875 -1.421875 33.015625 -1.421875 
Q 20.359375 -1.421875 13.671875 8.265625 
Q 6.984375 17.96875 6.984375 36.375 
Q 6.984375 53.65625 15.1875 63.9375 
Q 23.390625 74.21875 37.203125 74.21875 
Q 40.921875 74.21875 44.703125 73.484375 
Q 48.484375 72.75 52.59375 71.296875 
z
" id="DejaVuSans-54"/>
       </defs>
       <use xlink:href="#DejaVuSans-54"/>
       <use x="63.623047" xlink:href="#DejaVuSans-48"/>
      </g>
     </g>
    </g>
    <g id="ytick_8">
     <g id="line2d_23"/>
     <g id="text_23">
      <!-- 70 -->
      <g transform="translate(144.335 80.732498)scale(0.1 -0.1)">
       <defs>
        <path d="M 8.203125 72.90625 
L 55.078125 72.90625 
L 55.078125 68.703125 
L 28.609375 0 
L 18.3125 0 
L 43.21875 64.59375 
L 8.203125 64.59375 
z
" id="DejaVuSans-55"/>
       </defs>
       <use xlink:href="#DejaVuSans-55"/>
       <use x="63.623047" xlink:href="#DejaVuSans-48"/>
      </g>
     </g>
    </g>
    <g id="ytick_9">
     <g id="line2d_24"/>
    </g>
    <g id="ytick_10">
     <g id="line2d_25"/>
    </g>
    <g id="ytick_11">
     <g id="line2d_26"/>
    </g>
    <g id="ytick_12">
     <g id="line2d_27"/>
    </g>
    <g id="ytick_13">
     <g id="line2d_28"/>
    </g>
    <g id="ytick_14">
     <g id="line2d_29"/>
    </g>
    <g id="ytick_15">
     <g id="line2d_30"/>
    </g>
    <g id="ytick_16">
     <g id="line2d_31"/>
    </g>
    <g id="ytick_17">
     <g id="line2d_32"/>
    </g>
    <g id="ytick_18">
     <g id="line2d_33"/>
    </g>
    <g id="ytick_19">
     <g id="line2d_34"/>
    </g>
    <g id="ytick_20">
     <g id="line2d_35"/>
    </g>
    <g id="ytick_21">
     <g id="line2d_36"/>
    </g>
    <g id="ytick_22">
     <g id="line2d_37"/>
    </g>
    <g id="ytick_23">
     <g id="line2d_38"/>
    </g>
    <g id="ytick_24">
     <g id="line2d_39"/>
    </g>
    <g id="ytick_25">
     <g id="line2d_40"/>
    </g>
    <g id="ytick_26">
     <g id="line2d_41"/>
    </g>
    <g id="ytick_27">
     <g id="line2d_42"/>
    </g>
    <g id="ytick_28">
     <g id="line2d_43"/>
    </g>
    <g id="ytick_29">
     <g id="line2d_44"/>
    </g>
    <g id="ytick_30">
     <g id="line2d_45"/>
    </g>
    <g id="ytick_31">
     <g id="line2d_46"/>
    </g>
    <g id="ytick_32">
     <g id="line2d_47"/>
    </g>
    <g id="ytick_33">
     <g id="line2d_48"/>
    </g>
    <g id="ytick_34">
     <g id="line2d_49"/>
    </g>
    <g id="ytick_35">
     <g id="line2d_50"/>
    </g>
    <g id="ytick_36">
     <g id="line2d_51"/>
    </g>
    <g id="text_24">
     <!-- Mbits/s -->
     <g transform="translate(138.255313 330.06365)rotate(-90)scale(0.1 -0.1)">
      <defs>
       <path d="M 9.8125 72.90625 
L 24.515625 72.90625 
L 43.109375 23.296875 
L 61.8125 72.90625 
L 76.515625 72.90625 
L 76.515625 0 
L 66.890625 0 
L 66.890625 64.015625 
L 48.09375 14.015625 
L 38.1875 14.015625 
L 19.390625 64.015625 
L 19.390625 0 
L 9.8125 0 
z
" id="DejaVuSans-77"/>
       <path d="M 18.3125 70.21875 
L 18.3125 54.6875 
L 36.8125 54.6875 
L 36.8125 47.703125 
L 18.3125 47.703125 
L 18.3125 18.015625 
Q 18.3125 11.328125 20.140625 9.421875 
Q 21.96875 7.515625 27.59375 7.515625 
L 36.8125 7.515625 
L 36.8125 0 
L 27.59375 0 
Q 17.1875 0 13.234375 3.875 
Q 9.28125 7.765625 9.28125 18.015625 
L 9.28125 47.703125 
L 2.6875 47.703125 
L 2.6875 54.6875 
L 9.28125 54.6875 
L 9.28125 70.21875 
z
" id="DejaVuSans-116"/>
       <path d="M 25.390625 72.90625 
L 33.6875 72.90625 
L 8.296875 -9.28125 
L 0 -9.28125 
z
" id="DejaVuSans-47"/>
      </defs>
      <use xlink:href="#DejaVuSans-77"/>
      <use x="86.279297" xlink:href="#DejaVuSans-98"/>
      <use x="149.755859" xlink:href="#DejaVuSans-105"/>
      <use x="177.539062" xlink:href="#DejaVuSans-116"/>
      <use x="216.748047" xlink:href="#DejaVuSans-115"/>
      <use x="268.847656" xlink:href="#DejaVuSans-47"/>
      <use x="302.539062" xlink:href="#DejaVuSans-115"/>
     </g>
    </g>
   </g>
   <g id="line2d_52">
    <path clip-path="url(#p66369e4bbb)" d="M 201.749294 449.171012 
L 229.208824 449.171012 
L 229.208824 365.229721 
L 201.749294 365.229721 
L 201.749294 449.171012 
" style="fill:none;stroke:#1b9e77;stroke-linecap:round;"/>
   </g>
   <g id="line2d_53">
    <path clip-path="url(#p66369e4bbb)" d="M 215.479059 449.171012 
L 215.479059 538.899236 
" style="fill:none;stroke:#1b9e77;stroke-linecap:round;"/>
   </g>
   <g id="line2d_54">
    <path clip-path="url(#p66369e4bbb)" d="M 215.479059 365.229721 
L 215.479059 289.413768 
" style="fill:none;stroke:#1b9e77;stroke-linecap:round;"/>
   </g>
   <g id="line2d_55">
    <path clip-path="url(#p66369e4bbb)" d="M 208.614176 538.899236 
L 222.343941 538.899236 
" style="fill:none;stroke:#1b9e77;stroke-linecap:round;"/>
   </g>
   <g id="line2d_56">
    <path clip-path="url(#p66369e4bbb)" d="M 208.614176 289.413768 
L 222.343941 289.413768 
" style="fill:none;stroke:#1b9e77;stroke-linecap:round;"/>
   </g>
   <g id="line2d_57">
    <defs>
     <path d="M -3 0 
L 3 0 
M 0 3 
L 0 -3 
" id="md74b40da6f" style="stroke:#1b9e77;"/>
    </defs>
    <g clip-path="url(#p66369e4bbb)">
     <use style="fill:#0000ff;stroke:#1b9e77;" x="215.479059" xlink:href="#md74b40da6f" y="78.886518"/>
    </g>
   </g>
   <g id="line2d_58">
    <path clip-path="url(#p66369e4bbb)" d="M 256.668353 530.681716 
L 284.127882 530.681716 
L 284.127882 507.731063 
L 256.668353 507.731063 
L 256.668353 530.681716 
" style="fill:none;stroke:#d95f02;stroke-linecap:round;"/>
   </g>
   <g id="line2d_59">
    <path clip-path="url(#p66369e4bbb)" d="M 270.398118 530.681716 
L 270.398118 540.004533 
" style="fill:none;stroke:#d95f02;stroke-linecap:round;"/>
   </g>
   <g id="line2d_60">
    <path clip-path="url(#p66369e4bbb)" d="M 270.398118 507.731063 
L 270.398118 477.282361 
" style="fill:none;stroke:#d95f02;stroke-linecap:round;"/>
   </g>
   <g id="line2d_61">
    <path clip-path="url(#p66369e4bbb)" d="M 263.533235 540.004533 
L 277.263 540.004533 
" style="fill:none;stroke:#d95f02;stroke-linecap:round;"/>
   </g>
   <g id="line2d_62">
    <path clip-path="url(#p66369e4bbb)" d="M 263.533235 477.282361 
L 277.263 477.282361 
" style="fill:none;stroke:#d95f02;stroke-linecap:round;"/>
   </g>
   <g id="line2d_63">
    <defs>
     <path d="M -3 0 
L 3 0 
M 0 3 
L 0 -3 
" id="mc9073a5587" style="stroke:#d95f02;"/>
    </defs>
    <g clip-path="url(#p66369e4bbb)">
     <use style="fill:#0000ff;stroke:#d95f02;" x="270.398118" xlink:href="#mc9073a5587" y="348.719236"/>
     <use style="fill:#0000ff;stroke:#d95f02;" x="270.398118" xlink:href="#mc9073a5587" y="267.141654"/>
     <use style="fill:#0000ff;stroke:#d95f02;" x="270.398118" xlink:href="#mc9073a5587" y="309.812336"/>
     <use style="fill:#0000ff;stroke:#d95f02;" x="270.398118" xlink:href="#mc9073a5587" y="350.20656"/>
     <use style="fill:#0000ff;stroke:#d95f02;" x="270.398118" xlink:href="#mc9073a5587" y="299.131431"/>
     <use style="fill:#0000ff;stroke:#d95f02;" x="270.398118" xlink:href="#mc9073a5587" y="449.814596"/>
     <use style="fill:#0000ff;stroke:#d95f02;" x="270.398118" xlink:href="#mc9073a5587" y="459.211123"/>
     <use style="fill:#0000ff;stroke:#d95f02;" x="270.398118" xlink:href="#mc9073a5587" y="468.607661"/>
     <use style="fill:#0000ff;stroke:#d95f02;" x="270.398118" xlink:href="#mc9073a5587" y="371.559969"/>
     <use style="fill:#0000ff;stroke:#d95f02;" x="270.398118" xlink:href="#mc9073a5587" y="368.179606"/>
     <use style="fill:#0000ff;stroke:#d95f02;" x="270.398118" xlink:href="#mc9073a5587" y="364.799247"/>
     <use style="fill:#0000ff;stroke:#d95f02;" x="270.398118" xlink:href="#mc9073a5587" y="328.59144"/>
     <use style="fill:#0000ff;stroke:#d95f02;" x="270.398118" xlink:href="#mc9073a5587" y="289.097294"/>
    </g>
   </g>
   <g id="line2d_64">
    <path clip-path="url(#p66369e4bbb)" d="M 311.587412 526.662637 
L 339.046941 526.662637 
L 339.046941 404.584996 
L 311.587412 404.584996 
L 311.587412 526.662637 
" style="fill:none;stroke:#7570b3;stroke-linecap:round;"/>
   </g>
   <g id="line2d_65">
    <path clip-path="url(#p66369e4bbb)" d="M 325.317176 526.662637 
L 325.317176 542.566363 
" style="fill:none;stroke:#7570b3;stroke-linecap:round;"/>
   </g>
   <g id="line2d_66">
    <path clip-path="url(#p66369e4bbb)" d="M 325.317176 404.584996 
L 325.317176 306.239192 
" style="fill:none;stroke:#7570b3;stroke-linecap:round;"/>
   </g>
   <g id="line2d_67">
    <path clip-path="url(#p66369e4bbb)" d="M 318.452294 542.566363 
L 332.182059 542.566363 
" style="fill:none;stroke:#7570b3;stroke-linecap:round;"/>
   </g>
   <g id="line2d_68">
    <path clip-path="url(#p66369e4bbb)" d="M 318.452294 306.239192 
L 332.182059 306.239192 
" style="fill:none;stroke:#7570b3;stroke-linecap:round;"/>
   </g>
   <g id="line2d_69"/>
   <g id="line2d_70">
    <path clip-path="url(#p66369e4bbb)" d="M 366.506471 483.771299 
L 393.966 483.771299 
L 393.966 434.157242 
L 366.506471 434.157242 
L 366.506471 483.771299 
" style="fill:none;stroke:#e7298a;stroke-linecap:round;"/>
   </g>
   <g id="line2d_71">
    <path clip-path="url(#p66369e4bbb)" d="M 380.236235 483.771299 
L 380.236235 532.296075 
" style="fill:none;stroke:#e7298a;stroke-linecap:round;"/>
   </g>
   <g id="line2d_72">
    <path clip-path="url(#p66369e4bbb)" d="M 380.236235 434.157242 
L 380.236235 384.750227 
" style="fill:none;stroke:#e7298a;stroke-linecap:round;"/>
   </g>
   <g id="line2d_73">
    <path clip-path="url(#p66369e4bbb)" d="M 373.371353 532.296075 
L 387.101118 532.296075 
" style="fill:none;stroke:#e7298a;stroke-linecap:round;"/>
   </g>
   <g id="line2d_74">
    <path clip-path="url(#p66369e4bbb)" d="M 373.371353 384.750227 
L 387.101118 384.750227 
" style="fill:none;stroke:#e7298a;stroke-linecap:round;"/>
   </g>
   <g id="line2d_75">
    <defs>
     <path d="M -3 0 
L 3 0 
M 0 3 
L 0 -3 
" id="m94a1baa7bf" style="stroke:#e7298a;"/>
    </defs>
    <g clip-path="url(#p66369e4bbb)">
     <use style="fill:#0000ff;stroke:#e7298a;" x="380.236235" xlink:href="#m94a1baa7bf" y="249.464052"/>
     <use style="fill:#0000ff;stroke:#e7298a;" x="380.236235" xlink:href="#m94a1baa7bf" y="250.18968"/>
     <use style="fill:#0000ff;stroke:#e7298a;" x="380.236235" xlink:href="#m94a1baa7bf" y="299.804988"/>
     <use style="fill:#0000ff;stroke:#e7298a;" x="380.236235" xlink:href="#m94a1baa7bf" y="347.827272"/>
    </g>
   </g>
   <g id="line2d_76">
    <path clip-path="url(#p66369e4bbb)" d="M 421.425529 470.866947 
L 448.885059 470.866947 
L 448.885059 435.806711 
L 421.425529 435.806711 
L 421.425529 470.866947 
" style="fill:none;stroke:#66a61e;stroke-linecap:round;"/>
   </g>
   <g id="line2d_77">
    <path clip-path="url(#p66369e4bbb)" d="M 435.155294 470.866947 
L 435.155294 514.289779 
" style="fill:none;stroke:#66a61e;stroke-linecap:round;"/>
   </g>
   <g id="line2d_78">
    <path clip-path="url(#p66369e4bbb)" d="M 435.155294 435.806711 
L 435.155294 391.293043 
" style="fill:none;stroke:#66a61e;stroke-linecap:round;"/>
   </g>
   <g id="line2d_79">
    <path clip-path="url(#p66369e4bbb)" d="M 428.290412 514.289779 
L 442.020176 514.289779 
" style="fill:none;stroke:#66a61e;stroke-linecap:round;"/>
   </g>
   <g id="line2d_80">
    <path clip-path="url(#p66369e4bbb)" d="M 428.290412 391.293043 
L 442.020176 391.293043 
" style="fill:none;stroke:#66a61e;stroke-linecap:round;"/>
   </g>
   <g id="line2d_81">
    <defs>
     <path d="M -3 0 
L 3 0 
M 0 3 
L 0 -3 
" id="m18336f2695" style="stroke:#66a61e;"/>
    </defs>
    <g clip-path="url(#p66369e4bbb)">
     <use style="fill:#0000ff;stroke:#66a61e;" x="435.155294" xlink:href="#m18336f2695" y="370.271484"/>
     <use style="fill:#0000ff;stroke:#66a61e;" x="435.155294" xlink:href="#m18336f2695" y="314.918254"/>
     <use style="fill:#0000ff;stroke:#66a61e;" x="435.155294" xlink:href="#m18336f2695" y="351.789692"/>
    </g>
   </g>
   <g id="line2d_82">
    <path clip-path="url(#p66369e4bbb)" d="M 476.344588 519.155473 
L 503.804118 519.155473 
L 503.804118 484.265956 
L 476.344588 484.265956 
L 476.344588 519.155473 
" style="fill:none;stroke:#e6ab02;stroke-linecap:round;"/>
   </g>
   <g id="line2d_83">
    <path clip-path="url(#p66369e4bbb)" d="M 490.074353 519.155473 
L 490.074353 531.489104 
" style="fill:none;stroke:#e6ab02;stroke-linecap:round;"/>
   </g>
   <g id="line2d_84">
    <path clip-path="url(#p66369e4bbb)" d="M 490.074353 484.265956 
L 490.074353 436.733715 
" style="fill:none;stroke:#e6ab02;stroke-linecap:round;"/>
   </g>
   <g id="line2d_85">
    <path clip-path="url(#p66369e4bbb)" d="M 483.209471 531.489104 
L 496.939235 531.489104 
" style="fill:none;stroke:#e6ab02;stroke-linecap:round;"/>
   </g>
   <g id="line2d_86">
    <path clip-path="url(#p66369e4bbb)" d="M 483.209471 436.733715 
L 496.939235 436.733715 
" style="fill:none;stroke:#e6ab02;stroke-linecap:round;"/>
   </g>
   <g id="line2d_87">
    <defs>
     <path d="M -3 0 
L 3 0 
M 0 3 
L 0 -3 
" id="m54614fa327" style="stroke:#e6ab02;"/>
    </defs>
    <g clip-path="url(#p66369e4bbb)">
     <use style="fill:#0000ff;stroke:#e6ab02;" x="490.074353" xlink:href="#m54614fa327" y="300.4433"/>
     <use style="fill:#0000ff;stroke:#e6ab02;" x="490.074353" xlink:href="#m54614fa327" y="160.713656"/>
     <use style="fill:#0000ff;stroke:#e6ab02;" x="490.074353" xlink:href="#m54614fa327" y="334.688191"/>
     <use style="fill:#0000ff;stroke:#e6ab02;" x="490.074353" xlink:href="#m54614fa327" y="353.624344"/>
     <use style="fill:#0000ff;stroke:#e6ab02;" x="490.074353" xlink:href="#m54614fa327" y="236.551751"/>
     <use style="fill:#0000ff;stroke:#e6ab02;" x="490.074353" xlink:href="#m54614fa327" y="295.227438"/>
     <use style="fill:#0000ff;stroke:#e6ab02;" x="490.074353" xlink:href="#m54614fa327" y="353.903196"/>
     <use style="fill:#0000ff;stroke:#e6ab02;" x="490.074353" xlink:href="#m54614fa327" y="403.288569"/>
     <use style="fill:#0000ff;stroke:#e6ab02;" x="490.074353" xlink:href="#m54614fa327" y="399.394361"/>
     <use style="fill:#0000ff;stroke:#e6ab02;" x="490.074353" xlink:href="#m54614fa327" y="427.630849"/>
     <use style="fill:#0000ff;stroke:#e6ab02;" x="490.074353" xlink:href="#m54614fa327" y="405.056251"/>
     <use style="fill:#0000ff;stroke:#e6ab02;" x="490.074353" xlink:href="#m54614fa327" y="367.082801"/>
     <use style="fill:#0000ff;stroke:#e6ab02;" x="490.074353" xlink:href="#m54614fa327" y="431.890043"/>
    </g>
   </g>
   <g id="line2d_88">
    <path clip-path="url(#p66369e4bbb)" d="M 531.263647 544.987115 
L 558.723176 544.987115 
L 558.723176 542.141476 
L 531.263647 542.141476 
L 531.263647 544.987115 
" style="fill:none;stroke:#a6761d;stroke-linecap:round;"/>
   </g>
   <g id="line2d_89">
    <path clip-path="url(#p66369e4bbb)" d="M 544.993412 544.987115 
L 544.993412 545.778282 
" style="fill:none;stroke:#a6761d;stroke-linecap:round;"/>
   </g>
   <g id="line2d_90">
    <path clip-path="url(#p66369e4bbb)" d="M 544.993412 542.141476 
L 544.993412 539.24012 
" style="fill:none;stroke:#a6761d;stroke-linecap:round;"/>
   </g>
   <g id="line2d_91">
    <path clip-path="url(#p66369e4bbb)" d="M 538.128529 545.778282 
L 551.858294 545.778282 
" style="fill:none;stroke:#a6761d;stroke-linecap:round;"/>
   </g>
   <g id="line2d_92">
    <path clip-path="url(#p66369e4bbb)" d="M 538.128529 539.24012 
L 551.858294 539.24012 
" style="fill:none;stroke:#a6761d;stroke-linecap:round;"/>
   </g>
   <g id="line2d_93">
    <defs>
     <path d="M -3 0 
L 3 0 
M 0 3 
L 0 -3 
" id="m2b90a9f210" style="stroke:#a6761d;"/>
    </defs>
    <g clip-path="url(#p66369e4bbb)">
     <use style="fill:#0000ff;stroke:#a6761d;" x="544.993412" xlink:href="#m2b90a9f210" y="534.263312"/>
     <use style="fill:#0000ff;stroke:#a6761d;" x="544.993412" xlink:href="#m2b90a9f210" y="535.056072"/>
     <use style="fill:#0000ff;stroke:#a6761d;" x="544.993412" xlink:href="#m2b90a9f210" y="535.848832"/>
     <use style="fill:#0000ff;stroke:#a6761d;" x="544.993412" xlink:href="#m2b90a9f210" y="534.066386"/>
    </g>
   </g>
   <g id="line2d_94">
    <path clip-path="url(#p66369e4bbb)" d="M 599.912471 550.4472 
L 599.912471 74.2176 
" style="fill:none;stroke:#000000;stroke-dasharray:0.5,0.825;stroke-dashoffset:0;stroke-width:0.5;"/>
   </g>
   <g id="line2d_95">
    <path clip-path="url(#p66369e4bbb)" d="M 201.749294 395.178527 
L 229.208824 395.178527 
" style="fill:none;stroke:#ff7f0e;stroke-linecap:round;"/>
   </g>
   <g id="line2d_96">
    <path clip-path="url(#p66369e4bbb)" d="M 256.668353 523.715985 
L 284.127882 523.715985 
" style="fill:none;stroke:#ff7f0e;stroke-linecap:round;"/>
   </g>
   <g id="line2d_97">
    <path clip-path="url(#p66369e4bbb)" d="M 311.587412 436.568011 
L 339.046941 436.568011 
" style="fill:none;stroke:#ff7f0e;stroke-linecap:round;"/>
   </g>
   <g id="line2d_98">
    <path clip-path="url(#p66369e4bbb)" d="M 366.506471 463.394695 
L 393.966 463.394695 
" style="fill:none;stroke:#ff7f0e;stroke-linecap:round;"/>
   </g>
   <g id="line2d_99">
    <path clip-path="url(#p66369e4bbb)" d="M 421.425529 449.96073 
L 448.885059 449.96073 
" style="fill:none;stroke:#ff7f0e;stroke-linecap:round;"/>
   </g>
   <g id="line2d_100">
    <path clip-path="url(#p66369e4bbb)" d="M 476.344588 495.70913 
L 503.804118 495.70913 
" style="fill:none;stroke:#ff7f0e;stroke-linecap:round;"/>
   </g>
   <g id="line2d_101">
    <path clip-path="url(#p66369e4bbb)" d="M 531.263647 543.580116 
L 558.723176 543.580116 
" style="fill:none;stroke:#ff7f0e;stroke-linecap:round;"/>
   </g>
   <g id="patch_3">
    <path d="M 160.56 550.4472 
L 160.56 74.2176 
" style="fill:none;"/>
   </g>
   <g id="patch_4">
    <path d="M 1094.184 550.4472 
L 1094.184 74.2176 
" style="fill:none;"/>
   </g>
   <g id="patch_5">
    <path d="M 160.56 550.4472 
L 1094.184 550.4472 
" style="fill:none;"/>
   </g>
   <g id="patch_6">
    <path d="M 160.56 74.2176 
L 1094.184 74.2176 
" style="fill:none;"/>
   </g>
   <g id="text_25">
    <!-- Upload -->
    <g transform="translate(362.715923 69.455304)scale(0.1 -0.1)">
     <defs>
      <path d="M 8.6875 72.90625 
L 18.609375 72.90625 
L 18.609375 28.609375 
Q 18.609375 16.890625 22.84375 11.734375 
Q 27.09375 6.59375 36.625 6.59375 
Q 46.09375 6.59375 50.34375 11.734375 
Q 54.59375 16.890625 54.59375 28.609375 
L 54.59375 72.90625 
L 64.5 72.90625 
L 64.5 27.390625 
Q 64.5 13.140625 57.4375 5.859375 
Q 50.390625 -1.421875 36.625 -1.421875 
Q 22.796875 -1.421875 15.734375 5.859375 
Q 8.6875 13.140625 8.6875 27.390625 
z
" id="DejaVuSans-85"/>
      <path d="M 18.109375 8.203125 
L 18.109375 -20.796875 
L 9.078125 -20.796875 
L 9.078125 54.6875 
L 18.109375 54.6875 
L 18.109375 46.390625 
Q 20.953125 51.265625 25.265625 53.625 
Q 29.59375 56 35.59375 56 
Q 45.5625 56 51.78125 48.09375 
Q 58.015625 40.1875 58.015625 27.296875 
Q 58.015625 14.40625 51.78125 6.484375 
Q 45.5625 -1.421875 35.59375 -1.421875 
Q 29.59375 -1.421875 25.265625 0.953125 
Q 20.953125 3.328125 18.109375 8.203125 
z
M 48.6875 27.296875 
Q 48.6875 37.203125 44.609375 42.84375 
Q 40.53125 48.484375 33.40625 48.484375 
Q 26.265625 48.484375 22.1875 42.84375 
Q 18.109375 37.203125 18.109375 27.296875 
Q 18.109375 17.390625 22.1875 11.75 
Q 26.265625 6.109375 33.40625 6.109375 
Q 40.53125 6.109375 44.609375 11.75 
Q 48.6875 17.390625 48.6875 27.296875 
z
" id="DejaVuSans-112"/>
      <path d="M 9.421875 75.984375 
L 18.40625 75.984375 
L 18.40625 0 
L 9.421875 0 
z
" id="DejaVuSans-108"/>
     </defs>
     <use xlink:href="#DejaVuSans-85"/>
     <use x="73.193359" xlink:href="#DejaVuSans-112"/>
     <use x="136.669922" xlink:href="#DejaVuSans-108"/>
     <use x="164.453125" xlink:href="#DejaVuSans-111"/>
     <use x="225.634766" xlink:href="#DejaVuSans-97"/>
     <use x="286.914062" xlink:href="#DejaVuSans-100"/>
    </g>
   </g>
   <g id="text_26">
    <!-- Ping (ms) -->
    <g transform="translate(823.448235 69.455304)scale(0.1 -0.1)">
     <defs>
      <path id="DejaVuSans-32"/>
      <path d="M 31 75.875 
Q 24.46875 64.65625 21.28125 53.65625 
Q 18.109375 42.671875 18.109375 31.390625 
Q 18.109375 20.125 21.3125 9.0625 
Q 24.515625 -2 31 -13.1875 
L 23.1875 -13.1875 
Q 15.875 -1.703125 12.234375 9.375 
Q 8.59375 20.453125 8.59375 31.390625 
Q 8.59375 42.28125 12.203125 53.3125 
Q 15.828125 64.359375 23.1875 75.875 
z
" id="DejaVuSans-40"/>
      <path d="M 52 44.1875 
Q 55.375 50.25 60.0625 53.125 
Q 64.75 56 71.09375 56 
Q 79.640625 56 84.28125 50.015625 
Q 88.921875 44.046875 88.921875 33.015625 
L 88.921875 0 
L 79.890625 0 
L 79.890625 32.71875 
Q 79.890625 40.578125 77.09375 44.375 
Q 74.3125 48.1875 68.609375 48.1875 
Q 61.625 48.1875 57.5625 43.546875 
Q 53.515625 38.921875 53.515625 30.90625 
L 53.515625 0 
L 44.484375 0 
L 44.484375 32.71875 
Q 44.484375 40.625 41.703125 44.40625 
Q 38.921875 48.1875 33.109375 48.1875 
Q 26.21875 48.1875 22.15625 43.53125 
Q 18.109375 38.875 18.109375 30.90625 
L 18.109375 0 
L 9.078125 0 
L 9.078125 54.6875 
L 18.109375 54.6875 
L 18.109375 46.1875 
Q 21.1875 51.21875 25.484375 53.609375 
Q 29.78125 56 35.6875 56 
Q 41.65625 56 45.828125 52.96875 
Q 50 49.953125 52 44.1875 
z
" id="DejaVuSans-109"/>
      <path d="M 8.015625 75.875 
L 15.828125 75.875 
Q 23.140625 64.359375 26.78125 53.3125 
Q 30.421875 42.28125 30.421875 31.390625 
Q 30.421875 20.453125 26.78125 9.375 
Q 23.140625 -1.703125 15.828125 -13.1875 
L 8.015625 -13.1875 
Q 14.5 -2 17.703125 9.0625 
Q 20.90625 20.125 20.90625 31.390625 
Q 20.90625 42.671875 17.703125 53.65625 
Q 14.5 64.65625 8.015625 75.875 
z
" id="DejaVuSans-41"/>
     </defs>
     <use xlink:href="#DejaVuSans-80"/>
     <use x="58.052734" xlink:href="#DejaVuSans-105"/>
     <use x="85.835938" xlink:href="#DejaVuSans-110"/>
     <use x="149.214844" xlink:href="#DejaVuSans-103"/>
     <use x="212.691406" xlink:href="#DejaVuSans-32"/>
     <use x="244.478516" xlink:href="#DejaVuSans-40"/>
     <use x="283.492188" xlink:href="#DejaVuSans-109"/>
     <use x="380.904297" xlink:href="#DejaVuSans-115"/>
     <use x="433.003906" xlink:href="#DejaVuSans-41"/>
    </g>
   </g>
   <g id="legend_1">
    <g id="line2d_102">
     <path d="M 1200.21464 80.963598 
L 1216.87464 80.963598 
" style="fill:none;stroke:#1b9e77;stroke-linecap:round;"/>
    </g>
    <g id="line2d_103"/>
    <g id="text_27">
     <!-- BBR-v3 -->
     <g transform="translate(1223.53864 83.879098)scale(0.0833 -0.0833)">
      <use xlink:href="#DejaVuSans-66"/>
      <use x="68.603516" xlink:href="#DejaVuSans-66"/>
      <use x="137.207031" xlink:href="#DejaVuSans-82"/>
      <use x="202.689453" xlink:href="#DejaVuSans-45"/>
      <use x="236.148438" xlink:href="#DejaVuSans-118"/>
      <use x="295.328125" xlink:href="#DejaVuSans-51"/>
     </g>
    </g>
    <g id="line2d_104">
     <path d="M 1200.21464 93.190477 
L 1216.87464 93.190477 
" style="fill:none;stroke:#d95f02;stroke-linecap:round;"/>
    </g>
    <g id="line2d_105"/>
    <g id="text_28">
     <!-- Reno -->
     <g transform="translate(1223.53864 96.105977)scale(0.0833 -0.0833)">
      <use xlink:href="#DejaVuSans-82"/>
      <use x="64.982422" xlink:href="#DejaVuSans-101"/>
      <use x="126.505859" xlink:href="#DejaVuSans-110"/>
      <use x="189.884766" xlink:href="#DejaVuSans-111"/>
     </g>
    </g>
    <g id="line2d_106">
     <path d="M 1200.21464 105.417355 
L 1216.87464 105.417355 
" style="fill:none;stroke:#7570b3;stroke-linecap:round;"/>
    </g>
    <g id="line2d_107"/>
    <g id="text_29">
     <!-- Cubic -->
     <g transform="translate(1223.53864 108.332855)scale(0.0833 -0.0833)">
      <use xlink:href="#DejaVuSans-67"/>
      <use x="69.824219" xlink:href="#DejaVuSans-117"/>
      <use x="133.203125" xlink:href="#DejaVuSans-98"/>
      <use x="196.679688" xlink:href="#DejaVuSans-105"/>
      <use x="224.462891" xlink:href="#DejaVuSans-99"/>
     </g>
    </g>
    <g id="line2d_108">
     <path d="M 1200.21464 117.644233 
L 1216.87464 117.644233 
" style="fill:none;stroke:#e7298a;stroke-linecap:round;"/>
    </g>
    <g id="line2d_109"/>
    <g id="text_30">
     <!-- Yeah -->
     <g transform="translate(1223.53864 120.559733)scale(0.0833 -0.0833)">
      <use xlink:href="#DejaVuSans-89"/>
      <use x="47.833984" xlink:href="#DejaVuSans-101"/>
      <use x="109.357422" xlink:href="#DejaVuSans-97"/>
      <use x="170.636719" xlink:href="#DejaVuSans-104"/>
     </g>
    </g>
    <g id="line2d_110">
     <path d="M 1200.21464 129.871111 
L 1216.87464 129.871111 
" style="fill:none;stroke:#66a61e;stroke-linecap:round;"/>
    </g>
    <g id="line2d_111"/>
    <g id="text_31">
     <!-- Nevada -->
     <g transform="translate(1223.53864 132.786611)scale(0.0833 -0.0833)">
      <use xlink:href="#DejaVuSans-78"/>
      <use x="74.804688" xlink:href="#DejaVuSans-101"/>
      <use x="136.328125" xlink:href="#DejaVuSans-118"/>
      <use x="195.507812" xlink:href="#DejaVuSans-97"/>
      <use x="256.787109" xlink:href="#DejaVuSans-100"/>
      <use x="320.263672" xlink:href="#DejaVuSans-97"/>
     </g>
    </g>
    <g id="line2d_112">
     <path d="M 1200.21464 142.097989 
L 1216.87464 142.097989 
" style="fill:none;stroke:#e6ab02;stroke-linecap:round;"/>
    </g>
    <g id="line2d_113"/>
    <g id="text_32">
     <!-- Veno -->
     <g transform="translate(1223.53864 145.013489)scale(0.0833 -0.0833)">
      <use xlink:href="#DejaVuSans-86"/>
      <use x="60.658203" xlink:href="#DejaVuSans-101"/>
      <use x="122.181641" xlink:href="#DejaVuSans-110"/>
      <use x="185.560547" xlink:href="#DejaVuSans-111"/>
     </g>
    </g>
    <g id="line2d_114">
     <path d="M 1200.21464 154.324867 
L 1216.87464 154.324867 
" style="fill:none;stroke:#a6761d;stroke-linecap:round;"/>
    </g>
    <g id="line2d_115"/>
    <g id="text_33">
     <!-- Vegas -->
     <g transform="translate(1223.53864 157.240367)scale(0.0833 -0.0833)">
      <use xlink:href="#DejaVuSans-86"/>
      <use x="60.658203" xlink:href="#DejaVuSans-101"/>
      <use x="122.181641" xlink:href="#DejaVuSans-103"/>
      <use x="185.658203" xlink:href="#DejaVuSans-97"/>
      <use x="246.9375" xlink:href="#DejaVuSans-115"/>
     </g>
    </g>
   </g>
  </g>
  <g id="axes_2">
   <g id="matplotlib.axis_3">
    <g id="ytick_37">
     <g id="line2d_116"/>
     <g id="text_34">
      <!-- 0 -->
      <g transform="translate(1097.684 549.741991)scale(0.1 -0.1)">
       <use xlink:href="#DejaVuSans-48"/>
      </g>
     </g>
    </g>
    <g id="ytick_38">
     <g id="line2d_117"/>
     <g id="text_35">
      <!-- 2000 -->
      <g transform="translate(1097.684 455.747977)scale(0.1 -0.1)">
       <use xlink:href="#DejaVuSans-50"/>
       <use x="63.623047" xlink:href="#DejaVuSans-48"/>
       <use x="127.246094" xlink:href="#DejaVuSans-48"/>
       <use x="190.869141" xlink:href="#DejaVuSans-48"/>
      </g>
     </g>
    </g>
    <g id="ytick_39">
     <g id="line2d_118"/>
     <g id="text_36">
      <!-- 4000 -->
      <g transform="translate(1097.684 361.753963)scale(0.1 -0.1)">
       <use xlink:href="#DejaVuSans-52"/>
       <use x="63.623047" xlink:href="#DejaVuSans-48"/>
       <use x="127.246094" xlink:href="#DejaVuSans-48"/>
       <use x="190.869141" xlink:href="#DejaVuSans-48"/>
      </g>
     </g>
    </g>
    <g id="ytick_40">
     <g id="line2d_119"/>
     <g id="text_37">
      <!-- 6000 -->
      <g transform="translate(1097.684 267.759949)scale(0.1 -0.1)">
       <use xlink:href="#DejaVuSans-54"/>
       <use x="63.623047" xlink:href="#DejaVuSans-48"/>
       <use x="127.246094" xlink:href="#DejaVuSans-48"/>
       <use x="190.869141" xlink:href="#DejaVuSans-48"/>
      </g>
     </g>
    </g>
    <g id="ytick_41">
     <g id="line2d_120"/>
     <g id="text_38">
      <!-- 8000 -->
      <g transform="translate(1097.684 173.765936)scale(0.1 -0.1)">
       <defs>
        <path d="M 31.78125 34.625 
Q 24.75 34.625 20.71875 30.859375 
Q 16.703125 27.09375 16.703125 20.515625 
Q 16.703125 13.921875 20.71875 10.15625 
Q 24.75 6.390625 31.78125 6.390625 
Q 38.8125 6.390625 42.859375 10.171875 
Q 46.921875 13.96875 46.921875 20.515625 
Q 46.921875 27.09375 42.890625 30.859375 
Q 38.875 34.625 31.78125 34.625 
z
M 21.921875 38.8125 
Q 15.578125 40.375 12.03125 44.71875 
Q 8.5 49.078125 8.5 55.328125 
Q 8.5 64.0625 14.71875 69.140625 
Q 20.953125 74.21875 31.78125 74.21875 
Q 42.671875 74.21875 48.875 69.140625 
Q 55.078125 64.0625 55.078125 55.328125 
Q 55.078125 49.078125 51.53125 44.71875 
Q 48 40.375 41.703125 38.8125 
Q 48.828125 37.15625 52.796875 32.3125 
Q 56.78125 27.484375 56.78125 20.515625 
Q 56.78125 9.90625 50.3125 4.234375 
Q 43.84375 -1.421875 31.78125 -1.421875 
Q 19.734375 -1.421875 13.25 4.234375 
Q 6.78125 9.90625 6.78125 20.515625 
Q 6.78125 27.484375 10.78125 32.3125 
Q 14.796875 37.15625 21.921875 38.8125 
z
M 18.3125 54.390625 
Q 18.3125 48.734375 21.84375 45.5625 
Q 25.390625 42.390625 31.78125 42.390625 
Q 38.140625 42.390625 41.71875 45.5625 
Q 45.3125 48.734375 45.3125 54.390625 
Q 45.3125 60.0625 41.71875 63.234375 
Q 38.140625 66.40625 31.78125 66.40625 
Q 25.390625 66.40625 21.84375 63.234375 
Q 18.3125 60.0625 18.3125 54.390625 
z
" id="DejaVuSans-56"/>
       </defs>
       <use xlink:href="#DejaVuSans-56"/>
       <use x="63.623047" xlink:href="#DejaVuSans-48"/>
       <use x="127.246094" xlink:href="#DejaVuSans-48"/>
       <use x="190.869141" xlink:href="#DejaVuSans-48"/>
      </g>
     </g>
    </g>
    <g id="ytick_42">
     <g id="line2d_121"/>
     <g id="text_39">
      <!-- 10000 -->
      <g transform="translate(1097.684 79.771922)scale(0.1 -0.1)">
       <use xlink:href="#DejaVuSans-49"/>
       <use x="63.623047" xlink:href="#DejaVuSans-48"/>
       <use x="127.246094" xlink:href="#DejaVuSans-48"/>
       <use x="190.869141" xlink:href="#DejaVuSans-48"/>
       <use x="254.492188" xlink:href="#DejaVuSans-48"/>
      </g>
     </g>
    </g>
    <g id="ytick_43">
     <g id="line2d_122"/>
    </g>
    <g id="ytick_44">
     <g id="line2d_123"/>
    </g>
    <g id="ytick_45">
     <g id="line2d_124"/>
    </g>
    <g id="ytick_46">
     <g id="line2d_125"/>
    </g>
    <g id="ytick_47">
     <g id="line2d_126"/>
    </g>
    <g id="ytick_48">
     <g id="line2d_127"/>
    </g>
    <g id="ytick_49">
     <g id="line2d_128"/>
    </g>
    <g id="ytick_50">
     <g id="line2d_129"/>
    </g>
    <g id="ytick_51">
     <g id="line2d_130"/>
    </g>
    <g id="ytick_52">
     <g id="line2d_131"/>
    </g>
    <g id="ytick_53">
     <g id="line2d_132"/>
    </g>
    <g id="ytick_54">
     <g id="line2d_133"/>
    </g>
    <g id="ytick_55">
     <g id="line2d_134"/>
    </g>
    <g id="ytick_56">
     <g id="line2d_135"/>
    </g>
    <g id="ytick_57">
     <g id="line2d_136"/>
    </g>
    <g id="text_40">
     <!-- ms -->
     <g transform="translate(1141.094938 319.8074)rotate(-90)scale(0.1 -0.1)">
      <use xlink:href="#DejaVuSans-109"/>
      <use x="97.412109" xlink:href="#DejaVuSans-115"/>
     </g>
    </g>
   </g>
   <g id="line2d_137">
    <path clip-path="url(#p66369e4bbb)" d="M 641.101765 543.034832 
L 668.561294 543.034832 
L 668.561294 538.000278 
L 641.101765 538.000278 
L 641.101765 543.034832 
" style="fill:none;stroke:#1b9e77;stroke-linecap:round;"/>
   </g>
   <g id="line2d_138">
    <path clip-path="url(#p66369e4bbb)" d="M 654.831529 543.034832 
L 654.831529 545.703087 
" style="fill:none;stroke:#1b9e77;stroke-linecap:round;"/>
   </g>
   <g id="line2d_139">
    <path clip-path="url(#p66369e4bbb)" d="M 654.831529 538.000278 
L 654.831529 530.621748 
" style="fill:none;stroke:#1b9e77;stroke-linecap:round;"/>
   </g>
   <g id="line2d_140">
    <path clip-path="url(#p66369e4bbb)" d="M 647.966647 545.703087 
L 661.696412 545.703087 
" style="fill:none;stroke:#1b9e77;stroke-linecap:round;"/>
   </g>
   <g id="line2d_141">
    <path clip-path="url(#p66369e4bbb)" d="M 647.966647 530.621748 
L 661.696412 530.621748 
" style="fill:none;stroke:#1b9e77;stroke-linecap:round;"/>
   </g>
   <g id="line2d_142">
    <g clip-path="url(#p66369e4bbb)">
     <use style="fill:#0000ff;stroke:#1b9e77;" x="654.831529" xlink:href="#md74b40da6f" y="527.331957"/>
     <use style="fill:#0000ff;stroke:#1b9e77;" x="654.831529" xlink:href="#md74b40da6f" y="529.869796"/>
     <use style="fill:#0000ff;stroke:#1b9e77;" x="654.831529" xlink:href="#md74b40da6f" y="528.600876"/>
     <use style="fill:#0000ff;stroke:#1b9e77;" x="654.831529" xlink:href="#md74b40da6f" y="528.365891"/>
     <use style="fill:#0000ff;stroke:#1b9e77;" x="654.831529" xlink:href="#md74b40da6f" y="524.136161"/>
     <use style="fill:#0000ff;stroke:#1b9e77;" x="654.831529" xlink:href="#md74b40da6f" y="528.600876"/>
     <use style="fill:#0000ff;stroke:#1b9e77;" x="654.831529" xlink:href="#md74b40da6f" y="516.898622"/>
     <use style="fill:#0000ff;stroke:#1b9e77;" x="654.831529" xlink:href="#md74b40da6f" y="521.504328"/>
     <use style="fill:#0000ff;stroke:#1b9e77;" x="654.831529" xlink:href="#md74b40da6f" y="516.757631"/>
     <use style="fill:#0000ff;stroke:#1b9e77;" x="654.831529" xlink:href="#md74b40da6f" y="514.266789"/>
     <use style="fill:#0000ff;stroke:#1b9e77;" x="654.831529" xlink:href="#md74b40da6f" y="523.666191"/>
     <use style="fill:#0000ff;stroke:#1b9e77;" x="654.831529" xlink:href="#md74b40da6f" y="522.867242"/>
    </g>
   </g>
   <g id="line2d_143">
    <path clip-path="url(#p66369e4bbb)" d="M 696.020824 535.744421 
L 723.480353 535.744421 
L 723.480353 516.005679 
L 696.020824 516.005679 
L 696.020824 535.744421 
" style="fill:none;stroke:#d95f02;stroke-linecap:round;"/>
   </g>
   <g id="line2d_144">
    <path clip-path="url(#p66369e4bbb)" d="M 709.750588 535.744421 
L 709.750588 543.865504 
" style="fill:none;stroke:#d95f02;stroke-linecap:round;"/>
   </g>
   <g id="line2d_145">
    <path clip-path="url(#p66369e4bbb)" d="M 709.750588 516.005679 
L 709.750588 486.679546 
" style="fill:none;stroke:#d95f02;stroke-linecap:round;"/>
   </g>
   <g id="line2d_146">
    <path clip-path="url(#p66369e4bbb)" d="M 702.885706 543.865504 
L 716.615471 543.865504 
" style="fill:none;stroke:#d95f02;stroke-linecap:round;"/>
   </g>
   <g id="line2d_147">
    <path clip-path="url(#p66369e4bbb)" d="M 702.885706 486.679546 
L 716.615471 486.679546 
" style="fill:none;stroke:#d95f02;stroke-linecap:round;"/>
   </g>
   <g id="line2d_148">
    <g clip-path="url(#p66369e4bbb)">
     <use style="fill:#0000ff;stroke:#d95f02;" x="709.750588" xlink:href="#mc9073a5587" y="465.060923"/>
     <use style="fill:#0000ff;stroke:#d95f02;" x="709.750588" xlink:href="#mc9073a5587" y="436.627734"/>
     <use style="fill:#0000ff;stroke:#d95f02;" x="709.750588" xlink:href="#mc9073a5587" y="416.654006"/>
     <use style="fill:#0000ff;stroke:#d95f02;" x="709.750588" xlink:href="#mc9073a5587" y="423.891545"/>
     <use style="fill:#0000ff;stroke:#d95f02;" x="709.750588" xlink:href="#mc9073a5587" y="421.77668"/>
     <use style="fill:#0000ff;stroke:#d95f02;" x="709.750588" xlink:href="#mc9073a5587" y="428.967222"/>
     <use style="fill:#0000ff;stroke:#d95f02;" x="709.750588" xlink:href="#mc9073a5587" y="403.353853"/>
     <use style="fill:#0000ff;stroke:#d95f02;" x="709.750588" xlink:href="#mc9073a5587" y="312.085666"/>
     <use style="fill:#0000ff;stroke:#d95f02;" x="709.750588" xlink:href="#mc9073a5587" y="316.456387"/>
     <use style="fill:#0000ff;stroke:#d95f02;" x="709.750588" xlink:href="#mc9073a5587" y="305.224103"/>
     <use style="fill:#0000ff;stroke:#d95f02;" x="709.750588" xlink:href="#mc9073a5587" y="284.216441"/>
     <use style="fill:#0000ff;stroke:#d95f02;" x="709.750588" xlink:href="#mc9073a5587" y="288.446171"/>
     <use style="fill:#0000ff;stroke:#d95f02;" x="709.750588" xlink:href="#mc9073a5587" y="292.769896"/>
     <use style="fill:#0000ff;stroke:#d95f02;" x="709.750588" xlink:href="#mc9073a5587" y="290.655031"/>
     <use style="fill:#0000ff;stroke:#d95f02;" x="709.750588" xlink:href="#mc9073a5587" y="299.30248"/>
     <use style="fill:#0000ff;stroke:#d95f02;" x="709.750588" xlink:href="#mc9073a5587" y="304.002181"/>
     <use style="fill:#0000ff;stroke:#d95f02;" x="709.750588" xlink:href="#mc9073a5587" y="291.218995"/>
     <use style="fill:#0000ff;stroke:#d95f02;" x="709.750588" xlink:href="#mc9073a5587" y="288.446171"/>
     <use style="fill:#0000ff;stroke:#d95f02;" x="709.750588" xlink:href="#mc9073a5587" y="293.33386"/>
     <use style="fill:#0000ff;stroke:#d95f02;" x="709.750588" xlink:href="#mc9073a5587" y="288.258183"/>
     <use style="fill:#0000ff;stroke:#d95f02;" x="709.750588" xlink:href="#mc9073a5587" y="297.657585"/>
     <use style="fill:#0000ff;stroke:#d95f02;" x="709.750588" xlink:href="#mc9073a5587" y="299.255483"/>
     <use style="fill:#0000ff;stroke:#d95f02;" x="709.750588" xlink:href="#mc9073a5587" y="303.156234"/>
     <use style="fill:#0000ff;stroke:#d95f02;" x="709.750588" xlink:href="#mc9073a5587" y="312.367648"/>
     <use style="fill:#0000ff;stroke:#d95f02;" x="709.750588" xlink:href="#mc9073a5587" y="321.767049"/>
     <use style="fill:#0000ff;stroke:#d95f02;" x="709.750588" xlink:href="#mc9073a5587" y="331.119453"/>
     <use style="fill:#0000ff;stroke:#d95f02;" x="709.750588" xlink:href="#mc9073a5587" y="340.565852"/>
     <use style="fill:#0000ff;stroke:#d95f02;" x="709.750588" xlink:href="#mc9073a5587" y="349.965253"/>
     <use style="fill:#0000ff;stroke:#d95f02;" x="709.750588" xlink:href="#mc9073a5587" y="359.364655"/>
     <use style="fill:#0000ff;stroke:#d95f02;" x="709.750588" xlink:href="#mc9073a5587" y="368.764056"/>
     <use style="fill:#0000ff;stroke:#d95f02;" x="709.750588" xlink:href="#mc9073a5587" y="378.11646"/>
     <use style="fill:#0000ff;stroke:#d95f02;" x="709.750588" xlink:href="#mc9073a5587" y="387.562859"/>
     <use style="fill:#0000ff;stroke:#d95f02;" x="709.750588" xlink:href="#mc9073a5587" y="389.912709"/>
     <use style="fill:#0000ff;stroke:#d95f02;" x="709.750588" xlink:href="#mc9073a5587" y="399.359107"/>
     <use style="fill:#0000ff;stroke:#d95f02;" x="709.750588" xlink:href="#mc9073a5587" y="408.664515"/>
     <use style="fill:#0000ff;stroke:#d95f02;" x="709.750588" xlink:href="#mc9073a5587" y="418.110913"/>
     <use style="fill:#0000ff;stroke:#d95f02;" x="709.750588" xlink:href="#mc9073a5587" y="423.327581"/>
     <use style="fill:#0000ff;stroke:#d95f02;" x="709.750588" xlink:href="#mc9073a5587" y="420.742746"/>
     <use style="fill:#0000ff;stroke:#d95f02;" x="709.750588" xlink:href="#mc9073a5587" y="420.695749"/>
     <use style="fill:#0000ff;stroke:#d95f02;" x="709.750588" xlink:href="#mc9073a5587" y="428.074279"/>
     <use style="fill:#0000ff;stroke:#d95f02;" x="709.750588" xlink:href="#mc9073a5587" y="434.465872"/>
     <use style="fill:#0000ff;stroke:#d95f02;" x="709.750588" xlink:href="#mc9073a5587" y="437.47368"/>
     <use style="fill:#0000ff;stroke:#d95f02;" x="709.750588" xlink:href="#mc9073a5587" y="437.849656"/>
     <use style="fill:#0000ff;stroke:#d95f02;" x="709.750588" xlink:href="#mc9073a5587" y="440.434491"/>
     <use style="fill:#0000ff;stroke:#d95f02;" x="709.750588" xlink:href="#mc9073a5587" y="445.980138"/>
     <use style="fill:#0000ff;stroke:#d95f02;" x="709.750588" xlink:href="#mc9073a5587" y="455.37954"/>
     <use style="fill:#0000ff;stroke:#d95f02;" x="709.750588" xlink:href="#mc9073a5587" y="462.805067"/>
     <use style="fill:#0000ff;stroke:#d95f02;" x="709.750588" xlink:href="#mc9073a5587" y="471.969483"/>
     <use style="fill:#0000ff;stroke:#d95f02;" x="709.750588" xlink:href="#mc9073a5587" y="474.037351"/>
     <use style="fill:#0000ff;stroke:#d95f02;" x="709.750588" xlink:href="#mc9073a5587" y="479.442007"/>
     <use style="fill:#0000ff;stroke:#d95f02;" x="709.750588" xlink:href="#mc9073a5587" y="483.906723"/>
    </g>
   </g>
   <g id="line2d_149">
    <path clip-path="url(#p66369e4bbb)" d="M 750.939882 520.047421 
L 778.399412 520.047421 
L 778.399412 384.461056 
L 750.939882 384.461056 
L 750.939882 520.047421 
" style="fill:none;stroke:#7570b3;stroke-linecap:round;"/>
   </g>
   <g id="line2d_150">
    <path clip-path="url(#p66369e4bbb)" d="M 764.669647 520.047421 
L 764.669647 543.602321 
" style="fill:none;stroke:#7570b3;stroke-linecap:round;"/>
   </g>
   <g id="line2d_151">
    <path clip-path="url(#p66369e4bbb)" d="M 764.669647 384.461056 
L 764.669647 181.715969 
" style="fill:none;stroke:#7570b3;stroke-linecap:round;"/>
   </g>
   <g id="line2d_152">
    <path clip-path="url(#p66369e4bbb)" d="M 757.804765 543.602321 
L 771.534529 543.602321 
" style="fill:none;stroke:#7570b3;stroke-linecap:round;"/>
   </g>
   <g id="line2d_153">
    <path clip-path="url(#p66369e4bbb)" d="M 757.804765 181.715969 
L 771.534529 181.715969 
" style="fill:none;stroke:#7570b3;stroke-linecap:round;"/>
   </g>
   <g id="line2d_154">
    <defs>
     <path d="M -3 0 
L 3 0 
M 0 3 
L 0 -3 
" id="m5673a72223" style="stroke:#7570b3;"/>
    </defs>
    <g clip-path="url(#p66369e4bbb)">
     <use style="fill:#0000ff;stroke:#7570b3;" x="764.669647" xlink:href="#m5673a72223" y="153.987735"/>
     <use style="fill:#0000ff;stroke:#7570b3;" x="764.669647" xlink:href="#m5673a72223" y="111.690428"/>
     <use style="fill:#0000ff;stroke:#7570b3;" x="764.669647" xlink:href="#m5673a72223" y="113.288327"/>
     <use style="fill:#0000ff;stroke:#7570b3;" x="764.669647" xlink:href="#m5673a72223" y="122.264755"/>
     <use style="fill:#0000ff;stroke:#7570b3;" x="764.669647" xlink:href="#m5673a72223" y="86.54703"/>
     <use style="fill:#0000ff;stroke:#7570b3;" x="764.669647" xlink:href="#m5673a72223" y="78.886518"/>
     <use style="fill:#0000ff;stroke:#7570b3;" x="764.669647" xlink:href="#m5673a72223" y="88.285919"/>
     <use style="fill:#0000ff;stroke:#7570b3;" x="764.669647" xlink:href="#m5673a72223" y="97.68532"/>
     <use style="fill:#0000ff;stroke:#7570b3;" x="764.669647" xlink:href="#m5673a72223" y="103.324961"/>
     <use style="fill:#0000ff;stroke:#7570b3;" x="764.669647" xlink:href="#m5673a72223" y="112.724363"/>
     <use style="fill:#0000ff;stroke:#7570b3;" x="764.669647" xlink:href="#m5673a72223" y="119.397938"/>
     <use style="fill:#0000ff;stroke:#7570b3;" x="764.669647" xlink:href="#m5673a72223" y="121.888779"/>
     <use style="fill:#0000ff;stroke:#7570b3;" x="764.669647" xlink:href="#m5673a72223" y="158.969417"/>
     <use style="fill:#0000ff;stroke:#7570b3;" x="764.669647" xlink:href="#m5673a72223" y="125.131572"/>
     <use style="fill:#0000ff;stroke:#7570b3;" x="764.669647" xlink:href="#m5673a72223" y="134.530974"/>
     <use style="fill:#0000ff;stroke:#7570b3;" x="764.669647" xlink:href="#m5673a72223" y="143.930375"/>
     <use style="fill:#0000ff;stroke:#7570b3;" x="764.669647" xlink:href="#m5673a72223" y="158.311459"/>
     <use style="fill:#0000ff;stroke:#7570b3;" x="764.669647" xlink:href="#m5673a72223" y="167.663864"/>
     <use style="fill:#0000ff;stroke:#7570b3;" x="764.669647" xlink:href="#m5673a72223" y="175.982334"/>
     <use style="fill:#0000ff;stroke:#7570b3;" x="764.669647" xlink:href="#m5673a72223" y="180.823026"/>
    </g>
   </g>
   <g id="line2d_155">
    <path clip-path="url(#p66369e4bbb)" d="M 805.858941 539.269197 
L 833.318471 539.269197 
L 833.318471 532.854105 
L 805.858941 532.854105 
L 805.858941 539.269197 
" style="fill:none;stroke:#e7298a;stroke-linecap:round;"/>
   </g>
   <g id="line2d_156">
    <path clip-path="url(#p66369e4bbb)" d="M 819.588706 539.269197 
L 819.588706 543.329738 
" style="fill:none;stroke:#e7298a;stroke-linecap:round;"/>
   </g>
   <g id="line2d_157">
    <path clip-path="url(#p66369e4bbb)" d="M 819.588706 532.854105 
L 819.588706 523.948173 
" style="fill:none;stroke:#e7298a;stroke-linecap:round;"/>
   </g>
   <g id="line2d_158">
    <path clip-path="url(#p66369e4bbb)" d="M 812.723824 543.329738 
L 826.453588 543.329738 
" style="fill:none;stroke:#e7298a;stroke-linecap:round;"/>
   </g>
   <g id="line2d_159">
    <path clip-path="url(#p66369e4bbb)" d="M 812.723824 523.948173 
L 826.453588 523.948173 
" style="fill:none;stroke:#e7298a;stroke-linecap:round;"/>
   </g>
   <g id="line2d_160">
    <g clip-path="url(#p66369e4bbb)">
     <use style="fill:#0000ff;stroke:#e7298a;" x="819.588706" xlink:href="#m94a1baa7bf" y="514.924747"/>
     <use style="fill:#0000ff;stroke:#e7298a;" x="819.588706" xlink:href="#m94a1baa7bf" y="511.211984"/>
     <use style="fill:#0000ff;stroke:#e7298a;" x="819.588706" xlink:href="#m94a1baa7bf" y="519.013487"/>
     <use style="fill:#0000ff;stroke:#e7298a;" x="819.588706" xlink:href="#m94a1baa7bf" y="484.705672"/>
     <use style="fill:#0000ff;stroke:#e7298a;" x="819.588706" xlink:href="#m94a1baa7bf" y="482.026843"/>
     <use style="fill:#0000ff;stroke:#e7298a;" x="819.588706" xlink:href="#m94a1baa7bf" y="491.379247"/>
     <use style="fill:#0000ff;stroke:#e7298a;" x="819.588706" xlink:href="#m94a1baa7bf" y="499.556726"/>
     <use style="fill:#0000ff;stroke:#e7298a;" x="819.588706" xlink:href="#m94a1baa7bf" y="508.204175"/>
     <use style="fill:#0000ff;stroke:#e7298a;" x="819.588706" xlink:href="#m94a1baa7bf" y="514.87775"/>
     <use style="fill:#0000ff;stroke:#e7298a;" x="819.588706" xlink:href="#m94a1baa7bf" y="518.872496"/>
     <use style="fill:#0000ff;stroke:#e7298a;" x="819.588706" xlink:href="#m94a1baa7bf" y="522.25628"/>
     <use style="fill:#0000ff;stroke:#e7298a;" x="819.588706" xlink:href="#m94a1baa7bf" y="504.538409"/>
     <use style="fill:#0000ff;stroke:#e7298a;" x="819.588706" xlink:href="#m94a1baa7bf" y="505.760331"/>
     <use style="fill:#0000ff;stroke:#e7298a;" x="819.588706" xlink:href="#m94a1baa7bf" y="515.159732"/>
     <use style="fill:#0000ff;stroke:#e7298a;" x="819.588706" xlink:href="#m94a1baa7bf" y="519.389463"/>
    </g>
   </g>
   <g id="line2d_161">
    <path clip-path="url(#p66369e4bbb)" d="M 860.778 544.333124 
L 888.237529 544.333124 
L 888.237529 541.710691 
L 860.778 541.710691 
L 860.778 544.333124 
" style="fill:none;stroke:#66a61e;stroke-linecap:round;"/>
   </g>
   <g id="line2d_162">
    <path clip-path="url(#p66369e4bbb)" d="M 874.507765 544.333124 
L 874.507765 545.681938 
" style="fill:none;stroke:#66a61e;stroke-linecap:round;"/>
   </g>
   <g id="line2d_163">
    <path clip-path="url(#p66369e4bbb)" d="M 874.507765 541.710691 
L 874.507765 537.906284 
" style="fill:none;stroke:#66a61e;stroke-linecap:round;"/>
   </g>
   <g id="line2d_164">
    <path clip-path="url(#p66369e4bbb)" d="M 867.642882 545.681938 
L 881.372647 545.681938 
" style="fill:none;stroke:#66a61e;stroke-linecap:round;"/>
   </g>
   <g id="line2d_165">
    <path clip-path="url(#p66369e4bbb)" d="M 867.642882 537.906284 
L 881.372647 537.906284 
" style="fill:none;stroke:#66a61e;stroke-linecap:round;"/>
   </g>
   <g id="line2d_166">
    <g clip-path="url(#p66369e4bbb)">
     <use style="fill:#0000ff;stroke:#66a61e;" x="874.507765" xlink:href="#m18336f2695" y="536.87235"/>
     <use style="fill:#0000ff;stroke:#66a61e;" x="874.507765" xlink:href="#m18336f2695" y="536.167394"/>
     <use style="fill:#0000ff;stroke:#66a61e;" x="874.507765" xlink:href="#m18336f2695" y="533.018595"/>
     <use style="fill:#0000ff;stroke:#66a61e;" x="874.507765" xlink:href="#m18336f2695" y="531.702679"/>
     <use style="fill:#0000ff;stroke:#66a61e;" x="874.507765" xlink:href="#m18336f2695" y="523.196221"/>
     <use style="fill:#0000ff;stroke:#66a61e;" x="874.507765" xlink:href="#m18336f2695" y="532.595622"/>
     <use style="fill:#0000ff;stroke:#66a61e;" x="874.507765" xlink:href="#m18336f2695" y="535.13346"/>
     <use style="fill:#0000ff;stroke:#66a61e;" x="874.507765" xlink:href="#m18336f2695" y="534.240517"/>
     <use style="fill:#0000ff;stroke:#66a61e;" x="874.507765" xlink:href="#m18336f2695" y="528.647873"/>
     <use style="fill:#0000ff;stroke:#66a61e;" x="874.507765" xlink:href="#m18336f2695" y="532.78361"/>
     <use style="fill:#0000ff;stroke:#66a61e;" x="874.507765" xlink:href="#m18336f2695" y="534.945472"/>
     <use style="fill:#0000ff;stroke:#66a61e;" x="874.507765" xlink:href="#m18336f2695" y="531.279706"/>
     <use style="fill:#0000ff;stroke:#66a61e;" x="874.507765" xlink:href="#m18336f2695" y="534.66349"/>
     <use style="fill:#0000ff;stroke:#66a61e;" x="874.507765" xlink:href="#m18336f2695" y="533.25358"/>
     <use style="fill:#0000ff;stroke:#66a61e;" x="874.507765" xlink:href="#m18336f2695" y="535.650427"/>
     <use style="fill:#0000ff;stroke:#66a61e;" x="874.507765" xlink:href="#m18336f2695" y="535.932409"/>
     <use style="fill:#0000ff;stroke:#66a61e;" x="874.507765" xlink:href="#m18336f2695" y="537.530308"/>
     <use style="fill:#0000ff;stroke:#66a61e;" x="874.507765" xlink:href="#m18336f2695" y="522.021295"/>
     <use style="fill:#0000ff;stroke:#66a61e;" x="874.507765" xlink:href="#m18336f2695" y="531.420697"/>
     <use style="fill:#0000ff;stroke:#66a61e;" x="874.507765" xlink:href="#m18336f2695" y="535.368445"/>
     <use style="fill:#0000ff;stroke:#66a61e;" x="874.507765" xlink:href="#m18336f2695" y="537.295323"/>
     <use style="fill:#0000ff;stroke:#66a61e;" x="874.507765" xlink:href="#m18336f2695" y="533.300577"/>
     <use style="fill:#0000ff;stroke:#66a61e;" x="874.507765" xlink:href="#m18336f2695" y="537.201329"/>
     <use style="fill:#0000ff;stroke:#66a61e;" x="874.507765" xlink:href="#m18336f2695" y="529.681808"/>
    </g>
   </g>
   <g id="line2d_167">
    <path clip-path="url(#p66369e4bbb)" d="M 915.697059 365.521263 
L 943.156588 365.521263 
L 943.156588 301.887315 
L 915.697059 301.887315 
L 915.697059 365.521263 
" style="fill:none;stroke:#e6ab02;stroke-linecap:round;"/>
   </g>
   <g id="line2d_168">
    <path clip-path="url(#p66369e4bbb)" d="M 929.426824 365.521263 
L 929.426824 458.481342 
" style="fill:none;stroke:#e6ab02;stroke-linecap:round;"/>
   </g>
   <g id="line2d_169">
    <path clip-path="url(#p66369e4bbb)" d="M 929.426824 301.887315 
L 929.426824 210.713122 
" style="fill:none;stroke:#e6ab02;stroke-linecap:round;"/>
   </g>
   <g id="line2d_170">
    <path clip-path="url(#p66369e4bbb)" d="M 922.561941 458.481342 
L 936.291706 458.481342 
" style="fill:none;stroke:#e6ab02;stroke-linecap:round;"/>
   </g>
   <g id="line2d_171">
    <path clip-path="url(#p66369e4bbb)" d="M 922.561941 210.713122 
L 936.291706 210.713122 
" style="fill:none;stroke:#e6ab02;stroke-linecap:round;"/>
   </g>
   <g id="line2d_172">
    <g clip-path="url(#p66369e4bbb)">
     <use style="fill:#0000ff;stroke:#e6ab02;" x="929.426824" xlink:href="#m54614fa327" y="545.209619"/>
     <use style="fill:#0000ff;stroke:#e6ab02;" x="929.426824" xlink:href="#m54614fa327" y="543.950099"/>
     <use style="fill:#0000ff;stroke:#e6ab02;" x="929.426824" xlink:href="#m54614fa327" y="538.564242"/>
     <use style="fill:#0000ff;stroke:#e6ab02;" x="929.426824" xlink:href="#m54614fa327" y="541.774137"/>
     <use style="fill:#0000ff;stroke:#e6ab02;" x="929.426824" xlink:href="#m54614fa327" y="476.716181"/>
     <use style="fill:#0000ff;stroke:#e6ab02;" x="929.426824" xlink:href="#m54614fa327" y="466.705818"/>
     <use style="fill:#0000ff;stroke:#e6ab02;" x="929.426824" xlink:href="#m54614fa327" y="464.073986"/>
     <use style="fill:#0000ff;stroke:#e6ab02;" x="929.426824" xlink:href="#m54614fa327" y="473.42639"/>
     <use style="fill:#0000ff;stroke:#e6ab02;" x="929.426824" xlink:href="#m54614fa327" y="467.175788"/>
     <use style="fill:#0000ff;stroke:#e6ab02;" x="929.426824" xlink:href="#m54614fa327" y="467.551764"/>
     <use style="fill:#0000ff;stroke:#e6ab02;" x="929.426824" xlink:href="#m54614fa327" y="461.489151"/>
     <use style="fill:#0000ff;stroke:#e6ab02;" x="929.426824" xlink:href="#m54614fa327" y="186.08669"/>
     <use style="fill:#0000ff;stroke:#e6ab02;" x="929.426824" xlink:href="#m54614fa327" y="191.867322"/>
     <use style="fill:#0000ff;stroke:#e6ab02;" x="929.426824" xlink:href="#m54614fa327" y="199.480837"/>
     <use style="fill:#0000ff;stroke:#e6ab02;" x="929.426824" xlink:href="#m54614fa327" y="204.556514"/>
     <use style="fill:#0000ff;stroke:#e6ab02;" x="929.426824" xlink:href="#m54614fa327" y="193.418223"/>
     <use style="fill:#0000ff;stroke:#e6ab02;" x="929.426824" xlink:href="#m54614fa327" y="179.695097"/>
     <use style="fill:#0000ff;stroke:#e6ab02;" x="929.426824" xlink:href="#m54614fa327" y="173.256507"/>
     <use style="fill:#0000ff;stroke:#e6ab02;" x="929.426824" xlink:href="#m54614fa327" y="101.022108"/>
     <use style="fill:#0000ff;stroke:#e6ab02;" x="929.426824" xlink:href="#m54614fa327" y="81.04838"/>
     <use style="fill:#0000ff;stroke:#e6ab02;" x="929.426824" xlink:href="#m54614fa327" y="90.447781"/>
     <use style="fill:#0000ff;stroke:#e6ab02;" x="929.426824" xlink:href="#m54614fa327" y="99.800186"/>
     <use style="fill:#0000ff;stroke:#e6ab02;" x="929.426824" xlink:href="#m54614fa327" y="109.246584"/>
     <use style="fill:#0000ff;stroke:#e6ab02;" x="929.426824" xlink:href="#m54614fa327" y="118.598988"/>
     <use style="fill:#0000ff;stroke:#e6ab02;" x="929.426824" xlink:href="#m54614fa327" y="126.541483"/>
     <use style="fill:#0000ff;stroke:#e6ab02;" x="929.426824" xlink:href="#m54614fa327" y="125.225566"/>
     <use style="fill:#0000ff;stroke:#e6ab02;" x="929.426824" xlink:href="#m54614fa327" y="120.525866"/>
     <use style="fill:#0000ff;stroke:#e6ab02;" x="929.426824" xlink:href="#m54614fa327" y="115.779168"/>
     <use style="fill:#0000ff;stroke:#e6ab02;" x="929.426824" xlink:href="#m54614fa327" y="110.844482"/>
     <use style="fill:#0000ff;stroke:#e6ab02;" x="929.426824" xlink:href="#m54614fa327" y="109.387575"/>
     <use style="fill:#0000ff;stroke:#e6ab02;" x="929.426824" xlink:href="#m54614fa327" y="112.30139"/>
     <use style="fill:#0000ff;stroke:#e6ab02;" x="929.426824" xlink:href="#m54614fa327" y="115.215204"/>
     <use style="fill:#0000ff;stroke:#e6ab02;" x="929.426824" xlink:href="#m54614fa327" y="120.572863"/>
     <use style="fill:#0000ff;stroke:#e6ab02;" x="929.426824" xlink:href="#m54614fa327" y="127.105447"/>
     <use style="fill:#0000ff;stroke:#e6ab02;" x="929.426824" xlink:href="#m54614fa327" y="133.074067"/>
     <use style="fill:#0000ff;stroke:#e6ab02;" x="929.426824" xlink:href="#m54614fa327" y="140.076621"/>
     <use style="fill:#0000ff;stroke:#e6ab02;" x="929.426824" xlink:href="#m54614fa327" y="145.857252"/>
     <use style="fill:#0000ff;stroke:#e6ab02;" x="929.426824" xlink:href="#m54614fa327" y="149.617013"/>
     <use style="fill:#0000ff;stroke:#e6ab02;" x="929.426824" xlink:href="#m54614fa327" y="154.974672"/>
     <use style="fill:#0000ff;stroke:#e6ab02;" x="929.426824" xlink:href="#m54614fa327" y="157.935483"/>
     <use style="fill:#0000ff;stroke:#e6ab02;" x="929.426824" xlink:href="#m54614fa327" y="163.857106"/>
     <use style="fill:#0000ff;stroke:#e6ab02;" x="929.426824" xlink:href="#m54614fa327" y="168.274825"/>
     <use style="fill:#0000ff;stroke:#e6ab02;" x="929.426824" xlink:href="#m54614fa327" y="173.115516"/>
     <use style="fill:#0000ff;stroke:#e6ab02;" x="929.426824" xlink:href="#m54614fa327" y="182.467921"/>
     <use style="fill:#0000ff;stroke:#e6ab02;" x="929.426824" xlink:href="#m54614fa327" y="192.05531"/>
     <use style="fill:#0000ff;stroke:#e6ab02;" x="929.426824" xlink:href="#m54614fa327" y="201.313721"/>
    </g>
   </g>
   <g id="line2d_173">
    <path clip-path="url(#p66369e4bbb)" d="M 970.616118 543.944224 
L 998.075647 543.944224 
L 998.075647 534.722236 
L 970.616118 534.722236 
L 970.616118 543.944224 
" style="fill:none;stroke:#a6761d;stroke-linecap:round;"/>
   </g>
   <g id="line2d_174">
    <path clip-path="url(#p66369e4bbb)" d="M 984.345882 543.944224 
L 984.345882 545.778282 
" style="fill:none;stroke:#a6761d;stroke-linecap:round;"/>
   </g>
   <g id="line2d_175">
    <path clip-path="url(#p66369e4bbb)" d="M 984.345882 534.722236 
L 984.345882 521.175349 
" style="fill:none;stroke:#a6761d;stroke-linecap:round;"/>
   </g>
   <g id="line2d_176">
    <path clip-path="url(#p66369e4bbb)" d="M 977.481 545.778282 
L 991.210765 545.778282 
" style="fill:none;stroke:#a6761d;stroke-linecap:round;"/>
   </g>
   <g id="line2d_177">
    <path clip-path="url(#p66369e4bbb)" d="M 977.481 521.175349 
L 991.210765 521.175349 
" style="fill:none;stroke:#a6761d;stroke-linecap:round;"/>
   </g>
   <g id="line2d_178">
    <g clip-path="url(#p66369e4bbb)">
     <use style="fill:#0000ff;stroke:#a6761d;" x="984.345882" xlink:href="#m2b90a9f210" y="511.258981"/>
     <use style="fill:#0000ff;stroke:#a6761d;" x="984.345882" xlink:href="#m2b90a9f210" y="515.958681"/>
     <use style="fill:#0000ff;stroke:#a6761d;" x="984.345882" xlink:href="#m2b90a9f210" y="516.992616"/>
     <use style="fill:#0000ff;stroke:#a6761d;" x="984.345882" xlink:href="#m2b90a9f210" y="519.577451"/>
     <use style="fill:#0000ff;stroke:#a6761d;" x="984.345882" xlink:href="#m2b90a9f210" y="511.681954"/>
     <use style="fill:#0000ff;stroke:#a6761d;" x="984.345882" xlink:href="#m2b90a9f210" y="520.564388"/>
     <use style="fill:#0000ff;stroke:#a6761d;" x="984.345882" xlink:href="#m2b90a9f210" y="517.55658"/>
     <use style="fill:#0000ff;stroke:#a6761d;" x="984.345882" xlink:href="#m2b90a9f210" y="518.355529"/>
     <use style="fill:#0000ff;stroke:#a6761d;" x="984.345882" xlink:href="#m2b90a9f210" y="515.065738"/>
     <use style="fill:#0000ff;stroke:#a6761d;" x="984.345882" xlink:href="#m2b90a9f210" y="519.953427"/>
     <use style="fill:#0000ff;stroke:#a6761d;" x="984.345882" xlink:href="#m2b90a9f210" y="513.232855"/>
     <use style="fill:#0000ff;stroke:#a6761d;" x="984.345882" xlink:href="#m2b90a9f210" y="512.010933"/>
     <use style="fill:#0000ff;stroke:#a6761d;" x="984.345882" xlink:href="#m2b90a9f210" y="520.329403"/>
     <use style="fill:#0000ff;stroke:#a6761d;" x="984.345882" xlink:href="#m2b90a9f210" y="520.752376"/>
     <use style="fill:#0000ff;stroke:#a6761d;" x="984.345882" xlink:href="#m2b90a9f210" y="500.026696"/>
    </g>
   </g>
   <g id="line2d_179">
    <path clip-path="url(#p66369e4bbb)" d="M 1025.535176 520.869869 
L 1052.994706 520.869869 
L 1052.994706 304.002181 
L 1025.535176 304.002181 
L 1025.535176 520.869869 
" style="fill:none;stroke:#666666;stroke-linecap:round;"/>
   </g>
   <g id="line2d_180">
    <path clip-path="url(#p66369e4bbb)" d="M 1039.264941 520.869869 
L 1039.264941 545.65985 
" style="fill:none;stroke:#666666;stroke-linecap:round;"/>
   </g>
   <g id="line2d_181">
    <path clip-path="url(#p66369e4bbb)" d="M 1039.264941 304.002181 
L 1039.264941 93.408593 
" style="fill:none;stroke:#666666;stroke-linecap:round;"/>
   </g>
   <g id="line2d_182">
    <path clip-path="url(#p66369e4bbb)" d="M 1032.400059 545.65985 
L 1046.129824 545.65985 
" style="fill:none;stroke:#666666;stroke-linecap:round;"/>
   </g>
   <g id="line2d_183">
    <path clip-path="url(#p66369e4bbb)" d="M 1032.400059 93.408593 
L 1046.129824 93.408593 
" style="fill:none;stroke:#666666;stroke-linecap:round;"/>
   </g>
   <g id="line2d_184"/>
   <g id="line2d_185">
    <path clip-path="url(#p66369e4bbb)" d="M 1094.184 550.4472 
L 1094.184 74.2176 
" style="fill:none;stroke:#000000;stroke-dasharray:0.5,0.825;stroke-dashoffset:0;stroke-width:0.5;"/>
   </g>
   <g id="line2d_186">
    <path clip-path="url(#p66369e4bbb)" d="M 641.101765 541.125579 
L 668.561294 541.125579 
" style="fill:none;stroke:#ff7f0e;stroke-linecap:round;"/>
   </g>
   <g id="line2d_187">
    <path clip-path="url(#p66369e4bbb)" d="M 696.020824 530.574751 
L 723.480353 530.574751 
" style="fill:none;stroke:#ff7f0e;stroke-linecap:round;"/>
   </g>
   <g id="line2d_188">
    <path clip-path="url(#p66369e4bbb)" d="M 750.939882 476.011226 
L 778.399412 476.011226 
" style="fill:none;stroke:#ff7f0e;stroke-linecap:round;"/>
   </g>
   <g id="line2d_189">
    <path clip-path="url(#p66369e4bbb)" d="M 805.858941 537.154332 
L 833.318471 537.154332 
" style="fill:none;stroke:#ff7f0e;stroke-linecap:round;"/>
   </g>
   <g id="line2d_190">
    <path clip-path="url(#p66369e4bbb)" d="M 860.778 543.273342 
L 888.237529 543.273342 
" style="fill:none;stroke:#ff7f0e;stroke-linecap:round;"/>
   </g>
   <g id="line2d_191">
    <path clip-path="url(#p66369e4bbb)" d="M 915.697059 338.450987 
L 943.156588 338.450987 
" style="fill:none;stroke:#ff7f0e;stroke-linecap:round;"/>
   </g>
   <g id="line2d_192">
    <path clip-path="url(#p66369e4bbb)" d="M 970.616118 540.655609 
L 998.075647 540.655609 
" style="fill:none;stroke:#ff7f0e;stroke-linecap:round;"/>
   </g>
   <g id="line2d_193">
    <path clip-path="url(#p66369e4bbb)" d="M 1025.535176 340.612849 
L 1052.994706 340.612849 
" style="fill:none;stroke:#ff7f0e;stroke-linecap:round;"/>
   </g>
  </g>
  <g id="text_41">
   <!-- TCP upload - 4 streams w/ping -->
   <g transform="translate(535.798437 15.791812)scale(0.14 -0.14)">
    <defs>
     <path d="M 41.109375 46.296875 
Q 39.59375 47.171875 37.8125 47.578125 
Q 36.03125 48 33.890625 48 
Q 26.265625 48 22.1875 43.046875 
Q 18.109375 38.09375 18.109375 28.8125 
L 18.109375 0 
L 9.078125 0 
L 9.078125 54.6875 
L 18.109375 54.6875 
L 18.109375 46.1875 
Q 20.953125 51.171875 25.484375 53.578125 
Q 30.03125 56 36.53125 56 
Q 37.453125 56 38.578125 55.875 
Q 39.703125 55.765625 41.0625 55.515625 
z
" id="DejaVuSans-114"/>
     <path d="M 4.203125 54.6875 
L 13.1875 54.6875 
L 24.421875 12.015625 
L 35.59375 54.6875 
L 46.1875 54.6875 
L 57.421875 12.015625 
L 68.609375 54.6875 
L 77.59375 54.6875 
L 63.28125 0 
L 52.6875 0 
L 40.921875 44.828125 
L 29.109375 0 
L 18.5 0 
z
" id="DejaVuSans-119"/>
    </defs>
    <use xlink:href="#DejaVuSans-84"/>
    <use x="55.208984" xlink:href="#DejaVuSans-67"/>
    <use x="125.033203" xlink:href="#DejaVuSans-80"/>
    <use x="185.335938" xlink:href="#DejaVuSans-32"/>
    <use x="217.123047" xlink:href="#DejaVuSans-117"/>
    <use x="280.501953" xlink:href="#DejaVuSans-112"/>
    <use x="343.978516" xlink:href="#DejaVuSans-108"/>
    <use x="371.761719" xlink:href="#DejaVuSans-111"/>
    <use x="432.943359" xlink:href="#DejaVuSans-97"/>
    <use x="494.222656" xlink:href="#DejaVuSans-100"/>
    <use x="557.699219" xlink:href="#DejaVuSans-32"/>
    <use x="589.486328" xlink:href="#DejaVuSans-45"/>
    <use x="625.570312" xlink:href="#DejaVuSans-32"/>
    <use x="657.357422" xlink:href="#DejaVuSans-52"/>
    <use x="720.980469" xlink:href="#DejaVuSans-32"/>
    <use x="752.767578" xlink:href="#DejaVuSans-115"/>
    <use x="804.867188" xlink:href="#DejaVuSans-116"/>
    <use x="844.076172" xlink:href="#DejaVuSans-114"/>
    <use x="882.939453" xlink:href="#DejaVuSans-101"/>
    <use x="944.462891" xlink:href="#DejaVuSans-97"/>
    <use x="1005.742188" xlink:href="#DejaVuSans-109"/>
    <use x="1103.154297" xlink:href="#DejaVuSans-115"/>
    <use x="1155.253906" xlink:href="#DejaVuSans-32"/>
    <use x="1187.041016" xlink:href="#DejaVuSans-119"/>
    <use x="1268.828125" xlink:href="#DejaVuSans-47"/>
    <use x="1302.519531" xlink:href="#DejaVuSans-112"/>
    <use x="1365.996094" xlink:href="#DejaVuSans-105"/>
    <use x="1393.779297" xlink:href="#DejaVuSans-110"/>
    <use x="1457.158203" xlink:href="#DejaVuSans-103"/>
   </g>
   <!-- Box plot of totals -->
   <g transform="translate(582.74 31.46875)scale(0.14 -0.14)">
    <defs>
     <path d="M 54.890625 54.6875 
L 35.109375 28.078125 
L 55.90625 0 
L 45.3125 0 
L 29.390625 21.484375 
L 13.484375 0 
L 2.875 0 
L 24.125 28.609375 
L 4.6875 54.6875 
L 15.28125 54.6875 
L 29.78125 35.203125 
L 44.28125 54.6875 
z
" id="DejaVuSans-120"/>
     <path d="M 37.109375 75.984375 
L 37.109375 68.5 
L 28.515625 68.5 
Q 23.6875 68.5 21.796875 66.546875 
Q 19.921875 64.59375 19.921875 59.515625 
L 19.921875 54.6875 
L 34.71875 54.6875 
L 34.71875 47.703125 
L 19.921875 47.703125 
L 19.921875 0 
L 10.890625 0 
L 10.890625 47.703125 
L 2.296875 47.703125 
L 2.296875 54.6875 
L 10.890625 54.6875 
L 10.890625 58.5 
Q 10.890625 67.625 15.140625 71.796875 
Q 19.390625 75.984375 28.609375 75.984375 
z
" id="DejaVuSans-102"/>
    </defs>
    <use xlink:href="#DejaVuSans-66"/>
    <use x="68.603516" xlink:href="#DejaVuSans-111"/>
    <use x="126.660156" xlink:href="#DejaVuSans-120"/>
    <use x="185.839844" xlink:href="#DejaVuSans-32"/>
    <use x="217.626953" xlink:href="#DejaVuSans-112"/>
    <use x="281.103516" xlink:href="#DejaVuSans-108"/>
    <use x="308.886719" xlink:href="#DejaVuSans-111"/>
    <use x="370.068359" xlink:href="#DejaVuSans-116"/>
    <use x="409.277344" xlink:href="#DejaVuSans-32"/>
    <use x="441.064453" xlink:href="#DejaVuSans-111"/>
    <use x="502.246094" xlink:href="#DejaVuSans-102"/>
    <use x="537.451172" xlink:href="#DejaVuSans-32"/>
    <use x="569.238281" xlink:href="#DejaVuSans-116"/>
    <use x="608.447266" xlink:href="#DejaVuSans-111"/>
    <use x="669.628906" xlink:href="#DejaVuSans-116"/>
    <use x="708.837891" xlink:href="#DejaVuSans-97"/>
    <use x="770.117188" xlink:href="#DejaVuSans-108"/>
    <use x="797.900391" xlink:href="#DejaVuSans-115"/>
   </g>
  </g>
 </g>
 <defs>
  <clipPath id="p66369e4bbb">
   <rect height="476.2296" width="933.624" x="160.56" y="74.2176"/>
  </clipPath>
 </defs>
</svg>
