<?xml version="1.0" encoding="utf-8" standalone="no"?>
<!DOCTYPE svg PUBLIC "-//W3C//DTD SVG 1.1//EN"
  "http://www.w3.org/Graphics/SVG/1.1/DTD/svg11.dtd">
<!-- Created with matplotlib (https://matplotlib.org/) -->
<svg height="618.48pt" version="1.1" viewBox="0 0 995.76 618.48" width="995.76pt" xmlns="http://www.w3.org/2000/svg" xmlns:xlink="http://www.w3.org/1999/xlink">
 <metadata>
  <rdf:RDF xmlns:cc="http://creativecommons.org/ns#" xmlns:dc="http://purl.org/dc/elements/1.1/" xmlns:rdf="http://www.w3.org/1999/02/22-rdf-syntax-ns#">
   <cc:Work>
    <dc:type rdf:resource="http://purl.org/dc/dcmitype/StillImage"/>
    <dc:date>2025-06-13T08:42:25.878695</dc:date>
    <dc:format>image/svg+xml</dc:format>
    <dc:creator>
     <cc:Agent>
      <dc:title>Matplotlib v3.3.4, https://matplotlib.org/</dc:title>
     </cc:Agent>
    </dc:creator>
   </cc:Work>
  </rdf:RDF>
 </metadata>
 <defs>
  <style type="text/css">*{stroke-linecap:butt;stroke-linejoin:round;}</style>
 </defs>
 <g id="figure_1">
  <g id="patch_1">
   <path d="M 0 618.48 
L 995.76 618.48 
L 995.76 0 
L 0 0 
z
" style="fill:#ffffff;"/>
  </g>
  <g id="axes_1">
   <g id="patch_2">
    <path d="M 124.47 550.4472 
L 834.336 550.4472 
L 834.336 74.2176 
L 124.47 74.2176 
z
" style="fill:#e6e6e6;"/>
   </g>
   <g id="matplotlib.axis_1">
    <g id="xtick_1">
     <g id="line2d_1"/>
     <g id="text_1">
      <!-- BBR-v3 -->
      <g transform="translate(166.666375 589.844075)rotate(-90)scale(0.1 -0.1)">
       <defs>
        <path d="M 19.671875 34.8125 
L 19.671875 8.109375 
L 35.5 8.109375 
Q 43.453125 8.109375 47.28125 11.40625 
Q 51.125 14.703125 51.125 21.484375 
Q 51.125 28.328125 47.28125 31.5625 
Q 43.453125 34.8125 35.5 34.8125 
z
M 19.671875 64.796875 
L 19.671875 42.828125 
L 34.28125 42.828125 
Q 41.5 42.828125 45.03125 45.53125 
Q 48.578125 48.25 48.578125 53.8125 
Q 48.578125 59.328125 45.03125 62.0625 
Q 41.5 64.796875 34.28125 64.796875 
z
M 9.8125 72.90625 
L 35.015625 72.90625 
Q 46.296875 72.90625 52.390625 68.21875 
Q 58.5 63.53125 58.5 54.890625 
Q 58.5 48.1875 55.375 44.234375 
Q 52.25 40.28125 46.1875 39.3125 
Q 53.46875 37.75 57.5 32.78125 
Q 61.53125 27.828125 61.53125 20.40625 
Q 61.53125 10.640625 54.890625 5.3125 
Q 48.25 0 35.984375 0 
L 9.8125 0 
z
" id="DejaVuSans-66"/>
        <path d="M 44.390625 34.1875 
Q 47.5625 33.109375 50.5625 29.59375 
Q 53.5625 26.078125 56.59375 19.921875 
L 66.609375 0 
L 56 0 
L 46.6875 18.703125 
Q 43.0625 26.03125 39.671875 28.421875 
Q 36.28125 30.8125 30.421875 30.8125 
L 19.671875 30.8125 
L 19.671875 0 
L 9.8125 0 
L 9.8125 72.90625 
L 32.078125 72.90625 
Q 44.578125 72.90625 50.734375 67.671875 
Q 56.890625 62.453125 56.890625 51.90625 
Q 56.890625 45.015625 53.6875 40.46875 
Q 50.484375 35.9375 44.390625 34.1875 
z
M 19.671875 64.796875 
L 19.671875 38.921875 
L 32.078125 38.921875 
Q 39.203125 38.921875 42.84375 42.21875 
Q 46.484375 45.515625 46.484375 51.90625 
Q 46.484375 58.296875 42.84375 61.546875 
Q 39.203125 64.796875 32.078125 64.796875 
z
" id="DejaVuSans-82"/>
        <path d="M 4.890625 31.390625 
L 31.203125 31.390625 
L 31.203125 23.390625 
L 4.890625 23.390625 
z
" id="DejaVuSans-45"/>
        <path d="M 2.984375 54.6875 
L 12.5 54.6875 
L 29.59375 8.796875 
L 46.6875 54.6875 
L 56.203125 54.6875 
L 35.6875 0 
L 23.484375 0 
z
" id="DejaVuSans-118"/>
        <path d="M 40.578125 39.3125 
Q 47.65625 37.796875 51.625 33 
Q 55.609375 28.21875 55.609375 21.1875 
Q 55.609375 10.40625 48.1875 4.484375 
Q 40.765625 -1.421875 27.09375 -1.421875 
Q 22.515625 -1.421875 17.65625 -0.515625 
Q 12.796875 0.390625 7.625 2.203125 
L 7.625 11.71875 
Q 11.71875 9.328125 16.59375 8.109375 
Q 21.484375 6.890625 26.8125 6.890625 
Q 36.078125 6.890625 40.9375 10.546875 
Q 45.796875 14.203125 45.796875 21.1875 
Q 45.796875 27.640625 41.28125 31.265625 
Q 36.765625 34.90625 28.71875 34.90625 
L 20.21875 34.90625 
L 20.21875 43.015625 
L 29.109375 43.015625 
Q 36.375 43.015625 40.234375 45.921875 
Q 44.09375 48.828125 44.09375 54.296875 
Q 44.09375 59.90625 40.109375 62.90625 
Q 36.140625 65.921875 28.71875 65.921875 
Q 24.65625 65.921875 20.015625 65.03125 
Q 15.375 64.15625 9.8125 62.3125 
L 9.8125 71.09375 
Q 15.4375 72.65625 20.34375 73.4375 
Q 25.25 74.21875 29.59375 74.21875 
Q 40.828125 74.21875 47.359375 69.109375 
Q 53.90625 64.015625 53.90625 55.328125 
Q 53.90625 49.265625 50.4375 45.09375 
Q 46.96875 40.921875 40.578125 39.3125 
z
" id="DejaVuSans-51"/>
       </defs>
       <use xlink:href="#DejaVuSans-66"/>
       <use x="68.603516" xlink:href="#DejaVuSans-66"/>
       <use x="137.207031" xlink:href="#DejaVuSans-82"/>
       <use x="202.689453" xlink:href="#DejaVuSans-45"/>
       <use x="236.148438" xlink:href="#DejaVuSans-118"/>
       <use x="295.328125" xlink:href="#DejaVuSans-51"/>
      </g>
     </g>
    </g>
    <g id="xtick_2">
     <g id="line2d_2"/>
     <g id="text_2">
      <!-- Yeah -->
      <g transform="translate(206.103375 577.348763)rotate(-90)scale(0.1 -0.1)">
       <defs>
        <path d="M -0.203125 72.90625 
L 10.40625 72.90625 
L 30.609375 42.921875 
L 50.6875 72.90625 
L 61.28125 72.90625 
L 35.5 34.71875 
L 35.5 0 
L 25.59375 0 
L 25.59375 34.71875 
z
" id="DejaVuSans-89"/>
        <path d="M 56.203125 29.59375 
L 56.203125 25.203125 
L 14.890625 25.203125 
Q 15.484375 15.921875 20.484375 11.0625 
Q 25.484375 6.203125 34.421875 6.203125 
Q 39.59375 6.203125 44.453125 7.46875 
Q 49.3125 8.734375 54.109375 11.28125 
L 54.109375 2.78125 
Q 49.265625 0.734375 44.1875 -0.34375 
Q 39.109375 -1.421875 33.890625 -1.421875 
Q 20.796875 -1.421875 13.15625 6.1875 
Q 5.515625 13.8125 5.515625 26.8125 
Q 5.515625 40.234375 12.765625 48.109375 
Q 20.015625 56 32.328125 56 
Q 43.359375 56 49.78125 48.890625 
Q 56.203125 41.796875 56.203125 29.59375 
z
M 47.21875 32.234375 
Q 47.125 39.59375 43.09375 43.984375 
Q 39.0625 48.390625 32.421875 48.390625 
Q 24.90625 48.390625 20.390625 44.140625 
Q 15.875 39.890625 15.1875 32.171875 
z
" id="DejaVuSans-101"/>
        <path d="M 34.28125 27.484375 
Q 23.390625 27.484375 19.1875 25 
Q 14.984375 22.515625 14.984375 16.5 
Q 14.984375 11.71875 18.140625 8.90625 
Q 21.296875 6.109375 26.703125 6.109375 
Q 34.1875 6.109375 38.703125 11.40625 
Q 43.21875 16.703125 43.21875 25.484375 
L 43.21875 27.484375 
z
M 52.203125 31.203125 
L 52.203125 0 
L 43.21875 0 
L 43.21875 8.296875 
Q 40.140625 3.328125 35.546875 0.953125 
Q 30.953125 -1.421875 24.3125 -1.421875 
Q 15.921875 -1.421875 10.953125 3.296875 
Q 6 8.015625 6 15.921875 
Q 6 25.140625 12.171875 29.828125 
Q 18.359375 34.515625 30.609375 34.515625 
L 43.21875 34.515625 
L 43.21875 35.40625 
Q 43.21875 41.609375 39.140625 45 
Q 35.0625 48.390625 27.6875 48.390625 
Q 23 48.390625 18.546875 47.265625 
Q 14.109375 46.140625 10.015625 43.890625 
L 10.015625 52.203125 
Q 14.9375 54.109375 19.578125 55.046875 
Q 24.21875 56 28.609375 56 
Q 40.484375 56 46.34375 49.84375 
Q 52.203125 43.703125 52.203125 31.203125 
z
" id="DejaVuSans-97"/>
        <path d="M 54.890625 33.015625 
L 54.890625 0 
L 45.90625 0 
L 45.90625 32.71875 
Q 45.90625 40.484375 42.875 44.328125 
Q 39.84375 48.1875 33.796875 48.1875 
Q 26.515625 48.1875 22.3125 43.546875 
Q 18.109375 38.921875 18.109375 30.90625 
L 18.109375 0 
L 9.078125 0 
L 9.078125 75.984375 
L 18.109375 75.984375 
L 18.109375 46.1875 
Q 21.34375 51.125 25.703125 53.5625 
Q 30.078125 56 35.796875 56 
Q 45.21875 56 50.046875 50.171875 
Q 54.890625 44.34375 54.890625 33.015625 
z
" id="DejaVuSans-104"/>
       </defs>
       <use xlink:href="#DejaVuSans-89"/>
       <use x="47.833984" xlink:href="#DejaVuSans-101"/>
       <use x="109.357422" xlink:href="#DejaVuSans-97"/>
       <use x="170.636719" xlink:href="#DejaVuSans-104"/>
      </g>
     </g>
    </g>
    <g id="xtick_3">
     <g id="line2d_3"/>
     <g id="text_3">
      <!-- Nevada -->
      <g transform="translate(245.540375 592.105013)rotate(-90)scale(0.1 -0.1)">
       <defs>
        <path d="M 9.8125 72.90625 
L 23.09375 72.90625 
L 55.421875 11.921875 
L 55.421875 72.90625 
L 64.984375 72.90625 
L 64.984375 0 
L 51.703125 0 
L 19.390625 60.984375 
L 19.390625 0 
L 9.8125 0 
z
" id="DejaVuSans-78"/>
        <path d="M 45.40625 46.390625 
L 45.40625 75.984375 
L 54.390625 75.984375 
L 54.390625 0 
L 45.40625 0 
L 45.40625 8.203125 
Q 42.578125 3.328125 38.25 0.953125 
Q 33.9375 -1.421875 27.875 -1.421875 
Q 17.96875 -1.421875 11.734375 6.484375 
Q 5.515625 14.40625 5.515625 27.296875 
Q 5.515625 40.1875 11.734375 48.09375 
Q 17.96875 56 27.875 56 
Q 33.9375 56 38.25 53.625 
Q 42.578125 51.265625 45.40625 46.390625 
z
M 14.796875 27.296875 
Q 14.796875 17.390625 18.875 11.75 
Q 22.953125 6.109375 30.078125 6.109375 
Q 37.203125 6.109375 41.296875 11.75 
Q 45.40625 17.390625 45.40625 27.296875 
Q 45.40625 37.203125 41.296875 42.84375 
Q 37.203125 48.484375 30.078125 48.484375 
Q 22.953125 48.484375 18.875 42.84375 
Q 14.796875 37.203125 14.796875 27.296875 
z
" id="DejaVuSans-100"/>
       </defs>
       <use xlink:href="#DejaVuSans-78"/>
       <use x="74.804688" xlink:href="#DejaVuSans-101"/>
       <use x="136.328125" xlink:href="#DejaVuSans-118"/>
       <use x="195.507812" xlink:href="#DejaVuSans-97"/>
       <use x="256.787109" xlink:href="#DejaVuSans-100"/>
       <use x="320.263672" xlink:href="#DejaVuSans-97"/>
      </g>
     </g>
    </g>
    <g id="xtick_4">
     <g id="line2d_4"/>
     <g id="text_4">
      <!-- Veno -->
      <g transform="translate(284.977375 578.6222)rotate(-90)scale(0.1 -0.1)">
       <defs>
        <path d="M 28.609375 0 
L 0.78125 72.90625 
L 11.078125 72.90625 
L 34.1875 11.53125 
L 57.328125 72.90625 
L 67.578125 72.90625 
L 39.796875 0 
z
" id="DejaVuSans-86"/>
        <path d="M 54.890625 33.015625 
L 54.890625 0 
L 45.90625 0 
L 45.90625 32.71875 
Q 45.90625 40.484375 42.875 44.328125 
Q 39.84375 48.1875 33.796875 48.1875 
Q 26.515625 48.1875 22.3125 43.546875 
Q 18.109375 38.921875 18.109375 30.90625 
L 18.109375 0 
L 9.078125 0 
L 9.078125 54.6875 
L 18.109375 54.6875 
L 18.109375 46.1875 
Q 21.34375 51.125 25.703125 53.5625 
Q 30.078125 56 35.796875 56 
Q 45.21875 56 50.046875 50.171875 
Q 54.890625 44.34375 54.890625 33.015625 
z
" id="DejaVuSans-110"/>
        <path d="M 30.609375 48.390625 
Q 23.390625 48.390625 19.1875 42.75 
Q 14.984375 37.109375 14.984375 27.296875 
Q 14.984375 17.484375 19.15625 11.84375 
Q 23.34375 6.203125 30.609375 6.203125 
Q 37.796875 6.203125 41.984375 11.859375 
Q 46.1875 17.53125 46.1875 27.296875 
Q 46.1875 37.015625 41.984375 42.703125 
Q 37.796875 48.390625 30.609375 48.390625 
z
M 30.609375 56 
Q 42.328125 56 49.015625 48.375 
Q 55.71875 40.765625 55.71875 27.296875 
Q 55.71875 13.875 49.015625 6.21875 
Q 42.328125 -1.421875 30.609375 -1.421875 
Q 18.84375 -1.421875 12.171875 6.21875 
Q 5.515625 13.875 5.515625 27.296875 
Q 5.515625 40.765625 12.171875 48.375 
Q 18.84375 56 30.609375 56 
z
" id="DejaVuSans-111"/>
       </defs>
       <use xlink:href="#DejaVuSans-86"/>
       <use x="60.658203" xlink:href="#DejaVuSans-101"/>
       <use x="122.181641" xlink:href="#DejaVuSans-110"/>
       <use x="185.560547" xlink:href="#DejaVuSans-111"/>
      </g>
     </g>
    </g>
    <g id="xtick_5">
     <g id="line2d_5"/>
     <g id="text_5">
      <!-- Vegas -->
      <g transform="translate(324.414375 583.851887)rotate(-90)scale(0.1 -0.1)">
       <defs>
        <path d="M 45.40625 27.984375 
Q 45.40625 37.75 41.375 43.109375 
Q 37.359375 48.484375 30.078125 48.484375 
Q 22.859375 48.484375 18.828125 43.109375 
Q 14.796875 37.75 14.796875 27.984375 
Q 14.796875 18.265625 18.828125 12.890625 
Q 22.859375 7.515625 30.078125 7.515625 
Q 37.359375 7.515625 41.375 12.890625 
Q 45.40625 18.265625 45.40625 27.984375 
z
M 54.390625 6.78125 
Q 54.390625 -7.171875 48.1875 -13.984375 
Q 42 -20.796875 29.203125 -20.796875 
Q 24.46875 -20.796875 20.265625 -20.09375 
Q 16.0625 -19.390625 12.109375 -17.921875 
L 12.109375 -9.1875 
Q 16.0625 -11.328125 19.921875 -12.34375 
Q 23.78125 -13.375 27.78125 -13.375 
Q 36.625 -13.375 41.015625 -8.765625 
Q 45.40625 -4.15625 45.40625 5.171875 
L 45.40625 9.625 
Q 42.625 4.78125 38.28125 2.390625 
Q 33.9375 0 27.875 0 
Q 17.828125 0 11.671875 7.65625 
Q 5.515625 15.328125 5.515625 27.984375 
Q 5.515625 40.671875 11.671875 48.328125 
Q 17.828125 56 27.875 56 
Q 33.9375 56 38.28125 53.609375 
Q 42.625 51.21875 45.40625 46.390625 
L 45.40625 54.6875 
L 54.390625 54.6875 
z
" id="DejaVuSans-103"/>
        <path d="M 44.28125 53.078125 
L 44.28125 44.578125 
Q 40.484375 46.53125 36.375 47.5 
Q 32.28125 48.484375 27.875 48.484375 
Q 21.1875 48.484375 17.84375 46.4375 
Q 14.5 44.390625 14.5 40.28125 
Q 14.5 37.15625 16.890625 35.375 
Q 19.28125 33.59375 26.515625 31.984375 
L 29.59375 31.296875 
Q 39.15625 29.25 43.1875 25.515625 
Q 47.21875 21.78125 47.21875 15.09375 
Q 47.21875 7.46875 41.1875 3.015625 
Q 35.15625 -1.421875 24.609375 -1.421875 
Q 20.21875 -1.421875 15.453125 -0.5625 
Q 10.6875 0.296875 5.421875 2 
L 5.421875 11.28125 
Q 10.40625 8.6875 15.234375 7.390625 
Q 20.0625 6.109375 24.8125 6.109375 
Q 31.15625 6.109375 34.5625 8.28125 
Q 37.984375 10.453125 37.984375 14.40625 
Q 37.984375 18.0625 35.515625 20.015625 
Q 33.0625 21.96875 24.703125 23.78125 
L 21.578125 24.515625 
Q 13.234375 26.265625 9.515625 29.90625 
Q 5.8125 33.546875 5.8125 39.890625 
Q 5.8125 47.609375 11.28125 51.796875 
Q 16.75 56 26.8125 56 
Q 31.78125 56 36.171875 55.265625 
Q 40.578125 54.546875 44.28125 53.078125 
z
" id="DejaVuSans-115"/>
       </defs>
       <use xlink:href="#DejaVuSans-86"/>
       <use x="60.658203" xlink:href="#DejaVuSans-101"/>
       <use x="122.181641" xlink:href="#DejaVuSans-103"/>
       <use x="185.658203" xlink:href="#DejaVuSans-97"/>
       <use x="246.9375" xlink:href="#DejaVuSans-115"/>
      </g>
     </g>
    </g>
    <g id="xtick_6">
     <g id="line2d_6"/>
     <g id="text_6">
      <!-- DCTCP -->
      <g transform="translate(363.851375 587.162825)rotate(-90)scale(0.1 -0.1)">
       <defs>
        <path d="M 19.671875 64.796875 
L 19.671875 8.109375 
L 31.59375 8.109375 
Q 46.6875 8.109375 53.6875 14.9375 
Q 60.6875 21.78125 60.6875 36.53125 
Q 60.6875 51.171875 53.6875 57.984375 
Q 46.6875 64.796875 31.59375 64.796875 
z
M 9.8125 72.90625 
L 30.078125 72.90625 
Q 51.265625 72.90625 61.171875 64.09375 
Q 71.09375 55.28125 71.09375 36.53125 
Q 71.09375 17.671875 61.125 8.828125 
Q 51.171875 0 30.078125 0 
L 9.8125 0 
z
" id="DejaVuSans-68"/>
        <path d="M 64.40625 67.28125 
L 64.40625 56.890625 
Q 59.421875 61.53125 53.78125 63.8125 
Q 48.140625 66.109375 41.796875 66.109375 
Q 29.296875 66.109375 22.65625 58.46875 
Q 16.015625 50.828125 16.015625 36.375 
Q 16.015625 21.96875 22.65625 14.328125 
Q 29.296875 6.6875 41.796875 6.6875 
Q 48.140625 6.6875 53.78125 8.984375 
Q 59.421875 11.28125 64.40625 15.921875 
L 64.40625 5.609375 
Q 59.234375 2.09375 53.4375 0.328125 
Q 47.65625 -1.421875 41.21875 -1.421875 
Q 24.65625 -1.421875 15.125 8.703125 
Q 5.609375 18.84375 5.609375 36.375 
Q 5.609375 53.953125 15.125 64.078125 
Q 24.65625 74.21875 41.21875 74.21875 
Q 47.75 74.21875 53.53125 72.484375 
Q 59.328125 70.75 64.40625 67.28125 
z
" id="DejaVuSans-67"/>
        <path d="M -0.296875 72.90625 
L 61.375 72.90625 
L 61.375 64.59375 
L 35.5 64.59375 
L 35.5 0 
L 25.59375 0 
L 25.59375 64.59375 
L -0.296875 64.59375 
z
" id="DejaVuSans-84"/>
        <path d="M 19.671875 64.796875 
L 19.671875 37.40625 
L 32.078125 37.40625 
Q 38.96875 37.40625 42.71875 40.96875 
Q 46.484375 44.53125 46.484375 51.125 
Q 46.484375 57.671875 42.71875 61.234375 
Q 38.96875 64.796875 32.078125 64.796875 
z
M 9.8125 72.90625 
L 32.078125 72.90625 
Q 44.34375 72.90625 50.609375 67.359375 
Q 56.890625 61.8125 56.890625 51.125 
Q 56.890625 40.328125 50.609375 34.8125 
Q 44.34375 29.296875 32.078125 29.296875 
L 19.671875 29.296875 
L 19.671875 0 
L 9.8125 0 
z
" id="DejaVuSans-80"/>
       </defs>
       <use xlink:href="#DejaVuSans-68"/>
       <use x="77.001953" xlink:href="#DejaVuSans-67"/>
       <use x="146.826172" xlink:href="#DejaVuSans-84"/>
       <use x="202.035156" xlink:href="#DejaVuSans-67"/>
       <use x="271.859375" xlink:href="#DejaVuSans-80"/>
      </g>
     </g>
    </g>
    <g id="xtick_7">
     <g id="line2d_7"/>
     <g id="text_7">
      <!-- Reno -->
      <g transform="translate(403.288375 579.055012)rotate(-90)scale(0.1 -0.1)">
       <use xlink:href="#DejaVuSans-82"/>
       <use x="64.982422" xlink:href="#DejaVuSans-101"/>
       <use x="126.505859" xlink:href="#DejaVuSans-110"/>
       <use x="189.884766" xlink:href="#DejaVuSans-111"/>
      </g>
     </g>
    </g>
    <g id="xtick_8">
     <g id="line2d_8"/>
     <g id="text_8">
      <!-- Cubic -->
      <g transform="translate(442.725375 581.892513)rotate(-90)scale(0.1 -0.1)">
       <defs>
        <path d="M 8.5 21.578125 
L 8.5 54.6875 
L 17.484375 54.6875 
L 17.484375 21.921875 
Q 17.484375 14.15625 20.5 10.265625 
Q 23.53125 6.390625 29.59375 6.390625 
Q 36.859375 6.390625 41.078125 11.03125 
Q 45.3125 15.671875 45.3125 23.6875 
L 45.3125 54.6875 
L 54.296875 54.6875 
L 54.296875 0 
L 45.3125 0 
L 45.3125 8.40625 
Q 42.046875 3.421875 37.71875 1 
Q 33.40625 -1.421875 27.6875 -1.421875 
Q 18.265625 -1.421875 13.375 4.4375 
Q 8.5 10.296875 8.5 21.578125 
z
M 31.109375 56 
z
" id="DejaVuSans-117"/>
        <path d="M 48.6875 27.296875 
Q 48.6875 37.203125 44.609375 42.84375 
Q 40.53125 48.484375 33.40625 48.484375 
Q 26.265625 48.484375 22.1875 42.84375 
Q 18.109375 37.203125 18.109375 27.296875 
Q 18.109375 17.390625 22.1875 11.75 
Q 26.265625 6.109375 33.40625 6.109375 
Q 40.53125 6.109375 44.609375 11.75 
Q 48.6875 17.390625 48.6875 27.296875 
z
M 18.109375 46.390625 
Q 20.953125 51.265625 25.265625 53.625 
Q 29.59375 56 35.59375 56 
Q 45.5625 56 51.78125 48.09375 
Q 58.015625 40.1875 58.015625 27.296875 
Q 58.015625 14.40625 51.78125 6.484375 
Q 45.5625 -1.421875 35.59375 -1.421875 
Q 29.59375 -1.421875 25.265625 0.953125 
Q 20.953125 3.328125 18.109375 8.203125 
L 18.109375 0 
L 9.078125 0 
L 9.078125 75.984375 
L 18.109375 75.984375 
z
" id="DejaVuSans-98"/>
        <path d="M 9.421875 54.6875 
L 18.40625 54.6875 
L 18.40625 0 
L 9.421875 0 
z
M 9.421875 75.984375 
L 18.40625 75.984375 
L 18.40625 64.59375 
L 9.421875 64.59375 
z
" id="DejaVuSans-105"/>
        <path d="M 48.78125 52.59375 
L 48.78125 44.1875 
Q 44.96875 46.296875 41.140625 47.34375 
Q 37.3125 48.390625 33.40625 48.390625 
Q 24.65625 48.390625 19.8125 42.84375 
Q 14.984375 37.3125 14.984375 27.296875 
Q 14.984375 17.28125 19.8125 11.734375 
Q 24.65625 6.203125 33.40625 6.203125 
Q 37.3125 6.203125 41.140625 7.25 
Q 44.96875 8.296875 48.78125 10.40625 
L 48.78125 2.09375 
Q 45.015625 0.34375 40.984375 -0.53125 
Q 36.96875 -1.421875 32.421875 -1.421875 
Q 20.0625 -1.421875 12.78125 6.34375 
Q 5.515625 14.109375 5.515625 27.296875 
Q 5.515625 40.671875 12.859375 48.328125 
Q 20.21875 56 33.015625 56 
Q 37.15625 56 41.109375 55.140625 
Q 45.0625 54.296875 48.78125 52.59375 
z
" id="DejaVuSans-99"/>
       </defs>
       <use xlink:href="#DejaVuSans-67"/>
       <use x="69.824219" xlink:href="#DejaVuSans-117"/>
       <use x="133.203125" xlink:href="#DejaVuSans-98"/>
       <use x="196.679688" xlink:href="#DejaVuSans-105"/>
       <use x="224.462891" xlink:href="#DejaVuSans-99"/>
      </g>
     </g>
    </g>
    <g id="xtick_9">
     <g id="line2d_9"/>
     <g id="text_9">
      <!-- BBR-v3 -->
      <g transform="translate(521.599375 589.844075)rotate(-90)scale(0.1 -0.1)">
       <use xlink:href="#DejaVuSans-66"/>
       <use x="68.603516" xlink:href="#DejaVuSans-66"/>
       <use x="137.207031" xlink:href="#DejaVuSans-82"/>
       <use x="202.689453" xlink:href="#DejaVuSans-45"/>
       <use x="236.148438" xlink:href="#DejaVuSans-118"/>
       <use x="295.328125" xlink:href="#DejaVuSans-51"/>
      </g>
     </g>
    </g>
    <g id="xtick_10">
     <g id="line2d_10"/>
     <g id="text_10">
      <!-- Yeah -->
      <g transform="translate(561.036375 577.348763)rotate(-90)scale(0.1 -0.1)">
       <use xlink:href="#DejaVuSans-89"/>
       <use x="47.833984" xlink:href="#DejaVuSans-101"/>
       <use x="109.357422" xlink:href="#DejaVuSans-97"/>
       <use x="170.636719" xlink:href="#DejaVuSans-104"/>
      </g>
     </g>
    </g>
    <g id="xtick_11">
     <g id="line2d_11"/>
     <g id="text_11">
      <!-- Nevada -->
      <g transform="translate(600.473375 592.105013)rotate(-90)scale(0.1 -0.1)">
       <use xlink:href="#DejaVuSans-78"/>
       <use x="74.804688" xlink:href="#DejaVuSans-101"/>
       <use x="136.328125" xlink:href="#DejaVuSans-118"/>
       <use x="195.507812" xlink:href="#DejaVuSans-97"/>
       <use x="256.787109" xlink:href="#DejaVuSans-100"/>
       <use x="320.263672" xlink:href="#DejaVuSans-97"/>
      </g>
     </g>
    </g>
    <g id="xtick_12">
     <g id="line2d_12"/>
     <g id="text_12">
      <!-- Veno -->
      <g transform="translate(639.910375 578.6222)rotate(-90)scale(0.1 -0.1)">
       <use xlink:href="#DejaVuSans-86"/>
       <use x="60.658203" xlink:href="#DejaVuSans-101"/>
       <use x="122.181641" xlink:href="#DejaVuSans-110"/>
       <use x="185.560547" xlink:href="#DejaVuSans-111"/>
      </g>
     </g>
    </g>
    <g id="xtick_13">
     <g id="line2d_13"/>
     <g id="text_13">
      <!-- Vegas -->
      <g transform="translate(679.347375 583.851887)rotate(-90)scale(0.1 -0.1)">
       <use xlink:href="#DejaVuSans-86"/>
       <use x="60.658203" xlink:href="#DejaVuSans-101"/>
       <use x="122.181641" xlink:href="#DejaVuSans-103"/>
       <use x="185.658203" xlink:href="#DejaVuSans-97"/>
       <use x="246.9375" xlink:href="#DejaVuSans-115"/>
      </g>
     </g>
    </g>
    <g id="xtick_14">
     <g id="line2d_14"/>
     <g id="text_14">
      <!-- DCTCP -->
      <g transform="translate(718.784375 587.162825)rotate(-90)scale(0.1 -0.1)">
       <use xlink:href="#DejaVuSans-68"/>
       <use x="77.001953" xlink:href="#DejaVuSans-67"/>
       <use x="146.826172" xlink:href="#DejaVuSans-84"/>
       <use x="202.035156" xlink:href="#DejaVuSans-67"/>
       <use x="271.859375" xlink:href="#DejaVuSans-80"/>
      </g>
     </g>
    </g>
    <g id="xtick_15">
     <g id="line2d_15"/>
     <g id="text_15">
      <!-- Reno -->
      <g transform="translate(758.221375 579.055012)rotate(-90)scale(0.1 -0.1)">
       <use xlink:href="#DejaVuSans-82"/>
       <use x="64.982422" xlink:href="#DejaVuSans-101"/>
       <use x="126.505859" xlink:href="#DejaVuSans-110"/>
       <use x="189.884766" xlink:href="#DejaVuSans-111"/>
      </g>
     </g>
    </g>
    <g id="xtick_16">
     <g id="line2d_16"/>
     <g id="text_16">
      <!-- Cubic -->
      <g transform="translate(797.658375 581.892513)rotate(-90)scale(0.1 -0.1)">
       <use xlink:href="#DejaVuSans-67"/>
       <use x="69.824219" xlink:href="#DejaVuSans-117"/>
       <use x="133.203125" xlink:href="#DejaVuSans-98"/>
       <use x="196.679688" xlink:href="#DejaVuSans-105"/>
       <use x="224.462891" xlink:href="#DejaVuSans-99"/>
      </g>
     </g>
    </g>
   </g>
   <g id="matplotlib.axis_2">
    <g id="ytick_1">
     <g id="line2d_17"/>
     <g id="text_17">
      <!-- 0 -->
      <g transform="translate(114.6075 552.802994)scale(0.1 -0.1)">
       <defs>
        <path d="M 31.78125 66.40625 
Q 24.171875 66.40625 20.328125 58.90625 
Q 16.5 51.421875 16.5 36.375 
Q 16.5 21.390625 20.328125 13.890625 
Q 24.171875 6.390625 31.78125 6.390625 
Q 39.453125 6.390625 43.28125 13.890625 
Q 47.125 21.390625 47.125 36.375 
Q 47.125 51.421875 43.28125 58.90625 
Q 39.453125 66.40625 31.78125 66.40625 
z
M 31.78125 74.21875 
Q 44.046875 74.21875 50.515625 64.515625 
Q 56.984375 54.828125 56.984375 36.375 
Q 56.984375 17.96875 50.515625 8.265625 
Q 44.046875 -1.421875 31.78125 -1.421875 
Q 19.53125 -1.421875 13.0625 8.265625 
Q 6.59375 17.96875 6.59375 36.375 
Q 6.59375 54.828125 13.0625 64.515625 
Q 19.53125 74.21875 31.78125 74.21875 
z
" id="DejaVuSans-48"/>
       </defs>
       <use xlink:href="#DejaVuSans-48"/>
      </g>
     </g>
    </g>
    <g id="ytick_2">
     <g id="line2d_18"/>
     <g id="text_18">
      <!-- 20 -->
      <g transform="translate(108.245 472.693027)scale(0.1 -0.1)">
       <defs>
        <path d="M 19.1875 8.296875 
L 53.609375 8.296875 
L 53.609375 0 
L 7.328125 0 
L 7.328125 8.296875 
Q 12.9375 14.109375 22.625 23.890625 
Q 32.328125 33.6875 34.8125 36.53125 
Q 39.546875 41.84375 41.421875 45.53125 
Q 43.3125 49.21875 43.3125 52.78125 
Q 43.3125 58.59375 39.234375 62.25 
Q 35.15625 65.921875 28.609375 65.921875 
Q 23.96875 65.921875 18.8125 64.3125 
Q 13.671875 62.703125 7.8125 59.421875 
L 7.8125 69.390625 
Q 13.765625 71.78125 18.9375 73 
Q 24.125 74.21875 28.421875 74.21875 
Q 39.75 74.21875 46.484375 68.546875 
Q 53.21875 62.890625 53.21875 53.421875 
Q 53.21875 48.921875 51.53125 44.890625 
Q 49.859375 40.875 45.40625 35.40625 
Q 44.1875 33.984375 37.640625 27.21875 
Q 31.109375 20.453125 19.1875 8.296875 
z
" id="DejaVuSans-50"/>
       </defs>
       <use xlink:href="#DejaVuSans-50"/>
       <use x="63.623047" xlink:href="#DejaVuSans-48"/>
      </g>
     </g>
    </g>
    <g id="ytick_3">
     <g id="line2d_19"/>
     <g id="text_19">
      <!-- 40 -->
      <g transform="translate(108.245 392.583061)scale(0.1 -0.1)">
       <defs>
        <path d="M 37.796875 64.3125 
L 12.890625 25.390625 
L 37.796875 25.390625 
z
M 35.203125 72.90625 
L 47.609375 72.90625 
L 47.609375 25.390625 
L 58.015625 25.390625 
L 58.015625 17.1875 
L 47.609375 17.1875 
L 47.609375 0 
L 37.796875 0 
L 37.796875 17.1875 
L 4.890625 17.1875 
L 4.890625 26.703125 
z
" id="DejaVuSans-52"/>
       </defs>
       <use xlink:href="#DejaVuSans-52"/>
       <use x="63.623047" xlink:href="#DejaVuSans-48"/>
      </g>
     </g>
    </g>
    <g id="ytick_4">
     <g id="line2d_20"/>
     <g id="text_20">
      <!-- 60 -->
      <g transform="translate(108.245 312.473094)scale(0.1 -0.1)">
       <defs>
        <path d="M 33.015625 40.375 
Q 26.375 40.375 22.484375 35.828125 
Q 18.609375 31.296875 18.609375 23.390625 
Q 18.609375 15.53125 22.484375 10.953125 
Q 26.375 6.390625 33.015625 6.390625 
Q 39.65625 6.390625 43.53125 10.953125 
Q 47.40625 15.53125 47.40625 23.390625 
Q 47.40625 31.296875 43.53125 35.828125 
Q 39.65625 40.375 33.015625 40.375 
z
M 52.59375 71.296875 
L 52.59375 62.3125 
Q 48.875 64.0625 45.09375 64.984375 
Q 41.3125 65.921875 37.59375 65.921875 
Q 27.828125 65.921875 22.671875 59.328125 
Q 17.53125 52.734375 16.796875 39.40625 
Q 19.671875 43.65625 24.015625 45.921875 
Q 28.375 48.1875 33.59375 48.1875 
Q 44.578125 48.1875 50.953125 41.515625 
Q 57.328125 34.859375 57.328125 23.390625 
Q 57.328125 12.15625 50.6875 5.359375 
Q 44.046875 -1.421875 33.015625 -1.421875 
Q 20.359375 -1.421875 13.671875 8.265625 
Q 6.984375 17.96875 6.984375 36.375 
Q 6.984375 53.65625 15.1875 63.9375 
Q 23.390625 74.21875 37.203125 74.21875 
Q 40.921875 74.21875 44.703125 73.484375 
Q 48.484375 72.75 52.59375 71.296875 
z
" id="DejaVuSans-54"/>
       </defs>
       <use xlink:href="#DejaVuSans-54"/>
       <use x="63.623047" xlink:href="#DejaVuSans-48"/>
      </g>
     </g>
    </g>
    <g id="ytick_5">
     <g id="line2d_21"/>
     <g id="text_21">
      <!-- 80 -->
      <g transform="translate(108.245 232.363128)scale(0.1 -0.1)">
       <defs>
        <path d="M 31.78125 34.625 
Q 24.75 34.625 20.71875 30.859375 
Q 16.703125 27.09375 16.703125 20.515625 
Q 16.703125 13.921875 20.71875 10.15625 
Q 24.75 6.390625 31.78125 6.390625 
Q 38.8125 6.390625 42.859375 10.171875 
Q 46.921875 13.96875 46.921875 20.515625 
Q 46.921875 27.09375 42.890625 30.859375 
Q 38.875 34.625 31.78125 34.625 
z
M 21.921875 38.8125 
Q 15.578125 40.375 12.03125 44.71875 
Q 8.5 49.078125 8.5 55.328125 
Q 8.5 64.0625 14.71875 69.140625 
Q 20.953125 74.21875 31.78125 74.21875 
Q 42.671875 74.21875 48.875 69.140625 
Q 55.078125 64.0625 55.078125 55.328125 
Q 55.078125 49.078125 51.53125 44.71875 
Q 48 40.375 41.703125 38.8125 
Q 48.828125 37.15625 52.796875 32.3125 
Q 56.78125 27.484375 56.78125 20.515625 
Q 56.78125 9.90625 50.3125 4.234375 
Q 43.84375 -1.421875 31.78125 -1.421875 
Q 19.734375 -1.421875 13.25 4.234375 
Q 6.78125 9.90625 6.78125 20.515625 
Q 6.78125 27.484375 10.78125 32.3125 
Q 14.796875 37.15625 21.921875 38.8125 
z
M 18.3125 54.390625 
Q 18.3125 48.734375 21.84375 45.5625 
Q 25.390625 42.390625 31.78125 42.390625 
Q 38.140625 42.390625 41.71875 45.5625 
Q 45.3125 48.734375 45.3125 54.390625 
Q 45.3125 60.0625 41.71875 63.234375 
Q 38.140625 66.40625 31.78125 66.40625 
Q 25.390625 66.40625 21.84375 63.234375 
Q 18.3125 60.0625 18.3125 54.390625 
z
" id="DejaVuSans-56"/>
       </defs>
       <use xlink:href="#DejaVuSans-56"/>
       <use x="63.623047" xlink:href="#DejaVuSans-48"/>
      </g>
     </g>
    </g>
    <g id="ytick_6">
     <g id="line2d_22"/>
     <g id="text_22">
      <!-- 100 -->
      <g transform="translate(101.8825 152.253161)scale(0.1 -0.1)">
       <defs>
        <path d="M 12.40625 8.296875 
L 28.515625 8.296875 
L 28.515625 63.921875 
L 10.984375 60.40625 
L 10.984375 69.390625 
L 28.421875 72.90625 
L 38.28125 72.90625 
L 38.28125 8.296875 
L 54.390625 8.296875 
L 54.390625 0 
L 12.40625 0 
z
" id="DejaVuSans-49"/>
       </defs>
       <use xlink:href="#DejaVuSans-49"/>
       <use x="63.623047" xlink:href="#DejaVuSans-48"/>
       <use x="127.246094" xlink:href="#DejaVuSans-48"/>
      </g>
     </g>
    </g>
    <g id="ytick_7">
     <g id="line2d_23"/>
    </g>
    <g id="ytick_8">
     <g id="line2d_24"/>
    </g>
    <g id="ytick_9">
     <g id="line2d_25"/>
    </g>
    <g id="ytick_10">
     <g id="line2d_26"/>
    </g>
    <g id="ytick_11">
     <g id="line2d_27"/>
    </g>
    <g id="ytick_12">
     <g id="line2d_28"/>
    </g>
    <g id="ytick_13">
     <g id="line2d_29"/>
    </g>
    <g id="ytick_14">
     <g id="line2d_30"/>
    </g>
    <g id="ytick_15">
     <g id="line2d_31"/>
    </g>
    <g id="ytick_16">
     <g id="line2d_32"/>
    </g>
    <g id="ytick_17">
     <g id="line2d_33"/>
    </g>
    <g id="ytick_18">
     <g id="line2d_34"/>
    </g>
    <g id="ytick_19">
     <g id="line2d_35"/>
    </g>
    <g id="ytick_20">
     <g id="line2d_36"/>
    </g>
    <g id="ytick_21">
     <g id="line2d_37"/>
    </g>
    <g id="ytick_22">
     <g id="line2d_38"/>
    </g>
    <g id="ytick_23">
     <g id="line2d_39"/>
    </g>
    <g id="ytick_24">
     <g id="line2d_40"/>
    </g>
    <g id="text_23">
     <!-- Mbits/s -->
     <g transform="translate(95.802812 330.06365)rotate(-90)scale(0.1 -0.1)">
      <defs>
       <path d="M 9.8125 72.90625 
L 24.515625 72.90625 
L 43.109375 23.296875 
L 61.8125 72.90625 
L 76.515625 72.90625 
L 76.515625 0 
L 66.890625 0 
L 66.890625 64.015625 
L 48.09375 14.015625 
L 38.1875 14.015625 
L 19.390625 64.015625 
L 19.390625 0 
L 9.8125 0 
z
" id="DejaVuSans-77"/>
       <path d="M 18.3125 70.21875 
L 18.3125 54.6875 
L 36.8125 54.6875 
L 36.8125 47.703125 
L 18.3125 47.703125 
L 18.3125 18.015625 
Q 18.3125 11.328125 20.140625 9.421875 
Q 21.96875 7.515625 27.59375 7.515625 
L 36.8125 7.515625 
L 36.8125 0 
L 27.59375 0 
Q 17.1875 0 13.234375 3.875 
Q 9.28125 7.765625 9.28125 18.015625 
L 9.28125 47.703125 
L 2.6875 47.703125 
L 2.6875 54.6875 
L 9.28125 54.6875 
L 9.28125 70.21875 
z
" id="DejaVuSans-116"/>
       <path d="M 25.390625 72.90625 
L 33.6875 72.90625 
L 8.296875 -9.28125 
L 0 -9.28125 
z
" id="DejaVuSans-47"/>
      </defs>
      <use xlink:href="#DejaVuSans-77"/>
      <use x="86.279297" xlink:href="#DejaVuSans-98"/>
      <use x="149.755859" xlink:href="#DejaVuSans-105"/>
      <use x="177.539062" xlink:href="#DejaVuSans-116"/>
      <use x="216.748047" xlink:href="#DejaVuSans-115"/>
      <use x="268.847656" xlink:href="#DejaVuSans-47"/>
      <use x="302.539062" xlink:href="#DejaVuSans-115"/>
     </g>
    </g>
   </g>
   <g id="line2d_41">
    <path clip-path="url(#p6cad198a95)" d="M 154.04775 498.694651 
L 173.76625 498.694651 
L 173.76625 460.021536 
L 154.04775 460.021536 
L 154.04775 498.694651 
" style="fill:none;stroke:#1b9e77;stroke-linecap:round;"/>
   </g>
   <g id="line2d_42">
    <path clip-path="url(#p6cad198a95)" d="M 163.907 498.694651 
L 163.907 544.316267 
" style="fill:none;stroke:#1b9e77;stroke-linecap:round;"/>
   </g>
   <g id="line2d_43">
    <path clip-path="url(#p6cad198a95)" d="M 163.907 460.021536 
L 163.907 410.391225 
" style="fill:none;stroke:#1b9e77;stroke-linecap:round;"/>
   </g>
   <g id="line2d_44">
    <path clip-path="url(#p6cad198a95)" d="M 158.977375 544.316267 
L 168.836625 544.316267 
" style="fill:none;stroke:#1b9e77;stroke-linecap:round;"/>
   </g>
   <g id="line2d_45">
    <path clip-path="url(#p6cad198a95)" d="M 158.977375 410.391225 
L 168.836625 410.391225 
" style="fill:none;stroke:#1b9e77;stroke-linecap:round;"/>
   </g>
   <g id="line2d_46"/>
   <g id="line2d_47">
    <path clip-path="url(#p6cad198a95)" d="M 193.48475 507.873612 
L 213.20325 507.873612 
L 213.20325 470.174658 
L 193.48475 470.174658 
L 193.48475 507.873612 
" style="fill:none;stroke:#d95f02;stroke-linecap:round;"/>
   </g>
   <g id="line2d_48">
    <path clip-path="url(#p6cad198a95)" d="M 203.344 507.873612 
L 203.344 543.740515 
" style="fill:none;stroke:#d95f02;stroke-linecap:round;"/>
   </g>
   <g id="line2d_49">
    <path clip-path="url(#p6cad198a95)" d="M 203.344 470.174658 
L 203.344 421.983833 
" style="fill:none;stroke:#d95f02;stroke-linecap:round;"/>
   </g>
   <g id="line2d_50">
    <path clip-path="url(#p6cad198a95)" d="M 198.414375 543.740515 
L 208.273625 543.740515 
" style="fill:none;stroke:#d95f02;stroke-linecap:round;"/>
   </g>
   <g id="line2d_51">
    <path clip-path="url(#p6cad198a95)" d="M 198.414375 421.983833 
L 208.273625 421.983833 
" style="fill:none;stroke:#d95f02;stroke-linecap:round;"/>
   </g>
   <g id="line2d_52">
    <defs>
     <path d="M -3 0 
L 3 0 
M 0 3 
L 0 -3 
" id="mbe1cd880cb" style="stroke:#d95f02;"/>
    </defs>
    <g clip-path="url(#p6cad198a95)">
     <use style="fill:#0000ff;stroke:#d95f02;" x="203.344" xlink:href="#mbe1cd880cb" y="391.948186"/>
     <use style="fill:#0000ff;stroke:#d95f02;" x="203.344" xlink:href="#mbe1cd880cb" y="275.455185"/>
     <use style="fill:#0000ff;stroke:#d95f02;" x="203.344" xlink:href="#mbe1cd880cb" y="198.270181"/>
     <use style="fill:#0000ff;stroke:#d95f02;" x="203.344" xlink:href="#mbe1cd880cb" y="204.084627"/>
     <use style="fill:#0000ff;stroke:#d95f02;" x="203.344" xlink:href="#mbe1cd880cb" y="294.923356"/>
     <use style="fill:#0000ff;stroke:#d95f02;" x="203.344" xlink:href="#mbe1cd880cb" y="269.129456"/>
     <use style="fill:#0000ff;stroke:#d95f02;" x="203.344" xlink:href="#mbe1cd880cb" y="165.105142"/>
     <use style="fill:#0000ff;stroke:#d95f02;" x="203.344" xlink:href="#mbe1cd880cb" y="252.706661"/>
     <use style="fill:#0000ff;stroke:#d95f02;" x="203.344" xlink:href="#mbe1cd880cb" y="297.18145"/>
     <use style="fill:#0000ff;stroke:#d95f02;" x="203.344" xlink:href="#mbe1cd880cb" y="370.412898"/>
     <use style="fill:#0000ff;stroke:#d95f02;" x="203.344" xlink:href="#mbe1cd880cb" y="411.308935"/>
     <use style="fill:#0000ff;stroke:#d95f02;" x="203.344" xlink:href="#mbe1cd880cb" y="384.608676"/>
     <use style="fill:#0000ff;stroke:#d95f02;" x="203.344" xlink:href="#mbe1cd880cb" y="318.003562"/>
    </g>
   </g>
   <g id="line2d_53">
    <path clip-path="url(#p6cad198a95)" d="M 232.92175 486.135909 
L 252.64025 486.135909 
L 252.64025 424.882568 
L 232.92175 424.882568 
L 232.92175 486.135909 
" style="fill:none;stroke:#7570b3;stroke-linecap:round;"/>
   </g>
   <g id="line2d_54">
    <path clip-path="url(#p6cad198a95)" d="M 242.781 486.135909 
L 242.781 538.089428 
" style="fill:none;stroke:#7570b3;stroke-linecap:round;"/>
   </g>
   <g id="line2d_55">
    <path clip-path="url(#p6cad198a95)" d="M 242.781 424.882568 
L 242.781 341.665086 
" style="fill:none;stroke:#7570b3;stroke-linecap:round;"/>
   </g>
   <g id="line2d_56">
    <path clip-path="url(#p6cad198a95)" d="M 237.851375 538.089428 
L 247.710625 538.089428 
" style="fill:none;stroke:#7570b3;stroke-linecap:round;"/>
   </g>
   <g id="line2d_57">
    <path clip-path="url(#p6cad198a95)" d="M 237.851375 341.665086 
L 247.710625 341.665086 
" style="fill:none;stroke:#7570b3;stroke-linecap:round;"/>
   </g>
   <g id="line2d_58">
    <defs>
     <path d="M -3 0 
L 3 0 
M 0 3 
L 0 -3 
" id="m1b07c4dfaf" style="stroke:#7570b3;"/>
    </defs>
    <g clip-path="url(#p6cad198a95)">
     <use style="fill:#0000ff;stroke:#7570b3;" x="242.781" xlink:href="#m1b07c4dfaf" y="186.887456"/>
     <use style="fill:#0000ff;stroke:#7570b3;" x="242.781" xlink:href="#m1b07c4dfaf" y="151.708131"/>
     <use style="fill:#0000ff;stroke:#7570b3;" x="242.781" xlink:href="#m1b07c4dfaf" y="197.704715"/>
     <use style="fill:#0000ff;stroke:#7570b3;" x="242.781" xlink:href="#m1b07c4dfaf" y="282.843745"/>
    </g>
   </g>
   <g id="line2d_59">
    <path clip-path="url(#p6cad198a95)" d="M 272.35875 536.883659 
L 292.07725 536.883659 
L 292.07725 497.764311 
L 272.35875 497.764311 
L 272.35875 536.883659 
" style="fill:none;stroke:#e7298a;stroke-linecap:round;"/>
   </g>
   <g id="line2d_60">
    <path clip-path="url(#p6cad198a95)" d="M 282.218 536.883659 
L 282.218 544.120183 
" style="fill:none;stroke:#e7298a;stroke-linecap:round;"/>
   </g>
   <g id="line2d_61">
    <path clip-path="url(#p6cad198a95)" d="M 282.218 497.764311 
L 282.218 443.924144 
" style="fill:none;stroke:#e7298a;stroke-linecap:round;"/>
   </g>
   <g id="line2d_62">
    <path clip-path="url(#p6cad198a95)" d="M 277.288375 544.120183 
L 287.147625 544.120183 
" style="fill:none;stroke:#e7298a;stroke-linecap:round;"/>
   </g>
   <g id="line2d_63">
    <path clip-path="url(#p6cad198a95)" d="M 277.288375 443.924144 
L 287.147625 443.924144 
" style="fill:none;stroke:#e7298a;stroke-linecap:round;"/>
   </g>
   <g id="line2d_64">
    <defs>
     <path d="M -3 0 
L 3 0 
M 0 3 
L 0 -3 
" id="m01e8543613" style="stroke:#e7298a;"/>
    </defs>
    <g clip-path="url(#p6cad198a95)">
     <use style="fill:#0000ff;stroke:#e7298a;" x="282.218" xlink:href="#m01e8543613" y="408.651114"/>
     <use style="fill:#0000ff;stroke:#e7298a;" x="282.218" xlink:href="#m01e8543613" y="129.842478"/>
     <use style="fill:#0000ff;stroke:#e7298a;" x="282.218" xlink:href="#m01e8543613" y="78.886518"/>
     <use style="fill:#0000ff;stroke:#e7298a;" x="282.218" xlink:href="#m01e8543613" y="146.053822"/>
     <use style="fill:#0000ff;stroke:#e7298a;" x="282.218" xlink:href="#m01e8543613" y="193.154762"/>
     <use style="fill:#0000ff;stroke:#e7298a;" x="282.218" xlink:href="#m01e8543613" y="227.776695"/>
     <use style="fill:#0000ff;stroke:#e7298a;" x="282.218" xlink:href="#m01e8543613" y="309.324771"/>
     <use style="fill:#0000ff;stroke:#e7298a;" x="282.218" xlink:href="#m01e8543613" y="321.712666"/>
     <use style="fill:#0000ff;stroke:#e7298a;" x="282.218" xlink:href="#m01e8543613" y="296.556116"/>
     <use style="fill:#0000ff;stroke:#e7298a;" x="282.218" xlink:href="#m01e8543613" y="328.97571"/>
     <use style="fill:#0000ff;stroke:#e7298a;" x="282.218" xlink:href="#m01e8543613" y="305.34135"/>
     <use style="fill:#0000ff;stroke:#e7298a;" x="282.218" xlink:href="#m01e8543613" y="277.300086"/>
     <use style="fill:#0000ff;stroke:#e7298a;" x="282.218" xlink:href="#m01e8543613" y="303.096215"/>
     <use style="fill:#0000ff;stroke:#e7298a;" x="282.218" xlink:href="#m01e8543613" y="410.11917"/>
     <use style="fill:#0000ff;stroke:#e7298a;" x="282.218" xlink:href="#m01e8543613" y="378.608638"/>
     <use style="fill:#0000ff;stroke:#e7298a;" x="282.218" xlink:href="#m01e8543613" y="420.829882"/>
     <use style="fill:#0000ff;stroke:#e7298a;" x="282.218" xlink:href="#m01e8543613" y="437.68877"/>
     <use style="fill:#0000ff;stroke:#e7298a;" x="282.218" xlink:href="#m01e8543613" y="433.271779"/>
     <use style="fill:#0000ff;stroke:#e7298a;" x="282.218" xlink:href="#m01e8543613" y="427.592391"/>
     <use style="fill:#0000ff;stroke:#e7298a;" x="282.218" xlink:href="#m01e8543613" y="437.125504"/>
     <use style="fill:#0000ff;stroke:#e7298a;" x="282.218" xlink:href="#m01e8543613" y="413.605606"/>
     <use style="fill:#0000ff;stroke:#e7298a;" x="282.218" xlink:href="#m01e8543613" y="388.828613"/>
     <use style="fill:#0000ff;stroke:#e7298a;" x="282.218" xlink:href="#m01e8543613" y="364.05159"/>
     <use style="fill:#0000ff;stroke:#e7298a;" x="282.218" xlink:href="#m01e8543613" y="339.274567"/>
    </g>
   </g>
   <g id="line2d_65">
    <path clip-path="url(#p6cad198a95)" d="M 311.79575 468.027687 
L 331.51425 468.027687 
L 331.51425 450.286619 
L 311.79575 450.286619 
L 311.79575 468.027687 
" style="fill:none;stroke:#66a61e;stroke-linecap:round;"/>
   </g>
   <g id="line2d_66">
    <path clip-path="url(#p6cad198a95)" d="M 321.655 468.027687 
L 321.655 490.726434 
" style="fill:none;stroke:#66a61e;stroke-linecap:round;"/>
   </g>
   <g id="line2d_67">
    <path clip-path="url(#p6cad198a95)" d="M 321.655 450.286619 
L 321.655 425.037899 
" style="fill:none;stroke:#66a61e;stroke-linecap:round;"/>
   </g>
   <g id="line2d_68">
    <path clip-path="url(#p6cad198a95)" d="M 316.725375 490.726434 
L 326.584625 490.726434 
" style="fill:none;stroke:#66a61e;stroke-linecap:round;"/>
   </g>
   <g id="line2d_69">
    <path clip-path="url(#p6cad198a95)" d="M 316.725375 425.037899 
L 326.584625 425.037899 
" style="fill:none;stroke:#66a61e;stroke-linecap:round;"/>
   </g>
   <g id="line2d_70">
    <defs>
     <path d="M -3 0 
L 3 0 
M 0 3 
L 0 -3 
" id="mee4e032656" style="stroke:#66a61e;"/>
    </defs>
    <g clip-path="url(#p6cad198a95)">
     <use style="fill:#0000ff;stroke:#66a61e;" x="321.655" xlink:href="#mee4e032656" y="513.077828"/>
     <use style="fill:#0000ff;stroke:#66a61e;" x="321.655" xlink:href="#mee4e032656" y="523.530616"/>
     <use style="fill:#0000ff;stroke:#66a61e;" x="321.655" xlink:href="#mee4e032656" y="513.032706"/>
     <use style="fill:#0000ff;stroke:#66a61e;" x="321.655" xlink:href="#mee4e032656" y="495.120966"/>
     <use style="fill:#0000ff;stroke:#66a61e;" x="321.655" xlink:href="#mee4e032656" y="495.783128"/>
     <use style="fill:#0000ff;stroke:#66a61e;" x="321.655" xlink:href="#mee4e032656" y="500.550038"/>
     <use style="fill:#0000ff;stroke:#66a61e;" x="321.655" xlink:href="#mee4e032656" y="499.076325"/>
     <use style="fill:#0000ff;stroke:#66a61e;" x="321.655" xlink:href="#mee4e032656" y="337.808878"/>
     <use style="fill:#0000ff;stroke:#66a61e;" x="321.655" xlink:href="#mee4e032656" y="335.804727"/>
     <use style="fill:#0000ff;stroke:#66a61e;" x="321.655" xlink:href="#mee4e032656" y="340.267045"/>
     <use style="fill:#0000ff;stroke:#66a61e;" x="321.655" xlink:href="#mee4e032656" y="381.180742"/>
     <use style="fill:#0000ff;stroke:#66a61e;" x="321.655" xlink:href="#mee4e032656" y="408.302891"/>
     <use style="fill:#0000ff;stroke:#66a61e;" x="321.655" xlink:href="#mee4e032656" y="423.4875"/>
     <use style="fill:#0000ff;stroke:#66a61e;" x="321.655" xlink:href="#mee4e032656" y="420.161106"/>
    </g>
   </g>
   <g id="line2d_71">
    <path clip-path="url(#p6cad198a95)" d="M 351.23275 528.404508 
L 370.95125 528.404508 
L 370.95125 495.290232 
L 351.23275 495.290232 
L 351.23275 528.404508 
" style="fill:none;stroke:#e6ab02;stroke-linecap:round;"/>
   </g>
   <g id="line2d_72">
    <path clip-path="url(#p6cad198a95)" d="M 361.092 528.404508 
L 361.092 545.778282 
" style="fill:none;stroke:#e6ab02;stroke-linecap:round;"/>
   </g>
   <g id="line2d_73">
    <path clip-path="url(#p6cad198a95)" d="M 361.092 495.290232 
L 361.092 450.060886 
" style="fill:none;stroke:#e6ab02;stroke-linecap:round;"/>
   </g>
   <g id="line2d_74">
    <path clip-path="url(#p6cad198a95)" d="M 356.162375 545.778282 
L 366.021625 545.778282 
" style="fill:none;stroke:#e6ab02;stroke-linecap:round;"/>
   </g>
   <g id="line2d_75">
    <path clip-path="url(#p6cad198a95)" d="M 356.162375 450.060886 
L 366.021625 450.060886 
" style="fill:none;stroke:#e6ab02;stroke-linecap:round;"/>
   </g>
   <g id="line2d_76">
    <defs>
     <path d="M -3 0 
L 3 0 
M 0 3 
L 0 -3 
" id="m078b21a78f" style="stroke:#e6ab02;"/>
    </defs>
    <g clip-path="url(#p6cad198a95)">
     <use style="fill:#0000ff;stroke:#e6ab02;" x="361.092" xlink:href="#m078b21a78f" y="248.631456"/>
     <use style="fill:#0000ff;stroke:#e6ab02;" x="361.092" xlink:href="#m078b21a78f" y="191.750412"/>
     <use style="fill:#0000ff;stroke:#e6ab02;" x="361.092" xlink:href="#m078b21a78f" y="222.611541"/>
     <use style="fill:#0000ff;stroke:#e6ab02;" x="361.092" xlink:href="#m078b21a78f" y="240.440948"/>
     <use style="fill:#0000ff;stroke:#e6ab02;" x="361.092" xlink:href="#m078b21a78f" y="243.055945"/>
     <use style="fill:#0000ff;stroke:#e6ab02;" x="361.092" xlink:href="#m078b21a78f" y="264.578633"/>
     <use style="fill:#0000ff;stroke:#e6ab02;" x="361.092" xlink:href="#m078b21a78f" y="247.784762"/>
     <use style="fill:#0000ff;stroke:#e6ab02;" x="361.092" xlink:href="#m078b21a78f" y="224.913093"/>
     <use style="fill:#0000ff;stroke:#e6ab02;" x="361.092" xlink:href="#m078b21a78f" y="294.833896"/>
     <use style="fill:#0000ff;stroke:#e6ab02;" x="361.092" xlink:href="#m078b21a78f" y="311.728062"/>
     <use style="fill:#0000ff;stroke:#e6ab02;" x="361.092" xlink:href="#m078b21a78f" y="353.623116"/>
     <use style="fill:#0000ff;stroke:#e6ab02;" x="361.092" xlink:href="#m078b21a78f" y="356.399198"/>
     <use style="fill:#0000ff;stroke:#e6ab02;" x="361.092" xlink:href="#m078b21a78f" y="367.98896"/>
     <use style="fill:#0000ff;stroke:#e6ab02;" x="361.092" xlink:href="#m078b21a78f" y="345.528076"/>
     <use style="fill:#0000ff;stroke:#e6ab02;" x="361.092" xlink:href="#m078b21a78f" y="434.178156"/>
     <use style="fill:#0000ff;stroke:#e6ab02;" x="361.092" xlink:href="#m078b21a78f" y="442.541747"/>
     <use style="fill:#0000ff;stroke:#e6ab02;" x="361.092" xlink:href="#m078b21a78f" y="434.094471"/>
     <use style="fill:#0000ff;stroke:#e6ab02;" x="361.092" xlink:href="#m078b21a78f" y="435.013445"/>
     <use style="fill:#0000ff;stroke:#e6ab02;" x="361.092" xlink:href="#m078b21a78f" y="293.834567"/>
     <use style="fill:#0000ff;stroke:#e6ab02;" x="361.092" xlink:href="#m078b21a78f" y="273.311271"/>
     <use style="fill:#0000ff;stroke:#e6ab02;" x="361.092" xlink:href="#m078b21a78f" y="250.31608"/>
     <use style="fill:#0000ff;stroke:#e6ab02;" x="361.092" xlink:href="#m078b21a78f" y="202.79991"/>
     <use style="fill:#0000ff;stroke:#e6ab02;" x="361.092" xlink:href="#m078b21a78f" y="155.28374"/>
    </g>
   </g>
   <g id="line2d_77">
    <path clip-path="url(#p6cad198a95)" d="M 390.66975 533.70481 
L 410.38825 533.70481 
L 410.38825 499.699777 
L 390.66975 499.699777 
L 390.66975 533.70481 
" style="fill:none;stroke:#a6761d;stroke-linecap:round;"/>
   </g>
   <g id="line2d_78">
    <path clip-path="url(#p6cad198a95)" d="M 400.529 533.70481 
L 400.529 543.487723 
" style="fill:none;stroke:#a6761d;stroke-linecap:round;"/>
   </g>
   <g id="line2d_79">
    <path clip-path="url(#p6cad198a95)" d="M 400.529 499.699777 
L 400.529 450.669429 
" style="fill:none;stroke:#a6761d;stroke-linecap:round;"/>
   </g>
   <g id="line2d_80">
    <path clip-path="url(#p6cad198a95)" d="M 395.599375 543.487723 
L 405.458625 543.487723 
" style="fill:none;stroke:#a6761d;stroke-linecap:round;"/>
   </g>
   <g id="line2d_81">
    <path clip-path="url(#p6cad198a95)" d="M 395.599375 450.669429 
L 405.458625 450.669429 
" style="fill:none;stroke:#a6761d;stroke-linecap:round;"/>
   </g>
   <g id="line2d_82">
    <defs>
     <path d="M -3 0 
L 3 0 
M 0 3 
L 0 -3 
" id="m62350b0e65" style="stroke:#a6761d;"/>
    </defs>
    <g clip-path="url(#p6cad198a95)">
     <use style="fill:#0000ff;stroke:#a6761d;" x="400.529" xlink:href="#m62350b0e65" y="196.760252"/>
     <use style="fill:#0000ff;stroke:#a6761d;" x="400.529" xlink:href="#m62350b0e65" y="225.174208"/>
     <use style="fill:#0000ff;stroke:#a6761d;" x="400.529" xlink:href="#m62350b0e65" y="280.205746"/>
     <use style="fill:#0000ff;stroke:#a6761d;" x="400.529" xlink:href="#m62350b0e65" y="215.250728"/>
     <use style="fill:#0000ff;stroke:#a6761d;" x="400.529" xlink:href="#m62350b0e65" y="182.86083"/>
     <use style="fill:#0000ff;stroke:#a6761d;" x="400.529" xlink:href="#m62350b0e65" y="217.457668"/>
     <use style="fill:#0000ff;stroke:#a6761d;" x="400.529" xlink:href="#m62350b0e65" y="220.194416"/>
     <use style="fill:#0000ff;stroke:#a6761d;" x="400.529" xlink:href="#m62350b0e65" y="162.346064"/>
     <use style="fill:#0000ff;stroke:#a6761d;" x="400.529" xlink:href="#m62350b0e65" y="109.063573"/>
     <use style="fill:#0000ff;stroke:#a6761d;" x="400.529" xlink:href="#m62350b0e65" y="281.30089"/>
     <use style="fill:#0000ff;stroke:#a6761d;" x="400.529" xlink:href="#m62350b0e65" y="288.067097"/>
     <use style="fill:#0000ff;stroke:#a6761d;" x="400.529" xlink:href="#m62350b0e65" y="339.780565"/>
     <use style="fill:#0000ff;stroke:#a6761d;" x="400.529" xlink:href="#m62350b0e65" y="402.406674"/>
     <use style="fill:#0000ff;stroke:#a6761d;" x="400.529" xlink:href="#m62350b0e65" y="392.047585"/>
     <use style="fill:#0000ff;stroke:#a6761d;" x="400.529" xlink:href="#m62350b0e65" y="365.611009"/>
     <use style="fill:#0000ff;stroke:#a6761d;" x="400.529" xlink:href="#m62350b0e65" y="425.43215"/>
     <use style="fill:#0000ff;stroke:#a6761d;" x="400.529" xlink:href="#m62350b0e65" y="431.46602"/>
     <use style="fill:#0000ff;stroke:#a6761d;" x="400.529" xlink:href="#m62350b0e65" y="435.083756"/>
     <use style="fill:#0000ff;stroke:#a6761d;" x="400.529" xlink:href="#m62350b0e65" y="403.534565"/>
     <use style="fill:#0000ff;stroke:#a6761d;" x="400.529" xlink:href="#m62350b0e65" y="402.383978"/>
     <use style="fill:#0000ff;stroke:#a6761d;" x="400.529" xlink:href="#m62350b0e65" y="382.964243"/>
     <use style="fill:#0000ff;stroke:#a6761d;" x="400.529" xlink:href="#m62350b0e65" y="417.876374"/>
     <use style="fill:#0000ff;stroke:#a6761d;" x="400.529" xlink:href="#m62350b0e65" y="441.783695"/>
     <use style="fill:#0000ff;stroke:#a6761d;" x="400.529" xlink:href="#m62350b0e65" y="419.863888"/>
     <use style="fill:#0000ff;stroke:#a6761d;" x="400.529" xlink:href="#m62350b0e65" y="436.254195"/>
     <use style="fill:#0000ff;stroke:#a6761d;" x="400.529" xlink:href="#m62350b0e65" y="419.22139"/>
     <use style="fill:#0000ff;stroke:#a6761d;" x="400.529" xlink:href="#m62350b0e65" y="447.846161"/>
     <use style="fill:#0000ff;stroke:#a6761d;" x="400.529" xlink:href="#m62350b0e65" y="390.997031"/>
     <use style="fill:#0000ff;stroke:#a6761d;" x="400.529" xlink:href="#m62350b0e65" y="399.802077"/>
     <use style="fill:#0000ff;stroke:#a6761d;" x="400.529" xlink:href="#m62350b0e65" y="401.35717"/>
     <use style="fill:#0000ff;stroke:#a6761d;" x="400.529" xlink:href="#m62350b0e65" y="402.912264"/>
     <use style="fill:#0000ff;stroke:#a6761d;" x="400.529" xlink:href="#m62350b0e65" y="404.467359"/>
    </g>
   </g>
   <g id="line2d_83">
    <path clip-path="url(#p6cad198a95)" d="M 430.10675 537.032773 
L 449.82525 537.032773 
L 449.82525 478.169775 
L 430.10675 478.169775 
L 430.10675 537.032773 
" style="fill:none;stroke:#666666;stroke-linecap:round;"/>
   </g>
   <g id="line2d_84">
    <path clip-path="url(#p6cad198a95)" d="M 439.966 537.032773 
L 439.966 544.843481 
" style="fill:none;stroke:#666666;stroke-linecap:round;"/>
   </g>
   <g id="line2d_85">
    <path clip-path="url(#p6cad198a95)" d="M 439.966 478.169775 
L 439.966 396.636055 
" style="fill:none;stroke:#666666;stroke-linecap:round;"/>
   </g>
   <g id="line2d_86">
    <path clip-path="url(#p6cad198a95)" d="M 435.036375 544.843481 
L 444.895625 544.843481 
" style="fill:none;stroke:#666666;stroke-linecap:round;"/>
   </g>
   <g id="line2d_87">
    <path clip-path="url(#p6cad198a95)" d="M 435.036375 396.636055 
L 444.895625 396.636055 
" style="fill:none;stroke:#666666;stroke-linecap:round;"/>
   </g>
   <g id="line2d_88">
    <defs>
     <path d="M -3 0 
L 3 0 
M 0 3 
L 0 -3 
" id="m9ca5552f3c" style="stroke:#666666;"/>
    </defs>
    <g clip-path="url(#p6cad198a95)">
     <use style="fill:#0000ff;stroke:#666666;" x="439.966" xlink:href="#m9ca5552f3c" y="265.546597"/>
     <use style="fill:#0000ff;stroke:#666666;" x="439.966" xlink:href="#m9ca5552f3c" y="321.957246"/>
     <use style="fill:#0000ff;stroke:#666666;" x="439.966" xlink:href="#m9ca5552f3c" y="377.838866"/>
     <use style="fill:#0000ff;stroke:#666666;" x="439.966" xlink:href="#m9ca5552f3c" y="383.56338"/>
     <use style="fill:#0000ff;stroke:#666666;" x="439.966" xlink:href="#m9ca5552f3c" y="366.457793"/>
    </g>
   </g>
   <g id="line2d_89">
    <path clip-path="url(#p6cad198a95)" d="M 479.403 550.4472 
L 479.403 74.2176 
" style="fill:none;stroke:#000000;stroke-dasharray:0.5,0.825;stroke-dashoffset:0;stroke-width:0.5;"/>
   </g>
   <g id="line2d_90">
    <path clip-path="url(#p6cad198a95)" d="M 154.04775 476.231762 
L 173.76625 476.231762 
" style="fill:none;stroke:#ff7f0e;stroke-linecap:round;"/>
   </g>
   <g id="line2d_91">
    <path clip-path="url(#p6cad198a95)" d="M 193.48475 489.226384 
L 213.20325 489.226384 
" style="fill:none;stroke:#ff7f0e;stroke-linecap:round;"/>
   </g>
   <g id="line2d_92">
    <path clip-path="url(#p6cad198a95)" d="M 232.92175 468.54798 
L 252.64025 468.54798 
" style="fill:none;stroke:#ff7f0e;stroke-linecap:round;"/>
   </g>
   <g id="line2d_93">
    <path clip-path="url(#p6cad198a95)" d="M 272.35875 526.399091 
L 292.07725 526.399091 
" style="fill:none;stroke:#ff7f0e;stroke-linecap:round;"/>
   </g>
   <g id="line2d_94">
    <path clip-path="url(#p6cad198a95)" d="M 311.79575 456.56968 
L 331.51425 456.56968 
" style="fill:none;stroke:#ff7f0e;stroke-linecap:round;"/>
   </g>
   <g id="line2d_95">
    <path clip-path="url(#p6cad198a95)" d="M 351.23275 516.125189 
L 370.95125 516.125189 
" style="fill:none;stroke:#ff7f0e;stroke-linecap:round;"/>
   </g>
   <g id="line2d_96">
    <path clip-path="url(#p6cad198a95)" d="M 390.66975 521.901015 
L 410.38825 521.901015 
" style="fill:none;stroke:#ff7f0e;stroke-linecap:round;"/>
   </g>
   <g id="line2d_97">
    <path clip-path="url(#p6cad198a95)" d="M 430.10675 526.090506 
L 449.82525 526.090506 
" style="fill:none;stroke:#ff7f0e;stroke-linecap:round;"/>
   </g>
   <g id="patch_3">
    <path d="M 124.47 550.4472 
L 124.47 74.2176 
" style="fill:none;"/>
   </g>
   <g id="patch_4">
    <path d="M 834.336 550.4472 
L 834.336 74.2176 
" style="fill:none;"/>
   </g>
   <g id="patch_5">
    <path d="M 124.47 550.4472 
L 834.336 550.4472 
" style="fill:none;"/>
   </g>
   <g id="patch_6">
    <path d="M 124.47 74.2176 
L 834.336 74.2176 
" style="fill:none;"/>
   </g>
   <g id="text_24">
    <!-- Upload -->
    <g transform="translate(284.416187 69.455304)scale(0.1 -0.1)">
     <defs>
      <path d="M 8.6875 72.90625 
L 18.609375 72.90625 
L 18.609375 28.609375 
Q 18.609375 16.890625 22.84375 11.734375 
Q 27.09375 6.59375 36.625 6.59375 
Q 46.09375 6.59375 50.34375 11.734375 
Q 54.59375 16.890625 54.59375 28.609375 
L 54.59375 72.90625 
L 64.5 72.90625 
L 64.5 27.390625 
Q 64.5 13.140625 57.4375 5.859375 
Q 50.390625 -1.421875 36.625 -1.421875 
Q 22.796875 -1.421875 15.734375 5.859375 
Q 8.6875 13.140625 8.6875 27.390625 
z
" id="DejaVuSans-85"/>
      <path d="M 18.109375 8.203125 
L 18.109375 -20.796875 
L 9.078125 -20.796875 
L 9.078125 54.6875 
L 18.109375 54.6875 
L 18.109375 46.390625 
Q 20.953125 51.265625 25.265625 53.625 
Q 29.59375 56 35.59375 56 
Q 45.5625 56 51.78125 48.09375 
Q 58.015625 40.1875 58.015625 27.296875 
Q 58.015625 14.40625 51.78125 6.484375 
Q 45.5625 -1.421875 35.59375 -1.421875 
Q 29.59375 -1.421875 25.265625 0.953125 
Q 20.953125 3.328125 18.109375 8.203125 
z
M 48.6875 27.296875 
Q 48.6875 37.203125 44.609375 42.84375 
Q 40.53125 48.484375 33.40625 48.484375 
Q 26.265625 48.484375 22.1875 42.84375 
Q 18.109375 37.203125 18.109375 27.296875 
Q 18.109375 17.390625 22.1875 11.75 
Q 26.265625 6.109375 33.40625 6.109375 
Q 40.53125 6.109375 44.609375 11.75 
Q 48.6875 17.390625 48.6875 27.296875 
z
" id="DejaVuSans-112"/>
      <path d="M 9.421875 75.984375 
L 18.40625 75.984375 
L 18.40625 0 
L 9.421875 0 
z
" id="DejaVuSans-108"/>
     </defs>
     <use xlink:href="#DejaVuSans-85"/>
     <use x="73.193359" xlink:href="#DejaVuSans-112"/>
     <use x="136.669922" xlink:href="#DejaVuSans-108"/>
     <use x="164.453125" xlink:href="#DejaVuSans-111"/>
     <use x="225.634766" xlink:href="#DejaVuSans-97"/>
     <use x="286.914062" xlink:href="#DejaVuSans-100"/>
    </g>
   </g>
   <g id="text_25">
    <!-- Ping (ms) -->
    <g transform="translate(633.2695 69.455304)scale(0.1 -0.1)">
     <defs>
      <path id="DejaVuSans-32"/>
      <path d="M 31 75.875 
Q 24.46875 64.65625 21.28125 53.65625 
Q 18.109375 42.671875 18.109375 31.390625 
Q 18.109375 20.125 21.3125 9.0625 
Q 24.515625 -2 31 -13.1875 
L 23.1875 -13.1875 
Q 15.875 -1.703125 12.234375 9.375 
Q 8.59375 20.453125 8.59375 31.390625 
Q 8.59375 42.28125 12.203125 53.3125 
Q 15.828125 64.359375 23.1875 75.875 
z
" id="DejaVuSans-40"/>
      <path d="M 52 44.1875 
Q 55.375 50.25 60.0625 53.125 
Q 64.75 56 71.09375 56 
Q 79.640625 56 84.28125 50.015625 
Q 88.921875 44.046875 88.921875 33.015625 
L 88.921875 0 
L 79.890625 0 
L 79.890625 32.71875 
Q 79.890625 40.578125 77.09375 44.375 
Q 74.3125 48.1875 68.609375 48.1875 
Q 61.625 48.1875 57.5625 43.546875 
Q 53.515625 38.921875 53.515625 30.90625 
L 53.515625 0 
L 44.484375 0 
L 44.484375 32.71875 
Q 44.484375 40.625 41.703125 44.40625 
Q 38.921875 48.1875 33.109375 48.1875 
Q 26.21875 48.1875 22.15625 43.53125 
Q 18.109375 38.875 18.109375 30.90625 
L 18.109375 0 
L 9.078125 0 
L 9.078125 54.6875 
L 18.109375 54.6875 
L 18.109375 46.1875 
Q 21.1875 51.21875 25.484375 53.609375 
Q 29.78125 56 35.6875 56 
Q 41.65625 56 45.828125 52.96875 
Q 50 49.953125 52 44.1875 
z
" id="DejaVuSans-109"/>
      <path d="M 8.015625 75.875 
L 15.828125 75.875 
Q 23.140625 64.359375 26.78125 53.3125 
Q 30.421875 42.28125 30.421875 31.390625 
Q 30.421875 20.453125 26.78125 9.375 
Q 23.140625 -1.703125 15.828125 -13.1875 
L 8.015625 -13.1875 
Q 14.5 -2 17.703125 9.0625 
Q 20.90625 20.125 20.90625 31.390625 
Q 20.90625 42.671875 17.703125 53.65625 
Q 14.5 64.65625 8.015625 75.875 
z
" id="DejaVuSans-41"/>
     </defs>
     <use xlink:href="#DejaVuSans-80"/>
     <use x="58.052734" xlink:href="#DejaVuSans-105"/>
     <use x="85.835938" xlink:href="#DejaVuSans-110"/>
     <use x="149.214844" xlink:href="#DejaVuSans-103"/>
     <use x="212.691406" xlink:href="#DejaVuSans-32"/>
     <use x="244.478516" xlink:href="#DejaVuSans-40"/>
     <use x="283.492188" xlink:href="#DejaVuSans-109"/>
     <use x="380.904297" xlink:href="#DejaVuSans-115"/>
     <use x="433.003906" xlink:href="#DejaVuSans-41"/>
    </g>
   </g>
   <g id="legend_1">
    <g id="line2d_98">
     <path d="M 915.75326 80.963598 
L 932.41326 80.963598 
" style="fill:none;stroke:#1b9e77;stroke-linecap:round;"/>
    </g>
    <g id="line2d_99"/>
    <g id="text_26">
     <!-- BBR-v3 -->
     <g transform="translate(939.07726 83.879098)scale(0.0833 -0.0833)">
      <use xlink:href="#DejaVuSans-66"/>
      <use x="68.603516" xlink:href="#DejaVuSans-66"/>
      <use x="137.207031" xlink:href="#DejaVuSans-82"/>
      <use x="202.689453" xlink:href="#DejaVuSans-45"/>
      <use x="236.148438" xlink:href="#DejaVuSans-118"/>
      <use x="295.328125" xlink:href="#DejaVuSans-51"/>
     </g>
    </g>
    <g id="line2d_100">
     <path d="M 915.75326 93.190477 
L 932.41326 93.190477 
" style="fill:none;stroke:#d95f02;stroke-linecap:round;"/>
    </g>
    <g id="line2d_101"/>
    <g id="text_27">
     <!-- Yeah -->
     <g transform="translate(939.07726 96.105977)scale(0.0833 -0.0833)">
      <use xlink:href="#DejaVuSans-89"/>
      <use x="47.833984" xlink:href="#DejaVuSans-101"/>
      <use x="109.357422" xlink:href="#DejaVuSans-97"/>
      <use x="170.636719" xlink:href="#DejaVuSans-104"/>
     </g>
    </g>
    <g id="line2d_102">
     <path d="M 915.75326 105.417355 
L 932.41326 105.417355 
" style="fill:none;stroke:#7570b3;stroke-linecap:round;"/>
    </g>
    <g id="line2d_103"/>
    <g id="text_28">
     <!-- Nevada -->
     <g transform="translate(939.07726 108.332855)scale(0.0833 -0.0833)">
      <use xlink:href="#DejaVuSans-78"/>
      <use x="74.804688" xlink:href="#DejaVuSans-101"/>
      <use x="136.328125" xlink:href="#DejaVuSans-118"/>
      <use x="195.507812" xlink:href="#DejaVuSans-97"/>
      <use x="256.787109" xlink:href="#DejaVuSans-100"/>
      <use x="320.263672" xlink:href="#DejaVuSans-97"/>
     </g>
    </g>
    <g id="line2d_104">
     <path d="M 915.75326 117.644233 
L 932.41326 117.644233 
" style="fill:none;stroke:#e7298a;stroke-linecap:round;"/>
    </g>
    <g id="line2d_105"/>
    <g id="text_29">
     <!-- Veno -->
     <g transform="translate(939.07726 120.559733)scale(0.0833 -0.0833)">
      <use xlink:href="#DejaVuSans-86"/>
      <use x="60.658203" xlink:href="#DejaVuSans-101"/>
      <use x="122.181641" xlink:href="#DejaVuSans-110"/>
      <use x="185.560547" xlink:href="#DejaVuSans-111"/>
     </g>
    </g>
    <g id="line2d_106">
     <path d="M 915.75326 129.871111 
L 932.41326 129.871111 
" style="fill:none;stroke:#66a61e;stroke-linecap:round;"/>
    </g>
    <g id="line2d_107"/>
    <g id="text_30">
     <!-- Vegas -->
     <g transform="translate(939.07726 132.786611)scale(0.0833 -0.0833)">
      <use xlink:href="#DejaVuSans-86"/>
      <use x="60.658203" xlink:href="#DejaVuSans-101"/>
      <use x="122.181641" xlink:href="#DejaVuSans-103"/>
      <use x="185.658203" xlink:href="#DejaVuSans-97"/>
      <use x="246.9375" xlink:href="#DejaVuSans-115"/>
     </g>
    </g>
    <g id="line2d_108">
     <path d="M 915.75326 142.097989 
L 932.41326 142.097989 
" style="fill:none;stroke:#e6ab02;stroke-linecap:round;"/>
    </g>
    <g id="line2d_109"/>
    <g id="text_31">
     <!-- DCTCP -->
     <g transform="translate(939.07726 145.013489)scale(0.0833 -0.0833)">
      <use xlink:href="#DejaVuSans-68"/>
      <use x="77.001953" xlink:href="#DejaVuSans-67"/>
      <use x="146.826172" xlink:href="#DejaVuSans-84"/>
      <use x="202.035156" xlink:href="#DejaVuSans-67"/>
      <use x="271.859375" xlink:href="#DejaVuSans-80"/>
     </g>
    </g>
    <g id="line2d_110">
     <path d="M 915.75326 154.324867 
L 932.41326 154.324867 
" style="fill:none;stroke:#a6761d;stroke-linecap:round;"/>
    </g>
    <g id="line2d_111"/>
    <g id="text_32">
     <!-- Reno -->
     <g transform="translate(939.07726 157.240367)scale(0.0833 -0.0833)">
      <use xlink:href="#DejaVuSans-82"/>
      <use x="64.982422" xlink:href="#DejaVuSans-101"/>
      <use x="126.505859" xlink:href="#DejaVuSans-110"/>
      <use x="189.884766" xlink:href="#DejaVuSans-111"/>
     </g>
    </g>
    <g id="line2d_112">
     <path d="M 915.75326 166.551745 
L 932.41326 166.551745 
" style="fill:none;stroke:#666666;stroke-linecap:round;"/>
    </g>
    <g id="line2d_113"/>
    <g id="text_33">
     <!-- Cubic -->
     <g transform="translate(939.07726 169.467245)scale(0.0833 -0.0833)">
      <use xlink:href="#DejaVuSans-67"/>
      <use x="69.824219" xlink:href="#DejaVuSans-117"/>
      <use x="133.203125" xlink:href="#DejaVuSans-98"/>
      <use x="196.679688" xlink:href="#DejaVuSans-105"/>
      <use x="224.462891" xlink:href="#DejaVuSans-99"/>
     </g>
    </g>
   </g>
  </g>
  <g id="axes_2">
   <g id="matplotlib.axis_3">
    <g id="ytick_25">
     <g id="line2d_114"/>
     <g id="text_34">
      <!-- 0 -->
      <g transform="translate(837.836 549.764782)scale(0.1 -0.1)">
       <use xlink:href="#DejaVuSans-48"/>
      </g>
     </g>
    </g>
    <g id="ytick_26">
     <g id="line2d_115"/>
     <g id="text_35">
      <!-- 2000 -->
      <g transform="translate(837.836 456.124236)scale(0.1 -0.1)">
       <use xlink:href="#DejaVuSans-50"/>
       <use x="63.623047" xlink:href="#DejaVuSans-48"/>
       <use x="127.246094" xlink:href="#DejaVuSans-48"/>
       <use x="190.869141" xlink:href="#DejaVuSans-48"/>
      </g>
     </g>
    </g>
    <g id="ytick_27">
     <g id="line2d_116"/>
     <g id="text_36">
      <!-- 4000 -->
      <g transform="translate(837.836 362.483689)scale(0.1 -0.1)">
       <use xlink:href="#DejaVuSans-52"/>
       <use x="63.623047" xlink:href="#DejaVuSans-48"/>
       <use x="127.246094" xlink:href="#DejaVuSans-48"/>
       <use x="190.869141" xlink:href="#DejaVuSans-48"/>
      </g>
     </g>
    </g>
    <g id="ytick_28">
     <g id="line2d_117"/>
     <g id="text_37">
      <!-- 6000 -->
      <g transform="translate(837.836 268.843143)scale(0.1 -0.1)">
       <use xlink:href="#DejaVuSans-54"/>
       <use x="63.623047" xlink:href="#DejaVuSans-48"/>
       <use x="127.246094" xlink:href="#DejaVuSans-48"/>
       <use x="190.869141" xlink:href="#DejaVuSans-48"/>
      </g>
     </g>
    </g>
    <g id="ytick_29">
     <g id="line2d_118"/>
     <g id="text_38">
      <!-- 8000 -->
      <g transform="translate(837.836 175.202596)scale(0.1 -0.1)">
       <use xlink:href="#DejaVuSans-56"/>
       <use x="63.623047" xlink:href="#DejaVuSans-48"/>
       <use x="127.246094" xlink:href="#DejaVuSans-48"/>
       <use x="190.869141" xlink:href="#DejaVuSans-48"/>
      </g>
     </g>
    </g>
    <g id="ytick_30">
     <g id="line2d_119"/>
     <g id="text_39">
      <!-- 10000 -->
      <g transform="translate(837.836 81.56205)scale(0.1 -0.1)">
       <use xlink:href="#DejaVuSans-49"/>
       <use x="63.623047" xlink:href="#DejaVuSans-48"/>
       <use x="127.246094" xlink:href="#DejaVuSans-48"/>
       <use x="190.869141" xlink:href="#DejaVuSans-48"/>
       <use x="254.492188" xlink:href="#DejaVuSans-48"/>
      </g>
     </g>
    </g>
    <g id="ytick_31">
     <g id="line2d_120"/>
    </g>
    <g id="ytick_32">
     <g id="line2d_121"/>
    </g>
    <g id="ytick_33">
     <g id="line2d_122"/>
    </g>
    <g id="ytick_34">
     <g id="line2d_123"/>
    </g>
    <g id="ytick_35">
     <g id="line2d_124"/>
    </g>
    <g id="ytick_36">
     <g id="line2d_125"/>
    </g>
    <g id="ytick_37">
     <g id="line2d_126"/>
    </g>
    <g id="ytick_38">
     <g id="line2d_127"/>
    </g>
    <g id="ytick_39">
     <g id="line2d_128"/>
    </g>
    <g id="ytick_40">
     <g id="line2d_129"/>
    </g>
    <g id="ytick_41">
     <g id="line2d_130"/>
    </g>
    <g id="ytick_42">
     <g id="line2d_131"/>
    </g>
    <g id="ytick_43">
     <g id="line2d_132"/>
    </g>
    <g id="ytick_44">
     <g id="line2d_133"/>
    </g>
    <g id="ytick_45">
     <g id="line2d_134"/>
    </g>
    <g id="text_40">
     <!-- ms -->
     <g transform="translate(881.246937 319.8074)rotate(-90)scale(0.1 -0.1)">
      <use xlink:href="#DejaVuSans-109"/>
      <use x="97.412109" xlink:href="#DejaVuSans-115"/>
     </g>
    </g>
   </g>
   <g id="line2d_135">
    <path clip-path="url(#p6cad198a95)" d="M 508.98075 540.990909 
L 528.69925 540.990909 
L 528.69925 533.815703 
L 508.98075 533.815703 
L 508.98075 540.990909 
" style="fill:none;stroke:#1b9e77;stroke-linecap:round;"/>
   </g>
   <g id="line2d_136">
    <path clip-path="url(#p6cad198a95)" d="M 518.84 540.990909 
L 518.84 545.389674 
" style="fill:none;stroke:#1b9e77;stroke-linecap:round;"/>
   </g>
   <g id="line2d_137">
    <path clip-path="url(#p6cad198a95)" d="M 518.84 533.815703 
L 518.84 524.006855 
" style="fill:none;stroke:#1b9e77;stroke-linecap:round;"/>
   </g>
   <g id="line2d_138">
    <path clip-path="url(#p6cad198a95)" d="M 513.910375 545.389674 
L 523.769625 545.389674 
" style="fill:none;stroke:#1b9e77;stroke-linecap:round;"/>
   </g>
   <g id="line2d_139">
    <path clip-path="url(#p6cad198a95)" d="M 513.910375 524.006855 
L 523.769625 524.006855 
" style="fill:none;stroke:#1b9e77;stroke-linecap:round;"/>
   </g>
   <g id="line2d_140">
    <defs>
     <path d="M -3 0 
L 3 0 
M 0 3 
L 0 -3 
" id="m9fabbfff7e" style="stroke:#1b9e77;"/>
    </defs>
    <g clip-path="url(#p6cad198a95)">
     <use style="fill:#0000ff;stroke:#1b9e77;" x="518.84" xlink:href="#m9fabbfff7e" y="508.649806"/>
     <use style="fill:#0000ff;stroke:#1b9e77;" x="518.84" xlink:href="#m9fabbfff7e" y="507.900681"/>
     <use style="fill:#0000ff;stroke:#1b9e77;" x="518.84" xlink:href="#m9fabbfff7e" y="516.468791"/>
     <use style="fill:#0000ff;stroke:#1b9e77;" x="518.84" xlink:href="#m9fabbfff7e" y="507.338838"/>
     <use style="fill:#0000ff;stroke:#1b9e77;" x="518.84" xlink:href="#m9fabbfff7e" y="496.663816"/>
     <use style="fill:#0000ff;stroke:#1b9e77;" x="518.84" xlink:href="#m9fabbfff7e" y="502.797272"/>
     <use style="fill:#0000ff;stroke:#1b9e77;" x="518.84" xlink:href="#m9fabbfff7e" y="504.155059"/>
     <use style="fill:#0000ff;stroke:#1b9e77;" x="518.84" xlink:href="#m9fabbfff7e" y="507.385658"/>
     <use style="fill:#0000ff;stroke:#1b9e77;" x="518.84" xlink:href="#m9fabbfff7e" y="512.629529"/>
     <use style="fill:#0000ff;stroke:#1b9e77;" x="518.84" xlink:href="#m9fabbfff7e" y="519.933492"/>
     <use style="fill:#0000ff;stroke:#1b9e77;" x="518.84" xlink:href="#m9fabbfff7e" y="522.789528"/>
     <use style="fill:#0000ff;stroke:#1b9e77;" x="518.84" xlink:href="#m9fabbfff7e" y="507.292018"/>
     <use style="fill:#0000ff;stroke:#1b9e77;" x="518.84" xlink:href="#m9fabbfff7e" y="505.419207"/>
     <use style="fill:#0000ff;stroke:#1b9e77;" x="518.84" xlink:href="#m9fabbfff7e" y="513.238192"/>
     <use style="fill:#0000ff;stroke:#1b9e77;" x="518.84" xlink:href="#m9fabbfff7e" y="515.485566"/>
     <use style="fill:#0000ff;stroke:#1b9e77;" x="518.84" xlink:href="#m9fabbfff7e" y="519.558929"/>
     <use style="fill:#0000ff;stroke:#1b9e77;" x="518.84" xlink:href="#m9fabbfff7e" y="521.150819"/>
     <use style="fill:#0000ff;stroke:#1b9e77;" x="518.84" xlink:href="#m9fabbfff7e" y="520.120773"/>
     <use style="fill:#0000ff;stroke:#1b9e77;" x="518.84" xlink:href="#m9fabbfff7e" y="521.899943"/>
     <use style="fill:#0000ff;stroke:#1b9e77;" x="518.84" xlink:href="#m9fabbfff7e" y="520.448515"/>
     <use style="fill:#0000ff;stroke:#1b9e77;" x="518.84" xlink:href="#m9fabbfff7e" y="515.672847"/>
     <use style="fill:#0000ff;stroke:#1b9e77;" x="518.84" xlink:href="#m9fabbfff7e" y="512.114506"/>
     <use style="fill:#0000ff;stroke:#1b9e77;" x="518.84" xlink:href="#m9fabbfff7e" y="505.512847"/>
     <use style="fill:#0000ff;stroke:#1b9e77;" x="518.84" xlink:href="#m9fabbfff7e" y="512.114506"/>
     <use style="fill:#0000ff;stroke:#1b9e77;" x="518.84" xlink:href="#m9fabbfff7e" y="518.154321"/>
     <use style="fill:#0000ff;stroke:#1b9e77;" x="518.84" xlink:href="#m9fabbfff7e" y="522.976809"/>
    </g>
   </g>
   <g id="line2d_141">
    <path clip-path="url(#p6cad198a95)" d="M 548.41775 531.7322 
L 568.13625 531.7322 
L 568.13625 523.538653 
L 548.41775 523.538653 
L 548.41775 531.7322 
" style="fill:none;stroke:#d95f02;stroke-linecap:round;"/>
   </g>
   <g id="line2d_142">
    <path clip-path="url(#p6cad198a95)" d="M 558.277 531.7322 
L 558.277 541.236716 
" style="fill:none;stroke:#d95f02;stroke-linecap:round;"/>
   </g>
   <g id="line2d_143">
    <path clip-path="url(#p6cad198a95)" d="M 558.277 523.538653 
L 558.277 511.318561 
" style="fill:none;stroke:#d95f02;stroke-linecap:round;"/>
   </g>
   <g id="line2d_144">
    <path clip-path="url(#p6cad198a95)" d="M 553.347375 541.236716 
L 563.206625 541.236716 
" style="fill:none;stroke:#d95f02;stroke-linecap:round;"/>
   </g>
   <g id="line2d_145">
    <path clip-path="url(#p6cad198a95)" d="M 553.347375 511.318561 
L 563.206625 511.318561 
" style="fill:none;stroke:#d95f02;stroke-linecap:round;"/>
   </g>
   <g id="line2d_146">
    <g clip-path="url(#p6cad198a95)">
     <use style="fill:#0000ff;stroke:#d95f02;" x="558.277" xlink:href="#mbe1cd880cb" y="544.31749"/>
     <use style="fill:#0000ff;stroke:#d95f02;" x="558.277" xlink:href="#mbe1cd880cb" y="501.205382"/>
     <use style="fill:#0000ff;stroke:#d95f02;" x="558.277" xlink:href="#mbe1cd880cb" y="497.693862"/>
     <use style="fill:#0000ff;stroke:#d95f02;" x="558.277" xlink:href="#mbe1cd880cb" y="504.342341"/>
     <use style="fill:#0000ff;stroke:#d95f02;" x="558.277" xlink:href="#mbe1cd880cb" y="509.024368"/>
     <use style="fill:#0000ff;stroke:#d95f02;" x="558.277" xlink:href="#mbe1cd880cb" y="510.335336"/>
     <use style="fill:#0000ff;stroke:#d95f02;" x="558.277" xlink:href="#mbe1cd880cb" y="506.589714"/>
     <use style="fill:#0000ff;stroke:#d95f02;" x="558.277" xlink:href="#mbe1cd880cb" y="506.02787"/>
     <use style="fill:#0000ff;stroke:#d95f02;" x="558.277" xlink:href="#mbe1cd880cb" y="510.663077"/>
     <use style="fill:#0000ff;stroke:#d95f02;" x="558.277" xlink:href="#mbe1cd880cb" y="509.539391"/>
     <use style="fill:#0000ff;stroke:#d95f02;" x="558.277" xlink:href="#mbe1cd880cb" y="505.98105"/>
     <use style="fill:#0000ff;stroke:#d95f02;" x="558.277" xlink:href="#mbe1cd880cb" y="508.462525"/>
     <use style="fill:#0000ff;stroke:#d95f02;" x="558.277" xlink:href="#mbe1cd880cb" y="505.419207"/>
     <use style="fill:#0000ff;stroke:#d95f02;" x="558.277" xlink:href="#mbe1cd880cb" y="497.506581"/>
     <use style="fill:#0000ff;stroke:#d95f02;" x="558.277" xlink:href="#mbe1cd880cb" y="503.359115"/>
     <use style="fill:#0000ff;stroke:#d95f02;" x="558.277" xlink:href="#mbe1cd880cb" y="499.847594"/>
     <use style="fill:#0000ff;stroke:#d95f02;" x="558.277" xlink:href="#mbe1cd880cb" y="504.997824"/>
     <use style="fill:#0000ff;stroke:#d95f02;" x="558.277" xlink:href="#mbe1cd880cb" y="505.840589"/>
     <use style="fill:#0000ff;stroke:#d95f02;" x="558.277" xlink:href="#mbe1cd880cb" y="507.011096"/>
     <use style="fill:#0000ff;stroke:#d95f02;" x="558.277" xlink:href="#mbe1cd880cb" y="483.554139"/>
     <use style="fill:#0000ff;stroke:#d95f02;" x="558.277" xlink:href="#mbe1cd880cb" y="492.871374"/>
     <use style="fill:#0000ff;stroke:#d95f02;" x="558.277" xlink:href="#mbe1cd880cb" y="501.486304"/>
     <use style="fill:#0000ff;stroke:#d95f02;" x="558.277" xlink:href="#mbe1cd880cb" y="510.897179"/>
    </g>
   </g>
   <g id="line2d_147">
    <path clip-path="url(#p6cad198a95)" d="M 587.85475 541.660439 
L 607.57325 541.660439 
L 607.57325 537.66667 
L 587.85475 537.66667 
L 587.85475 541.660439 
" style="fill:none;stroke:#7570b3;stroke-linecap:round;"/>
   </g>
   <g id="line2d_148">
    <path clip-path="url(#p6cad198a95)" d="M 597.714 541.660439 
L 597.714 545.655613 
" style="fill:none;stroke:#7570b3;stroke-linecap:round;"/>
   </g>
   <g id="line2d_149">
    <path clip-path="url(#p6cad198a95)" d="M 597.714 537.66667 
L 597.714 531.68538 
" style="fill:none;stroke:#7570b3;stroke-linecap:round;"/>
   </g>
   <g id="line2d_150">
    <path clip-path="url(#p6cad198a95)" d="M 592.784375 545.655613 
L 602.643625 545.655613 
" style="fill:none;stroke:#7570b3;stroke-linecap:round;"/>
   </g>
   <g id="line2d_151">
    <path clip-path="url(#p6cad198a95)" d="M 592.784375 531.68538 
L 602.643625 531.68538 
" style="fill:none;stroke:#7570b3;stroke-linecap:round;"/>
   </g>
   <g id="line2d_152">
    <g clip-path="url(#p6cad198a95)">
     <use style="fill:#0000ff;stroke:#7570b3;" x="597.714" xlink:href="#m1b07c4dfaf" y="524.287777"/>
     <use style="fill:#0000ff;stroke:#7570b3;" x="597.714" xlink:href="#m1b07c4dfaf" y="529.016625"/>
     <use style="fill:#0000ff;stroke:#7570b3;" x="597.714" xlink:href="#m1b07c4dfaf" y="529.95303"/>
     <use style="fill:#0000ff;stroke:#7570b3;" x="597.714" xlink:href="#m1b07c4dfaf" y="530.093491"/>
     <use style="fill:#0000ff;stroke:#7570b3;" x="597.714" xlink:href="#m1b07c4dfaf" y="530.608514"/>
     <use style="fill:#0000ff;stroke:#7570b3;" x="597.714" xlink:href="#m1b07c4dfaf" y="528.829343"/>
     <use style="fill:#0000ff;stroke:#7570b3;" x="597.714" xlink:href="#m1b07c4dfaf" y="529.812569"/>
     <use style="fill:#0000ff;stroke:#7570b3;" x="597.714" xlink:href="#m1b07c4dfaf" y="525.271003"/>
     <use style="fill:#0000ff;stroke:#7570b3;" x="597.714" xlink:href="#m1b07c4dfaf" y="531.63856"/>
     <use style="fill:#0000ff;stroke:#7570b3;" x="597.714" xlink:href="#m1b07c4dfaf" y="531.170357"/>
     <use style="fill:#0000ff;stroke:#7570b3;" x="597.714" xlink:href="#m1b07c4dfaf" y="530.140311"/>
     <use style="fill:#0000ff;stroke:#7570b3;" x="597.714" xlink:href="#m1b07c4dfaf" y="527.612016"/>
     <use style="fill:#0000ff;stroke:#7570b3;" x="597.714" xlink:href="#m1b07c4dfaf" y="531.263998"/>
    </g>
   </g>
   <g id="line2d_153">
    <path clip-path="url(#p6cad198a95)" d="M 627.29175 403.280781 
L 647.01025 403.280781 
L 647.01025 234.002083 
L 627.29175 234.002083 
L 627.29175 403.280781 
" style="fill:none;stroke:#e7298a;stroke-linecap:round;"/>
   </g>
   <g id="line2d_154">
    <path clip-path="url(#p6cad198a95)" d="M 637.151 403.280781 
L 637.151 541.428679 
" style="fill:none;stroke:#e7298a;stroke-linecap:round;"/>
   </g>
   <g id="line2d_155">
    <path clip-path="url(#p6cad198a95)" d="M 637.151 234.002083 
L 637.151 84.036748 
" style="fill:none;stroke:#e7298a;stroke-linecap:round;"/>
   </g>
   <g id="line2d_156">
    <path clip-path="url(#p6cad198a95)" d="M 632.221375 541.428679 
L 642.080625 541.428679 
" style="fill:none;stroke:#e7298a;stroke-linecap:round;"/>
   </g>
   <g id="line2d_157">
    <path clip-path="url(#p6cad198a95)" d="M 632.221375 84.036748 
L 642.080625 84.036748 
" style="fill:none;stroke:#e7298a;stroke-linecap:round;"/>
   </g>
   <g id="line2d_158"/>
   <g id="line2d_159">
    <path clip-path="url(#p6cad198a95)" d="M 666.72875 545.058421 
L 686.44725 545.058421 
L 686.44725 544.058808 
L 666.72875 544.058808 
L 666.72875 545.058421 
" style="fill:none;stroke:#66a61e;stroke-linecap:round;"/>
   </g>
   <g id="line2d_160">
    <path clip-path="url(#p6cad198a95)" d="M 676.588 545.058421 
L 676.588 545.723971 
" style="fill:none;stroke:#66a61e;stroke-linecap:round;"/>
   </g>
   <g id="line2d_161">
    <path clip-path="url(#p6cad198a95)" d="M 676.588 544.058808 
L 676.588 542.875425 
" style="fill:none;stroke:#66a61e;stroke-linecap:round;"/>
   </g>
   <g id="line2d_162">
    <path clip-path="url(#p6cad198a95)" d="M 671.658375 545.723971 
L 681.517625 545.723971 
" style="fill:none;stroke:#66a61e;stroke-linecap:round;"/>
   </g>
   <g id="line2d_163">
    <path clip-path="url(#p6cad198a95)" d="M 671.658375 542.875425 
L 681.517625 542.875425 
" style="fill:none;stroke:#66a61e;stroke-linecap:round;"/>
   </g>
   <g id="line2d_164">
    <g clip-path="url(#p6cad198a95)">
     <use style="fill:#0000ff;stroke:#66a61e;" x="676.588" xlink:href="#mee4e032656" y="539.223444"/>
     <use style="fill:#0000ff;stroke:#66a61e;" x="676.588" xlink:href="#mee4e032656" y="535.992845"/>
     <use style="fill:#0000ff;stroke:#66a61e;" x="676.588" xlink:href="#mee4e032656" y="538.47432"/>
     <use style="fill:#0000ff;stroke:#66a61e;" x="676.588" xlink:href="#mee4e032656" y="537.912476"/>
     <use style="fill:#0000ff;stroke:#66a61e;" x="676.588" xlink:href="#mee4e032656" y="541.920292"/>
     <use style="fill:#0000ff;stroke:#66a61e;" x="676.588" xlink:href="#mee4e032656" y="537.865656"/>
     <use style="fill:#0000ff;stroke:#66a61e;" x="676.588" xlink:href="#mee4e032656" y="541.943702"/>
     <use style="fill:#0000ff;stroke:#66a61e;" x="676.588" xlink:href="#mee4e032656" y="539.738467"/>
     <use style="fill:#0000ff;stroke:#66a61e;" x="676.588" xlink:href="#mee4e032656" y="539.644827"/>
     <use style="fill:#0000ff;stroke:#66a61e;" x="676.588" xlink:href="#mee4e032656" y="540.25349"/>
     <use style="fill:#0000ff;stroke:#66a61e;" x="676.588" xlink:href="#mee4e032656" y="542.360402"/>
     <use style="fill:#0000ff;stroke:#66a61e;" x="676.588" xlink:href="#mee4e032656" y="540.674873"/>
     <use style="fill:#0000ff;stroke:#66a61e;" x="676.588" xlink:href="#mee4e032656" y="541.423997"/>
     <use style="fill:#0000ff;stroke:#66a61e;" x="676.588" xlink:href="#mee4e032656" y="542.439997"/>
     <use style="fill:#0000ff;stroke:#66a61e;" x="676.588" xlink:href="#mee4e032656" y="542.449361"/>
     <use style="fill:#0000ff;stroke:#66a61e;" x="676.588" xlink:href="#mee4e032656" y="542.524273"/>
     <use style="fill:#0000ff;stroke:#66a61e;" x="676.588" xlink:href="#mee4e032656" y="542.458725"/>
     <use style="fill:#0000ff;stroke:#66a61e;" x="676.588" xlink:href="#mee4e032656" y="541.344402"/>
     <use style="fill:#0000ff;stroke:#66a61e;" x="676.588" xlink:href="#mee4e032656" y="542.168439"/>
     <use style="fill:#0000ff;stroke:#66a61e;" x="676.588" xlink:href="#mee4e032656" y="541.850061"/>
     <use style="fill:#0000ff;stroke:#66a61e;" x="676.588" xlink:href="#mee4e032656" y="539.691647"/>
     <use style="fill:#0000ff;stroke:#66a61e;" x="676.588" xlink:href="#mee4e032656" y="540.908974"/>
    </g>
   </g>
   <g id="line2d_165">
    <path clip-path="url(#p6cad198a95)" d="M 706.16575 272.090375 
L 725.88425 272.090375 
L 725.88425 179.245773 
L 706.16575 179.245773 
L 706.16575 272.090375 
" style="fill:none;stroke:#e6ab02;stroke-linecap:round;"/>
   </g>
   <g id="line2d_166">
    <path clip-path="url(#p6cad198a95)" d="M 716.025 272.090375 
L 716.025 406.253868 
" style="fill:none;stroke:#e6ab02;stroke-linecap:round;"/>
   </g>
   <g id="line2d_167">
    <path clip-path="url(#p6cad198a95)" d="M 716.025 179.245773 
L 716.025 134.368541 
" style="fill:none;stroke:#e6ab02;stroke-linecap:round;"/>
   </g>
   <g id="line2d_168">
    <path clip-path="url(#p6cad198a95)" d="M 711.095375 406.253868 
L 720.954625 406.253868 
" style="fill:none;stroke:#e6ab02;stroke-linecap:round;"/>
   </g>
   <g id="line2d_169">
    <path clip-path="url(#p6cad198a95)" d="M 711.095375 134.368541 
L 720.954625 134.368541 
" style="fill:none;stroke:#e6ab02;stroke-linecap:round;"/>
   </g>
   <g id="line2d_170">
    <g clip-path="url(#p6cad198a95)">
     <use style="fill:#0000ff;stroke:#e6ab02;" x="716.025" xlink:href="#m078b21a78f" y="545.778282"/>
     <use style="fill:#0000ff;stroke:#e6ab02;" x="716.025" xlink:href="#m078b21a78f" y="535.571463"/>
     <use style="fill:#0000ff;stroke:#e6ab02;" x="716.025" xlink:href="#m078b21a78f" y="533.792292"/>
     <use style="fill:#0000ff;stroke:#e6ab02;" x="716.025" xlink:href="#m078b21a78f" y="525.505104"/>
     <use style="fill:#0000ff;stroke:#e6ab02;" x="716.025" xlink:href="#m078b21a78f" y="522.789528"/>
     <use style="fill:#0000ff;stroke:#e6ab02;" x="716.025" xlink:href="#m078b21a78f" y="514.080957"/>
     <use style="fill:#0000ff;stroke:#e6ab02;" x="716.025" xlink:href="#m078b21a78f" y="505.746949"/>
     <use style="fill:#0000ff;stroke:#e6ab02;" x="716.025" xlink:href="#m078b21a78f" y="494.182341"/>
     <use style="fill:#0000ff;stroke:#e6ab02;" x="716.025" xlink:href="#m078b21a78f" y="488.048885"/>
     <use style="fill:#0000ff;stroke:#e6ab02;" x="716.025" xlink:href="#m078b21a78f" y="474.751928"/>
     <use style="fill:#0000ff;stroke:#e6ab02;" x="716.025" xlink:href="#m078b21a78f" y="465.668795"/>
     <use style="fill:#0000ff;stroke:#e6ab02;" x="716.025" xlink:href="#m078b21a78f" y="450.077644"/>
     <use style="fill:#0000ff;stroke:#e6ab02;" x="716.025" xlink:href="#m078b21a78f" y="427.18253"/>
     <use style="fill:#0000ff;stroke:#e6ab02;" x="716.025" xlink:href="#m078b21a78f" y="423.951931"/>
     <use style="fill:#0000ff;stroke:#e6ab02;" x="716.025" xlink:href="#m078b21a78f" y="420.440411"/>
    </g>
   </g>
   <g id="line2d_171">
    <path clip-path="url(#p6cad198a95)" d="M 745.60275 294.739682 
L 765.32125 294.739682 
L 765.32125 115.581907 
L 745.60275 115.581907 
L 745.60275 294.739682 
" style="fill:none;stroke:#a6761d;stroke-linecap:round;"/>
   </g>
   <g id="line2d_172">
    <path clip-path="url(#p6cad198a95)" d="M 755.462 294.739682 
L 755.462 539.551186 
" style="fill:none;stroke:#a6761d;stroke-linecap:round;"/>
   </g>
   <g id="line2d_173">
    <path clip-path="url(#p6cad198a95)" d="M 755.462 115.581907 
L 755.462 78.886518 
" style="fill:none;stroke:#a6761d;stroke-linecap:round;"/>
   </g>
   <g id="line2d_174">
    <path clip-path="url(#p6cad198a95)" d="M 750.532375 539.551186 
L 760.391625 539.551186 
" style="fill:none;stroke:#a6761d;stroke-linecap:round;"/>
   </g>
   <g id="line2d_175">
    <path clip-path="url(#p6cad198a95)" d="M 750.532375 78.886518 
L 760.391625 78.886518 
" style="fill:none;stroke:#a6761d;stroke-linecap:round;"/>
   </g>
   <g id="line2d_176"/>
   <g id="line2d_177">
    <path clip-path="url(#p6cad198a95)" d="M 785.03975 467.600131 
L 804.75825 467.600131 
L 804.75825 242.347797 
L 785.03975 242.347797 
L 785.03975 467.600131 
" style="fill:none;stroke:#666666;stroke-linecap:round;"/>
   </g>
   <g id="line2d_178">
    <path clip-path="url(#p6cad198a95)" d="M 794.899 467.600131 
L 794.899 543.296808 
" style="fill:none;stroke:#666666;stroke-linecap:round;"/>
   </g>
   <g id="line2d_179">
    <path clip-path="url(#p6cad198a95)" d="M 794.899 242.347797 
L 794.899 80.618868 
" style="fill:none;stroke:#666666;stroke-linecap:round;"/>
   </g>
   <g id="line2d_180">
    <path clip-path="url(#p6cad198a95)" d="M 789.969375 543.296808 
L 799.828625 543.296808 
" style="fill:none;stroke:#666666;stroke-linecap:round;"/>
   </g>
   <g id="line2d_181">
    <path clip-path="url(#p6cad198a95)" d="M 789.969375 80.618868 
L 799.828625 80.618868 
" style="fill:none;stroke:#666666;stroke-linecap:round;"/>
   </g>
   <g id="line2d_182"/>
   <g id="line2d_183">
    <path clip-path="url(#p6cad198a95)" d="M 834.336 550.4472 
L 834.336 74.2176 
" style="fill:none;stroke:#000000;stroke-dasharray:0.5,0.825;stroke-dashoffset:0;stroke-width:0.5;"/>
   </g>
   <g id="line2d_184">
    <path clip-path="url(#p6cad198a95)" d="M 508.98075 538.076347 
L 528.69925 538.076347 
" style="fill:none;stroke:#ff7f0e;stroke-linecap:round;"/>
   </g>
   <g id="line2d_185">
    <path clip-path="url(#p6cad198a95)" d="M 548.41775 528.642062 
L 568.13625 528.642062 
" style="fill:none;stroke:#ff7f0e;stroke-linecap:round;"/>
   </g>
   <g id="line2d_186">
    <path clip-path="url(#p6cad198a95)" d="M 587.85475 540.15985 
L 607.57325 540.15985 
" style="fill:none;stroke:#ff7f0e;stroke-linecap:round;"/>
   </g>
   <g id="line2d_187">
    <path clip-path="url(#p6cad198a95)" d="M 627.29175 323.475625 
L 647.01025 323.475625 
" style="fill:none;stroke:#ff7f0e;stroke-linecap:round;"/>
   </g>
   <g id="line2d_188">
    <path clip-path="url(#p6cad198a95)" d="M 666.72875 544.668642 
L 686.44725 544.668642 
" style="fill:none;stroke:#ff7f0e;stroke-linecap:round;"/>
   </g>
   <g id="line2d_189">
    <path clip-path="url(#p6cad198a95)" d="M 706.16575 204.130749 
L 725.88425 204.130749 
" style="fill:none;stroke:#ff7f0e;stroke-linecap:round;"/>
   </g>
   <g id="line2d_190">
    <path clip-path="url(#p6cad198a95)" d="M 745.60275 157.919139 
L 765.32125 157.919139 
" style="fill:none;stroke:#ff7f0e;stroke-linecap:round;"/>
   </g>
   <g id="line2d_191">
    <path clip-path="url(#p6cad198a95)" d="M 785.03975 317.014427 
L 804.75825 317.014427 
" style="fill:none;stroke:#ff7f0e;stroke-linecap:round;"/>
   </g>
  </g>
  <g id="text_41">
   <!-- TCP upload - 12 streams w/ping -->
   <g transform="translate(386.984687 15.791812)scale(0.14 -0.14)">
    <defs>
     <path d="M 41.109375 46.296875 
Q 39.59375 47.171875 37.8125 47.578125 
Q 36.03125 48 33.890625 48 
Q 26.265625 48 22.1875 43.046875 
Q 18.109375 38.09375 18.109375 28.8125 
L 18.109375 0 
L 9.078125 0 
L 9.078125 54.6875 
L 18.109375 54.6875 
L 18.109375 46.1875 
Q 20.953125 51.171875 25.484375 53.578125 
Q 30.03125 56 36.53125 56 
Q 37.453125 56 38.578125 55.875 
Q 39.703125 55.765625 41.0625 55.515625 
z
" id="DejaVuSans-114"/>
     <path d="M 4.203125 54.6875 
L 13.1875 54.6875 
L 24.421875 12.015625 
L 35.59375 54.6875 
L 46.1875 54.6875 
L 57.421875 12.015625 
L 68.609375 54.6875 
L 77.59375 54.6875 
L 63.28125 0 
L 52.6875 0 
L 40.921875 44.828125 
L 29.109375 0 
L 18.5 0 
z
" id="DejaVuSans-119"/>
    </defs>
    <use xlink:href="#DejaVuSans-84"/>
    <use x="55.208984" xlink:href="#DejaVuSans-67"/>
    <use x="125.033203" xlink:href="#DejaVuSans-80"/>
    <use x="185.335938" xlink:href="#DejaVuSans-32"/>
    <use x="217.123047" xlink:href="#DejaVuSans-117"/>
    <use x="280.501953" xlink:href="#DejaVuSans-112"/>
    <use x="343.978516" xlink:href="#DejaVuSans-108"/>
    <use x="371.761719" xlink:href="#DejaVuSans-111"/>
    <use x="432.943359" xlink:href="#DejaVuSans-97"/>
    <use x="494.222656" xlink:href="#DejaVuSans-100"/>
    <use x="557.699219" xlink:href="#DejaVuSans-32"/>
    <use x="589.486328" xlink:href="#DejaVuSans-45"/>
    <use x="625.570312" xlink:href="#DejaVuSans-32"/>
    <use x="657.357422" xlink:href="#DejaVuSans-49"/>
    <use x="720.980469" xlink:href="#DejaVuSans-50"/>
    <use x="784.603516" xlink:href="#DejaVuSans-32"/>
    <use x="816.390625" xlink:href="#DejaVuSans-115"/>
    <use x="868.490234" xlink:href="#DejaVuSans-116"/>
    <use x="907.699219" xlink:href="#DejaVuSans-114"/>
    <use x="946.5625" xlink:href="#DejaVuSans-101"/>
    <use x="1008.085938" xlink:href="#DejaVuSans-97"/>
    <use x="1069.365234" xlink:href="#DejaVuSans-109"/>
    <use x="1166.777344" xlink:href="#DejaVuSans-115"/>
    <use x="1218.876953" xlink:href="#DejaVuSans-32"/>
    <use x="1250.664062" xlink:href="#DejaVuSans-119"/>
    <use x="1332.451172" xlink:href="#DejaVuSans-47"/>
    <use x="1366.142578" xlink:href="#DejaVuSans-112"/>
    <use x="1429.619141" xlink:href="#DejaVuSans-105"/>
    <use x="1457.402344" xlink:href="#DejaVuSans-110"/>
    <use x="1520.78125" xlink:href="#DejaVuSans-103"/>
   </g>
   <!-- Box plot of totals -->
   <g transform="translate(438.38 31.46875)scale(0.14 -0.14)">
    <defs>
     <path d="M 54.890625 54.6875 
L 35.109375 28.078125 
L 55.90625 0 
L 45.3125 0 
L 29.390625 21.484375 
L 13.484375 0 
L 2.875 0 
L 24.125 28.609375 
L 4.6875 54.6875 
L 15.28125 54.6875 
L 29.78125 35.203125 
L 44.28125 54.6875 
z
" id="DejaVuSans-120"/>
     <path d="M 37.109375 75.984375 
L 37.109375 68.5 
L 28.515625 68.5 
Q 23.6875 68.5 21.796875 66.546875 
Q 19.921875 64.59375 19.921875 59.515625 
L 19.921875 54.6875 
L 34.71875 54.6875 
L 34.71875 47.703125 
L 19.921875 47.703125 
L 19.921875 0 
L 10.890625 0 
L 10.890625 47.703125 
L 2.296875 47.703125 
L 2.296875 54.6875 
L 10.890625 54.6875 
L 10.890625 58.5 
Q 10.890625 67.625 15.140625 71.796875 
Q 19.390625 75.984375 28.609375 75.984375 
z
" id="DejaVuSans-102"/>
    </defs>
    <use xlink:href="#DejaVuSans-66"/>
    <use x="68.603516" xlink:href="#DejaVuSans-111"/>
    <use x="126.660156" xlink:href="#DejaVuSans-120"/>
    <use x="185.839844" xlink:href="#DejaVuSans-32"/>
    <use x="217.626953" xlink:href="#DejaVuSans-112"/>
    <use x="281.103516" xlink:href="#DejaVuSans-108"/>
    <use x="308.886719" xlink:href="#DejaVuSans-111"/>
    <use x="370.068359" xlink:href="#DejaVuSans-116"/>
    <use x="409.277344" xlink:href="#DejaVuSans-32"/>
    <use x="441.064453" xlink:href="#DejaVuSans-111"/>
    <use x="502.246094" xlink:href="#DejaVuSans-102"/>
    <use x="537.451172" xlink:href="#DejaVuSans-32"/>
    <use x="569.238281" xlink:href="#DejaVuSans-116"/>
    <use x="608.447266" xlink:href="#DejaVuSans-111"/>
    <use x="669.628906" xlink:href="#DejaVuSans-116"/>
    <use x="708.837891" xlink:href="#DejaVuSans-97"/>
    <use x="770.117188" xlink:href="#DejaVuSans-108"/>
    <use x="797.900391" xlink:href="#DejaVuSans-115"/>
   </g>
  </g>
 </g>
 <defs>
  <clipPath id="p6cad198a95">
   <rect height="476.2296" width="709.866" x="124.47" y="74.2176"/>
  </clipPath>
 </defs>
</svg>
