<?xml version="1.0" encoding="utf-8" standalone="no"?>
<!DOCTYPE svg PUBLIC "-//W3C//DTD SVG 1.1//EN"
  "http://www.w3.org/Graphics/SVG/1.1/DTD/svg11.dtd">
<!-- Created with matplotlib (https://matplotlib.org/) -->
<svg height="401.76pt" version="1.1" viewBox="0 0 977.04 401.76" width="977.04pt" xmlns="http://www.w3.org/2000/svg" xmlns:xlink="http://www.w3.org/1999/xlink">
 <metadata>
  <rdf:RDF xmlns:cc="http://creativecommons.org/ns#" xmlns:dc="http://purl.org/dc/elements/1.1/" xmlns:rdf="http://www.w3.org/1999/02/22-rdf-syntax-ns#">
   <cc:Work>
    <dc:type rdf:resource="http://purl.org/dc/dcmitype/StillImage"/>
    <dc:date>2025-06-06T20:42:17.739262</dc:date>
    <dc:format>image/svg+xml</dc:format>
    <dc:creator>
     <cc:Agent>
      <dc:title>Matplotlib v3.3.4, https://matplotlib.org/</dc:title>
     </cc:Agent>
    </dc:creator>
   </cc:Work>
  </rdf:RDF>
 </metadata>
 <defs>
  <style type="text/css">*{stroke-linecap:butt;stroke-linejoin:round;}</style>
 </defs>
 <g id="figure_1">
  <g id="patch_1">
   <path d="M 0 401.76 
L 977.04 401.76 
L 977.04 0 
L 0 0 
z
" style="fill:#ffffff;"/>
  </g>
  <g id="axes_1">
   <g id="patch_2">
    <path d="M 122.13 357.5664 
L 817.488 357.5664 
L 817.488 48.2112 
L 122.13 48.2112 
z
" style="fill:#e6e6e6;"/>
   </g>
   <g id="matplotlib.axis_1">
    <g id="xtick_1">
     <g id="line2d_1"/>
     <g id="text_1">
      <!-- BBR-v3 -->
      <g transform="translate(163.520375 396.963275)rotate(-90)scale(0.1 -0.1)">
       <defs>
        <path d="M 19.671875 34.8125 
L 19.671875 8.109375 
L 35.5 8.109375 
Q 43.453125 8.109375 47.28125 11.40625 
Q 51.125 14.703125 51.125 21.484375 
Q 51.125 28.328125 47.28125 31.5625 
Q 43.453125 34.8125 35.5 34.8125 
z
M 19.671875 64.796875 
L 19.671875 42.828125 
L 34.28125 42.828125 
Q 41.5 42.828125 45.03125 45.53125 
Q 48.578125 48.25 48.578125 53.8125 
Q 48.578125 59.328125 45.03125 62.0625 
Q 41.5 64.796875 34.28125 64.796875 
z
M 9.8125 72.90625 
L 35.015625 72.90625 
Q 46.296875 72.90625 52.390625 68.21875 
Q 58.5 63.53125 58.5 54.890625 
Q 58.5 48.1875 55.375 44.234375 
Q 52.25 40.28125 46.1875 39.3125 
Q 53.46875 37.75 57.5 32.78125 
Q 61.53125 27.828125 61.53125 20.40625 
Q 61.53125 10.640625 54.890625 5.3125 
Q 48.25 0 35.984375 0 
L 9.8125 0 
z
" id="DejaVuSans-66"/>
        <path d="M 44.390625 34.1875 
Q 47.5625 33.109375 50.5625 29.59375 
Q 53.5625 26.078125 56.59375 19.921875 
L 66.609375 0 
L 56 0 
L 46.6875 18.703125 
Q 43.0625 26.03125 39.671875 28.421875 
Q 36.28125 30.8125 30.421875 30.8125 
L 19.671875 30.8125 
L 19.671875 0 
L 9.8125 0 
L 9.8125 72.90625 
L 32.078125 72.90625 
Q 44.578125 72.90625 50.734375 67.671875 
Q 56.890625 62.453125 56.890625 51.90625 
Q 56.890625 45.015625 53.6875 40.46875 
Q 50.484375 35.9375 44.390625 34.1875 
z
M 19.671875 64.796875 
L 19.671875 38.921875 
L 32.078125 38.921875 
Q 39.203125 38.921875 42.84375 42.21875 
Q 46.484375 45.515625 46.484375 51.90625 
Q 46.484375 58.296875 42.84375 61.546875 
Q 39.203125 64.796875 32.078125 64.796875 
z
" id="DejaVuSans-82"/>
        <path d="M 4.890625 31.390625 
L 31.203125 31.390625 
L 31.203125 23.390625 
L 4.890625 23.390625 
z
" id="DejaVuSans-45"/>
        <path d="M 2.984375 54.6875 
L 12.5 54.6875 
L 29.59375 8.796875 
L 46.6875 54.6875 
L 56.203125 54.6875 
L 35.6875 0 
L 23.484375 0 
z
" id="DejaVuSans-118"/>
        <path d="M 40.578125 39.3125 
Q 47.65625 37.796875 51.625 33 
Q 55.609375 28.21875 55.609375 21.1875 
Q 55.609375 10.40625 48.1875 4.484375 
Q 40.765625 -1.421875 27.09375 -1.421875 
Q 22.515625 -1.421875 17.65625 -0.515625 
Q 12.796875 0.390625 7.625 2.203125 
L 7.625 11.71875 
Q 11.71875 9.328125 16.59375 8.109375 
Q 21.484375 6.890625 26.8125 6.890625 
Q 36.078125 6.890625 40.9375 10.546875 
Q 45.796875 14.203125 45.796875 21.1875 
Q 45.796875 27.640625 41.28125 31.265625 
Q 36.765625 34.90625 28.71875 34.90625 
L 20.21875 34.90625 
L 20.21875 43.015625 
L 29.109375 43.015625 
Q 36.375 43.015625 40.234375 45.921875 
Q 44.09375 48.828125 44.09375 54.296875 
Q 44.09375 59.90625 40.109375 62.90625 
Q 36.140625 65.921875 28.71875 65.921875 
Q 24.65625 65.921875 20.015625 65.03125 
Q 15.375 64.15625 9.8125 62.3125 
L 9.8125 71.09375 
Q 15.4375 72.65625 20.34375 73.4375 
Q 25.25 74.21875 29.59375 74.21875 
Q 40.828125 74.21875 47.359375 69.109375 
Q 53.90625 64.015625 53.90625 55.328125 
Q 53.90625 49.265625 50.4375 45.09375 
Q 46.96875 40.921875 40.578125 39.3125 
z
" id="DejaVuSans-51"/>
       </defs>
       <use xlink:href="#DejaVuSans-66"/>
       <use x="68.603516" xlink:href="#DejaVuSans-66"/>
       <use x="137.207031" xlink:href="#DejaVuSans-82"/>
       <use x="202.689453" xlink:href="#DejaVuSans-45"/>
       <use x="236.148438" xlink:href="#DejaVuSans-118"/>
       <use x="295.328125" xlink:href="#DejaVuSans-51"/>
      </g>
     </g>
    </g>
    <g id="xtick_2">
     <g id="line2d_2"/>
     <g id="text_2">
      <!-- Yeah -->
      <g transform="translate(202.151375 384.467962)rotate(-90)scale(0.1 -0.1)">
       <defs>
        <path d="M -0.203125 72.90625 
L 10.40625 72.90625 
L 30.609375 42.921875 
L 50.6875 72.90625 
L 61.28125 72.90625 
L 35.5 34.71875 
L 35.5 0 
L 25.59375 0 
L 25.59375 34.71875 
z
" id="DejaVuSans-89"/>
        <path d="M 56.203125 29.59375 
L 56.203125 25.203125 
L 14.890625 25.203125 
Q 15.484375 15.921875 20.484375 11.0625 
Q 25.484375 6.203125 34.421875 6.203125 
Q 39.59375 6.203125 44.453125 7.46875 
Q 49.3125 8.734375 54.109375 11.28125 
L 54.109375 2.78125 
Q 49.265625 0.734375 44.1875 -0.34375 
Q 39.109375 -1.421875 33.890625 -1.421875 
Q 20.796875 -1.421875 13.15625 6.1875 
Q 5.515625 13.8125 5.515625 26.8125 
Q 5.515625 40.234375 12.765625 48.109375 
Q 20.015625 56 32.328125 56 
Q 43.359375 56 49.78125 48.890625 
Q 56.203125 41.796875 56.203125 29.59375 
z
M 47.21875 32.234375 
Q 47.125 39.59375 43.09375 43.984375 
Q 39.0625 48.390625 32.421875 48.390625 
Q 24.90625 48.390625 20.390625 44.140625 
Q 15.875 39.890625 15.1875 32.171875 
z
" id="DejaVuSans-101"/>
        <path d="M 34.28125 27.484375 
Q 23.390625 27.484375 19.1875 25 
Q 14.984375 22.515625 14.984375 16.5 
Q 14.984375 11.71875 18.140625 8.90625 
Q 21.296875 6.109375 26.703125 6.109375 
Q 34.1875 6.109375 38.703125 11.40625 
Q 43.21875 16.703125 43.21875 25.484375 
L 43.21875 27.484375 
z
M 52.203125 31.203125 
L 52.203125 0 
L 43.21875 0 
L 43.21875 8.296875 
Q 40.140625 3.328125 35.546875 0.953125 
Q 30.953125 -1.421875 24.3125 -1.421875 
Q 15.921875 -1.421875 10.953125 3.296875 
Q 6 8.015625 6 15.921875 
Q 6 25.140625 12.171875 29.828125 
Q 18.359375 34.515625 30.609375 34.515625 
L 43.21875 34.515625 
L 43.21875 35.40625 
Q 43.21875 41.609375 39.140625 45 
Q 35.0625 48.390625 27.6875 48.390625 
Q 23 48.390625 18.546875 47.265625 
Q 14.109375 46.140625 10.015625 43.890625 
L 10.015625 52.203125 
Q 14.9375 54.109375 19.578125 55.046875 
Q 24.21875 56 28.609375 56 
Q 40.484375 56 46.34375 49.84375 
Q 52.203125 43.703125 52.203125 31.203125 
z
" id="DejaVuSans-97"/>
        <path d="M 54.890625 33.015625 
L 54.890625 0 
L 45.90625 0 
L 45.90625 32.71875 
Q 45.90625 40.484375 42.875 44.328125 
Q 39.84375 48.1875 33.796875 48.1875 
Q 26.515625 48.1875 22.3125 43.546875 
Q 18.109375 38.921875 18.109375 30.90625 
L 18.109375 0 
L 9.078125 0 
L 9.078125 75.984375 
L 18.109375 75.984375 
L 18.109375 46.1875 
Q 21.34375 51.125 25.703125 53.5625 
Q 30.078125 56 35.796875 56 
Q 45.21875 56 50.046875 50.171875 
Q 54.890625 44.34375 54.890625 33.015625 
z
" id="DejaVuSans-104"/>
       </defs>
       <use xlink:href="#DejaVuSans-89"/>
       <use x="47.833984" xlink:href="#DejaVuSans-101"/>
       <use x="109.357422" xlink:href="#DejaVuSans-97"/>
       <use x="170.636719" xlink:href="#DejaVuSans-104"/>
      </g>
     </g>
    </g>
    <g id="xtick_3">
     <g id="line2d_3"/>
     <g id="text_3">
      <!-- Nevada -->
      <g transform="translate(240.782375 399.224213)rotate(-90)scale(0.1 -0.1)">
       <defs>
        <path d="M 9.8125 72.90625 
L 23.09375 72.90625 
L 55.421875 11.921875 
L 55.421875 72.90625 
L 64.984375 72.90625 
L 64.984375 0 
L 51.703125 0 
L 19.390625 60.984375 
L 19.390625 0 
L 9.8125 0 
z
" id="DejaVuSans-78"/>
        <path d="M 45.40625 46.390625 
L 45.40625 75.984375 
L 54.390625 75.984375 
L 54.390625 0 
L 45.40625 0 
L 45.40625 8.203125 
Q 42.578125 3.328125 38.25 0.953125 
Q 33.9375 -1.421875 27.875 -1.421875 
Q 17.96875 -1.421875 11.734375 6.484375 
Q 5.515625 14.40625 5.515625 27.296875 
Q 5.515625 40.1875 11.734375 48.09375 
Q 17.96875 56 27.875 56 
Q 33.9375 56 38.25 53.625 
Q 42.578125 51.265625 45.40625 46.390625 
z
M 14.796875 27.296875 
Q 14.796875 17.390625 18.875 11.75 
Q 22.953125 6.109375 30.078125 6.109375 
Q 37.203125 6.109375 41.296875 11.75 
Q 45.40625 17.390625 45.40625 27.296875 
Q 45.40625 37.203125 41.296875 42.84375 
Q 37.203125 48.484375 30.078125 48.484375 
Q 22.953125 48.484375 18.875 42.84375 
Q 14.796875 37.203125 14.796875 27.296875 
z
" id="DejaVuSans-100"/>
       </defs>
       <use xlink:href="#DejaVuSans-78"/>
       <use x="74.804688" xlink:href="#DejaVuSans-101"/>
       <use x="136.328125" xlink:href="#DejaVuSans-118"/>
       <use x="195.507812" xlink:href="#DejaVuSans-97"/>
       <use x="256.787109" xlink:href="#DejaVuSans-100"/>
       <use x="320.263672" xlink:href="#DejaVuSans-97"/>
      </g>
     </g>
    </g>
    <g id="xtick_4">
     <g id="line2d_4"/>
     <g id="text_4">
      <!-- Veno -->
      <g transform="translate(279.413375 385.7414)rotate(-90)scale(0.1 -0.1)">
       <defs>
        <path d="M 28.609375 0 
L 0.78125 72.90625 
L 11.078125 72.90625 
L 34.1875 11.53125 
L 57.328125 72.90625 
L 67.578125 72.90625 
L 39.796875 0 
z
" id="DejaVuSans-86"/>
        <path d="M 54.890625 33.015625 
L 54.890625 0 
L 45.90625 0 
L 45.90625 32.71875 
Q 45.90625 40.484375 42.875 44.328125 
Q 39.84375 48.1875 33.796875 48.1875 
Q 26.515625 48.1875 22.3125 43.546875 
Q 18.109375 38.921875 18.109375 30.90625 
L 18.109375 0 
L 9.078125 0 
L 9.078125 54.6875 
L 18.109375 54.6875 
L 18.109375 46.1875 
Q 21.34375 51.125 25.703125 53.5625 
Q 30.078125 56 35.796875 56 
Q 45.21875 56 50.046875 50.171875 
Q 54.890625 44.34375 54.890625 33.015625 
z
" id="DejaVuSans-110"/>
        <path d="M 30.609375 48.390625 
Q 23.390625 48.390625 19.1875 42.75 
Q 14.984375 37.109375 14.984375 27.296875 
Q 14.984375 17.484375 19.15625 11.84375 
Q 23.34375 6.203125 30.609375 6.203125 
Q 37.796875 6.203125 41.984375 11.859375 
Q 46.1875 17.53125 46.1875 27.296875 
Q 46.1875 37.015625 41.984375 42.703125 
Q 37.796875 48.390625 30.609375 48.390625 
z
M 30.609375 56 
Q 42.328125 56 49.015625 48.375 
Q 55.71875 40.765625 55.71875 27.296875 
Q 55.71875 13.875 49.015625 6.21875 
Q 42.328125 -1.421875 30.609375 -1.421875 
Q 18.84375 -1.421875 12.171875 6.21875 
Q 5.515625 13.875 5.515625 27.296875 
Q 5.515625 40.765625 12.171875 48.375 
Q 18.84375 56 30.609375 56 
z
" id="DejaVuSans-111"/>
       </defs>
       <use xlink:href="#DejaVuSans-86"/>
       <use x="60.658203" xlink:href="#DejaVuSans-101"/>
       <use x="122.181641" xlink:href="#DejaVuSans-110"/>
       <use x="185.560547" xlink:href="#DejaVuSans-111"/>
      </g>
     </g>
    </g>
    <g id="xtick_5">
     <g id="line2d_5"/>
     <g id="text_5">
      <!-- Vegas -->
      <g transform="translate(318.044375 390.971088)rotate(-90)scale(0.1 -0.1)">
       <defs>
        <path d="M 45.40625 27.984375 
Q 45.40625 37.75 41.375 43.109375 
Q 37.359375 48.484375 30.078125 48.484375 
Q 22.859375 48.484375 18.828125 43.109375 
Q 14.796875 37.75 14.796875 27.984375 
Q 14.796875 18.265625 18.828125 12.890625 
Q 22.859375 7.515625 30.078125 7.515625 
Q 37.359375 7.515625 41.375 12.890625 
Q 45.40625 18.265625 45.40625 27.984375 
z
M 54.390625 6.78125 
Q 54.390625 -7.171875 48.1875 -13.984375 
Q 42 -20.796875 29.203125 -20.796875 
Q 24.46875 -20.796875 20.265625 -20.09375 
Q 16.0625 -19.390625 12.109375 -17.921875 
L 12.109375 -9.1875 
Q 16.0625 -11.328125 19.921875 -12.34375 
Q 23.78125 -13.375 27.78125 -13.375 
Q 36.625 -13.375 41.015625 -8.765625 
Q 45.40625 -4.15625 45.40625 5.171875 
L 45.40625 9.625 
Q 42.625 4.78125 38.28125 2.390625 
Q 33.9375 0 27.875 0 
Q 17.828125 0 11.671875 7.65625 
Q 5.515625 15.328125 5.515625 27.984375 
Q 5.515625 40.671875 11.671875 48.328125 
Q 17.828125 56 27.875 56 
Q 33.9375 56 38.28125 53.609375 
Q 42.625 51.21875 45.40625 46.390625 
L 45.40625 54.6875 
L 54.390625 54.6875 
z
" id="DejaVuSans-103"/>
        <path d="M 44.28125 53.078125 
L 44.28125 44.578125 
Q 40.484375 46.53125 36.375 47.5 
Q 32.28125 48.484375 27.875 48.484375 
Q 21.1875 48.484375 17.84375 46.4375 
Q 14.5 44.390625 14.5 40.28125 
Q 14.5 37.15625 16.890625 35.375 
Q 19.28125 33.59375 26.515625 31.984375 
L 29.59375 31.296875 
Q 39.15625 29.25 43.1875 25.515625 
Q 47.21875 21.78125 47.21875 15.09375 
Q 47.21875 7.46875 41.1875 3.015625 
Q 35.15625 -1.421875 24.609375 -1.421875 
Q 20.21875 -1.421875 15.453125 -0.5625 
Q 10.6875 0.296875 5.421875 2 
L 5.421875 11.28125 
Q 10.40625 8.6875 15.234375 7.390625 
Q 20.0625 6.109375 24.8125 6.109375 
Q 31.15625 6.109375 34.5625 8.28125 
Q 37.984375 10.453125 37.984375 14.40625 
Q 37.984375 18.0625 35.515625 20.015625 
Q 33.0625 21.96875 24.703125 23.78125 
L 21.578125 24.515625 
Q 13.234375 26.265625 9.515625 29.90625 
Q 5.8125 33.546875 5.8125 39.890625 
Q 5.8125 47.609375 11.28125 51.796875 
Q 16.75 56 26.8125 56 
Q 31.78125 56 36.171875 55.265625 
Q 40.578125 54.546875 44.28125 53.078125 
z
" id="DejaVuSans-115"/>
       </defs>
       <use xlink:href="#DejaVuSans-86"/>
       <use x="60.658203" xlink:href="#DejaVuSans-101"/>
       <use x="122.181641" xlink:href="#DejaVuSans-103"/>
       <use x="185.658203" xlink:href="#DejaVuSans-97"/>
       <use x="246.9375" xlink:href="#DejaVuSans-115"/>
      </g>
     </g>
    </g>
    <g id="xtick_6">
     <g id="line2d_6"/>
     <g id="text_6">
      <!-- DCTCP -->
      <g transform="translate(356.675375 394.282025)rotate(-90)scale(0.1 -0.1)">
       <defs>
        <path d="M 19.671875 64.796875 
L 19.671875 8.109375 
L 31.59375 8.109375 
Q 46.6875 8.109375 53.6875 14.9375 
Q 60.6875 21.78125 60.6875 36.53125 
Q 60.6875 51.171875 53.6875 57.984375 
Q 46.6875 64.796875 31.59375 64.796875 
z
M 9.8125 72.90625 
L 30.078125 72.90625 
Q 51.265625 72.90625 61.171875 64.09375 
Q 71.09375 55.28125 71.09375 36.53125 
Q 71.09375 17.671875 61.125 8.828125 
Q 51.171875 0 30.078125 0 
L 9.8125 0 
z
" id="DejaVuSans-68"/>
        <path d="M 64.40625 67.28125 
L 64.40625 56.890625 
Q 59.421875 61.53125 53.78125 63.8125 
Q 48.140625 66.109375 41.796875 66.109375 
Q 29.296875 66.109375 22.65625 58.46875 
Q 16.015625 50.828125 16.015625 36.375 
Q 16.015625 21.96875 22.65625 14.328125 
Q 29.296875 6.6875 41.796875 6.6875 
Q 48.140625 6.6875 53.78125 8.984375 
Q 59.421875 11.28125 64.40625 15.921875 
L 64.40625 5.609375 
Q 59.234375 2.09375 53.4375 0.328125 
Q 47.65625 -1.421875 41.21875 -1.421875 
Q 24.65625 -1.421875 15.125 8.703125 
Q 5.609375 18.84375 5.609375 36.375 
Q 5.609375 53.953125 15.125 64.078125 
Q 24.65625 74.21875 41.21875 74.21875 
Q 47.75 74.21875 53.53125 72.484375 
Q 59.328125 70.75 64.40625 67.28125 
z
" id="DejaVuSans-67"/>
        <path d="M -0.296875 72.90625 
L 61.375 72.90625 
L 61.375 64.59375 
L 35.5 64.59375 
L 35.5 0 
L 25.59375 0 
L 25.59375 64.59375 
L -0.296875 64.59375 
z
" id="DejaVuSans-84"/>
        <path d="M 19.671875 64.796875 
L 19.671875 37.40625 
L 32.078125 37.40625 
Q 38.96875 37.40625 42.71875 40.96875 
Q 46.484375 44.53125 46.484375 51.125 
Q 46.484375 57.671875 42.71875 61.234375 
Q 38.96875 64.796875 32.078125 64.796875 
z
M 9.8125 72.90625 
L 32.078125 72.90625 
Q 44.34375 72.90625 50.609375 67.359375 
Q 56.890625 61.8125 56.890625 51.125 
Q 56.890625 40.328125 50.609375 34.8125 
Q 44.34375 29.296875 32.078125 29.296875 
L 19.671875 29.296875 
L 19.671875 0 
L 9.8125 0 
z
" id="DejaVuSans-80"/>
       </defs>
       <use xlink:href="#DejaVuSans-68"/>
       <use x="77.001953" xlink:href="#DejaVuSans-67"/>
       <use x="146.826172" xlink:href="#DejaVuSans-84"/>
       <use x="202.035156" xlink:href="#DejaVuSans-67"/>
       <use x="271.859375" xlink:href="#DejaVuSans-80"/>
      </g>
     </g>
    </g>
    <g id="xtick_7">
     <g id="line2d_7"/>
     <g id="text_7">
      <!-- Reno -->
      <g transform="translate(395.306375 386.174213)rotate(-90)scale(0.1 -0.1)">
       <use xlink:href="#DejaVuSans-82"/>
       <use x="64.982422" xlink:href="#DejaVuSans-101"/>
       <use x="126.505859" xlink:href="#DejaVuSans-110"/>
       <use x="189.884766" xlink:href="#DejaVuSans-111"/>
      </g>
     </g>
    </g>
    <g id="xtick_8">
     <g id="line2d_8"/>
     <g id="text_8">
      <!-- Cubic -->
      <g transform="translate(433.937375 389.011712)rotate(-90)scale(0.1 -0.1)">
       <defs>
        <path d="M 8.5 21.578125 
L 8.5 54.6875 
L 17.484375 54.6875 
L 17.484375 21.921875 
Q 17.484375 14.15625 20.5 10.265625 
Q 23.53125 6.390625 29.59375 6.390625 
Q 36.859375 6.390625 41.078125 11.03125 
Q 45.3125 15.671875 45.3125 23.6875 
L 45.3125 54.6875 
L 54.296875 54.6875 
L 54.296875 0 
L 45.3125 0 
L 45.3125 8.40625 
Q 42.046875 3.421875 37.71875 1 
Q 33.40625 -1.421875 27.6875 -1.421875 
Q 18.265625 -1.421875 13.375 4.4375 
Q 8.5 10.296875 8.5 21.578125 
z
M 31.109375 56 
z
" id="DejaVuSans-117"/>
        <path d="M 48.6875 27.296875 
Q 48.6875 37.203125 44.609375 42.84375 
Q 40.53125 48.484375 33.40625 48.484375 
Q 26.265625 48.484375 22.1875 42.84375 
Q 18.109375 37.203125 18.109375 27.296875 
Q 18.109375 17.390625 22.1875 11.75 
Q 26.265625 6.109375 33.40625 6.109375 
Q 40.53125 6.109375 44.609375 11.75 
Q 48.6875 17.390625 48.6875 27.296875 
z
M 18.109375 46.390625 
Q 20.953125 51.265625 25.265625 53.625 
Q 29.59375 56 35.59375 56 
Q 45.5625 56 51.78125 48.09375 
Q 58.015625 40.1875 58.015625 27.296875 
Q 58.015625 14.40625 51.78125 6.484375 
Q 45.5625 -1.421875 35.59375 -1.421875 
Q 29.59375 -1.421875 25.265625 0.953125 
Q 20.953125 3.328125 18.109375 8.203125 
L 18.109375 0 
L 9.078125 0 
L 9.078125 75.984375 
L 18.109375 75.984375 
z
" id="DejaVuSans-98"/>
        <path d="M 9.421875 54.6875 
L 18.40625 54.6875 
L 18.40625 0 
L 9.421875 0 
z
M 9.421875 75.984375 
L 18.40625 75.984375 
L 18.40625 64.59375 
L 9.421875 64.59375 
z
" id="DejaVuSans-105"/>
        <path d="M 48.78125 52.59375 
L 48.78125 44.1875 
Q 44.96875 46.296875 41.140625 47.34375 
Q 37.3125 48.390625 33.40625 48.390625 
Q 24.65625 48.390625 19.8125 42.84375 
Q 14.984375 37.3125 14.984375 27.296875 
Q 14.984375 17.28125 19.8125 11.734375 
Q 24.65625 6.203125 33.40625 6.203125 
Q 37.3125 6.203125 41.140625 7.25 
Q 44.96875 8.296875 48.78125 10.40625 
L 48.78125 2.09375 
Q 45.015625 0.34375 40.984375 -0.53125 
Q 36.96875 -1.421875 32.421875 -1.421875 
Q 20.0625 -1.421875 12.78125 6.34375 
Q 5.515625 14.109375 5.515625 27.296875 
Q 5.515625 40.671875 12.859375 48.328125 
Q 20.21875 56 33.015625 56 
Q 37.15625 56 41.109375 55.140625 
Q 45.0625 54.296875 48.78125 52.59375 
z
" id="DejaVuSans-99"/>
       </defs>
       <use xlink:href="#DejaVuSans-67"/>
       <use x="69.824219" xlink:href="#DejaVuSans-117"/>
       <use x="133.203125" xlink:href="#DejaVuSans-98"/>
       <use x="196.679688" xlink:href="#DejaVuSans-105"/>
       <use x="224.462891" xlink:href="#DejaVuSans-99"/>
      </g>
     </g>
    </g>
    <g id="xtick_9">
     <g id="line2d_9"/>
     <g id="text_9">
      <!-- BBR-v3 -->
      <g transform="translate(511.199375 396.963275)rotate(-90)scale(0.1 -0.1)">
       <use xlink:href="#DejaVuSans-66"/>
       <use x="68.603516" xlink:href="#DejaVuSans-66"/>
       <use x="137.207031" xlink:href="#DejaVuSans-82"/>
       <use x="202.689453" xlink:href="#DejaVuSans-45"/>
       <use x="236.148438" xlink:href="#DejaVuSans-118"/>
       <use x="295.328125" xlink:href="#DejaVuSans-51"/>
      </g>
     </g>
    </g>
    <g id="xtick_10">
     <g id="line2d_10"/>
     <g id="text_10">
      <!-- Yeah -->
      <g transform="translate(549.830375 384.467962)rotate(-90)scale(0.1 -0.1)">
       <use xlink:href="#DejaVuSans-89"/>
       <use x="47.833984" xlink:href="#DejaVuSans-101"/>
       <use x="109.357422" xlink:href="#DejaVuSans-97"/>
       <use x="170.636719" xlink:href="#DejaVuSans-104"/>
      </g>
     </g>
    </g>
    <g id="xtick_11">
     <g id="line2d_11"/>
     <g id="text_11">
      <!-- Nevada -->
      <g transform="translate(588.461375 399.224213)rotate(-90)scale(0.1 -0.1)">
       <use xlink:href="#DejaVuSans-78"/>
       <use x="74.804688" xlink:href="#DejaVuSans-101"/>
       <use x="136.328125" xlink:href="#DejaVuSans-118"/>
       <use x="195.507812" xlink:href="#DejaVuSans-97"/>
       <use x="256.787109" xlink:href="#DejaVuSans-100"/>
       <use x="320.263672" xlink:href="#DejaVuSans-97"/>
      </g>
     </g>
    </g>
    <g id="xtick_12">
     <g id="line2d_12"/>
     <g id="text_12">
      <!-- Veno -->
      <g transform="translate(627.092375 385.7414)rotate(-90)scale(0.1 -0.1)">
       <use xlink:href="#DejaVuSans-86"/>
       <use x="60.658203" xlink:href="#DejaVuSans-101"/>
       <use x="122.181641" xlink:href="#DejaVuSans-110"/>
       <use x="185.560547" xlink:href="#DejaVuSans-111"/>
      </g>
     </g>
    </g>
    <g id="xtick_13">
     <g id="line2d_13"/>
     <g id="text_13">
      <!-- Vegas -->
      <g transform="translate(665.723375 390.971088)rotate(-90)scale(0.1 -0.1)">
       <use xlink:href="#DejaVuSans-86"/>
       <use x="60.658203" xlink:href="#DejaVuSans-101"/>
       <use x="122.181641" xlink:href="#DejaVuSans-103"/>
       <use x="185.658203" xlink:href="#DejaVuSans-97"/>
       <use x="246.9375" xlink:href="#DejaVuSans-115"/>
      </g>
     </g>
    </g>
    <g id="xtick_14">
     <g id="line2d_14"/>
     <g id="text_14">
      <!-- DCTCP -->
      <g transform="translate(704.354375 394.282025)rotate(-90)scale(0.1 -0.1)">
       <use xlink:href="#DejaVuSans-68"/>
       <use x="77.001953" xlink:href="#DejaVuSans-67"/>
       <use x="146.826172" xlink:href="#DejaVuSans-84"/>
       <use x="202.035156" xlink:href="#DejaVuSans-67"/>
       <use x="271.859375" xlink:href="#DejaVuSans-80"/>
      </g>
     </g>
    </g>
    <g id="xtick_15">
     <g id="line2d_15"/>
     <g id="text_15">
      <!-- Reno -->
      <g transform="translate(742.985375 386.174213)rotate(-90)scale(0.1 -0.1)">
       <use xlink:href="#DejaVuSans-82"/>
       <use x="64.982422" xlink:href="#DejaVuSans-101"/>
       <use x="126.505859" xlink:href="#DejaVuSans-110"/>
       <use x="189.884766" xlink:href="#DejaVuSans-111"/>
      </g>
     </g>
    </g>
    <g id="xtick_16">
     <g id="line2d_16"/>
     <g id="text_16">
      <!-- Cubic -->
      <g transform="translate(781.616375 389.011712)rotate(-90)scale(0.1 -0.1)">
       <use xlink:href="#DejaVuSans-67"/>
       <use x="69.824219" xlink:href="#DejaVuSans-117"/>
       <use x="133.203125" xlink:href="#DejaVuSans-98"/>
       <use x="196.679688" xlink:href="#DejaVuSans-105"/>
       <use x="224.462891" xlink:href="#DejaVuSans-99"/>
      </g>
     </g>
    </g>
   </g>
   <g id="matplotlib.axis_2">
    <g id="ytick_1">
     <g id="line2d_17"/>
     <g id="text_17">
      <!-- 0 -->
      <g transform="translate(112.2675 360.641455)scale(0.1 -0.1)">
       <defs>
        <path d="M 31.78125 66.40625 
Q 24.171875 66.40625 20.328125 58.90625 
Q 16.5 51.421875 16.5 36.375 
Q 16.5 21.390625 20.328125 13.890625 
Q 24.171875 6.390625 31.78125 6.390625 
Q 39.453125 6.390625 43.28125 13.890625 
Q 47.125 21.390625 47.125 36.375 
Q 47.125 51.421875 43.28125 58.90625 
Q 39.453125 66.40625 31.78125 66.40625 
z
M 31.78125 74.21875 
Q 44.046875 74.21875 50.515625 64.515625 
Q 56.984375 54.828125 56.984375 36.375 
Q 56.984375 17.96875 50.515625 8.265625 
Q 44.046875 -1.421875 31.78125 -1.421875 
Q 19.53125 -1.421875 13.0625 8.265625 
Q 6.59375 17.96875 6.59375 36.375 
Q 6.59375 54.828125 13.0625 64.515625 
Q 19.53125 74.21875 31.78125 74.21875 
z
" id="DejaVuSans-48"/>
       </defs>
       <use xlink:href="#DejaVuSans-48"/>
      </g>
     </g>
    </g>
    <g id="ytick_2">
     <g id="line2d_18"/>
     <g id="text_18">
      <!-- 20 -->
      <g transform="translate(105.905 314.924028)scale(0.1 -0.1)">
       <defs>
        <path d="M 19.1875 8.296875 
L 53.609375 8.296875 
L 53.609375 0 
L 7.328125 0 
L 7.328125 8.296875 
Q 12.9375 14.109375 22.625 23.890625 
Q 32.328125 33.6875 34.8125 36.53125 
Q 39.546875 41.84375 41.421875 45.53125 
Q 43.3125 49.21875 43.3125 52.78125 
Q 43.3125 58.59375 39.234375 62.25 
Q 35.15625 65.921875 28.609375 65.921875 
Q 23.96875 65.921875 18.8125 64.3125 
Q 13.671875 62.703125 7.8125 59.421875 
L 7.8125 69.390625 
Q 13.765625 71.78125 18.9375 73 
Q 24.125 74.21875 28.421875 74.21875 
Q 39.75 74.21875 46.484375 68.546875 
Q 53.21875 62.890625 53.21875 53.421875 
Q 53.21875 48.921875 51.53125 44.890625 
Q 49.859375 40.875 45.40625 35.40625 
Q 44.1875 33.984375 37.640625 27.21875 
Q 31.109375 20.453125 19.1875 8.296875 
z
" id="DejaVuSans-50"/>
       </defs>
       <use xlink:href="#DejaVuSans-50"/>
       <use x="63.623047" xlink:href="#DejaVuSans-48"/>
      </g>
     </g>
    </g>
    <g id="ytick_3">
     <g id="line2d_19"/>
     <g id="text_19">
      <!-- 40 -->
      <g transform="translate(105.905 269.2066)scale(0.1 -0.1)">
       <defs>
        <path d="M 37.796875 64.3125 
L 12.890625 25.390625 
L 37.796875 25.390625 
z
M 35.203125 72.90625 
L 47.609375 72.90625 
L 47.609375 25.390625 
L 58.015625 25.390625 
L 58.015625 17.1875 
L 47.609375 17.1875 
L 47.609375 0 
L 37.796875 0 
L 37.796875 17.1875 
L 4.890625 17.1875 
L 4.890625 26.703125 
z
" id="DejaVuSans-52"/>
       </defs>
       <use xlink:href="#DejaVuSans-52"/>
       <use x="63.623047" xlink:href="#DejaVuSans-48"/>
      </g>
     </g>
    </g>
    <g id="ytick_4">
     <g id="line2d_20"/>
     <g id="text_20">
      <!-- 60 -->
      <g transform="translate(105.905 223.489173)scale(0.1 -0.1)">
       <defs>
        <path d="M 33.015625 40.375 
Q 26.375 40.375 22.484375 35.828125 
Q 18.609375 31.296875 18.609375 23.390625 
Q 18.609375 15.53125 22.484375 10.953125 
Q 26.375 6.390625 33.015625 6.390625 
Q 39.65625 6.390625 43.53125 10.953125 
Q 47.40625 15.53125 47.40625 23.390625 
Q 47.40625 31.296875 43.53125 35.828125 
Q 39.65625 40.375 33.015625 40.375 
z
M 52.59375 71.296875 
L 52.59375 62.3125 
Q 48.875 64.0625 45.09375 64.984375 
Q 41.3125 65.921875 37.59375 65.921875 
Q 27.828125 65.921875 22.671875 59.328125 
Q 17.53125 52.734375 16.796875 39.40625 
Q 19.671875 43.65625 24.015625 45.921875 
Q 28.375 48.1875 33.59375 48.1875 
Q 44.578125 48.1875 50.953125 41.515625 
Q 57.328125 34.859375 57.328125 23.390625 
Q 57.328125 12.15625 50.6875 5.359375 
Q 44.046875 -1.421875 33.015625 -1.421875 
Q 20.359375 -1.421875 13.671875 8.265625 
Q 6.984375 17.96875 6.984375 36.375 
Q 6.984375 53.65625 15.1875 63.9375 
Q 23.390625 74.21875 37.203125 74.21875 
Q 40.921875 74.21875 44.703125 73.484375 
Q 48.484375 72.75 52.59375 71.296875 
z
" id="DejaVuSans-54"/>
       </defs>
       <use xlink:href="#DejaVuSans-54"/>
       <use x="63.623047" xlink:href="#DejaVuSans-48"/>
      </g>
     </g>
    </g>
    <g id="ytick_5">
     <g id="line2d_21"/>
     <g id="text_21">
      <!-- 80 -->
      <g transform="translate(105.905 177.771746)scale(0.1 -0.1)">
       <defs>
        <path d="M 31.78125 34.625 
Q 24.75 34.625 20.71875 30.859375 
Q 16.703125 27.09375 16.703125 20.515625 
Q 16.703125 13.921875 20.71875 10.15625 
Q 24.75 6.390625 31.78125 6.390625 
Q 38.8125 6.390625 42.859375 10.171875 
Q 46.921875 13.96875 46.921875 20.515625 
Q 46.921875 27.09375 42.890625 30.859375 
Q 38.875 34.625 31.78125 34.625 
z
M 21.921875 38.8125 
Q 15.578125 40.375 12.03125 44.71875 
Q 8.5 49.078125 8.5 55.328125 
Q 8.5 64.0625 14.71875 69.140625 
Q 20.953125 74.21875 31.78125 74.21875 
Q 42.671875 74.21875 48.875 69.140625 
Q 55.078125 64.0625 55.078125 55.328125 
Q 55.078125 49.078125 51.53125 44.71875 
Q 48 40.375 41.703125 38.8125 
Q 48.828125 37.15625 52.796875 32.3125 
Q 56.78125 27.484375 56.78125 20.515625 
Q 56.78125 9.90625 50.3125 4.234375 
Q 43.84375 -1.421875 31.78125 -1.421875 
Q 19.734375 -1.421875 13.25 4.234375 
Q 6.78125 9.90625 6.78125 20.515625 
Q 6.78125 27.484375 10.78125 32.3125 
Q 14.796875 37.15625 21.921875 38.8125 
z
M 18.3125 54.390625 
Q 18.3125 48.734375 21.84375 45.5625 
Q 25.390625 42.390625 31.78125 42.390625 
Q 38.140625 42.390625 41.71875 45.5625 
Q 45.3125 48.734375 45.3125 54.390625 
Q 45.3125 60.0625 41.71875 63.234375 
Q 38.140625 66.40625 31.78125 66.40625 
Q 25.390625 66.40625 21.84375 63.234375 
Q 18.3125 60.0625 18.3125 54.390625 
z
" id="DejaVuSans-56"/>
       </defs>
       <use xlink:href="#DejaVuSans-56"/>
       <use x="63.623047" xlink:href="#DejaVuSans-48"/>
      </g>
     </g>
    </g>
    <g id="ytick_6">
     <g id="line2d_22"/>
     <g id="text_22">
      <!-- 100 -->
      <g transform="translate(99.5425 132.054319)scale(0.1 -0.1)">
       <defs>
        <path d="M 12.40625 8.296875 
L 28.515625 8.296875 
L 28.515625 63.921875 
L 10.984375 60.40625 
L 10.984375 69.390625 
L 28.421875 72.90625 
L 38.28125 72.90625 
L 38.28125 8.296875 
L 54.390625 8.296875 
L 54.390625 0 
L 12.40625 0 
z
" id="DejaVuSans-49"/>
       </defs>
       <use xlink:href="#DejaVuSans-49"/>
       <use x="63.623047" xlink:href="#DejaVuSans-48"/>
       <use x="127.246094" xlink:href="#DejaVuSans-48"/>
      </g>
     </g>
    </g>
    <g id="ytick_7">
     <g id="line2d_23"/>
     <g id="text_23">
      <!-- 120 -->
      <g transform="translate(99.5425 86.336892)scale(0.1 -0.1)">
       <use xlink:href="#DejaVuSans-49"/>
       <use x="63.623047" xlink:href="#DejaVuSans-50"/>
       <use x="127.246094" xlink:href="#DejaVuSans-48"/>
      </g>
     </g>
    </g>
    <g id="ytick_8">
     <g id="line2d_24"/>
    </g>
    <g id="ytick_9">
     <g id="line2d_25"/>
    </g>
    <g id="ytick_10">
     <g id="line2d_26"/>
    </g>
    <g id="ytick_11">
     <g id="line2d_27"/>
    </g>
    <g id="ytick_12">
     <g id="line2d_28"/>
    </g>
    <g id="ytick_13">
     <g id="line2d_29"/>
    </g>
    <g id="ytick_14">
     <g id="line2d_30"/>
    </g>
    <g id="ytick_15">
     <g id="line2d_31"/>
    </g>
    <g id="ytick_16">
     <g id="line2d_32"/>
    </g>
    <g id="ytick_17">
     <g id="line2d_33"/>
    </g>
    <g id="ytick_18">
     <g id="line2d_34"/>
    </g>
    <g id="ytick_19">
     <g id="line2d_35"/>
    </g>
    <g id="ytick_20">
     <g id="line2d_36"/>
    </g>
    <g id="ytick_21">
     <g id="line2d_37"/>
    </g>
    <g id="ytick_22">
     <g id="line2d_38"/>
    </g>
    <g id="ytick_23">
     <g id="line2d_39"/>
    </g>
    <g id="ytick_24">
     <g id="line2d_40"/>
    </g>
    <g id="ytick_25">
     <g id="line2d_41"/>
    </g>
    <g id="ytick_26">
     <g id="line2d_42"/>
    </g>
    <g id="ytick_27">
     <g id="line2d_43"/>
    </g>
    <g id="ytick_28">
     <g id="line2d_44"/>
    </g>
    <g id="text_24">
     <!-- Mbits/s -->
     <g transform="translate(93.462812 220.62005)rotate(-90)scale(0.1 -0.1)">
      <defs>
       <path d="M 9.8125 72.90625 
L 24.515625 72.90625 
L 43.109375 23.296875 
L 61.8125 72.90625 
L 76.515625 72.90625 
L 76.515625 0 
L 66.890625 0 
L 66.890625 64.015625 
L 48.09375 14.015625 
L 38.1875 14.015625 
L 19.390625 64.015625 
L 19.390625 0 
L 9.8125 0 
z
" id="DejaVuSans-77"/>
       <path d="M 18.3125 70.21875 
L 18.3125 54.6875 
L 36.8125 54.6875 
L 36.8125 47.703125 
L 18.3125 47.703125 
L 18.3125 18.015625 
Q 18.3125 11.328125 20.140625 9.421875 
Q 21.96875 7.515625 27.59375 7.515625 
L 36.8125 7.515625 
L 36.8125 0 
L 27.59375 0 
Q 17.1875 0 13.234375 3.875 
Q 9.28125 7.765625 9.28125 18.015625 
L 9.28125 47.703125 
L 2.6875 47.703125 
L 2.6875 54.6875 
L 9.28125 54.6875 
L 9.28125 70.21875 
z
" id="DejaVuSans-116"/>
       <path d="M 25.390625 72.90625 
L 33.6875 72.90625 
L 8.296875 -9.28125 
L 0 -9.28125 
z
" id="DejaVuSans-47"/>
      </defs>
      <use xlink:href="#DejaVuSans-77"/>
      <use x="86.279297" xlink:href="#DejaVuSans-98"/>
      <use x="149.755859" xlink:href="#DejaVuSans-105"/>
      <use x="177.539062" xlink:href="#DejaVuSans-116"/>
      <use x="216.748047" xlink:href="#DejaVuSans-115"/>
      <use x="268.847656" xlink:href="#DejaVuSans-47"/>
      <use x="302.539062" xlink:href="#DejaVuSans-115"/>
     </g>
    </g>
   </g>
   <g id="line2d_45">
    <path clip-path="url(#pf4252e3bde)" d="M 151.10325 280.974166 
L 170.41875 280.974166 
L 170.41875 263.83013 
L 151.10325 263.83013 
L 151.10325 280.974166 
" style="fill:none;stroke:#1b9e77;stroke-linecap:round;"/>
   </g>
   <g id="line2d_46">
    <path clip-path="url(#pf4252e3bde)" d="M 160.761 280.974166 
L 160.761 306.530207 
" style="fill:none;stroke:#1b9e77;stroke-linecap:round;"/>
   </g>
   <g id="line2d_47">
    <path clip-path="url(#pf4252e3bde)" d="M 160.761 263.83013 
L 160.761 239.645611 
" style="fill:none;stroke:#1b9e77;stroke-linecap:round;"/>
   </g>
   <g id="line2d_48">
    <path clip-path="url(#pf4252e3bde)" d="M 155.932125 306.530207 
L 165.589875 306.530207 
" style="fill:none;stroke:#1b9e77;stroke-linecap:round;"/>
   </g>
   <g id="line2d_49">
    <path clip-path="url(#pf4252e3bde)" d="M 155.932125 239.645611 
L 165.589875 239.645611 
" style="fill:none;stroke:#1b9e77;stroke-linecap:round;"/>
   </g>
   <g id="line2d_50">
    <defs>
     <path d="M -3 0 
L 3 0 
M 0 3 
L 0 -3 
" id="m0073e64084" style="stroke:#1b9e77;"/>
    </defs>
    <g clip-path="url(#pf4252e3bde)">
     <use style="fill:#0000ff;stroke:#1b9e77;" x="160.761" xlink:href="#m0073e64084" y="309.250394"/>
     <use style="fill:#0000ff;stroke:#1b9e77;" x="160.761" xlink:href="#m0073e64084" y="309.981873"/>
     <use style="fill:#0000ff;stroke:#1b9e77;" x="160.761" xlink:href="#m0073e64084" y="197.745589"/>
     <use style="fill:#0000ff;stroke:#1b9e77;" x="160.761" xlink:href="#m0073e64084" y="227.073319"/>
     <use style="fill:#0000ff;stroke:#1b9e77;" x="160.761" xlink:href="#m0073e64084" y="228.147679"/>
     <use style="fill:#0000ff;stroke:#1b9e77;" x="160.761" xlink:href="#m0073e64084" y="236.239663"/>
     <use style="fill:#0000ff;stroke:#1b9e77;" x="160.761" xlink:href="#m0073e64084" y="222.638729"/>
     <use style="fill:#0000ff;stroke:#1b9e77;" x="160.761" xlink:href="#m0073e64084" y="231.439333"/>
    </g>
   </g>
   <g id="line2d_51">
    <path clip-path="url(#pf4252e3bde)" d="M 189.73425 316.656617 
L 209.04975 316.656617 
L 209.04975 261.229952 
L 189.73425 261.229952 
L 189.73425 316.656617 
" style="fill:none;stroke:#d95f02;stroke-linecap:round;"/>
   </g>
   <g id="line2d_52">
    <path clip-path="url(#pf4252e3bde)" d="M 199.392 316.656617 
L 199.392 330.577574 
" style="fill:none;stroke:#d95f02;stroke-linecap:round;"/>
   </g>
   <g id="line2d_53">
    <path clip-path="url(#pf4252e3bde)" d="M 199.392 261.229952 
L 199.392 187.550603 
" style="fill:none;stroke:#d95f02;stroke-linecap:round;"/>
   </g>
   <g id="line2d_54">
    <path clip-path="url(#pf4252e3bde)" d="M 194.563125 330.577574 
L 204.220875 330.577574 
" style="fill:none;stroke:#d95f02;stroke-linecap:round;"/>
   </g>
   <g id="line2d_55">
    <path clip-path="url(#pf4252e3bde)" d="M 194.563125 187.550603 
L 204.220875 187.550603 
" style="fill:none;stroke:#d95f02;stroke-linecap:round;"/>
   </g>
   <g id="line2d_56"/>
   <g id="line2d_57">
    <path clip-path="url(#pf4252e3bde)" d="M 228.36525 325.388646 
L 247.68075 325.388646 
L 247.68075 306.073033 
L 228.36525 306.073033 
L 228.36525 325.388646 
" style="fill:none;stroke:#7570b3;stroke-linecap:round;"/>
   </g>
   <g id="line2d_58">
    <path clip-path="url(#pf4252e3bde)" d="M 238.023 325.388646 
L 238.023 341.344028 
" style="fill:none;stroke:#7570b3;stroke-linecap:round;"/>
   </g>
   <g id="line2d_59">
    <path clip-path="url(#pf4252e3bde)" d="M 238.023 306.073033 
L 238.023 294.095067 
" style="fill:none;stroke:#7570b3;stroke-linecap:round;"/>
   </g>
   <g id="line2d_60">
    <path clip-path="url(#pf4252e3bde)" d="M 233.194125 341.344028 
L 242.851875 341.344028 
" style="fill:none;stroke:#7570b3;stroke-linecap:round;"/>
   </g>
   <g id="line2d_61">
    <path clip-path="url(#pf4252e3bde)" d="M 233.194125 294.095067 
L 242.851875 294.095067 
" style="fill:none;stroke:#7570b3;stroke-linecap:round;"/>
   </g>
   <g id="line2d_62"/>
   <g id="line2d_63">
    <path clip-path="url(#pf4252e3bde)" d="M 266.99625 283.282896 
L 286.31175 283.282896 
L 286.31175 246.257494 
L 266.99625 246.257494 
L 266.99625 283.282896 
" style="fill:none;stroke:#e7298a;stroke-linecap:round;"/>
   </g>
   <g id="line2d_64">
    <path clip-path="url(#pf4252e3bde)" d="M 276.654 283.282896 
L 276.654 337.709493 
" style="fill:none;stroke:#e7298a;stroke-linecap:round;"/>
   </g>
   <g id="line2d_65">
    <path clip-path="url(#pf4252e3bde)" d="M 276.654 246.257494 
L 276.654 207.277673 
" style="fill:none;stroke:#e7298a;stroke-linecap:round;"/>
   </g>
   <g id="line2d_66">
    <path clip-path="url(#pf4252e3bde)" d="M 271.825125 337.709493 
L 281.482875 337.709493 
" style="fill:none;stroke:#e7298a;stroke-linecap:round;"/>
   </g>
   <g id="line2d_67">
    <path clip-path="url(#pf4252e3bde)" d="M 271.825125 207.277673 
L 281.482875 207.277673 
" style="fill:none;stroke:#e7298a;stroke-linecap:round;"/>
   </g>
   <g id="line2d_68">
    <defs>
     <path d="M -3 0 
L 3 0 
M 0 3 
L 0 -3 
" id="m7f2b55484e" style="stroke:#e7298a;"/>
    </defs>
    <g clip-path="url(#pf4252e3bde)">
     <use style="fill:#0000ff;stroke:#e7298a;" x="276.654" xlink:href="#m7f2b55484e" y="341.595474"/>
     <use style="fill:#0000ff;stroke:#e7298a;" x="276.654" xlink:href="#m7f2b55484e" y="84.914979"/>
     <use style="fill:#0000ff;stroke:#e7298a;" x="276.654" xlink:href="#m7f2b55484e" y="131.866777"/>
     <use style="fill:#0000ff;stroke:#e7298a;" x="276.654" xlink:href="#m7f2b55484e" y="166.794891"/>
     <use style="fill:#0000ff;stroke:#e7298a;" x="276.654" xlink:href="#m7f2b55484e" y="167.777816"/>
    </g>
   </g>
   <g id="line2d_69">
    <path clip-path="url(#pf4252e3bde)" d="M 305.62725 333.863514 
L 324.94275 333.863514 
L 324.94275 329.714658 
L 305.62725 329.714658 
L 305.62725 333.863514 
" style="fill:none;stroke:#66a61e;stroke-linecap:round;"/>
   </g>
   <g id="line2d_70">
    <path clip-path="url(#pf4252e3bde)" d="M 315.285 333.863514 
L 315.285 340.041081 
" style="fill:none;stroke:#66a61e;stroke-linecap:round;"/>
   </g>
   <g id="line2d_71">
    <path clip-path="url(#pf4252e3bde)" d="M 315.285 329.714658 
L 315.285 324.474298 
" style="fill:none;stroke:#66a61e;stroke-linecap:round;"/>
   </g>
   <g id="line2d_72">
    <path clip-path="url(#pf4252e3bde)" d="M 310.456125 340.041081 
L 320.113875 340.041081 
" style="fill:none;stroke:#66a61e;stroke-linecap:round;"/>
   </g>
   <g id="line2d_73">
    <path clip-path="url(#pf4252e3bde)" d="M 310.456125 324.474298 
L 320.113875 324.474298 
" style="fill:none;stroke:#66a61e;stroke-linecap:round;"/>
   </g>
   <g id="line2d_74">
    <defs>
     <path d="M -3 0 
L 3 0 
M 0 3 
L 0 -3 
" id="meaa8ec3d77" style="stroke:#66a61e;"/>
    </defs>
    <g clip-path="url(#pf4252e3bde)">
     <use style="fill:#0000ff;stroke:#66a61e;" x="315.285" xlink:href="#meaa8ec3d77" y="340.452538"/>
     <use style="fill:#0000ff;stroke:#66a61e;" x="315.285" xlink:href="#meaa8ec3d77" y="346.944413"/>
     <use style="fill:#0000ff;stroke:#66a61e;" x="315.285" xlink:href="#meaa8ec3d77" y="343.835628"/>
     <use style="fill:#0000ff;stroke:#66a61e;" x="315.285" xlink:href="#meaa8ec3d77" y="340.635408"/>
     <use style="fill:#0000ff;stroke:#66a61e;" x="315.285" xlink:href="#meaa8ec3d77" y="239.737046"/>
     <use style="fill:#0000ff;stroke:#66a61e;" x="315.285" xlink:href="#meaa8ec3d77" y="281.225611"/>
     <use style="fill:#0000ff;stroke:#66a61e;" x="315.285" xlink:href="#meaa8ec3d77" y="286.254528"/>
     <use style="fill:#0000ff;stroke:#66a61e;" x="315.285" xlink:href="#meaa8ec3d77" y="295.626601"/>
     <use style="fill:#0000ff;stroke:#66a61e;" x="315.285" xlink:href="#meaa8ec3d77" y="317.159509"/>
     <use style="fill:#0000ff;stroke:#66a61e;" x="315.285" xlink:href="#meaa8ec3d77" y="317.273803"/>
     <use style="fill:#0000ff;stroke:#66a61e;" x="315.285" xlink:href="#meaa8ec3d77" y="323.377079"/>
     <use style="fill:#0000ff;stroke:#66a61e;" x="315.285" xlink:href="#meaa8ec3d77" y="322.691318"/>
    </g>
   </g>
   <g id="line2d_75">
    <path clip-path="url(#pf4252e3bde)" d="M 344.25825 279.979812 
L 363.57375 279.979812 
L 363.57375 246.126057 
L 344.25825 246.126057 
L 344.25825 279.979812 
" style="fill:none;stroke:#e6ab02;stroke-linecap:round;"/>
   </g>
   <g id="line2d_76">
    <path clip-path="url(#pf4252e3bde)" d="M 353.916 279.979812 
L 353.916 315.239377 
" style="fill:none;stroke:#e6ab02;stroke-linecap:round;"/>
   </g>
   <g id="line2d_77">
    <path clip-path="url(#pf4252e3bde)" d="M 353.916 246.126057 
L 353.916 196.145479 
" style="fill:none;stroke:#e6ab02;stroke-linecap:round;"/>
   </g>
   <g id="line2d_78">
    <path clip-path="url(#pf4252e3bde)" d="M 349.087125 315.239377 
L 358.744875 315.239377 
" style="fill:none;stroke:#e6ab02;stroke-linecap:round;"/>
   </g>
   <g id="line2d_79">
    <path clip-path="url(#pf4252e3bde)" d="M 349.087125 196.145479 
L 358.744875 196.145479 
" style="fill:none;stroke:#e6ab02;stroke-linecap:round;"/>
   </g>
   <g id="line2d_80">
    <defs>
     <path d="M -3 0 
L 3 0 
M 0 3 
L 0 -3 
" id="m00e8780760" style="stroke:#e6ab02;"/>
    </defs>
    <g clip-path="url(#pf4252e3bde)">
     <use style="fill:#0000ff;stroke:#e6ab02;" x="353.916" xlink:href="#m00e8780760" y="110.082423"/>
     <use style="fill:#0000ff;stroke:#e6ab02;" x="353.916" xlink:href="#m00e8780760" y="154.19974"/>
     <use style="fill:#0000ff;stroke:#e6ab02;" x="353.916" xlink:href="#m00e8780760" y="190.727964"/>
     <use style="fill:#0000ff;stroke:#e6ab02;" x="353.916" xlink:href="#m00e8780760" y="182.887426"/>
     <use style="fill:#0000ff;stroke:#e6ab02;" x="353.916" xlink:href="#m00e8780760" y="181.355892"/>
     <use style="fill:#0000ff;stroke:#e6ab02;" x="353.916" xlink:href="#m00e8780760" y="179.595771"/>
     <use style="fill:#0000ff;stroke:#e6ab02;" x="353.916" xlink:href="#m00e8780760" y="178.3614"/>
     <use style="fill:#0000ff;stroke:#e6ab02;" x="353.916" xlink:href="#m00e8780760" y="186.979135"/>
    </g>
   </g>
   <g id="line2d_81">
    <path clip-path="url(#pf4252e3bde)" d="M 382.88925 302.067044 
L 402.20475 302.067044 
L 402.20475 266.978918 
L 382.88925 266.978918 
L 382.88925 302.067044 
" style="fill:none;stroke:#a6761d;stroke-linecap:round;"/>
   </g>
   <g id="line2d_82">
    <path clip-path="url(#pf4252e3bde)" d="M 392.547 302.067044 
L 392.547 322.851329 
" style="fill:none;stroke:#a6761d;stroke-linecap:round;"/>
   </g>
   <g id="line2d_83">
    <path clip-path="url(#pf4252e3bde)" d="M 392.547 266.978918 
L 392.547 220.764314 
" style="fill:none;stroke:#a6761d;stroke-linecap:round;"/>
   </g>
   <g id="line2d_84">
    <path clip-path="url(#pf4252e3bde)" d="M 387.718125 322.851329 
L 397.375875 322.851329 
" style="fill:none;stroke:#a6761d;stroke-linecap:round;"/>
   </g>
   <g id="line2d_85">
    <path clip-path="url(#pf4252e3bde)" d="M 387.718125 220.764314 
L 397.375875 220.764314 
" style="fill:none;stroke:#a6761d;stroke-linecap:round;"/>
   </g>
   <g id="line2d_86">
    <defs>
     <path d="M -3 0 
L 3 0 
M 0 3 
L 0 -3 
" id="m36f2362df7" style="stroke:#a6761d;"/>
    </defs>
    <g clip-path="url(#pf4252e3bde)">
     <use style="fill:#0000ff;stroke:#a6761d;" x="392.547" xlink:href="#m36f2362df7" y="105.51068"/>
     <use style="fill:#0000ff;stroke:#a6761d;" x="392.547" xlink:href="#m36f2362df7" y="152.553913"/>
     <use style="fill:#0000ff;stroke:#a6761d;" x="392.547" xlink:href="#m36f2362df7" y="166.429152"/>
     <use style="fill:#0000ff;stroke:#a6761d;" x="392.547" xlink:href="#m36f2362df7" y="206.500477"/>
    </g>
   </g>
   <g id="line2d_87">
    <path clip-path="url(#pf4252e3bde)" d="M 421.52025 285.408756 
L 440.83575 285.408756 
L 440.83575 244.560235 
L 421.52025 244.560235 
L 421.52025 285.408756 
" style="fill:none;stroke:#666666;stroke-linecap:round;"/>
   </g>
   <g id="line2d_88">
    <path clip-path="url(#pf4252e3bde)" d="M 431.178 285.408756 
L 431.178 317.959564 
" style="fill:none;stroke:#666666;stroke-linecap:round;"/>
   </g>
   <g id="line2d_89">
    <path clip-path="url(#pf4252e3bde)" d="M 431.178 244.560235 
L 431.178 192.488085 
" style="fill:none;stroke:#666666;stroke-linecap:round;"/>
   </g>
   <g id="line2d_90">
    <path clip-path="url(#pf4252e3bde)" d="M 426.349125 317.959564 
L 436.006875 317.959564 
" style="fill:none;stroke:#666666;stroke-linecap:round;"/>
   </g>
   <g id="line2d_91">
    <path clip-path="url(#pf4252e3bde)" d="M 426.349125 192.488085 
L 436.006875 192.488085 
" style="fill:none;stroke:#666666;stroke-linecap:round;"/>
   </g>
   <g id="line2d_92">
    <defs>
     <path d="M -3 0 
L 3 0 
M 0 3 
L 0 -3 
" id="me401a7f51d" style="stroke:#666666;"/>
    </defs>
    <g clip-path="url(#pf4252e3bde)">
     <use style="fill:#0000ff;stroke:#666666;" x="431.178" xlink:href="#me401a7f51d" y="354.533506"/>
     <use style="fill:#0000ff;stroke:#666666;" x="431.178" xlink:href="#me401a7f51d" y="131.341026"/>
     <use style="fill:#0000ff;stroke:#666666;" x="431.178" xlink:href="#me401a7f51d" y="147.159256"/>
     <use style="fill:#0000ff;stroke:#666666;" x="431.178" xlink:href="#me401a7f51d" y="51.244094"/>
     <use style="fill:#0000ff;stroke:#666666;" x="431.178" xlink:href="#me401a7f51d" y="175.618355"/>
     <use style="fill:#0000ff;stroke:#666666;" x="431.178" xlink:href="#me401a7f51d" y="180.692989"/>
     <use style="fill:#0000ff;stroke:#666666;" x="431.178" xlink:href="#me401a7f51d" y="116.34571"/>
     <use style="fill:#0000ff;stroke:#666666;" x="431.178" xlink:href="#me401a7f51d" y="149.307975"/>
     <use style="fill:#0000ff;stroke:#666666;" x="431.178" xlink:href="#me401a7f51d" y="176.94416"/>
     <use style="fill:#0000ff;stroke:#666666;" x="431.178" xlink:href="#me401a7f51d" y="90.561081"/>
     <use style="fill:#0000ff;stroke:#666666;" x="431.178" xlink:href="#me401a7f51d" y="136.095639"/>
    </g>
   </g>
   <g id="line2d_93">
    <path clip-path="url(#pf4252e3bde)" d="M 469.809 357.5664 
L 469.809 48.2112 
" style="fill:none;stroke:#000000;stroke-dasharray:0.5,0.825;stroke-dashoffset:0;stroke-width:0.5;"/>
   </g>
   <g id="line2d_94">
    <path clip-path="url(#pf4252e3bde)" d="M 151.10325 271.899256 
L 170.41875 271.899256 
" style="fill:none;stroke:#ff7f0e;stroke-linecap:round;"/>
   </g>
   <g id="line2d_95">
    <path clip-path="url(#pf4252e3bde)" d="M 189.73425 285.454473 
L 209.04975 285.454473 
" style="fill:none;stroke:#ff7f0e;stroke-linecap:round;"/>
   </g>
   <g id="line2d_96">
    <path clip-path="url(#pf4252e3bde)" d="M 228.36525 314.576475 
L 247.68075 314.576475 
" style="fill:none;stroke:#ff7f0e;stroke-linecap:round;"/>
   </g>
   <g id="line2d_97">
    <path clip-path="url(#pf4252e3bde)" d="M 266.99625 267.190361 
L 286.31175 267.190361 
" style="fill:none;stroke:#ff7f0e;stroke-linecap:round;"/>
   </g>
   <g id="line2d_98">
    <path clip-path="url(#pf4252e3bde)" d="M 305.62725 331.926238 
L 324.94275 331.926238 
" style="fill:none;stroke:#ff7f0e;stroke-linecap:round;"/>
   </g>
   <g id="line2d_99">
    <path clip-path="url(#pf4252e3bde)" d="M 344.25825 264.813055 
L 363.57375 264.813055 
" style="fill:none;stroke:#ff7f0e;stroke-linecap:round;"/>
   </g>
   <g id="line2d_100">
    <path clip-path="url(#pf4252e3bde)" d="M 382.88925 281.397052 
L 402.20475 281.397052 
" style="fill:none;stroke:#ff7f0e;stroke-linecap:round;"/>
   </g>
   <g id="line2d_101">
    <path clip-path="url(#pf4252e3bde)" d="M 421.52025 265.635969 
L 440.83575 265.635969 
" style="fill:none;stroke:#ff7f0e;stroke-linecap:round;"/>
   </g>
   <g id="patch_3">
    <path d="M 122.13 357.5664 
L 122.13 48.2112 
" style="fill:none;"/>
   </g>
   <g id="patch_4">
    <path d="M 817.488 357.5664 
L 817.488 48.2112 
" style="fill:none;"/>
   </g>
   <g id="patch_5">
    <path d="M 122.13 357.5664 
L 817.488 357.5664 
" style="fill:none;"/>
   </g>
   <g id="patch_6">
    <path d="M 122.13 48.2112 
L 817.488 48.2112 
" style="fill:none;"/>
   </g>
   <g id="text_25">
    <!-- Upload -->
    <g transform="translate(278.449187 45.117648)scale(0.1 -0.1)">
     <defs>
      <path d="M 8.6875 72.90625 
L 18.609375 72.90625 
L 18.609375 28.609375 
Q 18.609375 16.890625 22.84375 11.734375 
Q 27.09375 6.59375 36.625 6.59375 
Q 46.09375 6.59375 50.34375 11.734375 
Q 54.59375 16.890625 54.59375 28.609375 
L 54.59375 72.90625 
L 64.5 72.90625 
L 64.5 27.390625 
Q 64.5 13.140625 57.4375 5.859375 
Q 50.390625 -1.421875 36.625 -1.421875 
Q 22.796875 -1.421875 15.734375 5.859375 
Q 8.6875 13.140625 8.6875 27.390625 
z
" id="DejaVuSans-85"/>
      <path d="M 18.109375 8.203125 
L 18.109375 -20.796875 
L 9.078125 -20.796875 
L 9.078125 54.6875 
L 18.109375 54.6875 
L 18.109375 46.390625 
Q 20.953125 51.265625 25.265625 53.625 
Q 29.59375 56 35.59375 56 
Q 45.5625 56 51.78125 48.09375 
Q 58.015625 40.1875 58.015625 27.296875 
Q 58.015625 14.40625 51.78125 6.484375 
Q 45.5625 -1.421875 35.59375 -1.421875 
Q 29.59375 -1.421875 25.265625 0.953125 
Q 20.953125 3.328125 18.109375 8.203125 
z
M 48.6875 27.296875 
Q 48.6875 37.203125 44.609375 42.84375 
Q 40.53125 48.484375 33.40625 48.484375 
Q 26.265625 48.484375 22.1875 42.84375 
Q 18.109375 37.203125 18.109375 27.296875 
Q 18.109375 17.390625 22.1875 11.75 
Q 26.265625 6.109375 33.40625 6.109375 
Q 40.53125 6.109375 44.609375 11.75 
Q 48.6875 17.390625 48.6875 27.296875 
z
" id="DejaVuSans-112"/>
      <path d="M 9.421875 75.984375 
L 18.40625 75.984375 
L 18.40625 0 
L 9.421875 0 
z
" id="DejaVuSans-108"/>
     </defs>
     <use xlink:href="#DejaVuSans-85"/>
     <use x="73.193359" xlink:href="#DejaVuSans-112"/>
     <use x="136.669922" xlink:href="#DejaVuSans-108"/>
     <use x="164.453125" xlink:href="#DejaVuSans-111"/>
     <use x="225.634766" xlink:href="#DejaVuSans-97"/>
     <use x="286.914062" xlink:href="#DejaVuSans-100"/>
    </g>
   </g>
   <g id="text_26">
    <!-- Ping (ms) -->
    <g transform="translate(620.0485 45.117648)scale(0.1 -0.1)">
     <defs>
      <path id="DejaVuSans-32"/>
      <path d="M 31 75.875 
Q 24.46875 64.65625 21.28125 53.65625 
Q 18.109375 42.671875 18.109375 31.390625 
Q 18.109375 20.125 21.3125 9.0625 
Q 24.515625 -2 31 -13.1875 
L 23.1875 -13.1875 
Q 15.875 -1.703125 12.234375 9.375 
Q 8.59375 20.453125 8.59375 31.390625 
Q 8.59375 42.28125 12.203125 53.3125 
Q 15.828125 64.359375 23.1875 75.875 
z
" id="DejaVuSans-40"/>
      <path d="M 52 44.1875 
Q 55.375 50.25 60.0625 53.125 
Q 64.75 56 71.09375 56 
Q 79.640625 56 84.28125 50.015625 
Q 88.921875 44.046875 88.921875 33.015625 
L 88.921875 0 
L 79.890625 0 
L 79.890625 32.71875 
Q 79.890625 40.578125 77.09375 44.375 
Q 74.3125 48.1875 68.609375 48.1875 
Q 61.625 48.1875 57.5625 43.546875 
Q 53.515625 38.921875 53.515625 30.90625 
L 53.515625 0 
L 44.484375 0 
L 44.484375 32.71875 
Q 44.484375 40.625 41.703125 44.40625 
Q 38.921875 48.1875 33.109375 48.1875 
Q 26.21875 48.1875 22.15625 43.53125 
Q 18.109375 38.875 18.109375 30.90625 
L 18.109375 0 
L 9.078125 0 
L 9.078125 54.6875 
L 18.109375 54.6875 
L 18.109375 46.1875 
Q 21.1875 51.21875 25.484375 53.609375 
Q 29.78125 56 35.6875 56 
Q 41.65625 56 45.828125 52.96875 
Q 50 49.953125 52 44.1875 
z
" id="DejaVuSans-109"/>
      <path d="M 8.015625 75.875 
L 15.828125 75.875 
Q 23.140625 64.359375 26.78125 53.3125 
Q 30.421875 42.28125 30.421875 31.390625 
Q 30.421875 20.453125 26.78125 9.375 
Q 23.140625 -1.703125 15.828125 -13.1875 
L 8.015625 -13.1875 
Q 14.5 -2 17.703125 9.0625 
Q 20.90625 20.125 20.90625 31.390625 
Q 20.90625 42.671875 17.703125 53.65625 
Q 14.5 64.65625 8.015625 75.875 
z
" id="DejaVuSans-41"/>
     </defs>
     <use xlink:href="#DejaVuSans-80"/>
     <use x="58.052734" xlink:href="#DejaVuSans-105"/>
     <use x="85.835938" xlink:href="#DejaVuSans-110"/>
     <use x="149.214844" xlink:href="#DejaVuSans-103"/>
     <use x="212.691406" xlink:href="#DejaVuSans-32"/>
     <use x="244.478516" xlink:href="#DejaVuSans-40"/>
     <use x="283.492188" xlink:href="#DejaVuSans-109"/>
     <use x="380.904297" xlink:href="#DejaVuSans-115"/>
     <use x="433.003906" xlink:href="#DejaVuSans-41"/>
    </g>
   </g>
   <g id="legend_1">
    <g id="line2d_102">
     <path d="M 897.30938 54.957198 
L 913.96938 54.957198 
" style="fill:none;stroke:#1b9e77;stroke-linecap:round;"/>
    </g>
    <g id="line2d_103"/>
    <g id="text_27">
     <!-- BBR-v3 -->
     <g transform="translate(920.63338 57.872698)scale(0.0833 -0.0833)">
      <use xlink:href="#DejaVuSans-66"/>
      <use x="68.603516" xlink:href="#DejaVuSans-66"/>
      <use x="137.207031" xlink:href="#DejaVuSans-82"/>
      <use x="202.689453" xlink:href="#DejaVuSans-45"/>
      <use x="236.148438" xlink:href="#DejaVuSans-118"/>
      <use x="295.328125" xlink:href="#DejaVuSans-51"/>
     </g>
    </g>
    <g id="line2d_104">
     <path d="M 897.30938 67.184077 
L 913.96938 67.184077 
" style="fill:none;stroke:#d95f02;stroke-linecap:round;"/>
    </g>
    <g id="line2d_105"/>
    <g id="text_28">
     <!-- Yeah -->
     <g transform="translate(920.63338 70.099577)scale(0.0833 -0.0833)">
      <use xlink:href="#DejaVuSans-89"/>
      <use x="47.833984" xlink:href="#DejaVuSans-101"/>
      <use x="109.357422" xlink:href="#DejaVuSans-97"/>
      <use x="170.636719" xlink:href="#DejaVuSans-104"/>
     </g>
    </g>
    <g id="line2d_106">
     <path d="M 897.30938 79.410955 
L 913.96938 79.410955 
" style="fill:none;stroke:#7570b3;stroke-linecap:round;"/>
    </g>
    <g id="line2d_107"/>
    <g id="text_29">
     <!-- Nevada -->
     <g transform="translate(920.63338 82.326455)scale(0.0833 -0.0833)">
      <use xlink:href="#DejaVuSans-78"/>
      <use x="74.804688" xlink:href="#DejaVuSans-101"/>
      <use x="136.328125" xlink:href="#DejaVuSans-118"/>
      <use x="195.507812" xlink:href="#DejaVuSans-97"/>
      <use x="256.787109" xlink:href="#DejaVuSans-100"/>
      <use x="320.263672" xlink:href="#DejaVuSans-97"/>
     </g>
    </g>
    <g id="line2d_108">
     <path d="M 897.30938 91.637833 
L 913.96938 91.637833 
" style="fill:none;stroke:#e7298a;stroke-linecap:round;"/>
    </g>
    <g id="line2d_109"/>
    <g id="text_30">
     <!-- Veno -->
     <g transform="translate(920.63338 94.553333)scale(0.0833 -0.0833)">
      <use xlink:href="#DejaVuSans-86"/>
      <use x="60.658203" xlink:href="#DejaVuSans-101"/>
      <use x="122.181641" xlink:href="#DejaVuSans-110"/>
      <use x="185.560547" xlink:href="#DejaVuSans-111"/>
     </g>
    </g>
    <g id="line2d_110">
     <path d="M 897.30938 103.864711 
L 913.96938 103.864711 
" style="fill:none;stroke:#66a61e;stroke-linecap:round;"/>
    </g>
    <g id="line2d_111"/>
    <g id="text_31">
     <!-- Vegas -->
     <g transform="translate(920.63338 106.780211)scale(0.0833 -0.0833)">
      <use xlink:href="#DejaVuSans-86"/>
      <use x="60.658203" xlink:href="#DejaVuSans-101"/>
      <use x="122.181641" xlink:href="#DejaVuSans-103"/>
      <use x="185.658203" xlink:href="#DejaVuSans-97"/>
      <use x="246.9375" xlink:href="#DejaVuSans-115"/>
     </g>
    </g>
    <g id="line2d_112">
     <path d="M 897.30938 116.091589 
L 913.96938 116.091589 
" style="fill:none;stroke:#e6ab02;stroke-linecap:round;"/>
    </g>
    <g id="line2d_113"/>
    <g id="text_32">
     <!-- DCTCP -->
     <g transform="translate(920.63338 119.007089)scale(0.0833 -0.0833)">
      <use xlink:href="#DejaVuSans-68"/>
      <use x="77.001953" xlink:href="#DejaVuSans-67"/>
      <use x="146.826172" xlink:href="#DejaVuSans-84"/>
      <use x="202.035156" xlink:href="#DejaVuSans-67"/>
      <use x="271.859375" xlink:href="#DejaVuSans-80"/>
     </g>
    </g>
    <g id="line2d_114">
     <path d="M 897.30938 128.318467 
L 913.96938 128.318467 
" style="fill:none;stroke:#a6761d;stroke-linecap:round;"/>
    </g>
    <g id="line2d_115"/>
    <g id="text_33">
     <!-- Reno -->
     <g transform="translate(920.63338 131.233967)scale(0.0833 -0.0833)">
      <use xlink:href="#DejaVuSans-82"/>
      <use x="64.982422" xlink:href="#DejaVuSans-101"/>
      <use x="126.505859" xlink:href="#DejaVuSans-110"/>
      <use x="189.884766" xlink:href="#DejaVuSans-111"/>
     </g>
    </g>
    <g id="line2d_116">
     <path d="M 897.30938 140.545345 
L 913.96938 140.545345 
" style="fill:none;stroke:#666666;stroke-linecap:round;"/>
    </g>
    <g id="line2d_117"/>
    <g id="text_34">
     <!-- Cubic -->
     <g transform="translate(920.63338 143.460845)scale(0.0833 -0.0833)">
      <use xlink:href="#DejaVuSans-67"/>
      <use x="69.824219" xlink:href="#DejaVuSans-117"/>
      <use x="133.203125" xlink:href="#DejaVuSans-98"/>
      <use x="196.679688" xlink:href="#DejaVuSans-105"/>
      <use x="224.462891" xlink:href="#DejaVuSans-99"/>
     </g>
    </g>
   </g>
  </g>
  <g id="axes_2">
   <g id="matplotlib.axis_3">
    <g id="ytick_29">
     <g id="line2d_118"/>
     <g id="text_35">
      <!-- 0 -->
      <g transform="translate(820.988 358.632878)scale(0.1 -0.1)">
       <use xlink:href="#DejaVuSans-48"/>
      </g>
     </g>
    </g>
    <g id="ytick_30">
     <g id="line2d_119"/>
     <g id="text_36">
      <!-- 500 -->
      <g transform="translate(820.988 308.101992)scale(0.1 -0.1)">
       <defs>
        <path d="M 10.796875 72.90625 
L 49.515625 72.90625 
L 49.515625 64.59375 
L 19.828125 64.59375 
L 19.828125 46.734375 
Q 21.96875 47.46875 24.109375 47.828125 
Q 26.265625 48.1875 28.421875 48.1875 
Q 40.625 48.1875 47.75 41.5 
Q 54.890625 34.8125 54.890625 23.390625 
Q 54.890625 11.625 47.5625 5.09375 
Q 40.234375 -1.421875 26.90625 -1.421875 
Q 22.3125 -1.421875 17.546875 -0.640625 
Q 12.796875 0.140625 7.71875 1.703125 
L 7.71875 11.625 
Q 12.109375 9.234375 16.796875 8.0625 
Q 21.484375 6.890625 26.703125 6.890625 
Q 35.15625 6.890625 40.078125 11.328125 
Q 45.015625 15.765625 45.015625 23.390625 
Q 45.015625 31 40.078125 35.4375 
Q 35.15625 39.890625 26.703125 39.890625 
Q 22.75 39.890625 18.8125 39.015625 
Q 14.890625 38.140625 10.796875 36.28125 
z
" id="DejaVuSans-53"/>
       </defs>
       <use xlink:href="#DejaVuSans-53"/>
       <use x="63.623047" xlink:href="#DejaVuSans-48"/>
       <use x="127.246094" xlink:href="#DejaVuSans-48"/>
      </g>
     </g>
    </g>
    <g id="ytick_31">
     <g id="line2d_120"/>
     <g id="text_37">
      <!-- 1000 -->
      <g transform="translate(820.988 257.571105)scale(0.1 -0.1)">
       <use xlink:href="#DejaVuSans-49"/>
       <use x="63.623047" xlink:href="#DejaVuSans-48"/>
       <use x="127.246094" xlink:href="#DejaVuSans-48"/>
       <use x="190.869141" xlink:href="#DejaVuSans-48"/>
      </g>
     </g>
    </g>
    <g id="ytick_32">
     <g id="line2d_121"/>
     <g id="text_38">
      <!-- 1500 -->
      <g transform="translate(820.988 207.040219)scale(0.1 -0.1)">
       <use xlink:href="#DejaVuSans-49"/>
       <use x="63.623047" xlink:href="#DejaVuSans-53"/>
       <use x="127.246094" xlink:href="#DejaVuSans-48"/>
       <use x="190.869141" xlink:href="#DejaVuSans-48"/>
      </g>
     </g>
    </g>
    <g id="ytick_33">
     <g id="line2d_122"/>
     <g id="text_39">
      <!-- 2000 -->
      <g transform="translate(820.988 156.509333)scale(0.1 -0.1)">
       <use xlink:href="#DejaVuSans-50"/>
       <use x="63.623047" xlink:href="#DejaVuSans-48"/>
       <use x="127.246094" xlink:href="#DejaVuSans-48"/>
       <use x="190.869141" xlink:href="#DejaVuSans-48"/>
      </g>
     </g>
    </g>
    <g id="ytick_34">
     <g id="line2d_123"/>
     <g id="text_40">
      <!-- 2500 -->
      <g transform="translate(820.988 105.978446)scale(0.1 -0.1)">
       <use xlink:href="#DejaVuSans-50"/>
       <use x="63.623047" xlink:href="#DejaVuSans-53"/>
       <use x="127.246094" xlink:href="#DejaVuSans-48"/>
       <use x="190.869141" xlink:href="#DejaVuSans-48"/>
      </g>
     </g>
    </g>
    <g id="ytick_35">
     <g id="line2d_124"/>
     <g id="text_41">
      <!-- 3000 -->
      <g transform="translate(820.988 55.44756)scale(0.1 -0.1)">
       <use xlink:href="#DejaVuSans-51"/>
       <use x="63.623047" xlink:href="#DejaVuSans-48"/>
       <use x="127.246094" xlink:href="#DejaVuSans-48"/>
       <use x="190.869141" xlink:href="#DejaVuSans-48"/>
      </g>
     </g>
    </g>
    <g id="ytick_36">
     <g id="line2d_125"/>
    </g>
    <g id="ytick_37">
     <g id="line2d_126"/>
    </g>
    <g id="ytick_38">
     <g id="line2d_127"/>
    </g>
    <g id="ytick_39">
     <g id="line2d_128"/>
    </g>
    <g id="ytick_40">
     <g id="line2d_129"/>
    </g>
    <g id="ytick_41">
     <g id="line2d_130"/>
    </g>
    <g id="ytick_42">
     <g id="line2d_131"/>
    </g>
    <g id="ytick_43">
     <g id="line2d_132"/>
    </g>
    <g id="ytick_44">
     <g id="line2d_133"/>
    </g>
    <g id="ytick_45">
     <g id="line2d_134"/>
    </g>
    <g id="ytick_46">
     <g id="line2d_135"/>
    </g>
    <g id="ytick_47">
     <g id="line2d_136"/>
    </g>
    <g id="ytick_48">
     <g id="line2d_137"/>
    </g>
    <g id="ytick_49">
     <g id="line2d_138"/>
    </g>
    <g id="ytick_50">
     <g id="line2d_139"/>
    </g>
    <g id="ytick_51">
     <g id="line2d_140"/>
    </g>
    <g id="ytick_52">
     <g id="line2d_141"/>
    </g>
    <g id="ytick_53">
     <g id="line2d_142"/>
    </g>
    <g id="ytick_54">
     <g id="line2d_143"/>
    </g>
    <g id="ytick_55">
     <g id="line2d_144"/>
    </g>
    <g id="ytick_56">
     <g id="line2d_145"/>
    </g>
    <g id="ytick_57">
     <g id="line2d_146"/>
    </g>
    <g id="ytick_58">
     <g id="line2d_147"/>
    </g>
    <g id="ytick_59">
     <g id="line2d_148"/>
    </g>
    <g id="text_42">
     <!-- ms -->
     <g transform="translate(858.036437 210.3638)rotate(-90)scale(0.1 -0.1)">
      <use xlink:href="#DejaVuSans-109"/>
      <use x="97.412109" xlink:href="#DejaVuSans-115"/>
     </g>
    </g>
   </g>
   <g id="line2d_149">
    <path clip-path="url(#pf4252e3bde)" d="M 498.78225 350.091336 
L 518.09775 350.091336 
L 518.09775 343.009432 
L 498.78225 343.009432 
L 498.78225 350.091336 
" style="fill:none;stroke:#1b9e77;stroke-linecap:round;"/>
   </g>
   <g id="line2d_150">
    <path clip-path="url(#pf4252e3bde)" d="M 508.44 350.091336 
L 508.44 354.338457 
" style="fill:none;stroke:#1b9e77;stroke-linecap:round;"/>
   </g>
   <g id="line2d_151">
    <path clip-path="url(#pf4252e3bde)" d="M 508.44 343.009432 
L 508.44 332.802193 
" style="fill:none;stroke:#1b9e77;stroke-linecap:round;"/>
   </g>
   <g id="line2d_152">
    <path clip-path="url(#pf4252e3bde)" d="M 503.611125 354.338457 
L 513.268875 354.338457 
" style="fill:none;stroke:#1b9e77;stroke-linecap:round;"/>
   </g>
   <g id="line2d_153">
    <path clip-path="url(#pf4252e3bde)" d="M 503.611125 332.802193 
L 513.268875 332.802193 
" style="fill:none;stroke:#1b9e77;stroke-linecap:round;"/>
   </g>
   <g id="line2d_154">
    <g clip-path="url(#pf4252e3bde)">
     <use style="fill:#0000ff;stroke:#1b9e77;" x="508.44" xlink:href="#m0073e64084" y="330.882019"/>
    </g>
   </g>
   <g id="line2d_155">
    <path clip-path="url(#pf4252e3bde)" d="M 537.41325 348.913966 
L 556.72875 348.913966 
L 556.72875 337.147849 
L 537.41325 337.147849 
L 537.41325 348.913966 
" style="fill:none;stroke:#d95f02;stroke-linecap:round;"/>
   </g>
   <g id="line2d_156">
    <path clip-path="url(#pf4252e3bde)" d="M 547.071 348.913966 
L 547.071 353.938252 
" style="fill:none;stroke:#d95f02;stroke-linecap:round;"/>
   </g>
   <g id="line2d_157">
    <path clip-path="url(#pf4252e3bde)" d="M 547.071 337.147849 
L 547.071 320.169471 
" style="fill:none;stroke:#d95f02;stroke-linecap:round;"/>
   </g>
   <g id="line2d_158">
    <path clip-path="url(#pf4252e3bde)" d="M 542.242125 353.938252 
L 551.899875 353.938252 
" style="fill:none;stroke:#d95f02;stroke-linecap:round;"/>
   </g>
   <g id="line2d_159">
    <path clip-path="url(#pf4252e3bde)" d="M 542.242125 320.169471 
L 551.899875 320.169471 
" style="fill:none;stroke:#d95f02;stroke-linecap:round;"/>
   </g>
   <g id="line2d_160">
    <defs>
     <path d="M -3 0 
L 3 0 
M 0 3 
L 0 -3 
" id="m3fb386cb36" style="stroke:#d95f02;"/>
    </defs>
    <g clip-path="url(#pf4252e3bde)">
     <use style="fill:#0000ff;stroke:#d95f02;" x="547.071" xlink:href="#m3fb386cb36" y="319.360977"/>
     <use style="fill:#0000ff;stroke:#d95f02;" x="547.071" xlink:href="#m3fb386cb36" y="312.994085"/>
     <use style="fill:#0000ff;stroke:#d95f02;" x="547.071" xlink:href="#m3fb386cb36" y="318.148236"/>
     <use style="fill:#0000ff;stroke:#d95f02;" x="547.071" xlink:href="#m3fb386cb36" y="319.462039"/>
     <use style="fill:#0000ff;stroke:#d95f02;" x="547.071" xlink:href="#m3fb386cb36" y="318.653545"/>
     <use style="fill:#0000ff;stroke:#d95f02;" x="547.071" xlink:href="#m3fb386cb36" y="315.116383"/>
     <use style="fill:#0000ff;stroke:#d95f02;" x="547.071" xlink:href="#m3fb386cb36" y="304.302773"/>
     <use style="fill:#0000ff;stroke:#d95f02;" x="547.071" xlink:href="#m3fb386cb36" y="314.40895"/>
    </g>
   </g>
   <g id="line2d_161">
    <path clip-path="url(#pf4252e3bde)" d="M 576.04425 353.805356 
L 595.35975 353.805356 
L 595.35975 352.779579 
L 576.04425 352.779579 
L 576.04425 353.805356 
" style="fill:none;stroke:#7570b3;stroke-linecap:round;"/>
   </g>
   <g id="line2d_162">
    <path clip-path="url(#pf4252e3bde)" d="M 585.702 353.805356 
L 585.702 354.495102 
" style="fill:none;stroke:#7570b3;stroke-linecap:round;"/>
   </g>
   <g id="line2d_163">
    <path clip-path="url(#pf4252e3bde)" d="M 585.702 352.779579 
L 585.702 351.397559 
" style="fill:none;stroke:#7570b3;stroke-linecap:round;"/>
   </g>
   <g id="line2d_164">
    <path clip-path="url(#pf4252e3bde)" d="M 580.873125 354.495102 
L 590.530875 354.495102 
" style="fill:none;stroke:#7570b3;stroke-linecap:round;"/>
   </g>
   <g id="line2d_165">
    <path clip-path="url(#pf4252e3bde)" d="M 580.873125 351.397559 
L 590.530875 351.397559 
" style="fill:none;stroke:#7570b3;stroke-linecap:round;"/>
   </g>
   <g id="line2d_166">
    <defs>
     <path d="M -3 0 
L 3 0 
M 0 3 
L 0 -3 
" id="mdcee29c6ba" style="stroke:#7570b3;"/>
    </defs>
    <g clip-path="url(#pf4252e3bde)">
     <use style="fill:#0000ff;stroke:#7570b3;" x="585.702" xlink:href="#mdcee29c6ba" y="351.023631"/>
     <use style="fill:#0000ff;stroke:#7570b3;" x="585.702" xlink:href="#mdcee29c6ba" y="351.185329"/>
     <use style="fill:#0000ff;stroke:#7570b3;" x="585.702" xlink:href="#mdcee29c6ba" y="351.064055"/>
     <use style="fill:#0000ff;stroke:#7570b3;" x="585.702" xlink:href="#mdcee29c6ba" y="351.205542"/>
     <use style="fill:#0000ff;stroke:#7570b3;" x="585.702" xlink:href="#mdcee29c6ba" y="350.589065"/>
     <use style="fill:#0000ff;stroke:#7570b3;" x="585.702" xlink:href="#mdcee29c6ba" y="350.669914"/>
     <use style="fill:#0000ff;stroke:#7570b3;" x="585.702" xlink:href="#mdcee29c6ba" y="351.23586"/>
     <use style="fill:#0000ff;stroke:#7570b3;" x="585.702" xlink:href="#mdcee29c6ba" y="346.384895"/>
    </g>
   </g>
   <g id="line2d_167">
    <path clip-path="url(#pf4252e3bde)" d="M 614.67525 300.563487 
L 633.99075 300.563487 
L 633.99075 280.098478 
L 614.67525 280.098478 
L 614.67525 300.563487 
" style="fill:none;stroke:#e7298a;stroke-linecap:round;"/>
   </g>
   <g id="line2d_168">
    <path clip-path="url(#pf4252e3bde)" d="M 624.333 300.563487 
L 624.333 326.435301 
" style="fill:none;stroke:#e7298a;stroke-linecap:round;"/>
   </g>
   <g id="line2d_169">
    <path clip-path="url(#pf4252e3bde)" d="M 624.333 280.098478 
L 624.333 250.841095 
" style="fill:none;stroke:#e7298a;stroke-linecap:round;"/>
   </g>
   <g id="line2d_170">
    <path clip-path="url(#pf4252e3bde)" d="M 619.504125 326.435301 
L 629.161875 326.435301 
" style="fill:none;stroke:#e7298a;stroke-linecap:round;"/>
   </g>
   <g id="line2d_171">
    <path clip-path="url(#pf4252e3bde)" d="M 619.504125 250.841095 
L 629.161875 250.841095 
" style="fill:none;stroke:#e7298a;stroke-linecap:round;"/>
   </g>
   <g id="line2d_172">
    <g clip-path="url(#pf4252e3bde)">
     <use style="fill:#0000ff;stroke:#e7298a;" x="624.333" xlink:href="#m7f2b55484e" y="340.583949"/>
     <use style="fill:#0000ff;stroke:#e7298a;" x="624.333" xlink:href="#m7f2b55484e" y="340.280764"/>
     <use style="fill:#0000ff;stroke:#e7298a;" x="624.333" xlink:href="#m7f2b55484e" y="243.463586"/>
     <use style="fill:#0000ff;stroke:#e7298a;" x="624.333" xlink:href="#m7f2b55484e" y="233.054223"/>
     <use style="fill:#0000ff;stroke:#e7298a;" x="624.333" xlink:href="#m7f2b55484e" y="236.894571"/>
     <use style="fill:#0000ff;stroke:#e7298a;" x="624.333" xlink:href="#m7f2b55484e" y="225.777776"/>
     <use style="fill:#0000ff;stroke:#e7298a;" x="624.333" xlink:href="#m7f2b55484e" y="225.070343"/>
     <use style="fill:#0000ff;stroke:#e7298a;" x="624.333" xlink:href="#m7f2b55484e" y="237.602003"/>
     <use style="fill:#0000ff;stroke:#e7298a;" x="624.333" xlink:href="#m7f2b55484e" y="244.979512"/>
     <use style="fill:#0000ff;stroke:#e7298a;" x="624.333" xlink:href="#m7f2b55484e" y="248.920922"/>
     <use style="fill:#0000ff;stroke:#e7298a;" x="624.333" xlink:href="#m7f2b55484e" y="246.091192"/>
     <use style="fill:#0000ff;stroke:#e7298a;" x="624.333" xlink:href="#m7f2b55484e" y="233.660594"/>
     <use style="fill:#0000ff;stroke:#e7298a;" x="624.333" xlink:href="#m7f2b55484e" y="131.38608"/>
     <use style="fill:#0000ff;stroke:#e7298a;" x="624.333" xlink:href="#m7f2b55484e" y="77.722279"/>
     <use style="fill:#0000ff;stroke:#e7298a;" x="624.333" xlink:href="#m7f2b55484e" y="51.244094"/>
     <use style="fill:#0000ff;stroke:#e7298a;" x="624.333" xlink:href="#m7f2b55484e" y="70.546893"/>
     <use style="fill:#0000ff;stroke:#e7298a;" x="624.333" xlink:href="#m7f2b55484e" y="78.93502"/>
     <use style="fill:#0000ff;stroke:#e7298a;" x="624.333" xlink:href="#m7f2b55484e" y="99.147374"/>
     <use style="fill:#0000ff;stroke:#e7298a;" x="624.333" xlink:href="#m7f2b55484e" y="51.446218"/>
     <use style="fill:#0000ff;stroke:#e7298a;" x="624.333" xlink:href="#m7f2b55484e" y="63.674692"/>
    </g>
   </g>
   <g id="line2d_173">
    <path clip-path="url(#pf4252e3bde)" d="M 653.30625 354.328856 
L 672.62175 354.328856 
L 672.62175 353.945074 
L 653.30625 353.945074 
L 653.30625 354.328856 
" style="fill:none;stroke:#66a61e;stroke-linecap:round;"/>
   </g>
   <g id="line2d_174">
    <path clip-path="url(#pf4252e3bde)" d="M 662.964 354.328856 
L 662.964 354.533506 
" style="fill:none;stroke:#66a61e;stroke-linecap:round;"/>
   </g>
   <g id="line2d_175">
    <path clip-path="url(#pf4252e3bde)" d="M 662.964 353.945074 
L 662.964 353.37837 
" style="fill:none;stroke:#66a61e;stroke-linecap:round;"/>
   </g>
   <g id="line2d_176">
    <path clip-path="url(#pf4252e3bde)" d="M 658.135125 354.533506 
L 667.792875 354.533506 
" style="fill:none;stroke:#66a61e;stroke-linecap:round;"/>
   </g>
   <g id="line2d_177">
    <path clip-path="url(#pf4252e3bde)" d="M 658.135125 353.37837 
L 667.792875 353.37837 
" style="fill:none;stroke:#66a61e;stroke-linecap:round;"/>
   </g>
   <g id="line2d_178">
    <g clip-path="url(#pf4252e3bde)">
     <use style="fill:#0000ff;stroke:#66a61e;" x="662.964" xlink:href="#meaa8ec3d77" y="352.832636"/>
     <use style="fill:#0000ff;stroke:#66a61e;" x="662.964" xlink:href="#meaa8ec3d77" y="353.075185"/>
     <use style="fill:#0000ff;stroke:#66a61e;" x="662.964" xlink:href="#meaa8ec3d77" y="352.519345"/>
     <use style="fill:#0000ff;stroke:#66a61e;" x="662.964" xlink:href="#meaa8ec3d77" y="353.348051"/>
     <use style="fill:#0000ff;stroke:#66a61e;" x="662.964" xlink:href="#meaa8ec3d77" y="352.95391"/>
     <use style="fill:#0000ff;stroke:#66a61e;" x="662.964" xlink:href="#meaa8ec3d77" y="352.741681"/>
     <use style="fill:#0000ff;stroke:#66a61e;" x="662.964" xlink:href="#meaa8ec3d77" y="353.105503"/>
     <use style="fill:#0000ff;stroke:#66a61e;" x="662.964" xlink:href="#meaa8ec3d77" y="352.428389"/>
     <use style="fill:#0000ff;stroke:#66a61e;" x="662.964" xlink:href="#meaa8ec3d77" y="353.226777"/>
     <use style="fill:#0000ff;stroke:#66a61e;" x="662.964" xlink:href="#meaa8ec3d77" y="351.761381"/>
     <use style="fill:#0000ff;stroke:#66a61e;" x="662.964" xlink:href="#meaa8ec3d77" y="352.6103"/>
     <use style="fill:#0000ff;stroke:#66a61e;" x="662.964" xlink:href="#meaa8ec3d77" y="353.267202"/>
     <use style="fill:#0000ff;stroke:#66a61e;" x="662.964" xlink:href="#meaa8ec3d77" y="353.105503"/>
     <use style="fill:#0000ff;stroke:#66a61e;" x="662.964" xlink:href="#meaa8ec3d77" y="352.034248"/>
     <use style="fill:#0000ff;stroke:#66a61e;" x="662.964" xlink:href="#meaa8ec3d77" y="353.24699"/>
     <use style="fill:#0000ff;stroke:#66a61e;" x="662.964" xlink:href="#meaa8ec3d77" y="353.03476"/>
     <use style="fill:#0000ff;stroke:#66a61e;" x="662.964" xlink:href="#meaa8ec3d77" y="353.327839"/>
    </g>
   </g>
   <g id="line2d_179">
    <path clip-path="url(#pf4252e3bde)" d="M 691.93725 302.079414 
L 711.25275 302.079414 
L 711.25275 283.105066 
L 691.93725 283.105066 
L 691.93725 302.079414 
" style="fill:none;stroke:#e6ab02;stroke-linecap:round;"/>
   </g>
   <g id="line2d_180">
    <path clip-path="url(#pf4252e3bde)" d="M 701.595 302.079414 
L 701.595 327.749104 
" style="fill:none;stroke:#e6ab02;stroke-linecap:round;"/>
   </g>
   <g id="line2d_181">
    <path clip-path="url(#pf4252e3bde)" d="M 701.595 283.105066 
L 701.595 255.489937 
" style="fill:none;stroke:#e6ab02;stroke-linecap:round;"/>
   </g>
   <g id="line2d_182">
    <path clip-path="url(#pf4252e3bde)" d="M 696.766125 327.749104 
L 706.423875 327.749104 
" style="fill:none;stroke:#e6ab02;stroke-linecap:round;"/>
   </g>
   <g id="line2d_183">
    <path clip-path="url(#pf4252e3bde)" d="M 696.766125 255.489937 
L 706.423875 255.489937 
" style="fill:none;stroke:#e6ab02;stroke-linecap:round;"/>
   </g>
   <g id="line2d_184">
    <g clip-path="url(#pf4252e3bde)">
     <use style="fill:#0000ff;stroke:#e6ab02;" x="701.595" xlink:href="#m00e8780760" y="348.234326"/>
     <use style="fill:#0000ff;stroke:#e6ab02;" x="701.595" xlink:href="#m00e8780760" y="333.711749"/>
     <use style="fill:#0000ff;stroke:#e6ab02;" x="701.595" xlink:href="#m00e8780760" y="334.520243"/>
     <use style="fill:#0000ff;stroke:#e6ab02;" x="701.595" xlink:href="#m00e8780760" y="336.844664"/>
     <use style="fill:#0000ff;stroke:#e6ab02;" x="701.595" xlink:href="#m00e8780760" y="250.638972"/>
     <use style="fill:#0000ff;stroke:#e6ab02;" x="701.595" xlink:href="#m00e8780760" y="243.1604"/>
     <use style="fill:#0000ff;stroke:#e6ab02;" x="701.595" xlink:href="#m00e8780760" y="251.447466"/>
    </g>
   </g>
   <g id="line2d_185">
    <path clip-path="url(#pf4252e3bde)" d="M 730.56825 288.132889 
L 749.88375 288.132889 
L 749.88375 258.168074 
L 730.56825 258.168074 
L 730.56825 288.132889 
" style="fill:none;stroke:#a6761d;stroke-linecap:round;"/>
   </g>
   <g id="line2d_186">
    <path clip-path="url(#pf4252e3bde)" d="M 740.226 288.132889 
L 740.226 327.142734 
" style="fill:none;stroke:#a6761d;stroke-linecap:round;"/>
   </g>
   <g id="line2d_187">
    <path clip-path="url(#pf4252e3bde)" d="M 740.226 258.168074 
L 740.226 217.996019 
" style="fill:none;stroke:#a6761d;stroke-linecap:round;"/>
   </g>
   <g id="line2d_188">
    <path clip-path="url(#pf4252e3bde)" d="M 735.397125 327.142734 
L 745.054875 327.142734 
" style="fill:none;stroke:#a6761d;stroke-linecap:round;"/>
   </g>
   <g id="line2d_189">
    <path clip-path="url(#pf4252e3bde)" d="M 735.397125 217.996019 
L 745.054875 217.996019 
" style="fill:none;stroke:#a6761d;stroke-linecap:round;"/>
   </g>
   <g id="line2d_190">
    <g clip-path="url(#pf4252e3bde)">
     <use style="fill:#0000ff;stroke:#a6761d;" x="740.226" xlink:href="#m36f2362df7" y="353.620918"/>
     <use style="fill:#0000ff;stroke:#a6761d;" x="740.226" xlink:href="#m36f2362df7" y="335.732984"/>
     <use style="fill:#0000ff;stroke:#a6761d;" x="740.226" xlink:href="#m36f2362df7" y="340.685011"/>
     <use style="fill:#0000ff;stroke:#a6761d;" x="740.226" xlink:href="#m36f2362df7" y="206.272853"/>
     <use style="fill:#0000ff;stroke:#a6761d;" x="740.226" xlink:href="#m36f2362df7" y="208.90046"/>
    </g>
   </g>
   <g id="line2d_191">
    <path clip-path="url(#pf4252e3bde)" d="M 769.19925 317.263945 
L 788.51475 317.263945 
L 788.51475 287.172803 
L 769.19925 287.172803 
L 769.19925 317.263945 
" style="fill:none;stroke:#666666;stroke-linecap:round;"/>
   </g>
   <g id="line2d_192">
    <path clip-path="url(#pf4252e3bde)" d="M 778.857 317.263945 
L 778.857 353.907934 
" style="fill:none;stroke:#666666;stroke-linecap:round;"/>
   </g>
   <g id="line2d_193">
    <path clip-path="url(#pf4252e3bde)" d="M 778.857 287.172803 
L 778.857 250.841095 
" style="fill:none;stroke:#666666;stroke-linecap:round;"/>
   </g>
   <g id="line2d_194">
    <path clip-path="url(#pf4252e3bde)" d="M 774.028125 353.907934 
L 783.685875 353.907934 
" style="fill:none;stroke:#666666;stroke-linecap:round;"/>
   </g>
   <g id="line2d_195">
    <path clip-path="url(#pf4252e3bde)" d="M 774.028125 250.841095 
L 783.685875 250.841095 
" style="fill:none;stroke:#666666;stroke-linecap:round;"/>
   </g>
   <g id="line2d_196"/>
   <g id="line2d_197">
    <path clip-path="url(#pf4252e3bde)" d="M 817.488 357.5664 
L 817.488 48.2112 
" style="fill:none;stroke:#000000;stroke-dasharray:0.5,0.825;stroke-dashoffset:0;stroke-width:0.5;"/>
   </g>
   <g id="line2d_198">
    <path clip-path="url(#pf4252e3bde)" d="M 498.78225 346.83462 
L 518.09775 346.83462 
" style="fill:none;stroke:#ff7f0e;stroke-linecap:round;"/>
   </g>
   <g id="line2d_199">
    <path clip-path="url(#pf4252e3bde)" d="M 537.41325 344.222173 
L 556.72875 344.222173 
" style="fill:none;stroke:#ff7f0e;stroke-linecap:round;"/>
   </g>
   <g id="line2d_200">
    <path clip-path="url(#pf4252e3bde)" d="M 576.04425 353.403635 
L 595.35975 353.403635 
" style="fill:none;stroke:#ff7f0e;stroke-linecap:round;"/>
   </g>
   <g id="line2d_201">
    <path clip-path="url(#pf4252e3bde)" d="M 614.67525 292.377484 
L 633.99075 292.377484 
" style="fill:none;stroke:#ff7f0e;stroke-linecap:round;"/>
   </g>
   <g id="line2d_202">
    <path clip-path="url(#pf4252e3bde)" d="M 653.30625 354.166146 
L 672.62175 354.166146 
" style="fill:none;stroke:#ff7f0e;stroke-linecap:round;"/>
   </g>
   <g id="line2d_203">
    <path clip-path="url(#pf4252e3bde)" d="M 691.93725 293.185978 
L 711.25275 293.185978 
" style="fill:none;stroke:#ff7f0e;stroke-linecap:round;"/>
   </g>
   <g id="line2d_204">
    <path clip-path="url(#pf4252e3bde)" d="M 730.56825 274.186365 
L 749.88375 274.186365 
" style="fill:none;stroke:#ff7f0e;stroke-linecap:round;"/>
   </g>
   <g id="line2d_205">
    <path clip-path="url(#pf4252e3bde)" d="M 769.19925 302.584723 
L 788.51475 302.584723 
" style="fill:none;stroke:#ff7f0e;stroke-linecap:round;"/>
   </g>
  </g>
  <g id="text_43">
   <!-- Single TCP upload stream w/ping -->
   <g transform="translate(373.408281 13.985813)scale(0.14 -0.14)">
    <defs>
     <path d="M 53.515625 70.515625 
L 53.515625 60.890625 
Q 47.90625 63.578125 42.921875 64.890625 
Q 37.9375 66.21875 33.296875 66.21875 
Q 25.25 66.21875 20.875 63.09375 
Q 16.5 59.96875 16.5 54.203125 
Q 16.5 49.359375 19.40625 46.890625 
Q 22.3125 44.4375 30.421875 42.921875 
L 36.375 41.703125 
Q 47.40625 39.59375 52.65625 34.296875 
Q 57.90625 29 57.90625 20.125 
Q 57.90625 9.515625 50.796875 4.046875 
Q 43.703125 -1.421875 29.984375 -1.421875 
Q 24.8125 -1.421875 18.96875 -0.25 
Q 13.140625 0.921875 6.890625 3.21875 
L 6.890625 13.375 
Q 12.890625 10.015625 18.65625 8.296875 
Q 24.421875 6.59375 29.984375 6.59375 
Q 38.421875 6.59375 43.015625 9.90625 
Q 47.609375 13.234375 47.609375 19.390625 
Q 47.609375 24.75 44.3125 27.78125 
Q 41.015625 30.8125 33.5 32.328125 
L 27.484375 33.5 
Q 16.453125 35.6875 11.515625 40.375 
Q 6.59375 45.0625 6.59375 53.421875 
Q 6.59375 63.09375 13.40625 68.65625 
Q 20.21875 74.21875 32.171875 74.21875 
Q 37.3125 74.21875 42.625 73.28125 
Q 47.953125 72.359375 53.515625 70.515625 
z
" id="DejaVuSans-83"/>
     <path d="M 41.109375 46.296875 
Q 39.59375 47.171875 37.8125 47.578125 
Q 36.03125 48 33.890625 48 
Q 26.265625 48 22.1875 43.046875 
Q 18.109375 38.09375 18.109375 28.8125 
L 18.109375 0 
L 9.078125 0 
L 9.078125 54.6875 
L 18.109375 54.6875 
L 18.109375 46.1875 
Q 20.953125 51.171875 25.484375 53.578125 
Q 30.03125 56 36.53125 56 
Q 37.453125 56 38.578125 55.875 
Q 39.703125 55.765625 41.0625 55.515625 
z
" id="DejaVuSans-114"/>
     <path d="M 4.203125 54.6875 
L 13.1875 54.6875 
L 24.421875 12.015625 
L 35.59375 54.6875 
L 46.1875 54.6875 
L 57.421875 12.015625 
L 68.609375 54.6875 
L 77.59375 54.6875 
L 63.28125 0 
L 52.6875 0 
L 40.921875 44.828125 
L 29.109375 0 
L 18.5 0 
z
" id="DejaVuSans-119"/>
    </defs>
    <use xlink:href="#DejaVuSans-83"/>
    <use x="63.476562" xlink:href="#DejaVuSans-105"/>
    <use x="91.259766" xlink:href="#DejaVuSans-110"/>
    <use x="154.638672" xlink:href="#DejaVuSans-103"/>
    <use x="218.115234" xlink:href="#DejaVuSans-108"/>
    <use x="245.898438" xlink:href="#DejaVuSans-101"/>
    <use x="307.421875" xlink:href="#DejaVuSans-32"/>
    <use x="339.208984" xlink:href="#DejaVuSans-84"/>
    <use x="394.417969" xlink:href="#DejaVuSans-67"/>
    <use x="464.242188" xlink:href="#DejaVuSans-80"/>
    <use x="524.544922" xlink:href="#DejaVuSans-32"/>
    <use x="556.332031" xlink:href="#DejaVuSans-117"/>
    <use x="619.710938" xlink:href="#DejaVuSans-112"/>
    <use x="683.1875" xlink:href="#DejaVuSans-108"/>
    <use x="710.970703" xlink:href="#DejaVuSans-111"/>
    <use x="772.152344" xlink:href="#DejaVuSans-97"/>
    <use x="833.431641" xlink:href="#DejaVuSans-100"/>
    <use x="896.908203" xlink:href="#DejaVuSans-32"/>
    <use x="928.695312" xlink:href="#DejaVuSans-115"/>
    <use x="980.794922" xlink:href="#DejaVuSans-116"/>
    <use x="1020.003906" xlink:href="#DejaVuSans-114"/>
    <use x="1058.867188" xlink:href="#DejaVuSans-101"/>
    <use x="1120.390625" xlink:href="#DejaVuSans-97"/>
    <use x="1181.669922" xlink:href="#DejaVuSans-109"/>
    <use x="1279.082031" xlink:href="#DejaVuSans-32"/>
    <use x="1310.869141" xlink:href="#DejaVuSans-119"/>
    <use x="1392.65625" xlink:href="#DejaVuSans-47"/>
    <use x="1426.347656" xlink:href="#DejaVuSans-112"/>
    <use x="1489.824219" xlink:href="#DejaVuSans-105"/>
    <use x="1517.607422" xlink:href="#DejaVuSans-110"/>
    <use x="1580.986328" xlink:href="#DejaVuSans-103"/>
   </g>
   <!-- Box plot of totals -->
   <g transform="translate(429.02 29.66275)scale(0.14 -0.14)">
    <defs>
     <path d="M 54.890625 54.6875 
L 35.109375 28.078125 
L 55.90625 0 
L 45.3125 0 
L 29.390625 21.484375 
L 13.484375 0 
L 2.875 0 
L 24.125 28.609375 
L 4.6875 54.6875 
L 15.28125 54.6875 
L 29.78125 35.203125 
L 44.28125 54.6875 
z
" id="DejaVuSans-120"/>
     <path d="M 37.109375 75.984375 
L 37.109375 68.5 
L 28.515625 68.5 
Q 23.6875 68.5 21.796875 66.546875 
Q 19.921875 64.59375 19.921875 59.515625 
L 19.921875 54.6875 
L 34.71875 54.6875 
L 34.71875 47.703125 
L 19.921875 47.703125 
L 19.921875 0 
L 10.890625 0 
L 10.890625 47.703125 
L 2.296875 47.703125 
L 2.296875 54.6875 
L 10.890625 54.6875 
L 10.890625 58.5 
Q 10.890625 67.625 15.140625 71.796875 
Q 19.390625 75.984375 28.609375 75.984375 
z
" id="DejaVuSans-102"/>
    </defs>
    <use xlink:href="#DejaVuSans-66"/>
    <use x="68.603516" xlink:href="#DejaVuSans-111"/>
    <use x="126.660156" xlink:href="#DejaVuSans-120"/>
    <use x="185.839844" xlink:href="#DejaVuSans-32"/>
    <use x="217.626953" xlink:href="#DejaVuSans-112"/>
    <use x="281.103516" xlink:href="#DejaVuSans-108"/>
    <use x="308.886719" xlink:href="#DejaVuSans-111"/>
    <use x="370.068359" xlink:href="#DejaVuSans-116"/>
    <use x="409.277344" xlink:href="#DejaVuSans-32"/>
    <use x="441.064453" xlink:href="#DejaVuSans-111"/>
    <use x="502.246094" xlink:href="#DejaVuSans-102"/>
    <use x="537.451172" xlink:href="#DejaVuSans-32"/>
    <use x="569.238281" xlink:href="#DejaVuSans-116"/>
    <use x="608.447266" xlink:href="#DejaVuSans-111"/>
    <use x="669.628906" xlink:href="#DejaVuSans-116"/>
    <use x="708.837891" xlink:href="#DejaVuSans-97"/>
    <use x="770.117188" xlink:href="#DejaVuSans-108"/>
    <use x="797.900391" xlink:href="#DejaVuSans-115"/>
   </g>
  </g>
 </g>
 <defs>
  <clipPath id="pf4252e3bde">
   <rect height="309.3552" width="695.358" x="122.13" y="48.2112"/>
  </clipPath>
 </defs>
</svg>
