<?xml version="1.0" encoding="utf-8" standalone="no"?>
<!DOCTYPE svg PUBLIC "-//W3C//DTD SVG 1.1//EN"
  "http://www.w3.org/Graphics/SVG/1.1/DTD/svg11.dtd">
<!-- Created with matplotlib (https://matplotlib.org/) -->
<svg height="618.48pt" version="1.1" viewBox="0 0 1284.48 618.48" width="1284.48pt" xmlns="http://www.w3.org/2000/svg" xmlns:xlink="http://www.w3.org/1999/xlink">
 <metadata>
  <rdf:RDF xmlns:cc="http://creativecommons.org/ns#" xmlns:dc="http://purl.org/dc/elements/1.1/" xmlns:rdf="http://www.w3.org/1999/02/22-rdf-syntax-ns#">
   <cc:Work>
    <dc:type rdf:resource="http://purl.org/dc/dcmitype/StillImage"/>
    <dc:date>2025-06-07T18:12:47.601378</dc:date>
    <dc:format>image/svg+xml</dc:format>
    <dc:creator>
     <cc:Agent>
      <dc:title>Matplotlib v3.3.4, https://matplotlib.org/</dc:title>
     </cc:Agent>
    </dc:creator>
   </cc:Work>
  </rdf:RDF>
 </metadata>
 <defs>
  <style type="text/css">*{stroke-linecap:butt;stroke-linejoin:round;}</style>
 </defs>
 <g id="figure_1">
  <g id="patch_1">
   <path d="M 0 618.48 
L 1284.48 618.48 
L 1284.48 0 
L 0 0 
z
" style="fill:#ffffff;"/>
  </g>
  <g id="axes_1">
   <g id="patch_2">
    <path d="M 160.56 550.4472 
L 1094.184 550.4472 
L 1094.184 74.2176 
L 160.56 74.2176 
z
" style="fill:#e6e6e6;"/>
   </g>
   <g id="matplotlib.axis_1">
    <g id="xtick_1">
     <g id="line2d_1"/>
     <g id="text_1">
      <!-- BBR-v3 -->
      <g transform="translate(215.187375 589.844075)rotate(-90)scale(0.1 -0.1)">
       <defs>
        <path d="M 19.671875 34.8125 
L 19.671875 8.109375 
L 35.5 8.109375 
Q 43.453125 8.109375 47.28125 11.40625 
Q 51.125 14.703125 51.125 21.484375 
Q 51.125 28.328125 47.28125 31.5625 
Q 43.453125 34.8125 35.5 34.8125 
z
M 19.671875 64.796875 
L 19.671875 42.828125 
L 34.28125 42.828125 
Q 41.5 42.828125 45.03125 45.53125 
Q 48.578125 48.25 48.578125 53.8125 
Q 48.578125 59.328125 45.03125 62.0625 
Q 41.5 64.796875 34.28125 64.796875 
z
M 9.8125 72.90625 
L 35.015625 72.90625 
Q 46.296875 72.90625 52.390625 68.21875 
Q 58.5 63.53125 58.5 54.890625 
Q 58.5 48.1875 55.375 44.234375 
Q 52.25 40.28125 46.1875 39.3125 
Q 53.46875 37.75 57.5 32.78125 
Q 61.53125 27.828125 61.53125 20.40625 
Q 61.53125 10.640625 54.890625 5.3125 
Q 48.25 0 35.984375 0 
L 9.8125 0 
z
" id="DejaVuSans-66"/>
        <path d="M 44.390625 34.1875 
Q 47.5625 33.109375 50.5625 29.59375 
Q 53.5625 26.078125 56.59375 19.921875 
L 66.609375 0 
L 56 0 
L 46.6875 18.703125 
Q 43.0625 26.03125 39.671875 28.421875 
Q 36.28125 30.8125 30.421875 30.8125 
L 19.671875 30.8125 
L 19.671875 0 
L 9.8125 0 
L 9.8125 72.90625 
L 32.078125 72.90625 
Q 44.578125 72.90625 50.734375 67.671875 
Q 56.890625 62.453125 56.890625 51.90625 
Q 56.890625 45.015625 53.6875 40.46875 
Q 50.484375 35.9375 44.390625 34.1875 
z
M 19.671875 64.796875 
L 19.671875 38.921875 
L 32.078125 38.921875 
Q 39.203125 38.921875 42.84375 42.21875 
Q 46.484375 45.515625 46.484375 51.90625 
Q 46.484375 58.296875 42.84375 61.546875 
Q 39.203125 64.796875 32.078125 64.796875 
z
" id="DejaVuSans-82"/>
        <path d="M 4.890625 31.390625 
L 31.203125 31.390625 
L 31.203125 23.390625 
L 4.890625 23.390625 
z
" id="DejaVuSans-45"/>
        <path d="M 2.984375 54.6875 
L 12.5 54.6875 
L 29.59375 8.796875 
L 46.6875 54.6875 
L 56.203125 54.6875 
L 35.6875 0 
L 23.484375 0 
z
" id="DejaVuSans-118"/>
        <path d="M 40.578125 39.3125 
Q 47.65625 37.796875 51.625 33 
Q 55.609375 28.21875 55.609375 21.1875 
Q 55.609375 10.40625 48.1875 4.484375 
Q 40.765625 -1.421875 27.09375 -1.421875 
Q 22.515625 -1.421875 17.65625 -0.515625 
Q 12.796875 0.390625 7.625 2.203125 
L 7.625 11.71875 
Q 11.71875 9.328125 16.59375 8.109375 
Q 21.484375 6.890625 26.8125 6.890625 
Q 36.078125 6.890625 40.9375 10.546875 
Q 45.796875 14.203125 45.796875 21.1875 
Q 45.796875 27.640625 41.28125 31.265625 
Q 36.765625 34.90625 28.71875 34.90625 
L 20.21875 34.90625 
L 20.21875 43.015625 
L 29.109375 43.015625 
Q 36.375 43.015625 40.234375 45.921875 
Q 44.09375 48.828125 44.09375 54.296875 
Q 44.09375 59.90625 40.109375 62.90625 
Q 36.140625 65.921875 28.71875 65.921875 
Q 24.65625 65.921875 20.015625 65.03125 
Q 15.375 64.15625 9.8125 62.3125 
L 9.8125 71.09375 
Q 15.4375 72.65625 20.34375 73.4375 
Q 25.25 74.21875 29.59375 74.21875 
Q 40.828125 74.21875 47.359375 69.109375 
Q 53.90625 64.015625 53.90625 55.328125 
Q 53.90625 49.265625 50.4375 45.09375 
Q 46.96875 40.921875 40.578125 39.3125 
z
" id="DejaVuSans-51"/>
       </defs>
       <use xlink:href="#DejaVuSans-66"/>
       <use x="68.603516" xlink:href="#DejaVuSans-66"/>
       <use x="137.207031" xlink:href="#DejaVuSans-82"/>
       <use x="202.689453" xlink:href="#DejaVuSans-45"/>
       <use x="236.148438" xlink:href="#DejaVuSans-118"/>
       <use x="295.328125" xlink:href="#DejaVuSans-51"/>
      </g>
     </g>
    </g>
    <g id="xtick_2">
     <g id="line2d_2"/>
     <g id="text_2">
      <!-- Yeah -->
      <g transform="translate(267.055375 577.348763)rotate(-90)scale(0.1 -0.1)">
       <defs>
        <path d="M -0.203125 72.90625 
L 10.40625 72.90625 
L 30.609375 42.921875 
L 50.6875 72.90625 
L 61.28125 72.90625 
L 35.5 34.71875 
L 35.5 0 
L 25.59375 0 
L 25.59375 34.71875 
z
" id="DejaVuSans-89"/>
        <path d="M 56.203125 29.59375 
L 56.203125 25.203125 
L 14.890625 25.203125 
Q 15.484375 15.921875 20.484375 11.0625 
Q 25.484375 6.203125 34.421875 6.203125 
Q 39.59375 6.203125 44.453125 7.46875 
Q 49.3125 8.734375 54.109375 11.28125 
L 54.109375 2.78125 
Q 49.265625 0.734375 44.1875 -0.34375 
Q 39.109375 -1.421875 33.890625 -1.421875 
Q 20.796875 -1.421875 13.15625 6.1875 
Q 5.515625 13.8125 5.515625 26.8125 
Q 5.515625 40.234375 12.765625 48.109375 
Q 20.015625 56 32.328125 56 
Q 43.359375 56 49.78125 48.890625 
Q 56.203125 41.796875 56.203125 29.59375 
z
M 47.21875 32.234375 
Q 47.125 39.59375 43.09375 43.984375 
Q 39.0625 48.390625 32.421875 48.390625 
Q 24.90625 48.390625 20.390625 44.140625 
Q 15.875 39.890625 15.1875 32.171875 
z
" id="DejaVuSans-101"/>
        <path d="M 34.28125 27.484375 
Q 23.390625 27.484375 19.1875 25 
Q 14.984375 22.515625 14.984375 16.5 
Q 14.984375 11.71875 18.140625 8.90625 
Q 21.296875 6.109375 26.703125 6.109375 
Q 34.1875 6.109375 38.703125 11.40625 
Q 43.21875 16.703125 43.21875 25.484375 
L 43.21875 27.484375 
z
M 52.203125 31.203125 
L 52.203125 0 
L 43.21875 0 
L 43.21875 8.296875 
Q 40.140625 3.328125 35.546875 0.953125 
Q 30.953125 -1.421875 24.3125 -1.421875 
Q 15.921875 -1.421875 10.953125 3.296875 
Q 6 8.015625 6 15.921875 
Q 6 25.140625 12.171875 29.828125 
Q 18.359375 34.515625 30.609375 34.515625 
L 43.21875 34.515625 
L 43.21875 35.40625 
Q 43.21875 41.609375 39.140625 45 
Q 35.0625 48.390625 27.6875 48.390625 
Q 23 48.390625 18.546875 47.265625 
Q 14.109375 46.140625 10.015625 43.890625 
L 10.015625 52.203125 
Q 14.9375 54.109375 19.578125 55.046875 
Q 24.21875 56 28.609375 56 
Q 40.484375 56 46.34375 49.84375 
Q 52.203125 43.703125 52.203125 31.203125 
z
" id="DejaVuSans-97"/>
        <path d="M 54.890625 33.015625 
L 54.890625 0 
L 45.90625 0 
L 45.90625 32.71875 
Q 45.90625 40.484375 42.875 44.328125 
Q 39.84375 48.1875 33.796875 48.1875 
Q 26.515625 48.1875 22.3125 43.546875 
Q 18.109375 38.921875 18.109375 30.90625 
L 18.109375 0 
L 9.078125 0 
L 9.078125 75.984375 
L 18.109375 75.984375 
L 18.109375 46.1875 
Q 21.34375 51.125 25.703125 53.5625 
Q 30.078125 56 35.796875 56 
Q 45.21875 56 50.046875 50.171875 
Q 54.890625 44.34375 54.890625 33.015625 
z
" id="DejaVuSans-104"/>
       </defs>
       <use xlink:href="#DejaVuSans-89"/>
       <use x="47.833984" xlink:href="#DejaVuSans-101"/>
       <use x="109.357422" xlink:href="#DejaVuSans-97"/>
       <use x="170.636719" xlink:href="#DejaVuSans-104"/>
      </g>
     </g>
    </g>
    <g id="xtick_3">
     <g id="line2d_3"/>
     <g id="text_3">
      <!-- Nevada -->
      <g transform="translate(318.923375 592.105013)rotate(-90)scale(0.1 -0.1)">
       <defs>
        <path d="M 9.8125 72.90625 
L 23.09375 72.90625 
L 55.421875 11.921875 
L 55.421875 72.90625 
L 64.984375 72.90625 
L 64.984375 0 
L 51.703125 0 
L 19.390625 60.984375 
L 19.390625 0 
L 9.8125 0 
z
" id="DejaVuSans-78"/>
        <path d="M 45.40625 46.390625 
L 45.40625 75.984375 
L 54.390625 75.984375 
L 54.390625 0 
L 45.40625 0 
L 45.40625 8.203125 
Q 42.578125 3.328125 38.25 0.953125 
Q 33.9375 -1.421875 27.875 -1.421875 
Q 17.96875 -1.421875 11.734375 6.484375 
Q 5.515625 14.40625 5.515625 27.296875 
Q 5.515625 40.1875 11.734375 48.09375 
Q 17.96875 56 27.875 56 
Q 33.9375 56 38.25 53.625 
Q 42.578125 51.265625 45.40625 46.390625 
z
M 14.796875 27.296875 
Q 14.796875 17.390625 18.875 11.75 
Q 22.953125 6.109375 30.078125 6.109375 
Q 37.203125 6.109375 41.296875 11.75 
Q 45.40625 17.390625 45.40625 27.296875 
Q 45.40625 37.203125 41.296875 42.84375 
Q 37.203125 48.484375 30.078125 48.484375 
Q 22.953125 48.484375 18.875 42.84375 
Q 14.796875 37.203125 14.796875 27.296875 
z
" id="DejaVuSans-100"/>
       </defs>
       <use xlink:href="#DejaVuSans-78"/>
       <use x="74.804688" xlink:href="#DejaVuSans-101"/>
       <use x="136.328125" xlink:href="#DejaVuSans-118"/>
       <use x="195.507812" xlink:href="#DejaVuSans-97"/>
       <use x="256.787109" xlink:href="#DejaVuSans-100"/>
       <use x="320.263672" xlink:href="#DejaVuSans-97"/>
      </g>
     </g>
    </g>
    <g id="xtick_4">
     <g id="line2d_4"/>
     <g id="text_4">
      <!-- Veno -->
      <g transform="translate(370.791375 578.6222)rotate(-90)scale(0.1 -0.1)">
       <defs>
        <path d="M 28.609375 0 
L 0.78125 72.90625 
L 11.078125 72.90625 
L 34.1875 11.53125 
L 57.328125 72.90625 
L 67.578125 72.90625 
L 39.796875 0 
z
" id="DejaVuSans-86"/>
        <path d="M 54.890625 33.015625 
L 54.890625 0 
L 45.90625 0 
L 45.90625 32.71875 
Q 45.90625 40.484375 42.875 44.328125 
Q 39.84375 48.1875 33.796875 48.1875 
Q 26.515625 48.1875 22.3125 43.546875 
Q 18.109375 38.921875 18.109375 30.90625 
L 18.109375 0 
L 9.078125 0 
L 9.078125 54.6875 
L 18.109375 54.6875 
L 18.109375 46.1875 
Q 21.34375 51.125 25.703125 53.5625 
Q 30.078125 56 35.796875 56 
Q 45.21875 56 50.046875 50.171875 
Q 54.890625 44.34375 54.890625 33.015625 
z
" id="DejaVuSans-110"/>
        <path d="M 30.609375 48.390625 
Q 23.390625 48.390625 19.1875 42.75 
Q 14.984375 37.109375 14.984375 27.296875 
Q 14.984375 17.484375 19.15625 11.84375 
Q 23.34375 6.203125 30.609375 6.203125 
Q 37.796875 6.203125 41.984375 11.859375 
Q 46.1875 17.53125 46.1875 27.296875 
Q 46.1875 37.015625 41.984375 42.703125 
Q 37.796875 48.390625 30.609375 48.390625 
z
M 30.609375 56 
Q 42.328125 56 49.015625 48.375 
Q 55.71875 40.765625 55.71875 27.296875 
Q 55.71875 13.875 49.015625 6.21875 
Q 42.328125 -1.421875 30.609375 -1.421875 
Q 18.84375 -1.421875 12.171875 6.21875 
Q 5.515625 13.875 5.515625 27.296875 
Q 5.515625 40.765625 12.171875 48.375 
Q 18.84375 56 30.609375 56 
z
" id="DejaVuSans-111"/>
       </defs>
       <use xlink:href="#DejaVuSans-86"/>
       <use x="60.658203" xlink:href="#DejaVuSans-101"/>
       <use x="122.181641" xlink:href="#DejaVuSans-110"/>
       <use x="185.560547" xlink:href="#DejaVuSans-111"/>
      </g>
     </g>
    </g>
    <g id="xtick_5">
     <g id="line2d_5"/>
     <g id="text_5">
      <!-- Vegas -->
      <g transform="translate(422.659375 583.851887)rotate(-90)scale(0.1 -0.1)">
       <defs>
        <path d="M 45.40625 27.984375 
Q 45.40625 37.75 41.375 43.109375 
Q 37.359375 48.484375 30.078125 48.484375 
Q 22.859375 48.484375 18.828125 43.109375 
Q 14.796875 37.75 14.796875 27.984375 
Q 14.796875 18.265625 18.828125 12.890625 
Q 22.859375 7.515625 30.078125 7.515625 
Q 37.359375 7.515625 41.375 12.890625 
Q 45.40625 18.265625 45.40625 27.984375 
z
M 54.390625 6.78125 
Q 54.390625 -7.171875 48.1875 -13.984375 
Q 42 -20.796875 29.203125 -20.796875 
Q 24.46875 -20.796875 20.265625 -20.09375 
Q 16.0625 -19.390625 12.109375 -17.921875 
L 12.109375 -9.1875 
Q 16.0625 -11.328125 19.921875 -12.34375 
Q 23.78125 -13.375 27.78125 -13.375 
Q 36.625 -13.375 41.015625 -8.765625 
Q 45.40625 -4.15625 45.40625 5.171875 
L 45.40625 9.625 
Q 42.625 4.78125 38.28125 2.390625 
Q 33.9375 0 27.875 0 
Q 17.828125 0 11.671875 7.65625 
Q 5.515625 15.328125 5.515625 27.984375 
Q 5.515625 40.671875 11.671875 48.328125 
Q 17.828125 56 27.875 56 
Q 33.9375 56 38.28125 53.609375 
Q 42.625 51.21875 45.40625 46.390625 
L 45.40625 54.6875 
L 54.390625 54.6875 
z
" id="DejaVuSans-103"/>
        <path d="M 44.28125 53.078125 
L 44.28125 44.578125 
Q 40.484375 46.53125 36.375 47.5 
Q 32.28125 48.484375 27.875 48.484375 
Q 21.1875 48.484375 17.84375 46.4375 
Q 14.5 44.390625 14.5 40.28125 
Q 14.5 37.15625 16.890625 35.375 
Q 19.28125 33.59375 26.515625 31.984375 
L 29.59375 31.296875 
Q 39.15625 29.25 43.1875 25.515625 
Q 47.21875 21.78125 47.21875 15.09375 
Q 47.21875 7.46875 41.1875 3.015625 
Q 35.15625 -1.421875 24.609375 -1.421875 
Q 20.21875 -1.421875 15.453125 -0.5625 
Q 10.6875 0.296875 5.421875 2 
L 5.421875 11.28125 
Q 10.40625 8.6875 15.234375 7.390625 
Q 20.0625 6.109375 24.8125 6.109375 
Q 31.15625 6.109375 34.5625 8.28125 
Q 37.984375 10.453125 37.984375 14.40625 
Q 37.984375 18.0625 35.515625 20.015625 
Q 33.0625 21.96875 24.703125 23.78125 
L 21.578125 24.515625 
Q 13.234375 26.265625 9.515625 29.90625 
Q 5.8125 33.546875 5.8125 39.890625 
Q 5.8125 47.609375 11.28125 51.796875 
Q 16.75 56 26.8125 56 
Q 31.78125 56 36.171875 55.265625 
Q 40.578125 54.546875 44.28125 53.078125 
z
" id="DejaVuSans-115"/>
       </defs>
       <use xlink:href="#DejaVuSans-86"/>
       <use x="60.658203" xlink:href="#DejaVuSans-101"/>
       <use x="122.181641" xlink:href="#DejaVuSans-103"/>
       <use x="185.658203" xlink:href="#DejaVuSans-97"/>
       <use x="246.9375" xlink:href="#DejaVuSans-115"/>
      </g>
     </g>
    </g>
    <g id="xtick_6">
     <g id="line2d_6"/>
     <g id="text_6">
      <!-- DCTCP -->
      <g transform="translate(474.527375 587.162825)rotate(-90)scale(0.1 -0.1)">
       <defs>
        <path d="M 19.671875 64.796875 
L 19.671875 8.109375 
L 31.59375 8.109375 
Q 46.6875 8.109375 53.6875 14.9375 
Q 60.6875 21.78125 60.6875 36.53125 
Q 60.6875 51.171875 53.6875 57.984375 
Q 46.6875 64.796875 31.59375 64.796875 
z
M 9.8125 72.90625 
L 30.078125 72.90625 
Q 51.265625 72.90625 61.171875 64.09375 
Q 71.09375 55.28125 71.09375 36.53125 
Q 71.09375 17.671875 61.125 8.828125 
Q 51.171875 0 30.078125 0 
L 9.8125 0 
z
" id="DejaVuSans-68"/>
        <path d="M 64.40625 67.28125 
L 64.40625 56.890625 
Q 59.421875 61.53125 53.78125 63.8125 
Q 48.140625 66.109375 41.796875 66.109375 
Q 29.296875 66.109375 22.65625 58.46875 
Q 16.015625 50.828125 16.015625 36.375 
Q 16.015625 21.96875 22.65625 14.328125 
Q 29.296875 6.6875 41.796875 6.6875 
Q 48.140625 6.6875 53.78125 8.984375 
Q 59.421875 11.28125 64.40625 15.921875 
L 64.40625 5.609375 
Q 59.234375 2.09375 53.4375 0.328125 
Q 47.65625 -1.421875 41.21875 -1.421875 
Q 24.65625 -1.421875 15.125 8.703125 
Q 5.609375 18.84375 5.609375 36.375 
Q 5.609375 53.953125 15.125 64.078125 
Q 24.65625 74.21875 41.21875 74.21875 
Q 47.75 74.21875 53.53125 72.484375 
Q 59.328125 70.75 64.40625 67.28125 
z
" id="DejaVuSans-67"/>
        <path d="M -0.296875 72.90625 
L 61.375 72.90625 
L 61.375 64.59375 
L 35.5 64.59375 
L 35.5 0 
L 25.59375 0 
L 25.59375 64.59375 
L -0.296875 64.59375 
z
" id="DejaVuSans-84"/>
        <path d="M 19.671875 64.796875 
L 19.671875 37.40625 
L 32.078125 37.40625 
Q 38.96875 37.40625 42.71875 40.96875 
Q 46.484375 44.53125 46.484375 51.125 
Q 46.484375 57.671875 42.71875 61.234375 
Q 38.96875 64.796875 32.078125 64.796875 
z
M 9.8125 72.90625 
L 32.078125 72.90625 
Q 44.34375 72.90625 50.609375 67.359375 
Q 56.890625 61.8125 56.890625 51.125 
Q 56.890625 40.328125 50.609375 34.8125 
Q 44.34375 29.296875 32.078125 29.296875 
L 19.671875 29.296875 
L 19.671875 0 
L 9.8125 0 
z
" id="DejaVuSans-80"/>
       </defs>
       <use xlink:href="#DejaVuSans-68"/>
       <use x="77.001953" xlink:href="#DejaVuSans-67"/>
       <use x="146.826172" xlink:href="#DejaVuSans-84"/>
       <use x="202.035156" xlink:href="#DejaVuSans-67"/>
       <use x="271.859375" xlink:href="#DejaVuSans-80"/>
      </g>
     </g>
    </g>
    <g id="xtick_7">
     <g id="line2d_7"/>
     <g id="text_7">
      <!-- Cubic -->
      <g transform="translate(526.395375 581.892513)rotate(-90)scale(0.1 -0.1)">
       <defs>
        <path d="M 8.5 21.578125 
L 8.5 54.6875 
L 17.484375 54.6875 
L 17.484375 21.921875 
Q 17.484375 14.15625 20.5 10.265625 
Q 23.53125 6.390625 29.59375 6.390625 
Q 36.859375 6.390625 41.078125 11.03125 
Q 45.3125 15.671875 45.3125 23.6875 
L 45.3125 54.6875 
L 54.296875 54.6875 
L 54.296875 0 
L 45.3125 0 
L 45.3125 8.40625 
Q 42.046875 3.421875 37.71875 1 
Q 33.40625 -1.421875 27.6875 -1.421875 
Q 18.265625 -1.421875 13.375 4.4375 
Q 8.5 10.296875 8.5 21.578125 
z
M 31.109375 56 
z
" id="DejaVuSans-117"/>
        <path d="M 48.6875 27.296875 
Q 48.6875 37.203125 44.609375 42.84375 
Q 40.53125 48.484375 33.40625 48.484375 
Q 26.265625 48.484375 22.1875 42.84375 
Q 18.109375 37.203125 18.109375 27.296875 
Q 18.109375 17.390625 22.1875 11.75 
Q 26.265625 6.109375 33.40625 6.109375 
Q 40.53125 6.109375 44.609375 11.75 
Q 48.6875 17.390625 48.6875 27.296875 
z
M 18.109375 46.390625 
Q 20.953125 51.265625 25.265625 53.625 
Q 29.59375 56 35.59375 56 
Q 45.5625 56 51.78125 48.09375 
Q 58.015625 40.1875 58.015625 27.296875 
Q 58.015625 14.40625 51.78125 6.484375 
Q 45.5625 -1.421875 35.59375 -1.421875 
Q 29.59375 -1.421875 25.265625 0.953125 
Q 20.953125 3.328125 18.109375 8.203125 
L 18.109375 0 
L 9.078125 0 
L 9.078125 75.984375 
L 18.109375 75.984375 
z
" id="DejaVuSans-98"/>
        <path d="M 9.421875 54.6875 
L 18.40625 54.6875 
L 18.40625 0 
L 9.421875 0 
z
M 9.421875 75.984375 
L 18.40625 75.984375 
L 18.40625 64.59375 
L 9.421875 64.59375 
z
" id="DejaVuSans-105"/>
        <path d="M 48.78125 52.59375 
L 48.78125 44.1875 
Q 44.96875 46.296875 41.140625 47.34375 
Q 37.3125 48.390625 33.40625 48.390625 
Q 24.65625 48.390625 19.8125 42.84375 
Q 14.984375 37.3125 14.984375 27.296875 
Q 14.984375 17.28125 19.8125 11.734375 
Q 24.65625 6.203125 33.40625 6.203125 
Q 37.3125 6.203125 41.140625 7.25 
Q 44.96875 8.296875 48.78125 10.40625 
L 48.78125 2.09375 
Q 45.015625 0.34375 40.984375 -0.53125 
Q 36.96875 -1.421875 32.421875 -1.421875 
Q 20.0625 -1.421875 12.78125 6.34375 
Q 5.515625 14.109375 5.515625 27.296875 
Q 5.515625 40.671875 12.859375 48.328125 
Q 20.21875 56 33.015625 56 
Q 37.15625 56 41.109375 55.140625 
Q 45.0625 54.296875 48.78125 52.59375 
z
" id="DejaVuSans-99"/>
       </defs>
       <use xlink:href="#DejaVuSans-67"/>
       <use x="69.824219" xlink:href="#DejaVuSans-117"/>
       <use x="133.203125" xlink:href="#DejaVuSans-98"/>
       <use x="196.679688" xlink:href="#DejaVuSans-105"/>
       <use x="224.462891" xlink:href="#DejaVuSans-99"/>
      </g>
     </g>
    </g>
    <g id="xtick_8">
     <g id="line2d_8"/>
     <g id="text_8">
      <!-- Reno -->
      <g transform="translate(578.263375 579.055012)rotate(-90)scale(0.1 -0.1)">
       <use xlink:href="#DejaVuSans-82"/>
       <use x="64.982422" xlink:href="#DejaVuSans-101"/>
       <use x="126.505859" xlink:href="#DejaVuSans-110"/>
       <use x="189.884766" xlink:href="#DejaVuSans-111"/>
      </g>
     </g>
    </g>
    <g id="xtick_9">
     <g id="line2d_9"/>
     <g id="text_9">
      <!-- BBR-v3 -->
      <g transform="translate(681.999375 589.844075)rotate(-90)scale(0.1 -0.1)">
       <use xlink:href="#DejaVuSans-66"/>
       <use x="68.603516" xlink:href="#DejaVuSans-66"/>
       <use x="137.207031" xlink:href="#DejaVuSans-82"/>
       <use x="202.689453" xlink:href="#DejaVuSans-45"/>
       <use x="236.148438" xlink:href="#DejaVuSans-118"/>
       <use x="295.328125" xlink:href="#DejaVuSans-51"/>
      </g>
     </g>
    </g>
    <g id="xtick_10">
     <g id="line2d_10"/>
     <g id="text_10">
      <!-- Yeah -->
      <g transform="translate(733.867375 577.348763)rotate(-90)scale(0.1 -0.1)">
       <use xlink:href="#DejaVuSans-89"/>
       <use x="47.833984" xlink:href="#DejaVuSans-101"/>
       <use x="109.357422" xlink:href="#DejaVuSans-97"/>
       <use x="170.636719" xlink:href="#DejaVuSans-104"/>
      </g>
     </g>
    </g>
    <g id="xtick_11">
     <g id="line2d_11"/>
     <g id="text_11">
      <!-- Nevada -->
      <g transform="translate(785.735375 592.105013)rotate(-90)scale(0.1 -0.1)">
       <use xlink:href="#DejaVuSans-78"/>
       <use x="74.804688" xlink:href="#DejaVuSans-101"/>
       <use x="136.328125" xlink:href="#DejaVuSans-118"/>
       <use x="195.507812" xlink:href="#DejaVuSans-97"/>
       <use x="256.787109" xlink:href="#DejaVuSans-100"/>
       <use x="320.263672" xlink:href="#DejaVuSans-97"/>
      </g>
     </g>
    </g>
    <g id="xtick_12">
     <g id="line2d_12"/>
     <g id="text_12">
      <!-- Veno -->
      <g transform="translate(837.603375 578.6222)rotate(-90)scale(0.1 -0.1)">
       <use xlink:href="#DejaVuSans-86"/>
       <use x="60.658203" xlink:href="#DejaVuSans-101"/>
       <use x="122.181641" xlink:href="#DejaVuSans-110"/>
       <use x="185.560547" xlink:href="#DejaVuSans-111"/>
      </g>
     </g>
    </g>
    <g id="xtick_13">
     <g id="line2d_13"/>
     <g id="text_13">
      <!-- Vegas -->
      <g transform="translate(889.471375 583.851887)rotate(-90)scale(0.1 -0.1)">
       <use xlink:href="#DejaVuSans-86"/>
       <use x="60.658203" xlink:href="#DejaVuSans-101"/>
       <use x="122.181641" xlink:href="#DejaVuSans-103"/>
       <use x="185.658203" xlink:href="#DejaVuSans-97"/>
       <use x="246.9375" xlink:href="#DejaVuSans-115"/>
      </g>
     </g>
    </g>
    <g id="xtick_14">
     <g id="line2d_14"/>
     <g id="text_14">
      <!-- DCTCP -->
      <g transform="translate(941.339375 587.162825)rotate(-90)scale(0.1 -0.1)">
       <use xlink:href="#DejaVuSans-68"/>
       <use x="77.001953" xlink:href="#DejaVuSans-67"/>
       <use x="146.826172" xlink:href="#DejaVuSans-84"/>
       <use x="202.035156" xlink:href="#DejaVuSans-67"/>
       <use x="271.859375" xlink:href="#DejaVuSans-80"/>
      </g>
     </g>
    </g>
    <g id="xtick_15">
     <g id="line2d_15"/>
     <g id="text_15">
      <!-- Cubic -->
      <g transform="translate(993.207375 581.892513)rotate(-90)scale(0.1 -0.1)">
       <use xlink:href="#DejaVuSans-67"/>
       <use x="69.824219" xlink:href="#DejaVuSans-117"/>
       <use x="133.203125" xlink:href="#DejaVuSans-98"/>
       <use x="196.679688" xlink:href="#DejaVuSans-105"/>
       <use x="224.462891" xlink:href="#DejaVuSans-99"/>
      </g>
     </g>
    </g>
    <g id="xtick_16">
     <g id="line2d_16"/>
     <g id="text_16">
      <!-- Reno -->
      <g transform="translate(1045.075375 579.055012)rotate(-90)scale(0.1 -0.1)">
       <use xlink:href="#DejaVuSans-82"/>
       <use x="64.982422" xlink:href="#DejaVuSans-101"/>
       <use x="126.505859" xlink:href="#DejaVuSans-110"/>
       <use x="189.884766" xlink:href="#DejaVuSans-111"/>
      </g>
     </g>
    </g>
   </g>
   <g id="matplotlib.axis_2">
    <g id="ytick_1">
     <g id="line2d_17"/>
     <g id="text_17">
      <!-- 20 -->
      <g transform="translate(144.335 469.811665)scale(0.1 -0.1)">
       <defs>
        <path d="M 19.1875 8.296875 
L 53.609375 8.296875 
L 53.609375 0 
L 7.328125 0 
L 7.328125 8.296875 
Q 12.9375 14.109375 22.625 23.890625 
Q 32.328125 33.6875 34.8125 36.53125 
Q 39.546875 41.84375 41.421875 45.53125 
Q 43.3125 49.21875 43.3125 52.78125 
Q 43.3125 58.59375 39.234375 62.25 
Q 35.15625 65.921875 28.609375 65.921875 
Q 23.96875 65.921875 18.8125 64.3125 
Q 13.671875 62.703125 7.8125 59.421875 
L 7.8125 69.390625 
Q 13.765625 71.78125 18.9375 73 
Q 24.125 74.21875 28.421875 74.21875 
Q 39.75 74.21875 46.484375 68.546875 
Q 53.21875 62.890625 53.21875 53.421875 
Q 53.21875 48.921875 51.53125 44.890625 
Q 49.859375 40.875 45.40625 35.40625 
Q 44.1875 33.984375 37.640625 27.21875 
Q 31.109375 20.453125 19.1875 8.296875 
z
" id="DejaVuSans-50"/>
        <path d="M 31.78125 66.40625 
Q 24.171875 66.40625 20.328125 58.90625 
Q 16.5 51.421875 16.5 36.375 
Q 16.5 21.390625 20.328125 13.890625 
Q 24.171875 6.390625 31.78125 6.390625 
Q 39.453125 6.390625 43.28125 13.890625 
Q 47.125 21.390625 47.125 36.375 
Q 47.125 51.421875 43.28125 58.90625 
Q 39.453125 66.40625 31.78125 66.40625 
z
M 31.78125 74.21875 
Q 44.046875 74.21875 50.515625 64.515625 
Q 56.984375 54.828125 56.984375 36.375 
Q 56.984375 17.96875 50.515625 8.265625 
Q 44.046875 -1.421875 31.78125 -1.421875 
Q 19.53125 -1.421875 13.0625 8.265625 
Q 6.59375 17.96875 6.59375 36.375 
Q 6.59375 54.828125 13.0625 64.515625 
Q 19.53125 74.21875 31.78125 74.21875 
z
" id="DejaVuSans-48"/>
       </defs>
       <use xlink:href="#DejaVuSans-50"/>
       <use x="63.623047" xlink:href="#DejaVuSans-48"/>
      </g>
     </g>
    </g>
    <g id="ytick_2">
     <g id="line2d_18"/>
     <g id="text_18">
      <!-- 40 -->
      <g transform="translate(144.335 385.367597)scale(0.1 -0.1)">
       <defs>
        <path d="M 37.796875 64.3125 
L 12.890625 25.390625 
L 37.796875 25.390625 
z
M 35.203125 72.90625 
L 47.609375 72.90625 
L 47.609375 25.390625 
L 58.015625 25.390625 
L 58.015625 17.1875 
L 47.609375 17.1875 
L 47.609375 0 
L 37.796875 0 
L 37.796875 17.1875 
L 4.890625 17.1875 
L 4.890625 26.703125 
z
" id="DejaVuSans-52"/>
       </defs>
       <use xlink:href="#DejaVuSans-52"/>
       <use x="63.623047" xlink:href="#DejaVuSans-48"/>
      </g>
     </g>
    </g>
    <g id="ytick_3">
     <g id="line2d_19"/>
     <g id="text_19">
      <!-- 60 -->
      <g transform="translate(144.335 300.92353)scale(0.1 -0.1)">
       <defs>
        <path d="M 33.015625 40.375 
Q 26.375 40.375 22.484375 35.828125 
Q 18.609375 31.296875 18.609375 23.390625 
Q 18.609375 15.53125 22.484375 10.953125 
Q 26.375 6.390625 33.015625 6.390625 
Q 39.65625 6.390625 43.53125 10.953125 
Q 47.40625 15.53125 47.40625 23.390625 
Q 47.40625 31.296875 43.53125 35.828125 
Q 39.65625 40.375 33.015625 40.375 
z
M 52.59375 71.296875 
L 52.59375 62.3125 
Q 48.875 64.0625 45.09375 64.984375 
Q 41.3125 65.921875 37.59375 65.921875 
Q 27.828125 65.921875 22.671875 59.328125 
Q 17.53125 52.734375 16.796875 39.40625 
Q 19.671875 43.65625 24.015625 45.921875 
Q 28.375 48.1875 33.59375 48.1875 
Q 44.578125 48.1875 50.953125 41.515625 
Q 57.328125 34.859375 57.328125 23.390625 
Q 57.328125 12.15625 50.6875 5.359375 
Q 44.046875 -1.421875 33.015625 -1.421875 
Q 20.359375 -1.421875 13.671875 8.265625 
Q 6.984375 17.96875 6.984375 36.375 
Q 6.984375 53.65625 15.1875 63.9375 
Q 23.390625 74.21875 37.203125 74.21875 
Q 40.921875 74.21875 44.703125 73.484375 
Q 48.484375 72.75 52.59375 71.296875 
z
" id="DejaVuSans-54"/>
       </defs>
       <use xlink:href="#DejaVuSans-54"/>
       <use x="63.623047" xlink:href="#DejaVuSans-48"/>
      </g>
     </g>
    </g>
    <g id="ytick_4">
     <g id="line2d_20"/>
     <g id="text_20">
      <!-- 80 -->
      <g transform="translate(144.335 216.479462)scale(0.1 -0.1)">
       <defs>
        <path d="M 31.78125 34.625 
Q 24.75 34.625 20.71875 30.859375 
Q 16.703125 27.09375 16.703125 20.515625 
Q 16.703125 13.921875 20.71875 10.15625 
Q 24.75 6.390625 31.78125 6.390625 
Q 38.8125 6.390625 42.859375 10.171875 
Q 46.921875 13.96875 46.921875 20.515625 
Q 46.921875 27.09375 42.890625 30.859375 
Q 38.875 34.625 31.78125 34.625 
z
M 21.921875 38.8125 
Q 15.578125 40.375 12.03125 44.71875 
Q 8.5 49.078125 8.5 55.328125 
Q 8.5 64.0625 14.71875 69.140625 
Q 20.953125 74.21875 31.78125 74.21875 
Q 42.671875 74.21875 48.875 69.140625 
Q 55.078125 64.0625 55.078125 55.328125 
Q 55.078125 49.078125 51.53125 44.71875 
Q 48 40.375 41.703125 38.8125 
Q 48.828125 37.15625 52.796875 32.3125 
Q 56.78125 27.484375 56.78125 20.515625 
Q 56.78125 9.90625 50.3125 4.234375 
Q 43.84375 -1.421875 31.78125 -1.421875 
Q 19.734375 -1.421875 13.25 4.234375 
Q 6.78125 9.90625 6.78125 20.515625 
Q 6.78125 27.484375 10.78125 32.3125 
Q 14.796875 37.15625 21.921875 38.8125 
z
M 18.3125 54.390625 
Q 18.3125 48.734375 21.84375 45.5625 
Q 25.390625 42.390625 31.78125 42.390625 
Q 38.140625 42.390625 41.71875 45.5625 
Q 45.3125 48.734375 45.3125 54.390625 
Q 45.3125 60.0625 41.71875 63.234375 
Q 38.140625 66.40625 31.78125 66.40625 
Q 25.390625 66.40625 21.84375 63.234375 
Q 18.3125 60.0625 18.3125 54.390625 
z
" id="DejaVuSans-56"/>
       </defs>
       <use xlink:href="#DejaVuSans-56"/>
       <use x="63.623047" xlink:href="#DejaVuSans-48"/>
      </g>
     </g>
    </g>
    <g id="ytick_5">
     <g id="line2d_21"/>
     <g id="text_21">
      <!-- 100 -->
      <g transform="translate(137.9725 132.035394)scale(0.1 -0.1)">
       <defs>
        <path d="M 12.40625 8.296875 
L 28.515625 8.296875 
L 28.515625 63.921875 
L 10.984375 60.40625 
L 10.984375 69.390625 
L 28.421875 72.90625 
L 38.28125 72.90625 
L 38.28125 8.296875 
L 54.390625 8.296875 
L 54.390625 0 
L 12.40625 0 
z
" id="DejaVuSans-49"/>
       </defs>
       <use xlink:href="#DejaVuSans-49"/>
       <use x="63.623047" xlink:href="#DejaVuSans-48"/>
       <use x="127.246094" xlink:href="#DejaVuSans-48"/>
      </g>
     </g>
    </g>
    <g id="ytick_6">
     <g id="line2d_22"/>
    </g>
    <g id="ytick_7">
     <g id="line2d_23"/>
    </g>
    <g id="ytick_8">
     <g id="line2d_24"/>
    </g>
    <g id="ytick_9">
     <g id="line2d_25"/>
    </g>
    <g id="ytick_10">
     <g id="line2d_26"/>
    </g>
    <g id="ytick_11">
     <g id="line2d_27"/>
    </g>
    <g id="ytick_12">
     <g id="line2d_28"/>
    </g>
    <g id="ytick_13">
     <g id="line2d_29"/>
    </g>
    <g id="ytick_14">
     <g id="line2d_30"/>
    </g>
    <g id="ytick_15">
     <g id="line2d_31"/>
    </g>
    <g id="ytick_16">
     <g id="line2d_32"/>
    </g>
    <g id="ytick_17">
     <g id="line2d_33"/>
    </g>
    <g id="ytick_18">
     <g id="line2d_34"/>
    </g>
    <g id="ytick_19">
     <g id="line2d_35"/>
    </g>
    <g id="ytick_20">
     <g id="line2d_36"/>
    </g>
    <g id="ytick_21">
     <g id="line2d_37"/>
    </g>
    <g id="ytick_22">
     <g id="line2d_38"/>
    </g>
    <g id="text_22">
     <!-- Mbits/s -->
     <g transform="translate(131.892812 330.06365)rotate(-90)scale(0.1 -0.1)">
      <defs>
       <path d="M 9.8125 72.90625 
L 24.515625 72.90625 
L 43.109375 23.296875 
L 61.8125 72.90625 
L 76.515625 72.90625 
L 76.515625 0 
L 66.890625 0 
L 66.890625 64.015625 
L 48.09375 14.015625 
L 38.1875 14.015625 
L 19.390625 64.015625 
L 19.390625 0 
L 9.8125 0 
z
" id="DejaVuSans-77"/>
       <path d="M 18.3125 70.21875 
L 18.3125 54.6875 
L 36.8125 54.6875 
L 36.8125 47.703125 
L 18.3125 47.703125 
L 18.3125 18.015625 
Q 18.3125 11.328125 20.140625 9.421875 
Q 21.96875 7.515625 27.59375 7.515625 
L 36.8125 7.515625 
L 36.8125 0 
L 27.59375 0 
Q 17.1875 0 13.234375 3.875 
Q 9.28125 7.765625 9.28125 18.015625 
L 9.28125 47.703125 
L 2.6875 47.703125 
L 2.6875 54.6875 
L 9.28125 54.6875 
L 9.28125 70.21875 
z
" id="DejaVuSans-116"/>
       <path d="M 25.390625 72.90625 
L 33.6875 72.90625 
L 8.296875 -9.28125 
L 0 -9.28125 
z
" id="DejaVuSans-47"/>
      </defs>
      <use xlink:href="#DejaVuSans-77"/>
      <use x="86.279297" xlink:href="#DejaVuSans-98"/>
      <use x="149.755859" xlink:href="#DejaVuSans-105"/>
      <use x="177.539062" xlink:href="#DejaVuSans-116"/>
      <use x="216.748047" xlink:href="#DejaVuSans-115"/>
      <use x="268.847656" xlink:href="#DejaVuSans-47"/>
      <use x="302.539062" xlink:href="#DejaVuSans-115"/>
     </g>
    </g>
   </g>
   <g id="line2d_39">
    <path clip-path="url(#p91e524b9e2)" d="M 199.461 479.891231 
L 225.395 479.891231 
L 225.395 441.473726 
L 199.461 441.473726 
L 199.461 479.891231 
" style="fill:none;stroke:#1b9e77;stroke-linecap:round;"/>
   </g>
   <g id="line2d_40">
    <path clip-path="url(#p91e524b9e2)" d="M 212.428 479.891231 
L 212.428 536.584763 
" style="fill:none;stroke:#1b9e77;stroke-linecap:round;"/>
   </g>
   <g id="line2d_41">
    <path clip-path="url(#p91e524b9e2)" d="M 212.428 441.473726 
L 212.428 384.849193 
" style="fill:none;stroke:#1b9e77;stroke-linecap:round;"/>
   </g>
   <g id="line2d_42">
    <path clip-path="url(#p91e524b9e2)" d="M 205.9445 536.584763 
L 218.9115 536.584763 
" style="fill:none;stroke:#1b9e77;stroke-linecap:round;"/>
   </g>
   <g id="line2d_43">
    <path clip-path="url(#p91e524b9e2)" d="M 205.9445 384.849193 
L 218.9115 384.849193 
" style="fill:none;stroke:#1b9e77;stroke-linecap:round;"/>
   </g>
   <g id="line2d_44">
    <defs>
     <path d="M -3 0 
L 3 0 
M 0 3 
L 0 -3 
" id="m641b3e8c92" style="stroke:#1b9e77;"/>
    </defs>
    <g clip-path="url(#p91e524b9e2)">
     <use style="fill:#0000ff;stroke:#1b9e77;" x="212.428" xlink:href="#m641b3e8c92" y="537.698603"/>
     <use style="fill:#0000ff;stroke:#1b9e77;" x="212.428" xlink:href="#m641b3e8c92" y="544.093937"/>
     <use style="fill:#0000ff;stroke:#1b9e77;" x="212.428" xlink:href="#m641b3e8c92" y="544.78042"/>
     <use style="fill:#0000ff;stroke:#1b9e77;" x="212.428" xlink:href="#m641b3e8c92" y="545.437365"/>
     <use style="fill:#0000ff;stroke:#1b9e77;" x="212.428" xlink:href="#m641b3e8c92" y="541.70651"/>
     <use style="fill:#0000ff;stroke:#1b9e77;" x="212.428" xlink:href="#m641b3e8c92" y="539.137457"/>
     <use style="fill:#0000ff;stroke:#1b9e77;" x="212.428" xlink:href="#m641b3e8c92" y="226.571292"/>
     <use style="fill:#0000ff;stroke:#1b9e77;" x="212.428" xlink:href="#m641b3e8c92" y="245.932141"/>
     <use style="fill:#0000ff;stroke:#1b9e77;" x="212.428" xlink:href="#m641b3e8c92" y="346.098957"/>
     <use style="fill:#0000ff;stroke:#1b9e77;" x="212.428" xlink:href="#m641b3e8c92" y="298.728917"/>
    </g>
   </g>
   <g id="line2d_45">
    <path clip-path="url(#p91e524b9e2)" d="M 251.329 521.513234 
L 277.263 521.513234 
L 277.263 440.53208 
L 251.329 440.53208 
L 251.329 521.513234 
" style="fill:none;stroke:#d95f02;stroke-linecap:round;"/>
   </g>
   <g id="line2d_46">
    <path clip-path="url(#p91e524b9e2)" d="M 264.296 521.513234 
L 264.296 545.778282 
" style="fill:none;stroke:#d95f02;stroke-linecap:round;"/>
   </g>
   <g id="line2d_47">
    <path clip-path="url(#p91e524b9e2)" d="M 264.296 440.53208 
L 264.296 362.061799 
" style="fill:none;stroke:#d95f02;stroke-linecap:round;"/>
   </g>
   <g id="line2d_48">
    <path clip-path="url(#p91e524b9e2)" d="M 257.8125 545.778282 
L 270.7795 545.778282 
" style="fill:none;stroke:#d95f02;stroke-linecap:round;"/>
   </g>
   <g id="line2d_49">
    <path clip-path="url(#p91e524b9e2)" d="M 257.8125 362.061799 
L 270.7795 362.061799 
" style="fill:none;stroke:#d95f02;stroke-linecap:round;"/>
   </g>
   <g id="line2d_50">
    <defs>
     <path d="M -3 0 
L 3 0 
M 0 3 
L 0 -3 
" id="m16c6795af3" style="stroke:#d95f02;"/>
    </defs>
    <g clip-path="url(#p91e524b9e2)">
     <use style="fill:#0000ff;stroke:#d95f02;" x="264.296" xlink:href="#m16c6795af3" y="268.45294"/>
     <use style="fill:#0000ff;stroke:#d95f02;" x="264.296" xlink:href="#m16c6795af3" y="276.258855"/>
    </g>
   </g>
   <g id="line2d_51">
    <path clip-path="url(#p91e524b9e2)" d="M 303.197 455.251998 
L 329.131 455.251998 
L 329.131 424.496135 
L 303.197 424.496135 
L 303.197 455.251998 
" style="fill:none;stroke:#7570b3;stroke-linecap:round;"/>
   </g>
   <g id="line2d_52">
    <path clip-path="url(#p91e524b9e2)" d="M 316.164 455.251998 
L 316.164 499.075498 
" style="fill:none;stroke:#7570b3;stroke-linecap:round;"/>
   </g>
   <g id="line2d_53">
    <path clip-path="url(#p91e524b9e2)" d="M 316.164 424.496135 
L 316.164 393.685041 
" style="fill:none;stroke:#7570b3;stroke-linecap:round;"/>
   </g>
   <g id="line2d_54">
    <path clip-path="url(#p91e524b9e2)" d="M 309.6805 499.075498 
L 322.6475 499.075498 
" style="fill:none;stroke:#7570b3;stroke-linecap:round;"/>
   </g>
   <g id="line2d_55">
    <path clip-path="url(#p91e524b9e2)" d="M 309.6805 393.685041 
L 322.6475 393.685041 
" style="fill:none;stroke:#7570b3;stroke-linecap:round;"/>
   </g>
   <g id="line2d_56">
    <defs>
     <path d="M -3 0 
L 3 0 
M 0 3 
L 0 -3 
" id="m98915c90a2" style="stroke:#7570b3;"/>
    </defs>
    <g clip-path="url(#p91e524b9e2)">
     <use style="fill:#0000ff;stroke:#7570b3;" x="316.164" xlink:href="#m98915c90a2" y="505.270571"/>
     <use style="fill:#0000ff;stroke:#7570b3;" x="316.164" xlink:href="#m98915c90a2" y="503.127502"/>
     <use style="fill:#0000ff;stroke:#7570b3;" x="316.164" xlink:href="#m98915c90a2" y="515.744082"/>
     <use style="fill:#0000ff;stroke:#7570b3;" x="316.164" xlink:href="#m98915c90a2" y="508.53176"/>
     <use style="fill:#0000ff;stroke:#7570b3;" x="316.164" xlink:href="#m98915c90a2" y="512.663668"/>
     <use style="fill:#0000ff;stroke:#7570b3;" x="316.164" xlink:href="#m98915c90a2" y="538.490709"/>
     <use style="fill:#0000ff;stroke:#7570b3;" x="316.164" xlink:href="#m98915c90a2" y="533.107912"/>
     <use style="fill:#0000ff;stroke:#7570b3;" x="316.164" xlink:href="#m98915c90a2" y="503.369555"/>
     <use style="fill:#0000ff;stroke:#7570b3;" x="316.164" xlink:href="#m98915c90a2" y="503.739465"/>
     <use style="fill:#0000ff;stroke:#7570b3;" x="316.164" xlink:href="#m98915c90a2" y="504.109375"/>
     <use style="fill:#0000ff;stroke:#7570b3;" x="316.164" xlink:href="#m98915c90a2" y="504.479285"/>
     <use style="fill:#0000ff;stroke:#7570b3;" x="316.164" xlink:href="#m98915c90a2" y="504.11719"/>
     <use style="fill:#0000ff;stroke:#7570b3;" x="316.164" xlink:href="#m98915c90a2" y="508.14198"/>
     <use style="fill:#0000ff;stroke:#7570b3;" x="316.164" xlink:href="#m98915c90a2" y="279.095502"/>
     <use style="fill:#0000ff;stroke:#7570b3;" x="316.164" xlink:href="#m98915c90a2" y="284.029735"/>
     <use style="fill:#0000ff;stroke:#7570b3;" x="316.164" xlink:href="#m98915c90a2" y="313.112543"/>
     <use style="fill:#0000ff;stroke:#7570b3;" x="316.164" xlink:href="#m98915c90a2" y="315.006781"/>
     <use style="fill:#0000ff;stroke:#7570b3;" x="316.164" xlink:href="#m98915c90a2" y="356.951352"/>
    </g>
   </g>
   <g id="line2d_57">
    <path clip-path="url(#p91e524b9e2)" d="M 355.065 533.329679 
L 380.999 533.329679 
L 380.999 488.507903 
L 355.065 488.507903 
L 355.065 533.329679 
" style="fill:none;stroke:#e7298a;stroke-linecap:round;"/>
   </g>
   <g id="line2d_58">
    <path clip-path="url(#p91e524b9e2)" d="M 368.032 533.329679 
L 368.032 545.655564 
" style="fill:none;stroke:#e7298a;stroke-linecap:round;"/>
   </g>
   <g id="line2d_59">
    <path clip-path="url(#p91e524b9e2)" d="M 368.032 488.507903 
L 368.032 422.771223 
" style="fill:none;stroke:#e7298a;stroke-linecap:round;"/>
   </g>
   <g id="line2d_60">
    <path clip-path="url(#p91e524b9e2)" d="M 361.5485 545.655564 
L 374.5155 545.655564 
" style="fill:none;stroke:#e7298a;stroke-linecap:round;"/>
   </g>
   <g id="line2d_61">
    <path clip-path="url(#p91e524b9e2)" d="M 361.5485 422.771223 
L 374.5155 422.771223 
" style="fill:none;stroke:#e7298a;stroke-linecap:round;"/>
   </g>
   <g id="line2d_62">
    <defs>
     <path d="M -3 0 
L 3 0 
M 0 3 
L 0 -3 
" id="m1bba09058a" style="stroke:#e7298a;"/>
    </defs>
    <g clip-path="url(#p91e524b9e2)">
     <use style="fill:#0000ff;stroke:#e7298a;" x="368.032" xlink:href="#m1bba09058a" y="254.268946"/>
     <use style="fill:#0000ff;stroke:#e7298a;" x="368.032" xlink:href="#m1bba09058a" y="143.681417"/>
     <use style="fill:#0000ff;stroke:#e7298a;" x="368.032" xlink:href="#m1bba09058a" y="127.273602"/>
     <use style="fill:#0000ff;stroke:#e7298a;" x="368.032" xlink:href="#m1bba09058a" y="112.398619"/>
     <use style="fill:#0000ff;stroke:#e7298a;" x="368.032" xlink:href="#m1bba09058a" y="78.886518"/>
     <use style="fill:#0000ff;stroke:#e7298a;" x="368.032" xlink:href="#m1bba09058a" y="192.324132"/>
     <use style="fill:#0000ff;stroke:#e7298a;" x="368.032" xlink:href="#m1bba09058a" y="243.871647"/>
     <use style="fill:#0000ff;stroke:#e7298a;" x="368.032" xlink:href="#m1bba09058a" y="304.067527"/>
     <use style="fill:#0000ff;stroke:#e7298a;" x="368.032" xlink:href="#m1bba09058a" y="363.044307"/>
     <use style="fill:#0000ff;stroke:#e7298a;" x="368.032" xlink:href="#m1bba09058a" y="382.238689"/>
     <use style="fill:#0000ff;stroke:#e7298a;" x="368.032" xlink:href="#m1bba09058a" y="369.224899"/>
     <use style="fill:#0000ff;stroke:#e7298a;" x="368.032" xlink:href="#m1bba09058a" y="358.096812"/>
     <use style="fill:#0000ff;stroke:#e7298a;" x="368.032" xlink:href="#m1bba09058a" y="360.123519"/>
     <use style="fill:#0000ff;stroke:#e7298a;" x="368.032" xlink:href="#m1bba09058a" y="362.150225"/>
     <use style="fill:#0000ff;stroke:#e7298a;" x="368.032" xlink:href="#m1bba09058a" y="381.695321"/>
     <use style="fill:#0000ff;stroke:#e7298a;" x="368.032" xlink:href="#m1bba09058a" y="418.611249"/>
     <use style="fill:#0000ff;stroke:#e7298a;" x="368.032" xlink:href="#m1bba09058a" y="410.453769"/>
     <use style="fill:#0000ff;stroke:#e7298a;" x="368.032" xlink:href="#m1bba09058a" y="369.532686"/>
     <use style="fill:#0000ff;stroke:#e7298a;" x="368.032" xlink:href="#m1bba09058a" y="340.895824"/>
     <use style="fill:#0000ff;stroke:#e7298a;" x="368.032" xlink:href="#m1bba09058a" y="320.17231"/>
     <use style="fill:#0000ff;stroke:#e7298a;" x="368.032" xlink:href="#m1bba09058a" y="296.853793"/>
     <use style="fill:#0000ff;stroke:#e7298a;" x="368.032" xlink:href="#m1bba09058a" y="202.409512"/>
    </g>
   </g>
   <g id="line2d_63">
    <path clip-path="url(#p91e524b9e2)" d="M 406.933 511.805246 
L 432.867 511.805246 
L 432.867 469.640999 
L 406.933 469.640999 
L 406.933 511.805246 
" style="fill:none;stroke:#66a61e;stroke-linecap:round;"/>
   </g>
   <g id="line2d_64">
    <path clip-path="url(#p91e524b9e2)" d="M 419.9 511.805246 
L 419.9 533.492896 
" style="fill:none;stroke:#66a61e;stroke-linecap:round;"/>
   </g>
   <g id="line2d_65">
    <path clip-path="url(#p91e524b9e2)" d="M 419.9 469.640999 
L 419.9 447.801142 
" style="fill:none;stroke:#66a61e;stroke-linecap:round;"/>
   </g>
   <g id="line2d_66">
    <path clip-path="url(#p91e524b9e2)" d="M 413.4165 533.492896 
L 426.3835 533.492896 
" style="fill:none;stroke:#66a61e;stroke-linecap:round;"/>
   </g>
   <g id="line2d_67">
    <path clip-path="url(#p91e524b9e2)" d="M 413.4165 447.801142 
L 426.3835 447.801142 
" style="fill:none;stroke:#66a61e;stroke-linecap:round;"/>
   </g>
   <g id="line2d_68"/>
   <g id="line2d_69">
    <path clip-path="url(#p91e524b9e2)" d="M 458.801 526.584107 
L 484.735 526.584107 
L 484.735 489.665887 
L 458.801 489.665887 
L 458.801 526.584107 
" style="fill:none;stroke:#e6ab02;stroke-linecap:round;"/>
   </g>
   <g id="line2d_70">
    <path clip-path="url(#p91e524b9e2)" d="M 471.768 526.584107 
L 471.768 540.757217 
" style="fill:none;stroke:#e6ab02;stroke-linecap:round;"/>
   </g>
   <g id="line2d_71">
    <path clip-path="url(#p91e524b9e2)" d="M 471.768 489.665887 
L 471.768 435.181014 
" style="fill:none;stroke:#e6ab02;stroke-linecap:round;"/>
   </g>
   <g id="line2d_72">
    <path clip-path="url(#p91e524b9e2)" d="M 465.2845 540.757217 
L 478.2515 540.757217 
" style="fill:none;stroke:#e6ab02;stroke-linecap:round;"/>
   </g>
   <g id="line2d_73">
    <path clip-path="url(#p91e524b9e2)" d="M 465.2845 435.181014 
L 478.2515 435.181014 
" style="fill:none;stroke:#e6ab02;stroke-linecap:round;"/>
   </g>
   <g id="line2d_74">
    <defs>
     <path d="M -3 0 
L 3 0 
M 0 3 
L 0 -3 
" id="m2b97005a11" style="stroke:#e6ab02;"/>
    </defs>
    <g clip-path="url(#p91e524b9e2)">
     <use style="fill:#0000ff;stroke:#e6ab02;" x="471.768" xlink:href="#m2b97005a11" y="243.190959"/>
     <use style="fill:#0000ff;stroke:#e6ab02;" x="471.768" xlink:href="#m2b97005a11" y="302.605653"/>
     <use style="fill:#0000ff;stroke:#e6ab02;" x="471.768" xlink:href="#m2b97005a11" y="336.316073"/>
     <use style="fill:#0000ff;stroke:#e6ab02;" x="471.768" xlink:href="#m2b97005a11" y="377.564797"/>
     <use style="fill:#0000ff;stroke:#e6ab02;" x="471.768" xlink:href="#m2b97005a11" y="433.338366"/>
     <use style="fill:#0000ff;stroke:#e6ab02;" x="471.768" xlink:href="#m2b97005a11" y="373.817039"/>
     <use style="fill:#0000ff;stroke:#e6ab02;" x="471.768" xlink:href="#m2b97005a11" y="402.249176"/>
     <use style="fill:#0000ff;stroke:#e6ab02;" x="471.768" xlink:href="#m2b97005a11" y="418.897265"/>
     <use style="fill:#0000ff;stroke:#e6ab02;" x="471.768" xlink:href="#m2b97005a11" y="380.27276"/>
     <use style="fill:#0000ff;stroke:#e6ab02;" x="471.768" xlink:href="#m2b97005a11" y="355.694852"/>
     <use style="fill:#0000ff;stroke:#e6ab02;" x="471.768" xlink:href="#m2b97005a11" y="315.870662"/>
     <use style="fill:#0000ff;stroke:#e6ab02;" x="471.768" xlink:href="#m2b97005a11" y="267.172612"/>
     <use style="fill:#0000ff;stroke:#e6ab02;" x="471.768" xlink:href="#m2b97005a11" y="219.33828"/>
    </g>
   </g>
   <g id="line2d_75">
    <path clip-path="url(#p91e524b9e2)" d="M 510.669 508.412878 
L 536.603 508.412878 
L 536.603 421.566524 
L 510.669 421.566524 
L 510.669 508.412878 
" style="fill:none;stroke:#a6761d;stroke-linecap:round;"/>
   </g>
   <g id="line2d_76">
    <path clip-path="url(#p91e524b9e2)" d="M 523.636 508.412878 
L 523.636 537.420996 
" style="fill:none;stroke:#a6761d;stroke-linecap:round;"/>
   </g>
   <g id="line2d_77">
    <path clip-path="url(#p91e524b9e2)" d="M 523.636 421.566524 
L 523.636 313.63039 
" style="fill:none;stroke:#a6761d;stroke-linecap:round;"/>
   </g>
   <g id="line2d_78">
    <path clip-path="url(#p91e524b9e2)" d="M 517.1525 537.420996 
L 530.1195 537.420996 
" style="fill:none;stroke:#a6761d;stroke-linecap:round;"/>
   </g>
   <g id="line2d_79">
    <path clip-path="url(#p91e524b9e2)" d="M 517.1525 313.63039 
L 530.1195 313.63039 
" style="fill:none;stroke:#a6761d;stroke-linecap:round;"/>
   </g>
   <g id="line2d_80"/>
   <g id="line2d_81">
    <path clip-path="url(#p91e524b9e2)" d="M 562.537 515.406694 
L 588.471 515.406694 
L 588.471 459.208508 
L 562.537 459.208508 
L 562.537 515.406694 
" style="fill:none;stroke:#666666;stroke-linecap:round;"/>
   </g>
   <g id="line2d_82">
    <path clip-path="url(#p91e524b9e2)" d="M 575.504 515.406694 
L 575.504 543.569305 
" style="fill:none;stroke:#666666;stroke-linecap:round;"/>
   </g>
   <g id="line2d_83">
    <path clip-path="url(#p91e524b9e2)" d="M 575.504 459.208508 
L 575.504 388.044408 
" style="fill:none;stroke:#666666;stroke-linecap:round;"/>
   </g>
   <g id="line2d_84">
    <path clip-path="url(#p91e524b9e2)" d="M 569.0205 543.569305 
L 581.9875 543.569305 
" style="fill:none;stroke:#666666;stroke-linecap:round;"/>
   </g>
   <g id="line2d_85">
    <path clip-path="url(#p91e524b9e2)" d="M 569.0205 388.044408 
L 581.9875 388.044408 
" style="fill:none;stroke:#666666;stroke-linecap:round;"/>
   </g>
   <g id="line2d_86">
    <defs>
     <path d="M -3 0 
L 3 0 
M 0 3 
L 0 -3 
" id="mea66f2600f" style="stroke:#666666;"/>
    </defs>
    <g clip-path="url(#p91e524b9e2)">
     <use style="fill:#0000ff;stroke:#666666;" x="575.504" xlink:href="#mea66f2600f" y="278.84217"/>
     <use style="fill:#0000ff;stroke:#666666;" x="575.504" xlink:href="#mea66f2600f" y="109.940546"/>
     <use style="fill:#0000ff;stroke:#666666;" x="575.504" xlink:href="#mea66f2600f" y="108.365649"/>
     <use style="fill:#0000ff;stroke:#666666;" x="575.504" xlink:href="#mea66f2600f" y="174.406891"/>
     <use style="fill:#0000ff;stroke:#666666;" x="575.504" xlink:href="#mea66f2600f" y="223.486561"/>
     <use style="fill:#0000ff;stroke:#666666;" x="575.504" xlink:href="#mea66f2600f" y="297.821919"/>
     <use style="fill:#0000ff;stroke:#666666;" x="575.504" xlink:href="#mea66f2600f" y="367.830627"/>
     <use style="fill:#0000ff;stroke:#666666;" x="575.504" xlink:href="#mea66f2600f" y="351.198405"/>
     <use style="fill:#0000ff;stroke:#666666;" x="575.504" xlink:href="#mea66f2600f" y="298.649976"/>
     <use style="fill:#0000ff;stroke:#666666;" x="575.504" xlink:href="#mea66f2600f" y="338.082382"/>
     <use style="fill:#0000ff;stroke:#666666;" x="575.504" xlink:href="#mea66f2600f" y="344.944038"/>
     <use style="fill:#0000ff;stroke:#666666;" x="575.504" xlink:href="#mea66f2600f" y="362.866267"/>
     <use style="fill:#0000ff;stroke:#666666;" x="575.504" xlink:href="#mea66f2600f" y="323.032995"/>
    </g>
   </g>
   <g id="line2d_87">
    <path clip-path="url(#p91e524b9e2)" d="M 627.372 550.4472 
L 627.372 74.2176 
" style="fill:none;stroke:#000000;stroke-dasharray:0.5,0.825;stroke-dashoffset:0;stroke-width:0.5;"/>
   </g>
   <g id="line2d_88">
    <path clip-path="url(#p91e524b9e2)" d="M 199.461 459.609035 
L 225.395 459.609035 
" style="fill:none;stroke:#ff7f0e;stroke-linecap:round;"/>
   </g>
   <g id="line2d_89">
    <path clip-path="url(#p91e524b9e2)" d="M 251.329 489.179542 
L 277.263 489.179542 
" style="fill:none;stroke:#ff7f0e;stroke-linecap:round;"/>
   </g>
   <g id="line2d_90">
    <path clip-path="url(#p91e524b9e2)" d="M 303.197 439.863417 
L 329.131 439.863417 
" style="fill:none;stroke:#ff7f0e;stroke-linecap:round;"/>
   </g>
   <g id="line2d_91">
    <path clip-path="url(#p91e524b9e2)" d="M 355.065 519.059696 
L 380.999 519.059696 
" style="fill:none;stroke:#ff7f0e;stroke-linecap:round;"/>
   </g>
   <g id="line2d_92">
    <path clip-path="url(#p91e524b9e2)" d="M 406.933 486.142377 
L 432.867 486.142377 
" style="fill:none;stroke:#ff7f0e;stroke-linecap:round;"/>
   </g>
   <g id="line2d_93">
    <path clip-path="url(#p91e524b9e2)" d="M 458.801 511.536329 
L 484.735 511.536329 
" style="fill:none;stroke:#ff7f0e;stroke-linecap:round;"/>
   </g>
   <g id="line2d_94">
    <path clip-path="url(#p91e524b9e2)" d="M 510.669 466.738843 
L 536.603 466.738843 
" style="fill:none;stroke:#ff7f0e;stroke-linecap:round;"/>
   </g>
   <g id="line2d_95">
    <path clip-path="url(#p91e524b9e2)" d="M 562.537 480.522817 
L 588.471 480.522817 
" style="fill:none;stroke:#ff7f0e;stroke-linecap:round;"/>
   </g>
   <g id="patch_3">
    <path d="M 160.56 550.4472 
L 160.56 74.2176 
" style="fill:none;"/>
   </g>
   <g id="patch_4">
    <path d="M 1094.184 550.4472 
L 1094.184 74.2176 
" style="fill:none;"/>
   </g>
   <g id="patch_5">
    <path d="M 160.56 550.4472 
L 1094.184 550.4472 
" style="fill:none;"/>
   </g>
   <g id="patch_6">
    <path d="M 160.56 74.2176 
L 1094.184 74.2176 
" style="fill:none;"/>
   </g>
   <g id="text_23">
    <!-- Upload -->
    <g transform="translate(376.445688 69.455304)scale(0.1 -0.1)">
     <defs>
      <path d="M 8.6875 72.90625 
L 18.609375 72.90625 
L 18.609375 28.609375 
Q 18.609375 16.890625 22.84375 11.734375 
Q 27.09375 6.59375 36.625 6.59375 
Q 46.09375 6.59375 50.34375 11.734375 
Q 54.59375 16.890625 54.59375 28.609375 
L 54.59375 72.90625 
L 64.5 72.90625 
L 64.5 27.390625 
Q 64.5 13.140625 57.4375 5.859375 
Q 50.390625 -1.421875 36.625 -1.421875 
Q 22.796875 -1.421875 15.734375 5.859375 
Q 8.6875 13.140625 8.6875 27.390625 
z
" id="DejaVuSans-85"/>
      <path d="M 18.109375 8.203125 
L 18.109375 -20.796875 
L 9.078125 -20.796875 
L 9.078125 54.6875 
L 18.109375 54.6875 
L 18.109375 46.390625 
Q 20.953125 51.265625 25.265625 53.625 
Q 29.59375 56 35.59375 56 
Q 45.5625 56 51.78125 48.09375 
Q 58.015625 40.1875 58.015625 27.296875 
Q 58.015625 14.40625 51.78125 6.484375 
Q 45.5625 -1.421875 35.59375 -1.421875 
Q 29.59375 -1.421875 25.265625 0.953125 
Q 20.953125 3.328125 18.109375 8.203125 
z
M 48.6875 27.296875 
Q 48.6875 37.203125 44.609375 42.84375 
Q 40.53125 48.484375 33.40625 48.484375 
Q 26.265625 48.484375 22.1875 42.84375 
Q 18.109375 37.203125 18.109375 27.296875 
Q 18.109375 17.390625 22.1875 11.75 
Q 26.265625 6.109375 33.40625 6.109375 
Q 40.53125 6.109375 44.609375 11.75 
Q 48.6875 17.390625 48.6875 27.296875 
z
" id="DejaVuSans-112"/>
      <path d="M 9.421875 75.984375 
L 18.40625 75.984375 
L 18.40625 0 
L 9.421875 0 
z
" id="DejaVuSans-108"/>
     </defs>
     <use xlink:href="#DejaVuSans-85"/>
     <use x="73.193359" xlink:href="#DejaVuSans-112"/>
     <use x="136.669922" xlink:href="#DejaVuSans-108"/>
     <use x="164.453125" xlink:href="#DejaVuSans-111"/>
     <use x="225.634766" xlink:href="#DejaVuSans-97"/>
     <use x="286.914062" xlink:href="#DejaVuSans-100"/>
    </g>
   </g>
   <g id="text_24">
    <!-- Ping (ms) -->
    <g transform="translate(837.178 69.455304)scale(0.1 -0.1)">
     <defs>
      <path id="DejaVuSans-32"/>
      <path d="M 31 75.875 
Q 24.46875 64.65625 21.28125 53.65625 
Q 18.109375 42.671875 18.109375 31.390625 
Q 18.109375 20.125 21.3125 9.0625 
Q 24.515625 -2 31 -13.1875 
L 23.1875 -13.1875 
Q 15.875 -1.703125 12.234375 9.375 
Q 8.59375 20.453125 8.59375 31.390625 
Q 8.59375 42.28125 12.203125 53.3125 
Q 15.828125 64.359375 23.1875 75.875 
z
" id="DejaVuSans-40"/>
      <path d="M 52 44.1875 
Q 55.375 50.25 60.0625 53.125 
Q 64.75 56 71.09375 56 
Q 79.640625 56 84.28125 50.015625 
Q 88.921875 44.046875 88.921875 33.015625 
L 88.921875 0 
L 79.890625 0 
L 79.890625 32.71875 
Q 79.890625 40.578125 77.09375 44.375 
Q 74.3125 48.1875 68.609375 48.1875 
Q 61.625 48.1875 57.5625 43.546875 
Q 53.515625 38.921875 53.515625 30.90625 
L 53.515625 0 
L 44.484375 0 
L 44.484375 32.71875 
Q 44.484375 40.625 41.703125 44.40625 
Q 38.921875 48.1875 33.109375 48.1875 
Q 26.21875 48.1875 22.15625 43.53125 
Q 18.109375 38.875 18.109375 30.90625 
L 18.109375 0 
L 9.078125 0 
L 9.078125 54.6875 
L 18.109375 54.6875 
L 18.109375 46.1875 
Q 21.1875 51.21875 25.484375 53.609375 
Q 29.78125 56 35.6875 56 
Q 41.65625 56 45.828125 52.96875 
Q 50 49.953125 52 44.1875 
z
" id="DejaVuSans-109"/>
      <path d="M 8.015625 75.875 
L 15.828125 75.875 
Q 23.140625 64.359375 26.78125 53.3125 
Q 30.421875 42.28125 30.421875 31.390625 
Q 30.421875 20.453125 26.78125 9.375 
Q 23.140625 -1.703125 15.828125 -13.1875 
L 8.015625 -13.1875 
Q 14.5 -2 17.703125 9.0625 
Q 20.90625 20.125 20.90625 31.390625 
Q 20.90625 42.671875 17.703125 53.65625 
Q 14.5 64.65625 8.015625 75.875 
z
" id="DejaVuSans-41"/>
     </defs>
     <use xlink:href="#DejaVuSans-80"/>
     <use x="58.052734" xlink:href="#DejaVuSans-105"/>
     <use x="85.835938" xlink:href="#DejaVuSans-110"/>
     <use x="149.214844" xlink:href="#DejaVuSans-103"/>
     <use x="212.691406" xlink:href="#DejaVuSans-32"/>
     <use x="244.478516" xlink:href="#DejaVuSans-40"/>
     <use x="283.492188" xlink:href="#DejaVuSans-109"/>
     <use x="380.904297" xlink:href="#DejaVuSans-115"/>
     <use x="433.003906" xlink:href="#DejaVuSans-41"/>
    </g>
   </g>
   <g id="legend_1">
    <g id="line2d_96">
     <path d="M 1200.21464 80.963598 
L 1216.87464 80.963598 
" style="fill:none;stroke:#1b9e77;stroke-linecap:round;"/>
    </g>
    <g id="line2d_97"/>
    <g id="text_25">
     <!-- BBR-v3 -->
     <g transform="translate(1223.53864 83.879098)scale(0.0833 -0.0833)">
      <use xlink:href="#DejaVuSans-66"/>
      <use x="68.603516" xlink:href="#DejaVuSans-66"/>
      <use x="137.207031" xlink:href="#DejaVuSans-82"/>
      <use x="202.689453" xlink:href="#DejaVuSans-45"/>
      <use x="236.148438" xlink:href="#DejaVuSans-118"/>
      <use x="295.328125" xlink:href="#DejaVuSans-51"/>
     </g>
    </g>
    <g id="line2d_98">
     <path d="M 1200.21464 93.190477 
L 1216.87464 93.190477 
" style="fill:none;stroke:#d95f02;stroke-linecap:round;"/>
    </g>
    <g id="line2d_99"/>
    <g id="text_26">
     <!-- Yeah -->
     <g transform="translate(1223.53864 96.105977)scale(0.0833 -0.0833)">
      <use xlink:href="#DejaVuSans-89"/>
      <use x="47.833984" xlink:href="#DejaVuSans-101"/>
      <use x="109.357422" xlink:href="#DejaVuSans-97"/>
      <use x="170.636719" xlink:href="#DejaVuSans-104"/>
     </g>
    </g>
    <g id="line2d_100">
     <path d="M 1200.21464 105.417355 
L 1216.87464 105.417355 
" style="fill:none;stroke:#7570b3;stroke-linecap:round;"/>
    </g>
    <g id="line2d_101"/>
    <g id="text_27">
     <!-- Nevada -->
     <g transform="translate(1223.53864 108.332855)scale(0.0833 -0.0833)">
      <use xlink:href="#DejaVuSans-78"/>
      <use x="74.804688" xlink:href="#DejaVuSans-101"/>
      <use x="136.328125" xlink:href="#DejaVuSans-118"/>
      <use x="195.507812" xlink:href="#DejaVuSans-97"/>
      <use x="256.787109" xlink:href="#DejaVuSans-100"/>
      <use x="320.263672" xlink:href="#DejaVuSans-97"/>
     </g>
    </g>
    <g id="line2d_102">
     <path d="M 1200.21464 117.644233 
L 1216.87464 117.644233 
" style="fill:none;stroke:#e7298a;stroke-linecap:round;"/>
    </g>
    <g id="line2d_103"/>
    <g id="text_28">
     <!-- Veno -->
     <g transform="translate(1223.53864 120.559733)scale(0.0833 -0.0833)">
      <use xlink:href="#DejaVuSans-86"/>
      <use x="60.658203" xlink:href="#DejaVuSans-101"/>
      <use x="122.181641" xlink:href="#DejaVuSans-110"/>
      <use x="185.560547" xlink:href="#DejaVuSans-111"/>
     </g>
    </g>
    <g id="line2d_104">
     <path d="M 1200.21464 129.871111 
L 1216.87464 129.871111 
" style="fill:none;stroke:#66a61e;stroke-linecap:round;"/>
    </g>
    <g id="line2d_105"/>
    <g id="text_29">
     <!-- Vegas -->
     <g transform="translate(1223.53864 132.786611)scale(0.0833 -0.0833)">
      <use xlink:href="#DejaVuSans-86"/>
      <use x="60.658203" xlink:href="#DejaVuSans-101"/>
      <use x="122.181641" xlink:href="#DejaVuSans-103"/>
      <use x="185.658203" xlink:href="#DejaVuSans-97"/>
      <use x="246.9375" xlink:href="#DejaVuSans-115"/>
     </g>
    </g>
    <g id="line2d_106">
     <path d="M 1200.21464 142.097989 
L 1216.87464 142.097989 
" style="fill:none;stroke:#e6ab02;stroke-linecap:round;"/>
    </g>
    <g id="line2d_107"/>
    <g id="text_30">
     <!-- DCTCP -->
     <g transform="translate(1223.53864 145.013489)scale(0.0833 -0.0833)">
      <use xlink:href="#DejaVuSans-68"/>
      <use x="77.001953" xlink:href="#DejaVuSans-67"/>
      <use x="146.826172" xlink:href="#DejaVuSans-84"/>
      <use x="202.035156" xlink:href="#DejaVuSans-67"/>
      <use x="271.859375" xlink:href="#DejaVuSans-80"/>
     </g>
    </g>
    <g id="line2d_108">
     <path d="M 1200.21464 154.324867 
L 1216.87464 154.324867 
" style="fill:none;stroke:#a6761d;stroke-linecap:round;"/>
    </g>
    <g id="line2d_109"/>
    <g id="text_31">
     <!-- Cubic -->
     <g transform="translate(1223.53864 157.240367)scale(0.0833 -0.0833)">
      <use xlink:href="#DejaVuSans-67"/>
      <use x="69.824219" xlink:href="#DejaVuSans-117"/>
      <use x="133.203125" xlink:href="#DejaVuSans-98"/>
      <use x="196.679688" xlink:href="#DejaVuSans-105"/>
      <use x="224.462891" xlink:href="#DejaVuSans-99"/>
     </g>
    </g>
    <g id="line2d_110">
     <path d="M 1200.21464 166.551745 
L 1216.87464 166.551745 
" style="fill:none;stroke:#666666;stroke-linecap:round;"/>
    </g>
    <g id="line2d_111"/>
    <g id="text_32">
     <!-- Reno -->
     <g transform="translate(1223.53864 169.467245)scale(0.0833 -0.0833)">
      <use xlink:href="#DejaVuSans-82"/>
      <use x="64.982422" xlink:href="#DejaVuSans-101"/>
      <use x="126.505859" xlink:href="#DejaVuSans-110"/>
      <use x="189.884766" xlink:href="#DejaVuSans-111"/>
     </g>
    </g>
   </g>
  </g>
  <g id="axes_2">
   <g id="matplotlib.axis_3">
    <g id="ytick_23">
     <g id="line2d_112"/>
     <g id="text_33">
      <!-- 0 -->
      <g transform="translate(1097.684 549.800094)scale(0.1 -0.1)">
       <use xlink:href="#DejaVuSans-48"/>
      </g>
     </g>
    </g>
    <g id="ytick_24">
     <g id="line2d_113"/>
     <g id="text_34">
      <!-- 2000 -->
      <g transform="translate(1097.684 455.079551)scale(0.1 -0.1)">
       <use xlink:href="#DejaVuSans-50"/>
       <use x="63.623047" xlink:href="#DejaVuSans-48"/>
       <use x="127.246094" xlink:href="#DejaVuSans-48"/>
       <use x="190.869141" xlink:href="#DejaVuSans-48"/>
      </g>
     </g>
    </g>
    <g id="ytick_25">
     <g id="line2d_114"/>
     <g id="text_35">
      <!-- 4000 -->
      <g transform="translate(1097.684 360.359008)scale(0.1 -0.1)">
       <use xlink:href="#DejaVuSans-52"/>
       <use x="63.623047" xlink:href="#DejaVuSans-48"/>
       <use x="127.246094" xlink:href="#DejaVuSans-48"/>
       <use x="190.869141" xlink:href="#DejaVuSans-48"/>
      </g>
     </g>
    </g>
    <g id="ytick_26">
     <g id="line2d_115"/>
     <g id="text_36">
      <!-- 6000 -->
      <g transform="translate(1097.684 265.638465)scale(0.1 -0.1)">
       <use xlink:href="#DejaVuSans-54"/>
       <use x="63.623047" xlink:href="#DejaVuSans-48"/>
       <use x="127.246094" xlink:href="#DejaVuSans-48"/>
       <use x="190.869141" xlink:href="#DejaVuSans-48"/>
      </g>
     </g>
    </g>
    <g id="ytick_27">
     <g id="line2d_116"/>
     <g id="text_37">
      <!-- 8000 -->
      <g transform="translate(1097.684 170.917922)scale(0.1 -0.1)">
       <use xlink:href="#DejaVuSans-56"/>
       <use x="63.623047" xlink:href="#DejaVuSans-48"/>
       <use x="127.246094" xlink:href="#DejaVuSans-48"/>
       <use x="190.869141" xlink:href="#DejaVuSans-48"/>
      </g>
     </g>
    </g>
    <g id="ytick_28">
     <g id="line2d_117"/>
    </g>
    <g id="ytick_29">
     <g id="line2d_118"/>
    </g>
    <g id="ytick_30">
     <g id="line2d_119"/>
    </g>
    <g id="ytick_31">
     <g id="line2d_120"/>
    </g>
    <g id="ytick_32">
     <g id="line2d_121"/>
    </g>
    <g id="ytick_33">
     <g id="line2d_122"/>
    </g>
    <g id="ytick_34">
     <g id="line2d_123"/>
    </g>
    <g id="ytick_35">
     <g id="line2d_124"/>
    </g>
    <g id="ytick_36">
     <g id="line2d_125"/>
    </g>
    <g id="ytick_37">
     <g id="line2d_126"/>
    </g>
    <g id="ytick_38">
     <g id="line2d_127"/>
    </g>
    <g id="ytick_39">
     <g id="line2d_128"/>
    </g>
    <g id="ytick_40">
     <g id="line2d_129"/>
    </g>
    <g id="ytick_41">
     <g id="line2d_130"/>
    </g>
    <g id="ytick_42">
     <g id="line2d_131"/>
    </g>
    <g id="text_38">
     <!-- ms -->
     <g transform="translate(1134.732438 319.8074)rotate(-90)scale(0.1 -0.1)">
      <use xlink:href="#DejaVuSans-109"/>
      <use x="97.412109" xlink:href="#DejaVuSans-115"/>
     </g>
    </g>
   </g>
   <g id="line2d_132">
    <path clip-path="url(#p91e524b9e2)" d="M 666.273 542.122069 
L 692.207 542.122069 
L 692.207 537.618108 
L 666.273 537.618108 
L 666.273 542.122069 
" style="fill:none;stroke:#1b9e77;stroke-linecap:round;"/>
   </g>
   <g id="line2d_133">
    <path clip-path="url(#p91e524b9e2)" d="M 679.24 542.122069 
L 679.24 545.70298 
" style="fill:none;stroke:#1b9e77;stroke-linecap:round;"/>
   </g>
   <g id="line2d_134">
    <path clip-path="url(#p91e524b9e2)" d="M 679.24 537.618108 
L 679.24 531.224471 
" style="fill:none;stroke:#1b9e77;stroke-linecap:round;"/>
   </g>
   <g id="line2d_135">
    <path clip-path="url(#p91e524b9e2)" d="M 672.7565 545.70298 
L 685.7235 545.70298 
" style="fill:none;stroke:#1b9e77;stroke-linecap:round;"/>
   </g>
   <g id="line2d_136">
    <path clip-path="url(#p91e524b9e2)" d="M 672.7565 531.224471 
L 685.7235 531.224471 
" style="fill:none;stroke:#1b9e77;stroke-linecap:round;"/>
   </g>
   <g id="line2d_137">
    <g clip-path="url(#p91e524b9e2)">
     <use style="fill:#0000ff;stroke:#1b9e77;" x="679.24" xlink:href="#m641b3e8c92" y="529.614222"/>
     <use style="fill:#0000ff;stroke:#1b9e77;" x="679.24" xlink:href="#m641b3e8c92" y="516.116544"/>
     <use style="fill:#0000ff;stroke:#1b9e77;" x="679.24" xlink:href="#m641b3e8c92" y="522.983784"/>
     <use style="fill:#0000ff;stroke:#1b9e77;" x="679.24" xlink:href="#m641b3e8c92" y="506.59713"/>
     <use style="fill:#0000ff;stroke:#1b9e77;" x="679.24" xlink:href="#m641b3e8c92" y="516.069184"/>
     <use style="fill:#0000ff;stroke:#1b9e77;" x="679.24" xlink:href="#m641b3e8c92" y="525.493878"/>
     <use style="fill:#0000ff;stroke:#1b9e77;" x="679.24" xlink:href="#m641b3e8c92" y="518.342477"/>
     <use style="fill:#0000ff;stroke:#1b9e77;" x="679.24" xlink:href="#m641b3e8c92" y="382.229057"/>
     <use style="fill:#0000ff;stroke:#1b9e77;" x="679.24" xlink:href="#m641b3e8c92" y="389.8067"/>
     <use style="fill:#0000ff;stroke:#1b9e77;" x="679.24" xlink:href="#m641b3e8c92" y="393.027199"/>
     <use style="fill:#0000ff;stroke:#1b9e77;" x="679.24" xlink:href="#m641b3e8c92" y="402.499253"/>
     <use style="fill:#0000ff;stroke:#1b9e77;" x="679.24" xlink:href="#m641b3e8c92" y="411.639785"/>
     <use style="fill:#0000ff;stroke:#1b9e77;" x="679.24" xlink:href="#m641b3e8c92" y="421.11184"/>
     <use style="fill:#0000ff;stroke:#1b9e77;" x="679.24" xlink:href="#m641b3e8c92" y="430.583894"/>
     <use style="fill:#0000ff;stroke:#1b9e77;" x="679.24" xlink:href="#m641b3e8c92" y="440.055948"/>
     <use style="fill:#0000ff;stroke:#1b9e77;" x="679.24" xlink:href="#m641b3e8c92" y="449.528003"/>
     <use style="fill:#0000ff;stroke:#1b9e77;" x="679.24" xlink:href="#m641b3e8c92" y="459.047417"/>
     <use style="fill:#0000ff;stroke:#1b9e77;" x="679.24" xlink:href="#m641b3e8c92" y="468.519471"/>
     <use style="fill:#0000ff;stroke:#1b9e77;" x="679.24" xlink:href="#m641b3e8c92" y="477.991526"/>
     <use style="fill:#0000ff;stroke:#1b9e77;" x="679.24" xlink:href="#m641b3e8c92" y="487.41622"/>
     <use style="fill:#0000ff;stroke:#1b9e77;" x="679.24" xlink:href="#m641b3e8c92" y="497.077715"/>
     <use style="fill:#0000ff;stroke:#1b9e77;" x="679.24" xlink:href="#m641b3e8c92" y="506.360328"/>
     <use style="fill:#0000ff;stroke:#1b9e77;" x="679.24" xlink:href="#m641b3e8c92" y="515.785022"/>
     <use style="fill:#0000ff;stroke:#1b9e77;" x="679.24" xlink:href="#m641b3e8c92" y="525.304437"/>
     <use style="fill:#0000ff;stroke:#1b9e77;" x="679.24" xlink:href="#m641b3e8c92" y="525.351797"/>
     <use style="fill:#0000ff;stroke:#1b9e77;" x="679.24" xlink:href="#m641b3e8c92" y="530.419346"/>
     <use style="fill:#0000ff;stroke:#1b9e77;" x="679.24" xlink:href="#m641b3e8c92" y="522.27338"/>
     <use style="fill:#0000ff;stroke:#1b9e77;" x="679.24" xlink:href="#m641b3e8c92" y="530.040464"/>
    </g>
   </g>
   <g id="line2d_138">
    <path clip-path="url(#p91e524b9e2)" d="M 718.141 536.23282 
L 744.075 536.23282 
L 744.075 523.658668 
L 718.141 523.658668 
L 718.141 536.23282 
" style="fill:none;stroke:#d95f02;stroke-linecap:round;"/>
   </g>
   <g id="line2d_139">
    <path clip-path="url(#p91e524b9e2)" d="M 731.108 536.23282 
L 731.108 543.594974 
" style="fill:none;stroke:#d95f02;stroke-linecap:round;"/>
   </g>
   <g id="line2d_140">
    <path clip-path="url(#p91e524b9e2)" d="M 731.108 523.658668 
L 731.108 505.413123 
" style="fill:none;stroke:#d95f02;stroke-linecap:round;"/>
   </g>
   <g id="line2d_141">
    <path clip-path="url(#p91e524b9e2)" d="M 724.6245 543.594974 
L 737.5915 543.594974 
" style="fill:none;stroke:#d95f02;stroke-linecap:round;"/>
   </g>
   <g id="line2d_142">
    <path clip-path="url(#p91e524b9e2)" d="M 724.6245 505.413123 
L 737.5915 505.413123 
" style="fill:none;stroke:#d95f02;stroke-linecap:round;"/>
   </g>
   <g id="line2d_143">
    <g clip-path="url(#p91e524b9e2)">
     <use style="fill:#0000ff;stroke:#d95f02;" x="731.108" xlink:href="#m16c6795af3" y="494.851782"/>
     <use style="fill:#0000ff;stroke:#d95f02;" x="731.108" xlink:href="#m16c6795af3" y="486.374294"/>
     <use style="fill:#0000ff;stroke:#d95f02;" x="731.108" xlink:href="#m16c6795af3" y="491.489203"/>
     <use style="fill:#0000ff;stroke:#d95f02;" x="731.108" xlink:href="#m16c6795af3" y="499.208927"/>
     <use style="fill:#0000ff;stroke:#d95f02;" x="731.108" xlink:href="#m16c6795af3" y="502.050544"/>
     <use style="fill:#0000ff;stroke:#d95f02;" x="731.108" xlink:href="#m16c6795af3" y="500.203493"/>
     <use style="fill:#0000ff;stroke:#d95f02;" x="731.108" xlink:href="#m16c6795af3" y="504.655359"/>
     <use style="fill:#0000ff;stroke:#d95f02;" x="731.108" xlink:href="#m16c6795af3" y="499.066847"/>
     <use style="fill:#0000ff;stroke:#d95f02;" x="731.108" xlink:href="#m16c6795af3" y="502.950389"/>
     <use style="fill:#0000ff;stroke:#d95f02;" x="731.108" xlink:href="#m16c6795af3" y="496.698833"/>
     <use style="fill:#0000ff;stroke:#d95f02;" x="731.108" xlink:href="#m16c6795af3" y="502.760948"/>
     <use style="fill:#0000ff;stroke:#d95f02;" x="731.108" xlink:href="#m16c6795af3" y="502.855668"/>
     <use style="fill:#0000ff;stroke:#d95f02;" x="731.108" xlink:href="#m16c6795af3" y="495.656907"/>
     <use style="fill:#0000ff;stroke:#d95f02;" x="731.108" xlink:href="#m16c6795af3" y="498.167001"/>
    </g>
   </g>
   <g id="line2d_144">
    <path clip-path="url(#p91e524b9e2)" d="M 770.009 543.772575 
L 795.943 543.772575 
L 795.943 541.480338 
L 770.009 541.480338 
L 770.009 543.772575 
" style="fill:none;stroke:#7570b3;stroke-linecap:round;"/>
   </g>
   <g id="line2d_145">
    <path clip-path="url(#p91e524b9e2)" d="M 782.976 543.772575 
L 782.976 545.581264 
" style="fill:none;stroke:#7570b3;stroke-linecap:round;"/>
   </g>
   <g id="line2d_146">
    <path clip-path="url(#p91e524b9e2)" d="M 782.976 541.480338 
L 782.976 538.328512 
" style="fill:none;stroke:#7570b3;stroke-linecap:round;"/>
   </g>
   <g id="line2d_147">
    <path clip-path="url(#p91e524b9e2)" d="M 776.4925 545.581264 
L 789.4595 545.581264 
" style="fill:none;stroke:#7570b3;stroke-linecap:round;"/>
   </g>
   <g id="line2d_148">
    <path clip-path="url(#p91e524b9e2)" d="M 776.4925 538.328512 
L 789.4595 538.328512 
" style="fill:none;stroke:#7570b3;stroke-linecap:round;"/>
   </g>
   <g id="line2d_149">
    <g clip-path="url(#p91e524b9e2)">
     <use style="fill:#0000ff;stroke:#7570b3;" x="782.976" xlink:href="#m98915c90a2" y="533.497764"/>
     <use style="fill:#0000ff;stroke:#7570b3;" x="782.976" xlink:href="#m98915c90a2" y="531.698074"/>
     <use style="fill:#0000ff;stroke:#7570b3;" x="782.976" xlink:href="#m98915c90a2" y="531.366552"/>
     <use style="fill:#0000ff;stroke:#7570b3;" x="782.976" xlink:href="#m98915c90a2" y="527.57773"/>
     <use style="fill:#0000ff;stroke:#7570b3;" x="782.976" xlink:href="#m98915c90a2" y="535.960498"/>
     <use style="fill:#0000ff;stroke:#7570b3;" x="782.976" xlink:href="#m98915c90a2" y="537.523387"/>
     <use style="fill:#0000ff;stroke:#7570b3;" x="782.976" xlink:href="#m98915c90a2" y="537.949629"/>
     <use style="fill:#0000ff;stroke:#7570b3;" x="782.976" xlink:href="#m98915c90a2" y="528.288134"/>
     <use style="fill:#0000ff;stroke:#7570b3;" x="782.976" xlink:href="#m98915c90a2" y="536.24466"/>
     <use style="fill:#0000ff;stroke:#7570b3;" x="782.976" xlink:href="#m98915c90a2" y="525.399158"/>
     <use style="fill:#0000ff;stroke:#7570b3;" x="782.976" xlink:href="#m98915c90a2" y="534.918572"/>
     <use style="fill:#0000ff;stroke:#7570b3;" x="782.976" xlink:href="#m98915c90a2" y="533.497764"/>
     <use style="fill:#0000ff;stroke:#7570b3;" x="782.976" xlink:href="#m98915c90a2" y="528.667016"/>
     <use style="fill:#0000ff;stroke:#7570b3;" x="782.976" xlink:href="#m98915c90a2" y="534.397609"/>
     <use style="fill:#0000ff;stroke:#7570b3;" x="782.976" xlink:href="#m98915c90a2" y="526.346363"/>
     <use style="fill:#0000ff;stroke:#7570b3;" x="782.976" xlink:href="#m98915c90a2" y="533.639845"/>
     <use style="fill:#0000ff;stroke:#7570b3;" x="782.976" xlink:href="#m98915c90a2" y="536.24466"/>
    </g>
   </g>
   <g id="line2d_150">
    <path clip-path="url(#p91e524b9e2)" d="M 821.877 289.343724 
L 847.811 289.343724 
L 847.811 172.861136 
L 821.877 172.861136 
L 821.877 289.343724 
" style="fill:none;stroke:#e7298a;stroke-linecap:round;"/>
   </g>
   <g id="line2d_151">
    <path clip-path="url(#p91e524b9e2)" d="M 834.844 289.343724 
L 834.844 463.736084 
" style="fill:none;stroke:#e7298a;stroke-linecap:round;"/>
   </g>
   <g id="line2d_152">
    <path clip-path="url(#p91e524b9e2)" d="M 834.844 172.861136 
L 834.844 78.886518 
" style="fill:none;stroke:#e7298a;stroke-linecap:round;"/>
   </g>
   <g id="line2d_153">
    <path clip-path="url(#p91e524b9e2)" d="M 828.3605 463.736084 
L 841.3275 463.736084 
" style="fill:none;stroke:#e7298a;stroke-linecap:round;"/>
   </g>
   <g id="line2d_154">
    <path clip-path="url(#p91e524b9e2)" d="M 828.3605 78.886518 
L 841.3275 78.886518 
" style="fill:none;stroke:#e7298a;stroke-linecap:round;"/>
   </g>
   <g id="line2d_155">
    <g clip-path="url(#p91e524b9e2)">
     <use style="fill:#0000ff;stroke:#e7298a;" x="834.844" xlink:href="#m1bba09058a" y="545.257319"/>
     <use style="fill:#0000ff;stroke:#e7298a;" x="834.844" xlink:href="#m1bba09058a" y="540.222923"/>
     <use style="fill:#0000ff;stroke:#e7298a;" x="834.844" xlink:href="#m1bba09058a" y="542.31151"/>
     <use style="fill:#0000ff;stroke:#e7298a;" x="834.844" xlink:href="#m1bba09058a" y="531.698074"/>
     <use style="fill:#0000ff;stroke:#e7298a;" x="834.844" xlink:href="#m1bba09058a" y="532.361117"/>
     <use style="fill:#0000ff;stroke:#e7298a;" x="834.844" xlink:href="#m1bba09058a" y="491.347122"/>
     <use style="fill:#0000ff;stroke:#e7298a;" x="834.844" xlink:href="#m1bba09058a" y="480.312179"/>
     <use style="fill:#0000ff;stroke:#e7298a;" x="834.844" xlink:href="#m1bba09058a" y="476.428637"/>
     <use style="fill:#0000ff;stroke:#e7298a;" x="834.844" xlink:href="#m1bba09058a" y="477.991526"/>
     <use style="fill:#0000ff;stroke:#e7298a;" x="834.844" xlink:href="#m1bba09058a" y="469.798199"/>
     <use style="fill:#0000ff;stroke:#e7298a;" x="834.844" xlink:href="#m1bba09058a" y="467.335465"/>
     <use style="fill:#0000ff;stroke:#e7298a;" x="834.844" xlink:href="#m1bba09058a" y="465.441054"/>
     <use style="fill:#0000ff;stroke:#e7298a;" x="834.844" xlink:href="#m1bba09058a" y="465.346333"/>
    </g>
   </g>
   <g id="line2d_156">
    <path clip-path="url(#p91e524b9e2)" d="M 873.745 545.257319 
L 899.679 545.257319 
L 899.679 543.791519 
L 873.745 543.791519 
L 873.745 545.257319 
" style="fill:none;stroke:#66a61e;stroke-linecap:round;"/>
   </g>
   <g id="line2d_157">
    <path clip-path="url(#p91e524b9e2)" d="M 886.712 545.257319 
L 886.712 545.778282 
" style="fill:none;stroke:#66a61e;stroke-linecap:round;"/>
   </g>
   <g id="line2d_158">
    <path clip-path="url(#p91e524b9e2)" d="M 886.712 543.791519 
L 886.712 541.605842 
" style="fill:none;stroke:#66a61e;stroke-linecap:round;"/>
   </g>
   <g id="line2d_159">
    <path clip-path="url(#p91e524b9e2)" d="M 880.2285 545.778282 
L 893.1955 545.778282 
" style="fill:none;stroke:#66a61e;stroke-linecap:round;"/>
   </g>
   <g id="line2d_160">
    <path clip-path="url(#p91e524b9e2)" d="M 880.2285 541.605842 
L 893.1955 541.605842 
" style="fill:none;stroke:#66a61e;stroke-linecap:round;"/>
   </g>
   <g id="line2d_161">
    <defs>
     <path d="M -3 0 
L 3 0 
M 0 3 
L 0 -3 
" id="mecb69e110c" style="stroke:#66a61e;"/>
    </defs>
    <g clip-path="url(#p91e524b9e2)">
     <use style="fill:#0000ff;stroke:#66a61e;" x="886.712" xlink:href="#mecb69e110c" y="540.885966"/>
     <use style="fill:#0000ff;stroke:#66a61e;" x="886.712" xlink:href="#mecb69e110c" y="535.155373"/>
     <use style="fill:#0000ff;stroke:#66a61e;" x="886.712" xlink:href="#mecb69e110c" y="540.933327"/>
     <use style="fill:#0000ff;stroke:#66a61e;" x="886.712" xlink:href="#mecb69e110c" y="540.412364"/>
     <use style="fill:#0000ff;stroke:#66a61e;" x="886.712" xlink:href="#mecb69e110c" y="539.275717"/>
     <use style="fill:#0000ff;stroke:#66a61e;" x="886.712" xlink:href="#mecb69e110c" y="538.328512"/>
     <use style="fill:#0000ff;stroke:#66a61e;" x="886.712" xlink:href="#mecb69e110c" y="529.945744"/>
     <use style="fill:#0000ff;stroke:#66a61e;" x="886.712" xlink:href="#mecb69e110c" y="536.955064"/>
     <use style="fill:#0000ff;stroke:#66a61e;" x="886.712" xlink:href="#mecb69e110c" y="538.565313"/>
     <use style="fill:#0000ff;stroke:#66a61e;" x="886.712" xlink:href="#mecb69e110c" y="539.086276"/>
     <use style="fill:#0000ff;stroke:#66a61e;" x="886.712" xlink:href="#mecb69e110c" y="538.660034"/>
     <use style="fill:#0000ff;stroke:#66a61e;" x="886.712" xlink:href="#mecb69e110c" y="540.980687"/>
     <use style="fill:#0000ff;stroke:#66a61e;" x="886.712" xlink:href="#mecb69e110c" y="541.515858"/>
     <use style="fill:#0000ff;stroke:#66a61e;" x="886.712" xlink:href="#mecb69e110c" y="540.270283"/>
     <use style="fill:#0000ff;stroke:#66a61e;" x="886.712" xlink:href="#mecb69e110c" y="540.980687"/>
     <use style="fill:#0000ff;stroke:#66a61e;" x="886.712" xlink:href="#mecb69e110c" y="540.649165"/>
     <use style="fill:#0000ff;stroke:#66a61e;" x="886.712" xlink:href="#mecb69e110c" y="540.649165"/>
     <use style="fill:#0000ff;stroke:#66a61e;" x="886.712" xlink:href="#mecb69e110c" y="539.180997"/>
     <use style="fill:#0000ff;stroke:#66a61e;" x="886.712" xlink:href="#mecb69e110c" y="538.470592"/>
     <use style="fill:#0000ff;stroke:#66a61e;" x="886.712" xlink:href="#mecb69e110c" y="541.52533"/>
     <use style="fill:#0000ff;stroke:#66a61e;" x="886.712" xlink:href="#mecb69e110c" y="534.160808"/>
     <use style="fill:#0000ff;stroke:#66a61e;" x="886.712" xlink:href="#mecb69e110c" y="540.791246"/>
    </g>
   </g>
   <g id="line2d_162">
    <path clip-path="url(#p91e524b9e2)" d="M 925.613 359.342206 
L 951.547 359.342206 
L 951.547 253.835361 
L 925.613 253.835361 
L 925.613 359.342206 
" style="fill:none;stroke:#e6ab02;stroke-linecap:round;"/>
   </g>
   <g id="line2d_163">
    <path clip-path="url(#p91e524b9e2)" d="M 938.58 359.342206 
L 938.58 507.591695 
" style="fill:none;stroke:#e6ab02;stroke-linecap:round;"/>
   </g>
   <g id="line2d_164">
    <path clip-path="url(#p91e524b9e2)" d="M 938.58 253.835361 
L 938.58 152.957982 
" style="fill:none;stroke:#e6ab02;stroke-linecap:round;"/>
   </g>
   <g id="line2d_165">
    <path clip-path="url(#p91e524b9e2)" d="M 932.0965 507.591695 
L 945.0635 507.591695 
" style="fill:none;stroke:#e6ab02;stroke-linecap:round;"/>
   </g>
   <g id="line2d_166">
    <path clip-path="url(#p91e524b9e2)" d="M 932.0965 152.957982 
L 945.0635 152.957982 
" style="fill:none;stroke:#e6ab02;stroke-linecap:round;"/>
   </g>
   <g id="line2d_167">
    <g clip-path="url(#p91e524b9e2)">
     <use style="fill:#0000ff;stroke:#e6ab02;" x="938.58" xlink:href="#m2b97005a11" y="536.102579"/>
    </g>
   </g>
   <g id="line2d_168">
    <path clip-path="url(#p91e524b9e2)" d="M 977.481 533.047841 
L 1003.415 533.047841 
L 1003.415 381.11609 
L 977.481 381.11609 
L 977.481 533.047841 
" style="fill:none;stroke:#a6761d;stroke-linecap:round;"/>
   </g>
   <g id="line2d_169">
    <path clip-path="url(#p91e524b9e2)" d="M 990.448 533.047841 
L 990.448 545.674563 
" style="fill:none;stroke:#a6761d;stroke-linecap:round;"/>
   </g>
   <g id="line2d_170">
    <path clip-path="url(#p91e524b9e2)" d="M 990.448 381.11609 
L 990.448 242.468895 
" style="fill:none;stroke:#a6761d;stroke-linecap:round;"/>
   </g>
   <g id="line2d_171">
    <path clip-path="url(#p91e524b9e2)" d="M 983.9645 545.674563 
L 996.9315 545.674563 
" style="fill:none;stroke:#a6761d;stroke-linecap:round;"/>
   </g>
   <g id="line2d_172">
    <path clip-path="url(#p91e524b9e2)" d="M 983.9645 242.468895 
L 996.9315 242.468895 
" style="fill:none;stroke:#a6761d;stroke-linecap:round;"/>
   </g>
   <g id="line2d_173"/>
   <g id="line2d_174">
    <path clip-path="url(#p91e524b9e2)" d="M 1029.349 474.948628 
L 1055.283 474.948628 
L 1055.283 385.165394 
L 1029.349 385.165394 
L 1029.349 474.948628 
" style="fill:none;stroke:#666666;stroke-linecap:round;"/>
   </g>
   <g id="line2d_175">
    <path clip-path="url(#p91e524b9e2)" d="M 1042.316 474.948628 
L 1042.316 545.437288 
" style="fill:none;stroke:#666666;stroke-linecap:round;"/>
   </g>
   <g id="line2d_176">
    <path clip-path="url(#p91e524b9e2)" d="M 1042.316 385.165394 
L 1042.316 251.372627 
" style="fill:none;stroke:#666666;stroke-linecap:round;"/>
   </g>
   <g id="line2d_177">
    <path clip-path="url(#p91e524b9e2)" d="M 1035.8325 545.437288 
L 1048.7995 545.437288 
" style="fill:none;stroke:#666666;stroke-linecap:round;"/>
   </g>
   <g id="line2d_178">
    <path clip-path="url(#p91e524b9e2)" d="M 1035.8325 251.372627 
L 1048.7995 251.372627 
" style="fill:none;stroke:#666666;stroke-linecap:round;"/>
   </g>
   <g id="line2d_179">
    <g clip-path="url(#p91e524b9e2)">
     <use style="fill:#0000ff;stroke:#666666;" x="1042.316" xlink:href="#mea66f2600f" y="208.085338"/>
     <use style="fill:#0000ff;stroke:#666666;" x="1042.316" xlink:href="#mea66f2600f" y="208.937823"/>
     <use style="fill:#0000ff;stroke:#666666;" x="1042.316" xlink:href="#mea66f2600f" y="215.189379"/>
     <use style="fill:#0000ff;stroke:#666666;" x="1042.316" xlink:href="#mea66f2600f" y="221.583016"/>
     <use style="fill:#0000ff;stroke:#666666;" x="1042.316" xlink:href="#mea66f2600f" y="156.415282"/>
     <use style="fill:#0000ff;stroke:#666666;" x="1042.316" xlink:href="#mea66f2600f" y="113.127994"/>
     <use style="fill:#0000ff;stroke:#666666;" x="1042.316" xlink:href="#mea66f2600f" y="116.916816"/>
     <use style="fill:#0000ff;stroke:#666666;" x="1042.316" xlink:href="#mea66f2600f" y="124.399739"/>
     <use style="fill:#0000ff;stroke:#666666;" x="1042.316" xlink:href="#mea66f2600f" y="133.30347"/>
     <use style="fill:#0000ff;stroke:#666666;" x="1042.316" xlink:href="#mea66f2600f" y="138.749901"/>
     <use style="fill:#0000ff;stroke:#666666;" x="1042.316" xlink:href="#mea66f2600f" y="146.943228"/>
     <use style="fill:#0000ff;stroke:#666666;" x="1042.316" xlink:href="#mea66f2600f" y="150.921491"/>
     <use style="fill:#0000ff;stroke:#666666;" x="1042.316" xlink:href="#mea66f2600f" y="160.393545"/>
     <use style="fill:#0000ff;stroke:#666666;" x="1042.316" xlink:href="#mea66f2600f" y="169.865599"/>
     <use style="fill:#0000ff;stroke:#666666;" x="1042.316" xlink:href="#mea66f2600f" y="175.359391"/>
     <use style="fill:#0000ff;stroke:#666666;" x="1042.316" xlink:href="#mea66f2600f" y="182.700233"/>
     <use style="fill:#0000ff;stroke:#666666;" x="1042.316" xlink:href="#mea66f2600f" y="187.3889"/>
     <use style="fill:#0000ff;stroke:#666666;" x="1042.316" xlink:href="#mea66f2600f" y="192.172287"/>
     <use style="fill:#0000ff;stroke:#666666;" x="1042.316" xlink:href="#mea66f2600f" y="198.708005"/>
     <use style="fill:#0000ff;stroke:#666666;" x="1042.316" xlink:href="#mea66f2600f" y="208.180059"/>
     <use style="fill:#0000ff;stroke:#666666;" x="1042.316" xlink:href="#mea66f2600f" y="216.799628"/>
     <use style="fill:#0000ff;stroke:#666666;" x="1042.316" xlink:href="#mea66f2600f" y="221.583016"/>
     <use style="fill:#0000ff;stroke:#666666;" x="1042.316" xlink:href="#mea66f2600f" y="228.639696"/>
     <use style="fill:#0000ff;stroke:#666666;" x="1042.316" xlink:href="#mea66f2600f" y="231.907555"/>
     <use style="fill:#0000ff;stroke:#666666;" x="1042.316" xlink:href="#mea66f2600f" y="236.075259"/>
     <use style="fill:#0000ff;stroke:#666666;" x="1042.316" xlink:href="#mea66f2600f" y="238.06439"/>
     <use style="fill:#0000ff;stroke:#666666;" x="1042.316" xlink:href="#mea66f2600f" y="241.426969"/>
     <use style="fill:#0000ff;stroke:#666666;" x="1042.316" xlink:href="#mea66f2600f" y="245.168431"/>
     <use style="fill:#0000ff;stroke:#666666;" x="1042.316" xlink:href="#mea66f2600f" y="247.394364"/>
    </g>
   </g>
   <g id="line2d_180">
    <path clip-path="url(#p91e524b9e2)" d="M 1094.184 550.4472 
L 1094.184 74.2176 
" style="fill:none;stroke:#000000;stroke-dasharray:0.5,0.825;stroke-dashoffset:0;stroke-width:0.5;"/>
   </g>
   <g id="line2d_181">
    <path clip-path="url(#p91e524b9e2)" d="M 666.273 540.412364 
L 692.207 540.412364 
" style="fill:none;stroke:#ff7f0e;stroke-linecap:round;"/>
   </g>
   <g id="line2d_182">
    <path clip-path="url(#p91e524b9e2)" d="M 718.141 532.290077 
L 744.075 532.290077 
" style="fill:none;stroke:#ff7f0e;stroke-linecap:round;"/>
   </g>
   <g id="line2d_183">
    <path clip-path="url(#p91e524b9e2)" d="M 770.009 542.856154 
L 795.943 542.856154 
" style="fill:none;stroke:#ff7f0e;stroke-linecap:round;"/>
   </g>
   <g id="line2d_184">
    <path clip-path="url(#p91e524b9e2)" d="M 821.877 256.771697 
L 847.811 256.771697 
" style="fill:none;stroke:#ff7f0e;stroke-linecap:round;"/>
   </g>
   <g id="line2d_185">
    <path clip-path="url(#p91e524b9e2)" d="M 873.745 544.864229 
L 899.679 544.864229 
" style="fill:none;stroke:#ff7f0e;stroke-linecap:round;"/>
   </g>
   <g id="line2d_186">
    <path clip-path="url(#p91e524b9e2)" d="M 925.613 328.640909 
L 951.547 328.640909 
" style="fill:none;stroke:#ff7f0e;stroke-linecap:round;"/>
   </g>
   <g id="line2d_187">
    <path clip-path="url(#p91e524b9e2)" d="M 977.481 506.265608 
L 1003.415 506.265608 
" style="fill:none;stroke:#ff7f0e;stroke-linecap:round;"/>
   </g>
   <g id="line2d_188">
    <path clip-path="url(#p91e524b9e2)" d="M 1029.349 445.241898 
L 1055.283 445.241898 
" style="fill:none;stroke:#ff7f0e;stroke-linecap:round;"/>
   </g>
  </g>
  <g id="text_39">
   <!-- TCP upload - 8 streams w/ping -->
   <g transform="translate(535.798437 15.791812)scale(0.14 -0.14)">
    <defs>
     <path d="M 41.109375 46.296875 
Q 39.59375 47.171875 37.8125 47.578125 
Q 36.03125 48 33.890625 48 
Q 26.265625 48 22.1875 43.046875 
Q 18.109375 38.09375 18.109375 28.8125 
L 18.109375 0 
L 9.078125 0 
L 9.078125 54.6875 
L 18.109375 54.6875 
L 18.109375 46.1875 
Q 20.953125 51.171875 25.484375 53.578125 
Q 30.03125 56 36.53125 56 
Q 37.453125 56 38.578125 55.875 
Q 39.703125 55.765625 41.0625 55.515625 
z
" id="DejaVuSans-114"/>
     <path d="M 4.203125 54.6875 
L 13.1875 54.6875 
L 24.421875 12.015625 
L 35.59375 54.6875 
L 46.1875 54.6875 
L 57.421875 12.015625 
L 68.609375 54.6875 
L 77.59375 54.6875 
L 63.28125 0 
L 52.6875 0 
L 40.921875 44.828125 
L 29.109375 0 
L 18.5 0 
z
" id="DejaVuSans-119"/>
    </defs>
    <use xlink:href="#DejaVuSans-84"/>
    <use x="55.208984" xlink:href="#DejaVuSans-67"/>
    <use x="125.033203" xlink:href="#DejaVuSans-80"/>
    <use x="185.335938" xlink:href="#DejaVuSans-32"/>
    <use x="217.123047" xlink:href="#DejaVuSans-117"/>
    <use x="280.501953" xlink:href="#DejaVuSans-112"/>
    <use x="343.978516" xlink:href="#DejaVuSans-108"/>
    <use x="371.761719" xlink:href="#DejaVuSans-111"/>
    <use x="432.943359" xlink:href="#DejaVuSans-97"/>
    <use x="494.222656" xlink:href="#DejaVuSans-100"/>
    <use x="557.699219" xlink:href="#DejaVuSans-32"/>
    <use x="589.486328" xlink:href="#DejaVuSans-45"/>
    <use x="625.570312" xlink:href="#DejaVuSans-32"/>
    <use x="657.357422" xlink:href="#DejaVuSans-56"/>
    <use x="720.980469" xlink:href="#DejaVuSans-32"/>
    <use x="752.767578" xlink:href="#DejaVuSans-115"/>
    <use x="804.867188" xlink:href="#DejaVuSans-116"/>
    <use x="844.076172" xlink:href="#DejaVuSans-114"/>
    <use x="882.939453" xlink:href="#DejaVuSans-101"/>
    <use x="944.462891" xlink:href="#DejaVuSans-97"/>
    <use x="1005.742188" xlink:href="#DejaVuSans-109"/>
    <use x="1103.154297" xlink:href="#DejaVuSans-115"/>
    <use x="1155.253906" xlink:href="#DejaVuSans-32"/>
    <use x="1187.041016" xlink:href="#DejaVuSans-119"/>
    <use x="1268.828125" xlink:href="#DejaVuSans-47"/>
    <use x="1302.519531" xlink:href="#DejaVuSans-112"/>
    <use x="1365.996094" xlink:href="#DejaVuSans-105"/>
    <use x="1393.779297" xlink:href="#DejaVuSans-110"/>
    <use x="1457.158203" xlink:href="#DejaVuSans-103"/>
   </g>
   <!-- Box plot of totals -->
   <g transform="translate(582.74 31.46875)scale(0.14 -0.14)">
    <defs>
     <path d="M 54.890625 54.6875 
L 35.109375 28.078125 
L 55.90625 0 
L 45.3125 0 
L 29.390625 21.484375 
L 13.484375 0 
L 2.875 0 
L 24.125 28.609375 
L 4.6875 54.6875 
L 15.28125 54.6875 
L 29.78125 35.203125 
L 44.28125 54.6875 
z
" id="DejaVuSans-120"/>
     <path d="M 37.109375 75.984375 
L 37.109375 68.5 
L 28.515625 68.5 
Q 23.6875 68.5 21.796875 66.546875 
Q 19.921875 64.59375 19.921875 59.515625 
L 19.921875 54.6875 
L 34.71875 54.6875 
L 34.71875 47.703125 
L 19.921875 47.703125 
L 19.921875 0 
L 10.890625 0 
L 10.890625 47.703125 
L 2.296875 47.703125 
L 2.296875 54.6875 
L 10.890625 54.6875 
L 10.890625 58.5 
Q 10.890625 67.625 15.140625 71.796875 
Q 19.390625 75.984375 28.609375 75.984375 
z
" id="DejaVuSans-102"/>
    </defs>
    <use xlink:href="#DejaVuSans-66"/>
    <use x="68.603516" xlink:href="#DejaVuSans-111"/>
    <use x="126.660156" xlink:href="#DejaVuSans-120"/>
    <use x="185.839844" xlink:href="#DejaVuSans-32"/>
    <use x="217.626953" xlink:href="#DejaVuSans-112"/>
    <use x="281.103516" xlink:href="#DejaVuSans-108"/>
    <use x="308.886719" xlink:href="#DejaVuSans-111"/>
    <use x="370.068359" xlink:href="#DejaVuSans-116"/>
    <use x="409.277344" xlink:href="#DejaVuSans-32"/>
    <use x="441.064453" xlink:href="#DejaVuSans-111"/>
    <use x="502.246094" xlink:href="#DejaVuSans-102"/>
    <use x="537.451172" xlink:href="#DejaVuSans-32"/>
    <use x="569.238281" xlink:href="#DejaVuSans-116"/>
    <use x="608.447266" xlink:href="#DejaVuSans-111"/>
    <use x="669.628906" xlink:href="#DejaVuSans-116"/>
    <use x="708.837891" xlink:href="#DejaVuSans-97"/>
    <use x="770.117188" xlink:href="#DejaVuSans-108"/>
    <use x="797.900391" xlink:href="#DejaVuSans-115"/>
   </g>
  </g>
 </g>
 <defs>
  <clipPath id="p91e524b9e2">
   <rect height="476.2296" width="933.624" x="160.56" y="74.2176"/>
  </clipPath>
 </defs>
</svg>
