<?xml version="1.0" encoding="utf-8" standalone="no"?>
<!DOCTYPE svg PUBLIC "-//W3C//DTD SVG 1.1//EN"
  "http://www.w3.org/Graphics/SVG/1.1/DTD/svg11.dtd">
<!-- Created with matplotlib (https://matplotlib.org/) -->
<svg height="618.48pt" version="1.1" viewBox="0 0 1284.48 618.48" width="1284.48pt" xmlns="http://www.w3.org/2000/svg" xmlns:xlink="http://www.w3.org/1999/xlink">
 <metadata>
  <rdf:RDF xmlns:cc="http://creativecommons.org/ns#" xmlns:dc="http://purl.org/dc/elements/1.1/" xmlns:rdf="http://www.w3.org/1999/02/22-rdf-syntax-ns#">
   <cc:Work>
    <dc:type rdf:resource="http://purl.org/dc/dcmitype/StillImage"/>
    <dc:date>2025-06-13T12:20:42.899634</dc:date>
    <dc:format>image/svg+xml</dc:format>
    <dc:creator>
     <cc:Agent>
      <dc:title>Matplotlib v3.3.4, https://matplotlib.org/</dc:title>
     </cc:Agent>
    </dc:creator>
   </cc:Work>
  </rdf:RDF>
 </metadata>
 <defs>
  <style type="text/css">*{stroke-linecap:butt;stroke-linejoin:round;}</style>
 </defs>
 <g id="figure_1">
  <g id="patch_1">
   <path d="M 0 618.48 
L 1284.48 618.48 
L 1284.48 0 
L 0 0 
z
" style="fill:#ffffff;"/>
  </g>
  <g id="axes_1">
   <g id="patch_2">
    <path d="M 160.56 550.4472 
L 1093.644 550.4472 
L 1093.644 74.2176 
L 160.56 74.2176 
z
" style="fill:#e6e6e6;"/>
   </g>
   <g id="matplotlib.axis_1">
    <g id="xtick_1">
     <g id="line2d_1"/>
     <g id="text_1">
      <!-- BBR-n+ -->
      <g transform="translate(225.524975 592.542513)rotate(-90)scale(0.1 -0.1)">
       <defs>
        <path d="M 19.671875 34.8125 
L 19.671875 8.109375 
L 35.5 8.109375 
Q 43.453125 8.109375 47.28125 11.40625 
Q 51.125 14.703125 51.125 21.484375 
Q 51.125 28.328125 47.28125 31.5625 
Q 43.453125 34.8125 35.5 34.8125 
z
M 19.671875 64.796875 
L 19.671875 42.828125 
L 34.28125 42.828125 
Q 41.5 42.828125 45.03125 45.53125 
Q 48.578125 48.25 48.578125 53.8125 
Q 48.578125 59.328125 45.03125 62.0625 
Q 41.5 64.796875 34.28125 64.796875 
z
M 9.8125 72.90625 
L 35.015625 72.90625 
Q 46.296875 72.90625 52.390625 68.21875 
Q 58.5 63.53125 58.5 54.890625 
Q 58.5 48.1875 55.375 44.234375 
Q 52.25 40.28125 46.1875 39.3125 
Q 53.46875 37.75 57.5 32.78125 
Q 61.53125 27.828125 61.53125 20.40625 
Q 61.53125 10.640625 54.890625 5.3125 
Q 48.25 0 35.984375 0 
L 9.8125 0 
z
" id="DejaVuSans-66"/>
        <path d="M 44.390625 34.1875 
Q 47.5625 33.109375 50.5625 29.59375 
Q 53.5625 26.078125 56.59375 19.921875 
L 66.609375 0 
L 56 0 
L 46.6875 18.703125 
Q 43.0625 26.03125 39.671875 28.421875 
Q 36.28125 30.8125 30.421875 30.8125 
L 19.671875 30.8125 
L 19.671875 0 
L 9.8125 0 
L 9.8125 72.90625 
L 32.078125 72.90625 
Q 44.578125 72.90625 50.734375 67.671875 
Q 56.890625 62.453125 56.890625 51.90625 
Q 56.890625 45.015625 53.6875 40.46875 
Q 50.484375 35.9375 44.390625 34.1875 
z
M 19.671875 64.796875 
L 19.671875 38.921875 
L 32.078125 38.921875 
Q 39.203125 38.921875 42.84375 42.21875 
Q 46.484375 45.515625 46.484375 51.90625 
Q 46.484375 58.296875 42.84375 61.546875 
Q 39.203125 64.796875 32.078125 64.796875 
z
" id="DejaVuSans-82"/>
        <path d="M 4.890625 31.390625 
L 31.203125 31.390625 
L 31.203125 23.390625 
L 4.890625 23.390625 
z
" id="DejaVuSans-45"/>
        <path d="M 54.890625 33.015625 
L 54.890625 0 
L 45.90625 0 
L 45.90625 32.71875 
Q 45.90625 40.484375 42.875 44.328125 
Q 39.84375 48.1875 33.796875 48.1875 
Q 26.515625 48.1875 22.3125 43.546875 
Q 18.109375 38.921875 18.109375 30.90625 
L 18.109375 0 
L 9.078125 0 
L 9.078125 54.6875 
L 18.109375 54.6875 
L 18.109375 46.1875 
Q 21.34375 51.125 25.703125 53.5625 
Q 30.078125 56 35.796875 56 
Q 45.21875 56 50.046875 50.171875 
Q 54.890625 44.34375 54.890625 33.015625 
z
" id="DejaVuSans-110"/>
        <path d="M 46 62.703125 
L 46 35.5 
L 73.1875 35.5 
L 73.1875 27.203125 
L 46 27.203125 
L 46 0 
L 37.796875 0 
L 37.796875 27.203125 
L 10.59375 27.203125 
L 10.59375 35.5 
L 37.796875 35.5 
L 37.796875 62.703125 
z
" id="DejaVuSans-43"/>
       </defs>
       <use xlink:href="#DejaVuSans-66"/>
       <use x="68.603516" xlink:href="#DejaVuSans-66"/>
       <use x="137.207031" xlink:href="#DejaVuSans-82"/>
       <use x="202.689453" xlink:href="#DejaVuSans-45"/>
       <use x="238.773438" xlink:href="#DejaVuSans-110"/>
       <use x="302.152344" xlink:href="#DejaVuSans-43"/>
      </g>
     </g>
    </g>
    <g id="xtick_2">
     <g id="line2d_2"/>
     <g id="text_2">
      <!-- BBR-v3 -->
      <g transform="translate(287.730575 589.844075)rotate(-90)scale(0.1 -0.1)">
       <defs>
        <path d="M 2.984375 54.6875 
L 12.5 54.6875 
L 29.59375 8.796875 
L 46.6875 54.6875 
L 56.203125 54.6875 
L 35.6875 0 
L 23.484375 0 
z
" id="DejaVuSans-118"/>
        <path d="M 40.578125 39.3125 
Q 47.65625 37.796875 51.625 33 
Q 55.609375 28.21875 55.609375 21.1875 
Q 55.609375 10.40625 48.1875 4.484375 
Q 40.765625 -1.421875 27.09375 -1.421875 
Q 22.515625 -1.421875 17.65625 -0.515625 
Q 12.796875 0.390625 7.625 2.203125 
L 7.625 11.71875 
Q 11.71875 9.328125 16.59375 8.109375 
Q 21.484375 6.890625 26.8125 6.890625 
Q 36.078125 6.890625 40.9375 10.546875 
Q 45.796875 14.203125 45.796875 21.1875 
Q 45.796875 27.640625 41.28125 31.265625 
Q 36.765625 34.90625 28.71875 34.90625 
L 20.21875 34.90625 
L 20.21875 43.015625 
L 29.109375 43.015625 
Q 36.375 43.015625 40.234375 45.921875 
Q 44.09375 48.828125 44.09375 54.296875 
Q 44.09375 59.90625 40.109375 62.90625 
Q 36.140625 65.921875 28.71875 65.921875 
Q 24.65625 65.921875 20.015625 65.03125 
Q 15.375 64.15625 9.8125 62.3125 
L 9.8125 71.09375 
Q 15.4375 72.65625 20.34375 73.4375 
Q 25.25 74.21875 29.59375 74.21875 
Q 40.828125 74.21875 47.359375 69.109375 
Q 53.90625 64.015625 53.90625 55.328125 
Q 53.90625 49.265625 50.4375 45.09375 
Q 46.96875 40.921875 40.578125 39.3125 
z
" id="DejaVuSans-51"/>
       </defs>
       <use xlink:href="#DejaVuSans-66"/>
       <use x="68.603516" xlink:href="#DejaVuSans-66"/>
       <use x="137.207031" xlink:href="#DejaVuSans-82"/>
       <use x="202.689453" xlink:href="#DejaVuSans-45"/>
       <use x="236.148438" xlink:href="#DejaVuSans-118"/>
       <use x="295.328125" xlink:href="#DejaVuSans-51"/>
      </g>
     </g>
    </g>
    <g id="xtick_3">
     <g id="line2d_3"/>
     <g id="text_3">
      <!-- BBR-n+ -->
      <g transform="translate(412.141775 592.542513)rotate(-90)scale(0.1 -0.1)">
       <use xlink:href="#DejaVuSans-66"/>
       <use x="68.603516" xlink:href="#DejaVuSans-66"/>
       <use x="137.207031" xlink:href="#DejaVuSans-82"/>
       <use x="202.689453" xlink:href="#DejaVuSans-45"/>
       <use x="238.773438" xlink:href="#DejaVuSans-110"/>
       <use x="302.152344" xlink:href="#DejaVuSans-43"/>
      </g>
     </g>
    </g>
    <g id="xtick_4">
     <g id="line2d_4"/>
     <g id="text_4">
      <!-- BBR-v3 -->
      <g transform="translate(474.347375 589.844075)rotate(-90)scale(0.1 -0.1)">
       <use xlink:href="#DejaVuSans-66"/>
       <use x="68.603516" xlink:href="#DejaVuSans-66"/>
       <use x="137.207031" xlink:href="#DejaVuSans-82"/>
       <use x="202.689453" xlink:href="#DejaVuSans-45"/>
       <use x="236.148438" xlink:href="#DejaVuSans-118"/>
       <use x="295.328125" xlink:href="#DejaVuSans-51"/>
      </g>
     </g>
    </g>
    <g id="xtick_5">
     <g id="line2d_5"/>
     <g id="text_5">
      <!-- BBR-n+ -->
      <g transform="translate(598.758575 592.542513)rotate(-90)scale(0.1 -0.1)">
       <use xlink:href="#DejaVuSans-66"/>
       <use x="68.603516" xlink:href="#DejaVuSans-66"/>
       <use x="137.207031" xlink:href="#DejaVuSans-82"/>
       <use x="202.689453" xlink:href="#DejaVuSans-45"/>
       <use x="238.773438" xlink:href="#DejaVuSans-110"/>
       <use x="302.152344" xlink:href="#DejaVuSans-43"/>
      </g>
     </g>
    </g>
    <g id="xtick_6">
     <g id="line2d_6"/>
     <g id="text_6">
      <!-- BBR-v3 -->
      <g transform="translate(660.964175 589.844075)rotate(-90)scale(0.1 -0.1)">
       <use xlink:href="#DejaVuSans-66"/>
       <use x="68.603516" xlink:href="#DejaVuSans-66"/>
       <use x="137.207031" xlink:href="#DejaVuSans-82"/>
       <use x="202.689453" xlink:href="#DejaVuSans-45"/>
       <use x="236.148438" xlink:href="#DejaVuSans-118"/>
       <use x="295.328125" xlink:href="#DejaVuSans-51"/>
      </g>
     </g>
    </g>
    <g id="xtick_7">
     <g id="line2d_7"/>
     <g id="text_7">
      <!-- BBR-n+ -->
      <g transform="translate(785.375375 592.542513)rotate(-90)scale(0.1 -0.1)">
       <use xlink:href="#DejaVuSans-66"/>
       <use x="68.603516" xlink:href="#DejaVuSans-66"/>
       <use x="137.207031" xlink:href="#DejaVuSans-82"/>
       <use x="202.689453" xlink:href="#DejaVuSans-45"/>
       <use x="238.773438" xlink:href="#DejaVuSans-110"/>
       <use x="302.152344" xlink:href="#DejaVuSans-43"/>
      </g>
     </g>
    </g>
    <g id="xtick_8">
     <g id="line2d_8"/>
     <g id="text_8">
      <!-- BBR-v3 -->
      <g transform="translate(847.580975 589.844075)rotate(-90)scale(0.1 -0.1)">
       <use xlink:href="#DejaVuSans-66"/>
       <use x="68.603516" xlink:href="#DejaVuSans-66"/>
       <use x="137.207031" xlink:href="#DejaVuSans-82"/>
       <use x="202.689453" xlink:href="#DejaVuSans-45"/>
       <use x="236.148438" xlink:href="#DejaVuSans-118"/>
       <use x="295.328125" xlink:href="#DejaVuSans-51"/>
      </g>
     </g>
    </g>
    <g id="xtick_9">
     <g id="line2d_9"/>
     <g id="text_9">
      <!-- BBR-n+ -->
      <g transform="translate(971.992175 592.542513)rotate(-90)scale(0.1 -0.1)">
       <use xlink:href="#DejaVuSans-66"/>
       <use x="68.603516" xlink:href="#DejaVuSans-66"/>
       <use x="137.207031" xlink:href="#DejaVuSans-82"/>
       <use x="202.689453" xlink:href="#DejaVuSans-45"/>
       <use x="238.773438" xlink:href="#DejaVuSans-110"/>
       <use x="302.152344" xlink:href="#DejaVuSans-43"/>
      </g>
     </g>
    </g>
    <g id="xtick_10">
     <g id="line2d_10"/>
     <g id="text_10">
      <!-- BBR-v3 -->
      <g transform="translate(1034.197775 589.844075)rotate(-90)scale(0.1 -0.1)">
       <use xlink:href="#DejaVuSans-66"/>
       <use x="68.603516" xlink:href="#DejaVuSans-66"/>
       <use x="137.207031" xlink:href="#DejaVuSans-82"/>
       <use x="202.689453" xlink:href="#DejaVuSans-45"/>
       <use x="236.148438" xlink:href="#DejaVuSans-118"/>
       <use x="295.328125" xlink:href="#DejaVuSans-51"/>
      </g>
     </g>
    </g>
   </g>
   <g id="matplotlib.axis_2">
    <g id="ytick_1">
     <g id="line2d_11">
      <path clip-path="url(#p2232ba4743)" d="M 160.56 546.212993 
L 1093.644 546.212993 
" style="fill:none;stroke:#ffffff;stroke-linecap:round;"/>
     </g>
     <g id="line2d_12"/>
     <g id="text_11">
      <!-- 0 -->
      <g transform="translate(150.6975 550.012212)scale(0.1 -0.1)">
       <defs>
        <path d="M 31.78125 66.40625 
Q 24.171875 66.40625 20.328125 58.90625 
Q 16.5 51.421875 16.5 36.375 
Q 16.5 21.390625 20.328125 13.890625 
Q 24.171875 6.390625 31.78125 6.390625 
Q 39.453125 6.390625 43.28125 13.890625 
Q 47.125 21.390625 47.125 36.375 
Q 47.125 51.421875 43.28125 58.90625 
Q 39.453125 66.40625 31.78125 66.40625 
z
M 31.78125 74.21875 
Q 44.046875 74.21875 50.515625 64.515625 
Q 56.984375 54.828125 56.984375 36.375 
Q 56.984375 17.96875 50.515625 8.265625 
Q 44.046875 -1.421875 31.78125 -1.421875 
Q 19.53125 -1.421875 13.0625 8.265625 
Q 6.59375 17.96875 6.59375 36.375 
Q 6.59375 54.828125 13.0625 64.515625 
Q 19.53125 74.21875 31.78125 74.21875 
z
" id="DejaVuSans-48"/>
       </defs>
       <use xlink:href="#DejaVuSans-48"/>
      </g>
     </g>
    </g>
    <g id="ytick_2">
     <g id="line2d_13">
      <path clip-path="url(#p2232ba4743)" d="M 160.56 444.287916 
L 1093.644 444.287916 
" style="fill:none;stroke:#ffffff;stroke-linecap:round;"/>
     </g>
     <g id="line2d_14"/>
     <g id="text_12">
      <!-- 200 -->
      <g transform="translate(137.9725 448.087135)scale(0.1 -0.1)">
       <defs>
        <path d="M 19.1875 8.296875 
L 53.609375 8.296875 
L 53.609375 0 
L 7.328125 0 
L 7.328125 8.296875 
Q 12.9375 14.109375 22.625 23.890625 
Q 32.328125 33.6875 34.8125 36.53125 
Q 39.546875 41.84375 41.421875 45.53125 
Q 43.3125 49.21875 43.3125 52.78125 
Q 43.3125 58.59375 39.234375 62.25 
Q 35.15625 65.921875 28.609375 65.921875 
Q 23.96875 65.921875 18.8125 64.3125 
Q 13.671875 62.703125 7.8125 59.421875 
L 7.8125 69.390625 
Q 13.765625 71.78125 18.9375 73 
Q 24.125 74.21875 28.421875 74.21875 
Q 39.75 74.21875 46.484375 68.546875 
Q 53.21875 62.890625 53.21875 53.421875 
Q 53.21875 48.921875 51.53125 44.890625 
Q 49.859375 40.875 45.40625 35.40625 
Q 44.1875 33.984375 37.640625 27.21875 
Q 31.109375 20.453125 19.1875 8.296875 
z
" id="DejaVuSans-50"/>
       </defs>
       <use xlink:href="#DejaVuSans-50"/>
       <use x="63.623047" xlink:href="#DejaVuSans-48"/>
       <use x="127.246094" xlink:href="#DejaVuSans-48"/>
      </g>
     </g>
    </g>
    <g id="ytick_3">
     <g id="line2d_15">
      <path clip-path="url(#p2232ba4743)" d="M 160.56 342.36284 
L 1093.644 342.36284 
" style="fill:none;stroke:#ffffff;stroke-linecap:round;"/>
     </g>
     <g id="line2d_16"/>
     <g id="text_13">
      <!-- 400 -->
      <g transform="translate(137.9725 346.162059)scale(0.1 -0.1)">
       <defs>
        <path d="M 37.796875 64.3125 
L 12.890625 25.390625 
L 37.796875 25.390625 
z
M 35.203125 72.90625 
L 47.609375 72.90625 
L 47.609375 25.390625 
L 58.015625 25.390625 
L 58.015625 17.1875 
L 47.609375 17.1875 
L 47.609375 0 
L 37.796875 0 
L 37.796875 17.1875 
L 4.890625 17.1875 
L 4.890625 26.703125 
z
" id="DejaVuSans-52"/>
       </defs>
       <use xlink:href="#DejaVuSans-52"/>
       <use x="63.623047" xlink:href="#DejaVuSans-48"/>
       <use x="127.246094" xlink:href="#DejaVuSans-48"/>
      </g>
     </g>
    </g>
    <g id="ytick_4">
     <g id="line2d_17">
      <path clip-path="url(#p2232ba4743)" d="M 160.56 240.437764 
L 1093.644 240.437764 
" style="fill:none;stroke:#ffffff;stroke-linecap:round;"/>
     </g>
     <g id="line2d_18"/>
     <g id="text_14">
      <!-- 600 -->
      <g transform="translate(137.9725 244.236982)scale(0.1 -0.1)">
       <defs>
        <path d="M 33.015625 40.375 
Q 26.375 40.375 22.484375 35.828125 
Q 18.609375 31.296875 18.609375 23.390625 
Q 18.609375 15.53125 22.484375 10.953125 
Q 26.375 6.390625 33.015625 6.390625 
Q 39.65625 6.390625 43.53125 10.953125 
Q 47.40625 15.53125 47.40625 23.390625 
Q 47.40625 31.296875 43.53125 35.828125 
Q 39.65625 40.375 33.015625 40.375 
z
M 52.59375 71.296875 
L 52.59375 62.3125 
Q 48.875 64.0625 45.09375 64.984375 
Q 41.3125 65.921875 37.59375 65.921875 
Q 27.828125 65.921875 22.671875 59.328125 
Q 17.53125 52.734375 16.796875 39.40625 
Q 19.671875 43.65625 24.015625 45.921875 
Q 28.375 48.1875 33.59375 48.1875 
Q 44.578125 48.1875 50.953125 41.515625 
Q 57.328125 34.859375 57.328125 23.390625 
Q 57.328125 12.15625 50.6875 5.359375 
Q 44.046875 -1.421875 33.015625 -1.421875 
Q 20.359375 -1.421875 13.671875 8.265625 
Q 6.984375 17.96875 6.984375 36.375 
Q 6.984375 53.65625 15.1875 63.9375 
Q 23.390625 74.21875 37.203125 74.21875 
Q 40.921875 74.21875 44.703125 73.484375 
Q 48.484375 72.75 52.59375 71.296875 
z
" id="DejaVuSans-54"/>
       </defs>
       <use xlink:href="#DejaVuSans-54"/>
       <use x="63.623047" xlink:href="#DejaVuSans-48"/>
       <use x="127.246094" xlink:href="#DejaVuSans-48"/>
      </g>
     </g>
    </g>
    <g id="ytick_5">
     <g id="line2d_19">
      <path clip-path="url(#p2232ba4743)" d="M 160.56 138.512687 
L 1093.644 138.512687 
" style="fill:none;stroke:#ffffff;stroke-linecap:round;"/>
     </g>
     <g id="line2d_20"/>
     <g id="text_15">
      <!-- 800 -->
      <g transform="translate(137.9725 142.311906)scale(0.1 -0.1)">
       <defs>
        <path d="M 31.78125 34.625 
Q 24.75 34.625 20.71875 30.859375 
Q 16.703125 27.09375 16.703125 20.515625 
Q 16.703125 13.921875 20.71875 10.15625 
Q 24.75 6.390625 31.78125 6.390625 
Q 38.8125 6.390625 42.859375 10.171875 
Q 46.921875 13.96875 46.921875 20.515625 
Q 46.921875 27.09375 42.890625 30.859375 
Q 38.875 34.625 31.78125 34.625 
z
M 21.921875 38.8125 
Q 15.578125 40.375 12.03125 44.71875 
Q 8.5 49.078125 8.5 55.328125 
Q 8.5 64.0625 14.71875 69.140625 
Q 20.953125 74.21875 31.78125 74.21875 
Q 42.671875 74.21875 48.875 69.140625 
Q 55.078125 64.0625 55.078125 55.328125 
Q 55.078125 49.078125 51.53125 44.71875 
Q 48 40.375 41.703125 38.8125 
Q 48.828125 37.15625 52.796875 32.3125 
Q 56.78125 27.484375 56.78125 20.515625 
Q 56.78125 9.90625 50.3125 4.234375 
Q 43.84375 -1.421875 31.78125 -1.421875 
Q 19.734375 -1.421875 13.25 4.234375 
Q 6.78125 9.90625 6.78125 20.515625 
Q 6.78125 27.484375 10.78125 32.3125 
Q 14.796875 37.15625 21.921875 38.8125 
z
M 18.3125 54.390625 
Q 18.3125 48.734375 21.84375 45.5625 
Q 25.390625 42.390625 31.78125 42.390625 
Q 38.140625 42.390625 41.71875 45.5625 
Q 45.3125 48.734375 45.3125 54.390625 
Q 45.3125 60.0625 41.71875 63.234375 
Q 38.140625 66.40625 31.78125 66.40625 
Q 25.390625 66.40625 21.84375 63.234375 
Q 18.3125 60.0625 18.3125 54.390625 
z
" id="DejaVuSans-56"/>
       </defs>
       <use xlink:href="#DejaVuSans-56"/>
       <use x="63.623047" xlink:href="#DejaVuSans-48"/>
       <use x="127.246094" xlink:href="#DejaVuSans-48"/>
      </g>
     </g>
    </g>
    <g id="ytick_6">
     <g id="line2d_21"/>
    </g>
    <g id="ytick_7">
     <g id="line2d_22"/>
    </g>
    <g id="ytick_8">
     <g id="line2d_23"/>
    </g>
    <g id="ytick_9">
     <g id="line2d_24"/>
    </g>
    <g id="ytick_10">
     <g id="line2d_25"/>
    </g>
    <g id="ytick_11">
     <g id="line2d_26"/>
    </g>
    <g id="ytick_12">
     <g id="line2d_27"/>
    </g>
    <g id="ytick_13">
     <g id="line2d_28"/>
    </g>
    <g id="ytick_14">
     <g id="line2d_29"/>
    </g>
    <g id="ytick_15">
     <g id="line2d_30"/>
    </g>
    <g id="ytick_16">
     <g id="line2d_31"/>
    </g>
    <g id="ytick_17">
     <g id="line2d_32"/>
    </g>
    <g id="ytick_18">
     <g id="line2d_33"/>
    </g>
    <g id="ytick_19">
     <g id="line2d_34"/>
    </g>
    <g id="text_16">
     <!-- Latency (ms) -->
     <g transform="translate(131.892812 345.062088)rotate(-90)scale(0.1 -0.1)">
      <defs>
       <path d="M 9.8125 72.90625 
L 19.671875 72.90625 
L 19.671875 8.296875 
L 55.171875 8.296875 
L 55.171875 0 
L 9.8125 0 
z
" id="DejaVuSans-76"/>
       <path d="M 34.28125 27.484375 
Q 23.390625 27.484375 19.1875 25 
Q 14.984375 22.515625 14.984375 16.5 
Q 14.984375 11.71875 18.140625 8.90625 
Q 21.296875 6.109375 26.703125 6.109375 
Q 34.1875 6.109375 38.703125 11.40625 
Q 43.21875 16.703125 43.21875 25.484375 
L 43.21875 27.484375 
z
M 52.203125 31.203125 
L 52.203125 0 
L 43.21875 0 
L 43.21875 8.296875 
Q 40.140625 3.328125 35.546875 0.953125 
Q 30.953125 -1.421875 24.3125 -1.421875 
Q 15.921875 -1.421875 10.953125 3.296875 
Q 6 8.015625 6 15.921875 
Q 6 25.140625 12.171875 29.828125 
Q 18.359375 34.515625 30.609375 34.515625 
L 43.21875 34.515625 
L 43.21875 35.40625 
Q 43.21875 41.609375 39.140625 45 
Q 35.0625 48.390625 27.6875 48.390625 
Q 23 48.390625 18.546875 47.265625 
Q 14.109375 46.140625 10.015625 43.890625 
L 10.015625 52.203125 
Q 14.9375 54.109375 19.578125 55.046875 
Q 24.21875 56 28.609375 56 
Q 40.484375 56 46.34375 49.84375 
Q 52.203125 43.703125 52.203125 31.203125 
z
" id="DejaVuSans-97"/>
       <path d="M 18.3125 70.21875 
L 18.3125 54.6875 
L 36.8125 54.6875 
L 36.8125 47.703125 
L 18.3125 47.703125 
L 18.3125 18.015625 
Q 18.3125 11.328125 20.140625 9.421875 
Q 21.96875 7.515625 27.59375 7.515625 
L 36.8125 7.515625 
L 36.8125 0 
L 27.59375 0 
Q 17.1875 0 13.234375 3.875 
Q 9.28125 7.765625 9.28125 18.015625 
L 9.28125 47.703125 
L 2.6875 47.703125 
L 2.6875 54.6875 
L 9.28125 54.6875 
L 9.28125 70.21875 
z
" id="DejaVuSans-116"/>
       <path d="M 56.203125 29.59375 
L 56.203125 25.203125 
L 14.890625 25.203125 
Q 15.484375 15.921875 20.484375 11.0625 
Q 25.484375 6.203125 34.421875 6.203125 
Q 39.59375 6.203125 44.453125 7.46875 
Q 49.3125 8.734375 54.109375 11.28125 
L 54.109375 2.78125 
Q 49.265625 0.734375 44.1875 -0.34375 
Q 39.109375 -1.421875 33.890625 -1.421875 
Q 20.796875 -1.421875 13.15625 6.1875 
Q 5.515625 13.8125 5.515625 26.8125 
Q 5.515625 40.234375 12.765625 48.109375 
Q 20.015625 56 32.328125 56 
Q 43.359375 56 49.78125 48.890625 
Q 56.203125 41.796875 56.203125 29.59375 
z
M 47.21875 32.234375 
Q 47.125 39.59375 43.09375 43.984375 
Q 39.0625 48.390625 32.421875 48.390625 
Q 24.90625 48.390625 20.390625 44.140625 
Q 15.875 39.890625 15.1875 32.171875 
z
" id="DejaVuSans-101"/>
       <path d="M 48.78125 52.59375 
L 48.78125 44.1875 
Q 44.96875 46.296875 41.140625 47.34375 
Q 37.3125 48.390625 33.40625 48.390625 
Q 24.65625 48.390625 19.8125 42.84375 
Q 14.984375 37.3125 14.984375 27.296875 
Q 14.984375 17.28125 19.8125 11.734375 
Q 24.65625 6.203125 33.40625 6.203125 
Q 37.3125 6.203125 41.140625 7.25 
Q 44.96875 8.296875 48.78125 10.40625 
L 48.78125 2.09375 
Q 45.015625 0.34375 40.984375 -0.53125 
Q 36.96875 -1.421875 32.421875 -1.421875 
Q 20.0625 -1.421875 12.78125 6.34375 
Q 5.515625 14.109375 5.515625 27.296875 
Q 5.515625 40.671875 12.859375 48.328125 
Q 20.21875 56 33.015625 56 
Q 37.15625 56 41.109375 55.140625 
Q 45.0625 54.296875 48.78125 52.59375 
z
" id="DejaVuSans-99"/>
       <path d="M 32.171875 -5.078125 
Q 28.375 -14.84375 24.75 -17.8125 
Q 21.140625 -20.796875 15.09375 -20.796875 
L 7.90625 -20.796875 
L 7.90625 -13.28125 
L 13.1875 -13.28125 
Q 16.890625 -13.28125 18.9375 -11.515625 
Q 21 -9.765625 23.484375 -3.21875 
L 25.09375 0.875 
L 2.984375 54.6875 
L 12.5 54.6875 
L 29.59375 11.921875 
L 46.6875 54.6875 
L 56.203125 54.6875 
z
" id="DejaVuSans-121"/>
       <path id="DejaVuSans-32"/>
       <path d="M 31 75.875 
Q 24.46875 64.65625 21.28125 53.65625 
Q 18.109375 42.671875 18.109375 31.390625 
Q 18.109375 20.125 21.3125 9.0625 
Q 24.515625 -2 31 -13.1875 
L 23.1875 -13.1875 
Q 15.875 -1.703125 12.234375 9.375 
Q 8.59375 20.453125 8.59375 31.390625 
Q 8.59375 42.28125 12.203125 53.3125 
Q 15.828125 64.359375 23.1875 75.875 
z
" id="DejaVuSans-40"/>
       <path d="M 52 44.1875 
Q 55.375 50.25 60.0625 53.125 
Q 64.75 56 71.09375 56 
Q 79.640625 56 84.28125 50.015625 
Q 88.921875 44.046875 88.921875 33.015625 
L 88.921875 0 
L 79.890625 0 
L 79.890625 32.71875 
Q 79.890625 40.578125 77.09375 44.375 
Q 74.3125 48.1875 68.609375 48.1875 
Q 61.625 48.1875 57.5625 43.546875 
Q 53.515625 38.921875 53.515625 30.90625 
L 53.515625 0 
L 44.484375 0 
L 44.484375 32.71875 
Q 44.484375 40.625 41.703125 44.40625 
Q 38.921875 48.1875 33.109375 48.1875 
Q 26.21875 48.1875 22.15625 43.53125 
Q 18.109375 38.875 18.109375 30.90625 
L 18.109375 0 
L 9.078125 0 
L 9.078125 54.6875 
L 18.109375 54.6875 
L 18.109375 46.1875 
Q 21.1875 51.21875 25.484375 53.609375 
Q 29.78125 56 35.6875 56 
Q 41.65625 56 45.828125 52.96875 
Q 50 49.953125 52 44.1875 
z
" id="DejaVuSans-109"/>
       <path d="M 44.28125 53.078125 
L 44.28125 44.578125 
Q 40.484375 46.53125 36.375 47.5 
Q 32.28125 48.484375 27.875 48.484375 
Q 21.1875 48.484375 17.84375 46.4375 
Q 14.5 44.390625 14.5 40.28125 
Q 14.5 37.15625 16.890625 35.375 
Q 19.28125 33.59375 26.515625 31.984375 
L 29.59375 31.296875 
Q 39.15625 29.25 43.1875 25.515625 
Q 47.21875 21.78125 47.21875 15.09375 
Q 47.21875 7.46875 41.1875 3.015625 
Q 35.15625 -1.421875 24.609375 -1.421875 
Q 20.21875 -1.421875 15.453125 -0.5625 
Q 10.6875 0.296875 5.421875 2 
L 5.421875 11.28125 
Q 10.40625 8.6875 15.234375 7.390625 
Q 20.0625 6.109375 24.8125 6.109375 
Q 31.15625 6.109375 34.5625 8.28125 
Q 37.984375 10.453125 37.984375 14.40625 
Q 37.984375 18.0625 35.515625 20.015625 
Q 33.0625 21.96875 24.703125 23.78125 
L 21.578125 24.515625 
Q 13.234375 26.265625 9.515625 29.90625 
Q 5.8125 33.546875 5.8125 39.890625 
Q 5.8125 47.609375 11.28125 51.796875 
Q 16.75 56 26.8125 56 
Q 31.78125 56 36.171875 55.265625 
Q 40.578125 54.546875 44.28125 53.078125 
z
" id="DejaVuSans-115"/>
       <path d="M 8.015625 75.875 
L 15.828125 75.875 
Q 23.140625 64.359375 26.78125 53.3125 
Q 30.421875 42.28125 30.421875 31.390625 
Q 30.421875 20.453125 26.78125 9.375 
Q 23.140625 -1.703125 15.828125 -13.1875 
L 8.015625 -13.1875 
Q 14.5 -2 17.703125 9.0625 
Q 20.90625 20.125 20.90625 31.390625 
Q 20.90625 42.671875 17.703125 53.65625 
Q 14.5 64.65625 8.015625 75.875 
z
" id="DejaVuSans-41"/>
      </defs>
      <use xlink:href="#DejaVuSans-76"/>
      <use x="55.712891" xlink:href="#DejaVuSans-97"/>
      <use x="116.992188" xlink:href="#DejaVuSans-116"/>
      <use x="156.201172" xlink:href="#DejaVuSans-101"/>
      <use x="217.724609" xlink:href="#DejaVuSans-110"/>
      <use x="281.103516" xlink:href="#DejaVuSans-99"/>
      <use x="336.083984" xlink:href="#DejaVuSans-121"/>
      <use x="395.263672" xlink:href="#DejaVuSans-32"/>
      <use x="427.050781" xlink:href="#DejaVuSans-40"/>
      <use x="466.064453" xlink:href="#DejaVuSans-109"/>
      <use x="563.476562" xlink:href="#DejaVuSans-115"/>
      <use x="615.576172" xlink:href="#DejaVuSans-41"/>
     </g>
    </g>
   </g>
   <g id="line2d_35">
    <path clip-path="url(#p2232ba4743)" d="M 218.10018 523.891401 
L 227.43102 523.891401 
L 227.43102 492.574921 
L 218.10018 492.574921 
L 218.10018 523.891401 
" style="fill:none;stroke:#1b9e77;stroke-linecap:round;"/>
   </g>
   <g id="line2d_36">
    <path clip-path="url(#p2232ba4743)" d="M 222.7656 523.891401 
L 222.7656 545.778282 
" style="fill:none;stroke:#1b9e77;stroke-linecap:round;"/>
   </g>
   <g id="line2d_37">
    <path clip-path="url(#p2232ba4743)" d="M 222.7656 492.574921 
L 222.7656 445.816793 
" style="fill:none;stroke:#1b9e77;stroke-linecap:round;"/>
   </g>
   <g id="line2d_38">
    <path clip-path="url(#p2232ba4743)" d="M 220.43289 545.778282 
L 225.09831 545.778282 
" style="fill:none;stroke:#1b9e77;stroke-linecap:round;"/>
   </g>
   <g id="line2d_39">
    <path clip-path="url(#p2232ba4743)" d="M 220.43289 445.816793 
L 225.09831 445.816793 
" style="fill:none;stroke:#1b9e77;stroke-linecap:round;"/>
   </g>
   <g id="line2d_40">
    <defs>
     <path d="M -3 0 
L 3 0 
M 0 3 
L 0 -3 
" id="m1cf2f0b571" style="stroke:#1b9e77;"/>
    </defs>
    <g clip-path="url(#p2232ba4743)">
     <use style="fill:#0000ff;stroke:#1b9e77;" x="222.7656" xlink:href="#m1cf2f0b571" y="444.287916"/>
     <use style="fill:#0000ff;stroke:#1b9e77;" x="222.7656" xlink:href="#m1cf2f0b571" y="445.307167"/>
     <use style="fill:#0000ff;stroke:#1b9e77;" x="222.7656" xlink:href="#m1cf2f0b571" y="443.268666"/>
     <use style="fill:#0000ff;stroke:#1b9e77;" x="222.7656" xlink:href="#m1cf2f0b571" y="441.73979"/>
     <use style="fill:#0000ff;stroke:#1b9e77;" x="222.7656" xlink:href="#m1cf2f0b571" y="438.682037"/>
     <use style="fill:#0000ff;stroke:#1b9e77;" x="222.7656" xlink:href="#m1cf2f0b571" y="440.210913"/>
     <use style="fill:#0000ff;stroke:#1b9e77;" x="222.7656" xlink:href="#m1cf2f0b571" y="442.75904"/>
     <use style="fill:#0000ff;stroke:#1b9e77;" x="222.7656" xlink:href="#m1cf2f0b571" y="440.210913"/>
     <use style="fill:#0000ff;stroke:#1b9e77;" x="222.7656" xlink:href="#m1cf2f0b571" y="436.643536"/>
    </g>
   </g>
   <g id="line2d_41">
    <path clip-path="url(#p2232ba4743)" d="M 280.30578 479.069849 
L 289.63662 479.069849 
L 289.63662 311.403098 
L 280.30578 311.403098 
L 280.30578 479.069849 
" style="fill:none;stroke:#d95f02;stroke-linecap:round;"/>
   </g>
   <g id="line2d_42">
    <path clip-path="url(#p2232ba4743)" d="M 284.9712 479.069849 
L 284.9712 545.514806 
" style="fill:none;stroke:#d95f02;stroke-linecap:round;"/>
   </g>
   <g id="line2d_43">
    <path clip-path="url(#p2232ba4743)" d="M 284.9712 311.403098 
L 284.9712 206.802488 
" style="fill:none;stroke:#d95f02;stroke-linecap:round;"/>
   </g>
   <g id="line2d_44">
    <path clip-path="url(#p2232ba4743)" d="M 282.63849 545.514806 
L 287.30391 545.514806 
" style="fill:none;stroke:#d95f02;stroke-linecap:round;"/>
   </g>
   <g id="line2d_45">
    <path clip-path="url(#p2232ba4743)" d="M 282.63849 206.802488 
L 287.30391 206.802488 
" style="fill:none;stroke:#d95f02;stroke-linecap:round;"/>
   </g>
   <g id="line2d_46"/>
   <g id="line2d_47">
    <path clip-path="url(#p2232ba4743)" d="M 347.1768 550.4472 
L 347.1768 74.2176 
" style="fill:none;stroke:#000000;stroke-dasharray:0.5,0.825;stroke-dashoffset:0;stroke-width:0.5;"/>
   </g>
   <g id="line2d_48">
    <path clip-path="url(#p2232ba4743)" d="M 404.71698 524.885171 
L 414.04782 524.885171 
L 414.04782 493.084547 
L 404.71698 493.084547 
L 404.71698 524.885171 
" style="fill:none;stroke:#1b9e77;stroke-linecap:round;"/>
   </g>
   <g id="line2d_49">
    <path clip-path="url(#p2232ba4743)" d="M 409.3824 524.885171 
L 409.3824 545.698271 
" style="fill:none;stroke:#1b9e77;stroke-linecap:round;"/>
   </g>
   <g id="line2d_50">
    <path clip-path="url(#p2232ba4743)" d="M 409.3824 493.084547 
L 409.3824 446.326418 
" style="fill:none;stroke:#1b9e77;stroke-linecap:round;"/>
   </g>
   <g id="line2d_51">
    <path clip-path="url(#p2232ba4743)" d="M 407.04969 545.698271 
L 411.71511 545.698271 
" style="fill:none;stroke:#1b9e77;stroke-linecap:round;"/>
   </g>
   <g id="line2d_52">
    <path clip-path="url(#p2232ba4743)" d="M 407.04969 446.326418 
L 411.71511 446.326418 
" style="fill:none;stroke:#1b9e77;stroke-linecap:round;"/>
   </g>
   <g id="line2d_53">
    <g clip-path="url(#p2232ba4743)">
     <use style="fill:#0000ff;stroke:#1b9e77;" x="409.3824" xlink:href="#m1cf2f0b571" y="444.287916"/>
     <use style="fill:#0000ff;stroke:#1b9e77;" x="409.3824" xlink:href="#m1cf2f0b571" y="445.307167"/>
     <use style="fill:#0000ff;stroke:#1b9e77;" x="409.3824" xlink:href="#m1cf2f0b571" y="439.191663"/>
     <use style="fill:#0000ff;stroke:#1b9e77;" x="409.3824" xlink:href="#m1cf2f0b571" y="443.778291"/>
     <use style="fill:#0000ff;stroke:#1b9e77;" x="409.3824" xlink:href="#m1cf2f0b571" y="441.73979"/>
     <use style="fill:#0000ff;stroke:#1b9e77;" x="409.3824" xlink:href="#m1cf2f0b571" y="442.249415"/>
     <use style="fill:#0000ff;stroke:#1b9e77;" x="409.3824" xlink:href="#m1cf2f0b571" y="444.287916"/>
     <use style="fill:#0000ff;stroke:#1b9e77;" x="409.3824" xlink:href="#m1cf2f0b571" y="441.73979"/>
     <use style="fill:#0000ff;stroke:#1b9e77;" x="409.3824" xlink:href="#m1cf2f0b571" y="441.230164"/>
     <use style="fill:#0000ff;stroke:#1b9e77;" x="409.3824" xlink:href="#m1cf2f0b571" y="437.153161"/>
    </g>
   </g>
   <g id="line2d_54">
    <path clip-path="url(#p2232ba4743)" d="M 466.92258 480.471319 
L 476.25342 480.471319 
L 476.25342 310.383847 
L 466.92258 310.383847 
L 466.92258 480.471319 
" style="fill:none;stroke:#d95f02;stroke-linecap:round;"/>
   </g>
   <g id="line2d_55">
    <path clip-path="url(#p2232ba4743)" d="M 471.588 480.471319 
L 471.588 545.407785 
" style="fill:none;stroke:#d95f02;stroke-linecap:round;"/>
   </g>
   <g id="line2d_56">
    <path clip-path="url(#p2232ba4743)" d="M 471.588 310.383847 
L 471.588 207.821739 
" style="fill:none;stroke:#d95f02;stroke-linecap:round;"/>
   </g>
   <g id="line2d_57">
    <path clip-path="url(#p2232ba4743)" d="M 469.25529 545.407785 
L 473.92071 545.407785 
" style="fill:none;stroke:#d95f02;stroke-linecap:round;"/>
   </g>
   <g id="line2d_58">
    <path clip-path="url(#p2232ba4743)" d="M 469.25529 207.821739 
L 473.92071 207.821739 
" style="fill:none;stroke:#d95f02;stroke-linecap:round;"/>
   </g>
   <g id="line2d_59"/>
   <g id="line2d_60">
    <path clip-path="url(#p2232ba4743)" d="M 533.7936 550.4472 
L 533.7936 74.2176 
" style="fill:none;stroke:#000000;stroke-dasharray:0.5,0.825;stroke-dashoffset:0;stroke-width:0.5;"/>
   </g>
   <g id="line2d_61">
    <path clip-path="url(#p2232ba4743)" d="M 591.33378 441.73979 
L 600.66462 441.73979 
L 600.66462 410.397829 
L 591.33378 410.397829 
L 591.33378 441.73979 
" style="fill:none;stroke:#1b9e77;stroke-linecap:round;"/>
   </g>
   <g id="line2d_62">
    <path clip-path="url(#p2232ba4743)" d="M 595.9992 441.73979 
L 595.9992 463.653681 
" style="fill:none;stroke:#1b9e77;stroke-linecap:round;"/>
   </g>
   <g id="line2d_63">
    <path clip-path="url(#p2232ba4743)" d="M 595.9992 410.397829 
L 595.9992 363.767106 
" style="fill:none;stroke:#1b9e77;stroke-linecap:round;"/>
   </g>
   <g id="line2d_64">
    <path clip-path="url(#p2232ba4743)" d="M 593.66649 463.653681 
L 598.33191 463.653681 
" style="fill:none;stroke:#1b9e77;stroke-linecap:round;"/>
   </g>
   <g id="line2d_65">
    <path clip-path="url(#p2232ba4743)" d="M 593.66649 363.767106 
L 598.33191 363.767106 
" style="fill:none;stroke:#1b9e77;stroke-linecap:round;"/>
   </g>
   <g id="line2d_66">
    <g clip-path="url(#p2232ba4743)">
     <use style="fill:#0000ff;stroke:#1b9e77;" x="595.9992" xlink:href="#m1cf2f0b571" y="361.218979"/>
     <use style="fill:#0000ff;stroke:#1b9e77;" x="595.9992" xlink:href="#m1cf2f0b571" y="362.747855"/>
     <use style="fill:#0000ff;stroke:#1b9e77;" x="595.9992" xlink:href="#m1cf2f0b571" y="362.747855"/>
     <use style="fill:#0000ff;stroke:#1b9e77;" x="595.9992" xlink:href="#m1cf2f0b571" y="360.709354"/>
     <use style="fill:#0000ff;stroke:#1b9e77;" x="595.9992" xlink:href="#m1cf2f0b571" y="357.141976"/>
     <use style="fill:#0000ff;stroke:#1b9e77;" x="595.9992" xlink:href="#m1cf2f0b571" y="360.709354"/>
     <use style="fill:#0000ff;stroke:#1b9e77;" x="595.9992" xlink:href="#m1cf2f0b571" y="363.257481"/>
     <use style="fill:#0000ff;stroke:#1b9e77;" x="595.9992" xlink:href="#m1cf2f0b571" y="360.199728"/>
     <use style="fill:#0000ff;stroke:#1b9e77;" x="595.9992" xlink:href="#m1cf2f0b571" y="362.23823"/>
     <use style="fill:#0000ff;stroke:#1b9e77;" x="595.9992" xlink:href="#m1cf2f0b571" y="354.084224"/>
    </g>
   </g>
   <g id="line2d_67">
    <path clip-path="url(#p2232ba4743)" d="M 653.53938 399.440883 
L 662.87022 399.440883 
L 662.87022 230.245256 
L 653.53938 230.245256 
L 653.53938 399.440883 
" style="fill:none;stroke:#d95f02;stroke-linecap:round;"/>
   </g>
   <g id="line2d_68">
    <path clip-path="url(#p2232ba4743)" d="M 658.2048 399.440883 
L 658.2048 464.163306 
" style="fill:none;stroke:#d95f02;stroke-linecap:round;"/>
   </g>
   <g id="line2d_69">
    <path clip-path="url(#p2232ba4743)" d="M 658.2048 230.245256 
L 658.2048 108.954415 
" style="fill:none;stroke:#d95f02;stroke-linecap:round;"/>
   </g>
   <g id="line2d_70">
    <path clip-path="url(#p2232ba4743)" d="M 655.87209 464.163306 
L 660.53751 464.163306 
" style="fill:none;stroke:#d95f02;stroke-linecap:round;"/>
   </g>
   <g id="line2d_71">
    <path clip-path="url(#p2232ba4743)" d="M 655.87209 108.954415 
L 660.53751 108.954415 
" style="fill:none;stroke:#d95f02;stroke-linecap:round;"/>
   </g>
   <g id="line2d_72"/>
   <g id="line2d_73">
    <path clip-path="url(#p2232ba4743)" d="M 720.4104 550.4472 
L 720.4104 74.2176 
" style="fill:none;stroke:#000000;stroke-dasharray:0.5,0.825;stroke-dashoffset:0;stroke-width:0.5;"/>
   </g>
   <g id="line2d_74">
    <path clip-path="url(#p2232ba4743)" d="M 777.95058 391.286877 
L 787.28142 391.286877 
L 787.28142 360.83676 
L 777.95058 360.83676 
L 777.95058 391.286877 
" style="fill:none;stroke:#1b9e77;stroke-linecap:round;"/>
   </g>
   <g id="line2d_75">
    <path clip-path="url(#p2232ba4743)" d="M 782.616 391.286877 
L 782.616 413.200768 
" style="fill:none;stroke:#1b9e77;stroke-linecap:round;"/>
   </g>
   <g id="line2d_76">
    <path clip-path="url(#p2232ba4743)" d="M 782.616 360.83676 
L 782.616 316.371946 
" style="fill:none;stroke:#1b9e77;stroke-linecap:round;"/>
   </g>
   <g id="line2d_77">
    <path clip-path="url(#p2232ba4743)" d="M 780.28329 413.200768 
L 784.94871 413.200768 
" style="fill:none;stroke:#1b9e77;stroke-linecap:round;"/>
   </g>
   <g id="line2d_78">
    <path clip-path="url(#p2232ba4743)" d="M 780.28329 316.371946 
L 784.94871 316.371946 
" style="fill:none;stroke:#1b9e77;stroke-linecap:round;"/>
   </g>
   <g id="line2d_79">
    <g clip-path="url(#p2232ba4743)">
     <use style="fill:#0000ff;stroke:#1b9e77;" x="782.616" xlink:href="#m1cf2f0b571" y="314.843069"/>
     <use style="fill:#0000ff;stroke:#1b9e77;" x="782.616" xlink:href="#m1cf2f0b571" y="310.256441"/>
     <use style="fill:#0000ff;stroke:#1b9e77;" x="782.616" xlink:href="#m1cf2f0b571" y="310.256441"/>
     <use style="fill:#0000ff;stroke:#1b9e77;" x="782.616" xlink:href="#m1cf2f0b571" y="307.708314"/>
     <use style="fill:#0000ff;stroke:#1b9e77;" x="782.616" xlink:href="#m1cf2f0b571" y="305.669813"/>
     <use style="fill:#0000ff;stroke:#1b9e77;" x="782.616" xlink:href="#m1cf2f0b571" y="307.708314"/>
     <use style="fill:#0000ff;stroke:#1b9e77;" x="782.616" xlink:href="#m1cf2f0b571" y="313.314193"/>
     <use style="fill:#0000ff;stroke:#1b9e77;" x="782.616" xlink:href="#m1cf2f0b571" y="310.256441"/>
     <use style="fill:#0000ff;stroke:#1b9e77;" x="782.616" xlink:href="#m1cf2f0b571" y="312.294943"/>
     <use style="fill:#0000ff;stroke:#1b9e77;" x="782.616" xlink:href="#m1cf2f0b571" y="309.23719"/>
     <use style="fill:#0000ff;stroke:#1b9e77;" x="782.616" xlink:href="#m1cf2f0b571" y="307.708314"/>
    </g>
   </g>
   <g id="line2d_80">
    <path clip-path="url(#p2232ba4743)" d="M 840.15618 346.949469 
L 849.48702 346.949469 
L 849.48702 180.939 
L 840.15618 180.939 
L 840.15618 346.949469 
" style="fill:none;stroke:#d95f02;stroke-linecap:round;"/>
   </g>
   <g id="line2d_81">
    <path clip-path="url(#p2232ba4743)" d="M 844.8216 346.949469 
L 844.8216 413.200768 
" style="fill:none;stroke:#d95f02;stroke-linecap:round;"/>
   </g>
   <g id="line2d_82">
    <path clip-path="url(#p2232ba4743)" d="M 844.8216 180.939 
L 844.8216 78.886518 
" style="fill:none;stroke:#d95f02;stroke-linecap:round;"/>
   </g>
   <g id="line2d_83">
    <path clip-path="url(#p2232ba4743)" d="M 842.48889 413.200768 
L 847.15431 413.200768 
" style="fill:none;stroke:#d95f02;stroke-linecap:round;"/>
   </g>
   <g id="line2d_84">
    <path clip-path="url(#p2232ba4743)" d="M 842.48889 78.886518 
L 847.15431 78.886518 
" style="fill:none;stroke:#d95f02;stroke-linecap:round;"/>
   </g>
   <g id="line2d_85"/>
   <g id="line2d_86">
    <path clip-path="url(#p2232ba4743)" d="M 907.0272 550.4472 
L 907.0272 74.2176 
" style="fill:none;stroke:#000000;stroke-dasharray:0.5,0.825;stroke-dashoffset:0;stroke-width:0.5;"/>
   </g>
   <g id="line2d_87">
    <path clip-path="url(#p2232ba4743)" d="M 964.56738 469.730081 
L 973.89822 469.730081 
L 973.89822 438.656599 
L 964.56738 438.656599 
L 964.56738 469.730081 
" style="fill:none;stroke:#1b9e77;stroke-linecap:round;"/>
   </g>
   <g id="line2d_88">
    <path clip-path="url(#p2232ba4743)" d="M 969.2328 469.730081 
L 969.2328 516.32051 
" style="fill:none;stroke:#1b9e77;stroke-linecap:round;"/>
   </g>
   <g id="line2d_89">
    <path clip-path="url(#p2232ba4743)" d="M 969.2328 438.656599 
L 969.2328 392.072176 
" style="fill:none;stroke:#1b9e77;stroke-linecap:round;"/>
   </g>
   <g id="line2d_90">
    <path clip-path="url(#p2232ba4743)" d="M 966.90009 516.32051 
L 971.56551 516.32051 
" style="fill:none;stroke:#1b9e77;stroke-linecap:round;"/>
   </g>
   <g id="line2d_91">
    <path clip-path="url(#p2232ba4743)" d="M 966.90009 392.072176 
L 971.56551 392.072176 
" style="fill:none;stroke:#1b9e77;stroke-linecap:round;"/>
   </g>
   <g id="line2d_92">
    <g clip-path="url(#p2232ba4743)">
     <use style="fill:#0000ff;stroke:#1b9e77;" x="969.2328" xlink:href="#m1cf2f0b571" y="523.680584"/>
     <use style="fill:#0000ff;stroke:#1b9e77;" x="969.2328" xlink:href="#m1cf2f0b571" y="518.733794"/>
    </g>
   </g>
   <g id="line2d_93">
    <path clip-path="url(#p2232ba4743)" d="M 1026.77298 427.724019 
L 1036.10382 427.724019 
L 1036.10382 257.30516 
L 1026.77298 257.30516 
L 1026.77298 427.724019 
" style="fill:none;stroke:#d95f02;stroke-linecap:round;"/>
   </g>
   <g id="line2d_94">
    <path clip-path="url(#p2232ba4743)" d="M 1031.4384 427.724019 
L 1031.4384 523.713932 
" style="fill:none;stroke:#d95f02;stroke-linecap:round;"/>
   </g>
   <g id="line2d_95">
    <path clip-path="url(#p2232ba4743)" d="M 1031.4384 257.30516 
L 1031.4384 163.470999 
" style="fill:none;stroke:#d95f02;stroke-linecap:round;"/>
   </g>
   <g id="line2d_96">
    <path clip-path="url(#p2232ba4743)" d="M 1029.10569 523.713932 
L 1033.77111 523.713932 
" style="fill:none;stroke:#d95f02;stroke-linecap:round;"/>
   </g>
   <g id="line2d_97">
    <path clip-path="url(#p2232ba4743)" d="M 1029.10569 163.470999 
L 1033.77111 163.470999 
" style="fill:none;stroke:#d95f02;stroke-linecap:round;"/>
   </g>
   <g id="line2d_98"/>
   <g id="line2d_99">
    <path clip-path="url(#p2232ba4743)" d="M 1093.644 550.4472 
L 1093.644 74.2176 
" style="fill:none;stroke:#000000;stroke-dasharray:0.5,0.825;stroke-dashoffset:0;stroke-width:0.5;"/>
   </g>
   <g id="line2d_100">
    <path clip-path="url(#p2232ba4743)" d="M 218.10018 517.291752 
L 227.43102 517.291752 
" style="fill:none;stroke:#ff7f0e;stroke-linecap:round;"/>
   </g>
   <g id="line2d_101">
    <path clip-path="url(#p2232ba4743)" d="M 280.30578 379.055868 
L 289.63662 379.055868 
" style="fill:none;stroke:#ff7f0e;stroke-linecap:round;"/>
   </g>
   <g id="line2d_102">
    <path clip-path="url(#p2232ba4743)" d="M 404.71698 517.291752 
L 414.04782 517.291752 
" style="fill:none;stroke:#ff7f0e;stroke-linecap:round;"/>
   </g>
   <g id="line2d_103">
    <path clip-path="url(#p2232ba4743)" d="M 466.92258 378.801055 
L 476.25342 378.801055 
" style="fill:none;stroke:#ff7f0e;stroke-linecap:round;"/>
   </g>
   <g id="line2d_104">
    <path clip-path="url(#p2232ba4743)" d="M 591.33378 434.605034 
L 600.66462 434.605034 
" style="fill:none;stroke:#ff7f0e;stroke-linecap:round;"/>
   </g>
   <g id="line2d_105">
    <path clip-path="url(#p2232ba4743)" d="M 653.53938 296.241743 
L 662.87022 296.241743 
" style="fill:none;stroke:#ff7f0e;stroke-linecap:round;"/>
   </g>
   <g id="line2d_106">
    <path clip-path="url(#p2232ba4743)" d="M 777.95058 384.661747 
L 787.28142 384.661747 
" style="fill:none;stroke:#ff7f0e;stroke-linecap:round;"/>
   </g>
   <g id="line2d_107">
    <path clip-path="url(#p2232ba4743)" d="M 840.15618 246.043643 
L 849.48702 246.043643 
" style="fill:none;stroke:#ff7f0e;stroke-linecap:round;"/>
   </g>
   <g id="line2d_108">
    <path clip-path="url(#p2232ba4743)" d="M 964.56738 464.244676 
L 973.89822 464.244676 
" style="fill:none;stroke:#ff7f0e;stroke-linecap:round;"/>
   </g>
   <g id="line2d_109">
    <path clip-path="url(#p2232ba4743)" d="M 1026.77298 323.564069 
L 1036.10382 323.564069 
" style="fill:none;stroke:#ff7f0e;stroke-linecap:round;"/>
   </g>
   <g id="patch_3">
    <path d="M 160.56 550.4472 
L 160.56 74.2176 
" style="fill:none;"/>
   </g>
   <g id="patch_4">
    <path d="M 1093.644 550.4472 
L 1093.644 74.2176 
" style="fill:none;"/>
   </g>
   <g id="patch_5">
    <path d="M 160.56 550.4472 
L 1093.644 550.4472 
" style="fill:none;"/>
   </g>
   <g id="patch_6">
    <path d="M 160.56 74.2176 
L 1093.644 74.2176 
" style="fill:none;"/>
   </g>
   <g id="text_17">
    <!-- Ping (ms) ICMP - - 10.103.108.9 -->
    <g transform="translate(176.19965 69.455304)scale(0.1 -0.1)">
     <defs>
      <path d="M 19.671875 64.796875 
L 19.671875 37.40625 
L 32.078125 37.40625 
Q 38.96875 37.40625 42.71875 40.96875 
Q 46.484375 44.53125 46.484375 51.125 
Q 46.484375 57.671875 42.71875 61.234375 
Q 38.96875 64.796875 32.078125 64.796875 
z
M 9.8125 72.90625 
L 32.078125 72.90625 
Q 44.34375 72.90625 50.609375 67.359375 
Q 56.890625 61.8125 56.890625 51.125 
Q 56.890625 40.328125 50.609375 34.8125 
Q 44.34375 29.296875 32.078125 29.296875 
L 19.671875 29.296875 
L 19.671875 0 
L 9.8125 0 
z
" id="DejaVuSans-80"/>
      <path d="M 9.421875 54.6875 
L 18.40625 54.6875 
L 18.40625 0 
L 9.421875 0 
z
M 9.421875 75.984375 
L 18.40625 75.984375 
L 18.40625 64.59375 
L 9.421875 64.59375 
z
" id="DejaVuSans-105"/>
      <path d="M 45.40625 27.984375 
Q 45.40625 37.75 41.375 43.109375 
Q 37.359375 48.484375 30.078125 48.484375 
Q 22.859375 48.484375 18.828125 43.109375 
Q 14.796875 37.75 14.796875 27.984375 
Q 14.796875 18.265625 18.828125 12.890625 
Q 22.859375 7.515625 30.078125 7.515625 
Q 37.359375 7.515625 41.375 12.890625 
Q 45.40625 18.265625 45.40625 27.984375 
z
M 54.390625 6.78125 
Q 54.390625 -7.171875 48.1875 -13.984375 
Q 42 -20.796875 29.203125 -20.796875 
Q 24.46875 -20.796875 20.265625 -20.09375 
Q 16.0625 -19.390625 12.109375 -17.921875 
L 12.109375 -9.1875 
Q 16.0625 -11.328125 19.921875 -12.34375 
Q 23.78125 -13.375 27.78125 -13.375 
Q 36.625 -13.375 41.015625 -8.765625 
Q 45.40625 -4.15625 45.40625 5.171875 
L 45.40625 9.625 
Q 42.625 4.78125 38.28125 2.390625 
Q 33.9375 0 27.875 0 
Q 17.828125 0 11.671875 7.65625 
Q 5.515625 15.328125 5.515625 27.984375 
Q 5.515625 40.671875 11.671875 48.328125 
Q 17.828125 56 27.875 56 
Q 33.9375 56 38.28125 53.609375 
Q 42.625 51.21875 45.40625 46.390625 
L 45.40625 54.6875 
L 54.390625 54.6875 
z
" id="DejaVuSans-103"/>
      <path d="M 9.8125 72.90625 
L 19.671875 72.90625 
L 19.671875 0 
L 9.8125 0 
z
" id="DejaVuSans-73"/>
      <path d="M 64.40625 67.28125 
L 64.40625 56.890625 
Q 59.421875 61.53125 53.78125 63.8125 
Q 48.140625 66.109375 41.796875 66.109375 
Q 29.296875 66.109375 22.65625 58.46875 
Q 16.015625 50.828125 16.015625 36.375 
Q 16.015625 21.96875 22.65625 14.328125 
Q 29.296875 6.6875 41.796875 6.6875 
Q 48.140625 6.6875 53.78125 8.984375 
Q 59.421875 11.28125 64.40625 15.921875 
L 64.40625 5.609375 
Q 59.234375 2.09375 53.4375 0.328125 
Q 47.65625 -1.421875 41.21875 -1.421875 
Q 24.65625 -1.421875 15.125 8.703125 
Q 5.609375 18.84375 5.609375 36.375 
Q 5.609375 53.953125 15.125 64.078125 
Q 24.65625 74.21875 41.21875 74.21875 
Q 47.75 74.21875 53.53125 72.484375 
Q 59.328125 70.75 64.40625 67.28125 
z
" id="DejaVuSans-67"/>
      <path d="M 9.8125 72.90625 
L 24.515625 72.90625 
L 43.109375 23.296875 
L 61.8125 72.90625 
L 76.515625 72.90625 
L 76.515625 0 
L 66.890625 0 
L 66.890625 64.015625 
L 48.09375 14.015625 
L 38.1875 14.015625 
L 19.390625 64.015625 
L 19.390625 0 
L 9.8125 0 
z
" id="DejaVuSans-77"/>
      <path d="M 12.40625 8.296875 
L 28.515625 8.296875 
L 28.515625 63.921875 
L 10.984375 60.40625 
L 10.984375 69.390625 
L 28.421875 72.90625 
L 38.28125 72.90625 
L 38.28125 8.296875 
L 54.390625 8.296875 
L 54.390625 0 
L 12.40625 0 
z
" id="DejaVuSans-49"/>
      <path d="M 10.6875 12.40625 
L 21 12.40625 
L 21 0 
L 10.6875 0 
z
" id="DejaVuSans-46"/>
      <path d="M 10.984375 1.515625 
L 10.984375 10.5 
Q 14.703125 8.734375 18.5 7.8125 
Q 22.3125 6.890625 25.984375 6.890625 
Q 35.75 6.890625 40.890625 13.453125 
Q 46.046875 20.015625 46.78125 33.40625 
Q 43.953125 29.203125 39.59375 26.953125 
Q 35.25 24.703125 29.984375 24.703125 
Q 19.046875 24.703125 12.671875 31.3125 
Q 6.296875 37.9375 6.296875 49.421875 
Q 6.296875 60.640625 12.9375 67.421875 
Q 19.578125 74.21875 30.609375 74.21875 
Q 43.265625 74.21875 49.921875 64.515625 
Q 56.59375 54.828125 56.59375 36.375 
Q 56.59375 19.140625 48.40625 8.859375 
Q 40.234375 -1.421875 26.421875 -1.421875 
Q 22.703125 -1.421875 18.890625 -0.6875 
Q 15.09375 0.046875 10.984375 1.515625 
z
M 30.609375 32.421875 
Q 37.25 32.421875 41.125 36.953125 
Q 45.015625 41.5 45.015625 49.421875 
Q 45.015625 57.28125 41.125 61.84375 
Q 37.25 66.40625 30.609375 66.40625 
Q 23.96875 66.40625 20.09375 61.84375 
Q 16.21875 57.28125 16.21875 49.421875 
Q 16.21875 41.5 20.09375 36.953125 
Q 23.96875 32.421875 30.609375 32.421875 
z
" id="DejaVuSans-57"/>
     </defs>
     <use xlink:href="#DejaVuSans-80"/>
     <use x="58.052734" xlink:href="#DejaVuSans-105"/>
     <use x="85.835938" xlink:href="#DejaVuSans-110"/>
     <use x="149.214844" xlink:href="#DejaVuSans-103"/>
     <use x="212.691406" xlink:href="#DejaVuSans-32"/>
     <use x="244.478516" xlink:href="#DejaVuSans-40"/>
     <use x="283.492188" xlink:href="#DejaVuSans-109"/>
     <use x="380.904297" xlink:href="#DejaVuSans-115"/>
     <use x="433.003906" xlink:href="#DejaVuSans-41"/>
     <use x="472.017578" xlink:href="#DejaVuSans-32"/>
     <use x="503.804688" xlink:href="#DejaVuSans-73"/>
     <use x="533.296875" xlink:href="#DejaVuSans-67"/>
     <use x="603.121094" xlink:href="#DejaVuSans-77"/>
     <use x="689.400391" xlink:href="#DejaVuSans-80"/>
     <use x="749.703125" xlink:href="#DejaVuSans-32"/>
     <use x="781.490234" xlink:href="#DejaVuSans-45"/>
     <use x="817.574219" xlink:href="#DejaVuSans-45"/>
     <use x="853.658203" xlink:href="#DejaVuSans-32"/>
     <use x="885.445312" xlink:href="#DejaVuSans-49"/>
     <use x="949.068359" xlink:href="#DejaVuSans-48"/>
     <use x="1012.691406" xlink:href="#DejaVuSans-46"/>
     <use x="1044.478516" xlink:href="#DejaVuSans-49"/>
     <use x="1108.101562" xlink:href="#DejaVuSans-48"/>
     <use x="1171.724609" xlink:href="#DejaVuSans-51"/>
     <use x="1235.347656" xlink:href="#DejaVuSans-46"/>
     <use x="1267.134766" xlink:href="#DejaVuSans-49"/>
     <use x="1330.757812" xlink:href="#DejaVuSans-48"/>
     <use x="1394.380859" xlink:href="#DejaVuSans-56"/>
     <use x="1458.003906" xlink:href="#DejaVuSans-46"/>
     <use x="1489.791016" xlink:href="#DejaVuSans-57"/>
    </g>
   </g>
   <g id="text_18">
    <!-- Ping (ms) ICMP - - 10.103.108.13 -->
    <g transform="translate(359.6352 69.455304)scale(0.1 -0.1)">
     <use xlink:href="#DejaVuSans-80"/>
     <use x="58.052734" xlink:href="#DejaVuSans-105"/>
     <use x="85.835938" xlink:href="#DejaVuSans-110"/>
     <use x="149.214844" xlink:href="#DejaVuSans-103"/>
     <use x="212.691406" xlink:href="#DejaVuSans-32"/>
     <use x="244.478516" xlink:href="#DejaVuSans-40"/>
     <use x="283.492188" xlink:href="#DejaVuSans-109"/>
     <use x="380.904297" xlink:href="#DejaVuSans-115"/>
     <use x="433.003906" xlink:href="#DejaVuSans-41"/>
     <use x="472.017578" xlink:href="#DejaVuSans-32"/>
     <use x="503.804688" xlink:href="#DejaVuSans-73"/>
     <use x="533.296875" xlink:href="#DejaVuSans-67"/>
     <use x="603.121094" xlink:href="#DejaVuSans-77"/>
     <use x="689.400391" xlink:href="#DejaVuSans-80"/>
     <use x="749.703125" xlink:href="#DejaVuSans-32"/>
     <use x="781.490234" xlink:href="#DejaVuSans-45"/>
     <use x="817.574219" xlink:href="#DejaVuSans-45"/>
     <use x="853.658203" xlink:href="#DejaVuSans-32"/>
     <use x="885.445312" xlink:href="#DejaVuSans-49"/>
     <use x="949.068359" xlink:href="#DejaVuSans-48"/>
     <use x="1012.691406" xlink:href="#DejaVuSans-46"/>
     <use x="1044.478516" xlink:href="#DejaVuSans-49"/>
     <use x="1108.101562" xlink:href="#DejaVuSans-48"/>
     <use x="1171.724609" xlink:href="#DejaVuSans-51"/>
     <use x="1235.347656" xlink:href="#DejaVuSans-46"/>
     <use x="1267.134766" xlink:href="#DejaVuSans-49"/>
     <use x="1330.757812" xlink:href="#DejaVuSans-48"/>
     <use x="1394.380859" xlink:href="#DejaVuSans-56"/>
     <use x="1458.003906" xlink:href="#DejaVuSans-46"/>
     <use x="1489.791016" xlink:href="#DejaVuSans-49"/>
     <use x="1553.414062" xlink:href="#DejaVuSans-51"/>
    </g>
   </g>
   <g id="text_19">
    <!-- Ping (ms) ICMP - - netperf-eu.bufferbloat.net -->
    <g transform="translate(517.759813 69.455304)scale(0.1 -0.1)">
     <defs>
      <path d="M 18.109375 8.203125 
L 18.109375 -20.796875 
L 9.078125 -20.796875 
L 9.078125 54.6875 
L 18.109375 54.6875 
L 18.109375 46.390625 
Q 20.953125 51.265625 25.265625 53.625 
Q 29.59375 56 35.59375 56 
Q 45.5625 56 51.78125 48.09375 
Q 58.015625 40.1875 58.015625 27.296875 
Q 58.015625 14.40625 51.78125 6.484375 
Q 45.5625 -1.421875 35.59375 -1.421875 
Q 29.59375 -1.421875 25.265625 0.953125 
Q 20.953125 3.328125 18.109375 8.203125 
z
M 48.6875 27.296875 
Q 48.6875 37.203125 44.609375 42.84375 
Q 40.53125 48.484375 33.40625 48.484375 
Q 26.265625 48.484375 22.1875 42.84375 
Q 18.109375 37.203125 18.109375 27.296875 
Q 18.109375 17.390625 22.1875 11.75 
Q 26.265625 6.109375 33.40625 6.109375 
Q 40.53125 6.109375 44.609375 11.75 
Q 48.6875 17.390625 48.6875 27.296875 
z
" id="DejaVuSans-112"/>
      <path d="M 41.109375 46.296875 
Q 39.59375 47.171875 37.8125 47.578125 
Q 36.03125 48 33.890625 48 
Q 26.265625 48 22.1875 43.046875 
Q 18.109375 38.09375 18.109375 28.8125 
L 18.109375 0 
L 9.078125 0 
L 9.078125 54.6875 
L 18.109375 54.6875 
L 18.109375 46.1875 
Q 20.953125 51.171875 25.484375 53.578125 
Q 30.03125 56 36.53125 56 
Q 37.453125 56 38.578125 55.875 
Q 39.703125 55.765625 41.0625 55.515625 
z
" id="DejaVuSans-114"/>
      <path d="M 37.109375 75.984375 
L 37.109375 68.5 
L 28.515625 68.5 
Q 23.6875 68.5 21.796875 66.546875 
Q 19.921875 64.59375 19.921875 59.515625 
L 19.921875 54.6875 
L 34.71875 54.6875 
L 34.71875 47.703125 
L 19.921875 47.703125 
L 19.921875 0 
L 10.890625 0 
L 10.890625 47.703125 
L 2.296875 47.703125 
L 2.296875 54.6875 
L 10.890625 54.6875 
L 10.890625 58.5 
Q 10.890625 67.625 15.140625 71.796875 
Q 19.390625 75.984375 28.609375 75.984375 
z
" id="DejaVuSans-102"/>
      <path d="M 8.5 21.578125 
L 8.5 54.6875 
L 17.484375 54.6875 
L 17.484375 21.921875 
Q 17.484375 14.15625 20.5 10.265625 
Q 23.53125 6.390625 29.59375 6.390625 
Q 36.859375 6.390625 41.078125 11.03125 
Q 45.3125 15.671875 45.3125 23.6875 
L 45.3125 54.6875 
L 54.296875 54.6875 
L 54.296875 0 
L 45.3125 0 
L 45.3125 8.40625 
Q 42.046875 3.421875 37.71875 1 
Q 33.40625 -1.421875 27.6875 -1.421875 
Q 18.265625 -1.421875 13.375 4.4375 
Q 8.5 10.296875 8.5 21.578125 
z
M 31.109375 56 
z
" id="DejaVuSans-117"/>
      <path d="M 48.6875 27.296875 
Q 48.6875 37.203125 44.609375 42.84375 
Q 40.53125 48.484375 33.40625 48.484375 
Q 26.265625 48.484375 22.1875 42.84375 
Q 18.109375 37.203125 18.109375 27.296875 
Q 18.109375 17.390625 22.1875 11.75 
Q 26.265625 6.109375 33.40625 6.109375 
Q 40.53125 6.109375 44.609375 11.75 
Q 48.6875 17.390625 48.6875 27.296875 
z
M 18.109375 46.390625 
Q 20.953125 51.265625 25.265625 53.625 
Q 29.59375 56 35.59375 56 
Q 45.5625 56 51.78125 48.09375 
Q 58.015625 40.1875 58.015625 27.296875 
Q 58.015625 14.40625 51.78125 6.484375 
Q 45.5625 -1.421875 35.59375 -1.421875 
Q 29.59375 -1.421875 25.265625 0.953125 
Q 20.953125 3.328125 18.109375 8.203125 
L 18.109375 0 
L 9.078125 0 
L 9.078125 75.984375 
L 18.109375 75.984375 
z
" id="DejaVuSans-98"/>
      <path d="M 9.421875 75.984375 
L 18.40625 75.984375 
L 18.40625 0 
L 9.421875 0 
z
" id="DejaVuSans-108"/>
      <path d="M 30.609375 48.390625 
Q 23.390625 48.390625 19.1875 42.75 
Q 14.984375 37.109375 14.984375 27.296875 
Q 14.984375 17.484375 19.15625 11.84375 
Q 23.34375 6.203125 30.609375 6.203125 
Q 37.796875 6.203125 41.984375 11.859375 
Q 46.1875 17.53125 46.1875 27.296875 
Q 46.1875 37.015625 41.984375 42.703125 
Q 37.796875 48.390625 30.609375 48.390625 
z
M 30.609375 56 
Q 42.328125 56 49.015625 48.375 
Q 55.71875 40.765625 55.71875 27.296875 
Q 55.71875 13.875 49.015625 6.21875 
Q 42.328125 -1.421875 30.609375 -1.421875 
Q 18.84375 -1.421875 12.171875 6.21875 
Q 5.515625 13.875 5.515625 27.296875 
Q 5.515625 40.765625 12.171875 48.375 
Q 18.84375 56 30.609375 56 
z
" id="DejaVuSans-111"/>
     </defs>
     <use xlink:href="#DejaVuSans-80"/>
     <use x="58.052734" xlink:href="#DejaVuSans-105"/>
     <use x="85.835938" xlink:href="#DejaVuSans-110"/>
     <use x="149.214844" xlink:href="#DejaVuSans-103"/>
     <use x="212.691406" xlink:href="#DejaVuSans-32"/>
     <use x="244.478516" xlink:href="#DejaVuSans-40"/>
     <use x="283.492188" xlink:href="#DejaVuSans-109"/>
     <use x="380.904297" xlink:href="#DejaVuSans-115"/>
     <use x="433.003906" xlink:href="#DejaVuSans-41"/>
     <use x="472.017578" xlink:href="#DejaVuSans-32"/>
     <use x="503.804688" xlink:href="#DejaVuSans-73"/>
     <use x="533.296875" xlink:href="#DejaVuSans-67"/>
     <use x="603.121094" xlink:href="#DejaVuSans-77"/>
     <use x="689.400391" xlink:href="#DejaVuSans-80"/>
     <use x="749.703125" xlink:href="#DejaVuSans-32"/>
     <use x="781.490234" xlink:href="#DejaVuSans-45"/>
     <use x="817.574219" xlink:href="#DejaVuSans-45"/>
     <use x="853.658203" xlink:href="#DejaVuSans-32"/>
     <use x="885.445312" xlink:href="#DejaVuSans-110"/>
     <use x="948.824219" xlink:href="#DejaVuSans-101"/>
     <use x="1010.347656" xlink:href="#DejaVuSans-116"/>
     <use x="1049.556641" xlink:href="#DejaVuSans-112"/>
     <use x="1113.033203" xlink:href="#DejaVuSans-101"/>
     <use x="1174.556641" xlink:href="#DejaVuSans-114"/>
     <use x="1215.669922" xlink:href="#DejaVuSans-102"/>
     <use x="1245.375" xlink:href="#DejaVuSans-45"/>
     <use x="1281.458984" xlink:href="#DejaVuSans-101"/>
     <use x="1342.982422" xlink:href="#DejaVuSans-117"/>
     <use x="1406.361328" xlink:href="#DejaVuSans-46"/>
     <use x="1438.148438" xlink:href="#DejaVuSans-98"/>
     <use x="1501.625" xlink:href="#DejaVuSans-117"/>
     <use x="1565.003906" xlink:href="#DejaVuSans-102"/>
     <use x="1600.208984" xlink:href="#DejaVuSans-102"/>
     <use x="1635.414062" xlink:href="#DejaVuSans-101"/>
     <use x="1696.9375" xlink:href="#DejaVuSans-114"/>
     <use x="1738.050781" xlink:href="#DejaVuSans-98"/>
     <use x="1801.527344" xlink:href="#DejaVuSans-108"/>
     <use x="1829.310547" xlink:href="#DejaVuSans-111"/>
     <use x="1890.492188" xlink:href="#DejaVuSans-97"/>
     <use x="1951.771484" xlink:href="#DejaVuSans-116"/>
     <use x="1990.980469" xlink:href="#DejaVuSans-46"/>
     <use x="2022.767578" xlink:href="#DejaVuSans-110"/>
     <use x="2086.146484" xlink:href="#DejaVuSans-101"/>
     <use x="2147.669922" xlink:href="#DejaVuSans-116"/>
    </g>
   </g>
   <g id="text_20">
    <!-- Ping (ms) ICMP - - flent-fremont.bufferbloat.net -->
    <g transform="translate(697.425831 69.455304)scale(0.1 -0.1)">
     <use xlink:href="#DejaVuSans-80"/>
     <use x="58.052734" xlink:href="#DejaVuSans-105"/>
     <use x="85.835938" xlink:href="#DejaVuSans-110"/>
     <use x="149.214844" xlink:href="#DejaVuSans-103"/>
     <use x="212.691406" xlink:href="#DejaVuSans-32"/>
     <use x="244.478516" xlink:href="#DejaVuSans-40"/>
     <use x="283.492188" xlink:href="#DejaVuSans-109"/>
     <use x="380.904297" xlink:href="#DejaVuSans-115"/>
     <use x="433.003906" xlink:href="#DejaVuSans-41"/>
     <use x="472.017578" xlink:href="#DejaVuSans-32"/>
     <use x="503.804688" xlink:href="#DejaVuSans-73"/>
     <use x="533.296875" xlink:href="#DejaVuSans-67"/>
     <use x="603.121094" xlink:href="#DejaVuSans-77"/>
     <use x="689.400391" xlink:href="#DejaVuSans-80"/>
     <use x="749.703125" xlink:href="#DejaVuSans-32"/>
     <use x="781.490234" xlink:href="#DejaVuSans-45"/>
     <use x="817.574219" xlink:href="#DejaVuSans-45"/>
     <use x="853.658203" xlink:href="#DejaVuSans-32"/>
     <use x="885.445312" xlink:href="#DejaVuSans-102"/>
     <use x="920.650391" xlink:href="#DejaVuSans-108"/>
     <use x="948.433594" xlink:href="#DejaVuSans-101"/>
     <use x="1009.957031" xlink:href="#DejaVuSans-110"/>
     <use x="1073.335938" xlink:href="#DejaVuSans-116"/>
     <use x="1112.544922" xlink:href="#DejaVuSans-45"/>
     <use x="1148.628906" xlink:href="#DejaVuSans-102"/>
     <use x="1183.833984" xlink:href="#DejaVuSans-114"/>
     <use x="1222.697266" xlink:href="#DejaVuSans-101"/>
     <use x="1284.220703" xlink:href="#DejaVuSans-109"/>
     <use x="1381.632812" xlink:href="#DejaVuSans-111"/>
     <use x="1442.814453" xlink:href="#DejaVuSans-110"/>
     <use x="1506.193359" xlink:href="#DejaVuSans-116"/>
     <use x="1545.402344" xlink:href="#DejaVuSans-46"/>
     <use x="1577.189453" xlink:href="#DejaVuSans-98"/>
     <use x="1640.666016" xlink:href="#DejaVuSans-117"/>
     <use x="1704.044922" xlink:href="#DejaVuSans-102"/>
     <use x="1739.25" xlink:href="#DejaVuSans-102"/>
     <use x="1774.455078" xlink:href="#DejaVuSans-101"/>
     <use x="1835.978516" xlink:href="#DejaVuSans-114"/>
     <use x="1877.091797" xlink:href="#DejaVuSans-98"/>
     <use x="1940.568359" xlink:href="#DejaVuSans-108"/>
     <use x="1968.351562" xlink:href="#DejaVuSans-111"/>
     <use x="2029.533203" xlink:href="#DejaVuSans-97"/>
     <use x="2090.8125" xlink:href="#DejaVuSans-116"/>
     <use x="2130.021484" xlink:href="#DejaVuSans-46"/>
     <use x="2161.808594" xlink:href="#DejaVuSans-110"/>
     <use x="2225.1875" xlink:href="#DejaVuSans-101"/>
     <use x="2286.710938" xlink:href="#DejaVuSans-116"/>
    </g>
   </g>
   <g id="text_21">
    <!-- Avg -->
    <g transform="translate(991.075444 69.455304)scale(0.1 -0.1)">
     <defs>
      <path d="M 34.1875 63.1875 
L 20.796875 26.90625 
L 47.609375 26.90625 
z
M 28.609375 72.90625 
L 39.796875 72.90625 
L 67.578125 0 
L 57.328125 0 
L 50.6875 18.703125 
L 17.828125 18.703125 
L 11.1875 0 
L 0.78125 0 
z
" id="DejaVuSans-65"/>
     </defs>
     <use xlink:href="#DejaVuSans-65"/>
     <use x="62.533203" xlink:href="#DejaVuSans-118"/>
     <use x="121.712891" xlink:href="#DejaVuSans-103"/>
    </g>
   </g>
   <g id="legend_1">
    <g id="text_22">
     <!-- Ping (ms) -->
     <g transform="translate(1119.774628 85.148037)scale(0.1 -0.1)">
      <use xlink:href="#DejaVuSans-80"/>
      <use x="58.052734" xlink:href="#DejaVuSans-105"/>
      <use x="85.835938" xlink:href="#DejaVuSans-110"/>
      <use x="149.214844" xlink:href="#DejaVuSans-103"/>
      <use x="212.691406" xlink:href="#DejaVuSans-32"/>
      <use x="244.478516" xlink:href="#DejaVuSans-40"/>
      <use x="283.492188" xlink:href="#DejaVuSans-109"/>
      <use x="380.904297" xlink:href="#DejaVuSans-115"/>
      <use x="433.003906" xlink:href="#DejaVuSans-41"/>
     </g>
    </g>
    <g id="line2d_110">
     <path d="M 1115.63768 94.806723 
L 1132.29768 94.806723 
" style="fill:none;stroke:#1b9e77;stroke-linecap:round;"/>
    </g>
    <g id="line2d_111"/>
    <g id="text_23">
     <!-- BBR-n+ -->
     <g transform="translate(1138.96168 97.722223)scale(0.0833 -0.0833)">
      <use xlink:href="#DejaVuSans-66"/>
      <use x="68.603516" xlink:href="#DejaVuSans-66"/>
      <use x="137.207031" xlink:href="#DejaVuSans-82"/>
      <use x="202.689453" xlink:href="#DejaVuSans-45"/>
      <use x="238.773438" xlink:href="#DejaVuSans-110"/>
      <use x="302.152344" xlink:href="#DejaVuSans-43"/>
     </g>
    </g>
    <g id="line2d_112">
     <path d="M 1115.63768 107.033602 
L 1132.29768 107.033602 
" style="fill:none;stroke:#d95f02;stroke-linecap:round;"/>
    </g>
    <g id="line2d_113"/>
    <g id="text_24">
     <!-- BBR-v3 -->
     <g transform="translate(1138.96168 109.949102)scale(0.0833 -0.0833)">
      <use xlink:href="#DejaVuSans-66"/>
      <use x="68.603516" xlink:href="#DejaVuSans-66"/>
      <use x="137.207031" xlink:href="#DejaVuSans-82"/>
      <use x="202.689453" xlink:href="#DejaVuSans-45"/>
      <use x="236.148438" xlink:href="#DejaVuSans-118"/>
      <use x="295.328125" xlink:href="#DejaVuSans-51"/>
     </g>
    </g>
   </g>
  </g>
  <g id="text_25">
   <!-- RTT Fair Realtime Response Under Load -->
   <g transform="translate(503.325 15.791812)scale(0.14 -0.14)">
    <defs>
     <path d="M -0.296875 72.90625 
L 61.375 72.90625 
L 61.375 64.59375 
L 35.5 64.59375 
L 35.5 0 
L 25.59375 0 
L 25.59375 64.59375 
L -0.296875 64.59375 
z
" id="DejaVuSans-84"/>
     <path d="M 9.8125 72.90625 
L 51.703125 72.90625 
L 51.703125 64.59375 
L 19.671875 64.59375 
L 19.671875 43.109375 
L 48.578125 43.109375 
L 48.578125 34.8125 
L 19.671875 34.8125 
L 19.671875 0 
L 9.8125 0 
z
" id="DejaVuSans-70"/>
     <path d="M 8.6875 72.90625 
L 18.609375 72.90625 
L 18.609375 28.609375 
Q 18.609375 16.890625 22.84375 11.734375 
Q 27.09375 6.59375 36.625 6.59375 
Q 46.09375 6.59375 50.34375 11.734375 
Q 54.59375 16.890625 54.59375 28.609375 
L 54.59375 72.90625 
L 64.5 72.90625 
L 64.5 27.390625 
Q 64.5 13.140625 57.4375 5.859375 
Q 50.390625 -1.421875 36.625 -1.421875 
Q 22.796875 -1.421875 15.734375 5.859375 
Q 8.6875 13.140625 8.6875 27.390625 
z
" id="DejaVuSans-85"/>
     <path d="M 45.40625 46.390625 
L 45.40625 75.984375 
L 54.390625 75.984375 
L 54.390625 0 
L 45.40625 0 
L 45.40625 8.203125 
Q 42.578125 3.328125 38.25 0.953125 
Q 33.9375 -1.421875 27.875 -1.421875 
Q 17.96875 -1.421875 11.734375 6.484375 
Q 5.515625 14.40625 5.515625 27.296875 
Q 5.515625 40.1875 11.734375 48.09375 
Q 17.96875 56 27.875 56 
Q 33.9375 56 38.25 53.625 
Q 42.578125 51.265625 45.40625 46.390625 
z
M 14.796875 27.296875 
Q 14.796875 17.390625 18.875 11.75 
Q 22.953125 6.109375 30.078125 6.109375 
Q 37.203125 6.109375 41.296875 11.75 
Q 45.40625 17.390625 45.40625 27.296875 
Q 45.40625 37.203125 41.296875 42.84375 
Q 37.203125 48.484375 30.078125 48.484375 
Q 22.953125 48.484375 18.875 42.84375 
Q 14.796875 37.203125 14.796875 27.296875 
z
" id="DejaVuSans-100"/>
    </defs>
    <use xlink:href="#DejaVuSans-82"/>
    <use x="62.232422" xlink:href="#DejaVuSans-84"/>
    <use x="121.566406" xlink:href="#DejaVuSans-84"/>
    <use x="182.650391" xlink:href="#DejaVuSans-32"/>
    <use x="214.4375" xlink:href="#DejaVuSans-70"/>
    <use x="262.832031" xlink:href="#DejaVuSans-97"/>
    <use x="324.111328" xlink:href="#DejaVuSans-105"/>
    <use x="351.894531" xlink:href="#DejaVuSans-114"/>
    <use x="393.007812" xlink:href="#DejaVuSans-32"/>
    <use x="424.794922" xlink:href="#DejaVuSans-82"/>
    <use x="489.777344" xlink:href="#DejaVuSans-101"/>
    <use x="551.300781" xlink:href="#DejaVuSans-97"/>
    <use x="612.580078" xlink:href="#DejaVuSans-108"/>
    <use x="640.363281" xlink:href="#DejaVuSans-116"/>
    <use x="679.572266" xlink:href="#DejaVuSans-105"/>
    <use x="707.355469" xlink:href="#DejaVuSans-109"/>
    <use x="804.767578" xlink:href="#DejaVuSans-101"/>
    <use x="866.291016" xlink:href="#DejaVuSans-32"/>
    <use x="898.078125" xlink:href="#DejaVuSans-82"/>
    <use x="963.060547" xlink:href="#DejaVuSans-101"/>
    <use x="1024.583984" xlink:href="#DejaVuSans-115"/>
    <use x="1076.683594" xlink:href="#DejaVuSans-112"/>
    <use x="1140.160156" xlink:href="#DejaVuSans-111"/>
    <use x="1201.341797" xlink:href="#DejaVuSans-110"/>
    <use x="1264.720703" xlink:href="#DejaVuSans-115"/>
    <use x="1316.820312" xlink:href="#DejaVuSans-101"/>
    <use x="1378.34375" xlink:href="#DejaVuSans-32"/>
    <use x="1410.130859" xlink:href="#DejaVuSans-85"/>
    <use x="1483.324219" xlink:href="#DejaVuSans-110"/>
    <use x="1546.703125" xlink:href="#DejaVuSans-100"/>
    <use x="1610.179688" xlink:href="#DejaVuSans-101"/>
    <use x="1671.703125" xlink:href="#DejaVuSans-114"/>
    <use x="1712.816406" xlink:href="#DejaVuSans-32"/>
    <use x="1744.603516" xlink:href="#DejaVuSans-76"/>
    <use x="1798.566406" xlink:href="#DejaVuSans-111"/>
    <use x="1859.748047" xlink:href="#DejaVuSans-97"/>
    <use x="1921.027344" xlink:href="#DejaVuSans-100"/>
   </g>
   <!-- Ping box plot -->
   <g transform="translate(596.835156 31.46875)scale(0.14 -0.14)">
    <defs>
     <path d="M 54.890625 54.6875 
L 35.109375 28.078125 
L 55.90625 0 
L 45.3125 0 
L 29.390625 21.484375 
L 13.484375 0 
L 2.875 0 
L 24.125 28.609375 
L 4.6875 54.6875 
L 15.28125 54.6875 
L 29.78125 35.203125 
L 44.28125 54.6875 
z
" id="DejaVuSans-120"/>
    </defs>
    <use xlink:href="#DejaVuSans-80"/>
    <use x="58.052734" xlink:href="#DejaVuSans-105"/>
    <use x="85.835938" xlink:href="#DejaVuSans-110"/>
    <use x="149.214844" xlink:href="#DejaVuSans-103"/>
    <use x="212.691406" xlink:href="#DejaVuSans-32"/>
    <use x="244.478516" xlink:href="#DejaVuSans-98"/>
    <use x="307.955078" xlink:href="#DejaVuSans-111"/>
    <use x="366.011719" xlink:href="#DejaVuSans-120"/>
    <use x="425.191406" xlink:href="#DejaVuSans-32"/>
    <use x="456.978516" xlink:href="#DejaVuSans-112"/>
    <use x="520.455078" xlink:href="#DejaVuSans-108"/>
    <use x="548.238281" xlink:href="#DejaVuSans-111"/>
    <use x="609.419922" xlink:href="#DejaVuSans-116"/>
   </g>
  </g>
 </g>
 <defs>
  <clipPath id="p2232ba4743">
   <rect height="476.2296" width="933.084" x="160.56" y="74.2176"/>
  </clipPath>
 </defs>
</svg>
